<svg width="60" height="60" viewBox="0 0 60 60" fill="none" xmlns="http://www.w3.org/2000/svg">
<g clip-path="url(#clip0_145_359)">
<g clip-path="url(#clip1_145_359)">
<g clip-path="url(#clip2_145_359)">
<path d="M30 45.75C38.9746 45.75 46.25 38.4746 46.25 29.5C46.25 20.5254 38.9746 13.25 30 13.25C21.0254 13.25 13.75 20.5254 13.75 29.5C13.75 38.4746 21.0254 45.75 30 45.75Z" fill="#E6F2F7"/>
<path d="M30 46.002C38.8537 46.002 46.0312 38.8244 46.0312 29.9707C46.0312 21.1168 38.8537 13.9395 30 13.9395C21.1461 13.9395 13.9688 21.1168 13.9688 29.9707C13.9688 38.8244 21.1461 46.002 30 46.002Z" stroke="#000815" stroke-width="1.25" stroke-miterlimit="10" stroke-linecap="round" stroke-linejoin="round"/>
<path d="M33.5625 33.9063C33.2812 34.375 32.9062 34.6562 32.3437 34.9375C31.7812 35.2188 31.2187 35.3125 30.4687 35.4062V36.5312C30.4687 36.625 30.4688 36.8125 30.375 36.8125C30.2812 36.9062 30.1875 36.9063 30 36.9063C29.9062 36.9063 29.7188 36.9062 29.7188 36.8125C29.625 36.7188 29.625 36.625 29.625 36.4375V35.3125C28.5 35.2188 27.4687 35.0313 26.5312 34.5625C26.4375 34.4688 26.3437 34.4688 26.25 34.2812C26.1562 34.1875 26.1562 34 26.1562 33.9063C26.1562 33.7188 26.25 33.625 26.3437 33.4375C26.4375 33.3438 26.625 33.25 26.8125 33.25C26.9062 33.25 27 33.25 27.0938 33.3438C27.9375 33.7188 28.7813 33.9063 29.7188 33.9063V30.4375C29.0625 30.25 28.4062 30.0625 27.9375 29.875C27.4687 29.6875 27.0937 29.4063 26.7187 28.9375C26.4375 28.5625 26.25 28.0938 26.25 27.4375C26.25 26.875 26.3438 26.4063 26.625 25.9375C26.9062 25.4688 27.2812 25.0937 27.75 24.8125C28.2187 24.5312 28.875 24.3438 29.625 24.25V23.2188C29.625 23.125 29.625 22.9375 29.7188 22.8438C29.8125 22.75 29.9062 22.75 30 22.75C30.0937 22.75 30.2812 22.75 30.375 22.8438C30.4688 22.9375 30.4687 23.0312 30.4687 23.2188V24.25C31.5 24.25 32.3437 24.4375 33.0937 24.7188C33.375 24.8125 33.5625 25 33.5625 25.2812C33.5625 25.4687 33.4687 25.5625 33.375 25.75C33.2812 25.8437 33.0937 25.9375 32.9062 25.9375C32.8125 25.9375 32.7187 25.9375 32.625 25.8438C31.9687 25.5625 31.2188 25.4688 30.375 25.4688V29.125C31.125 29.3125 31.6875 29.5 32.1562 29.6875C32.625 29.875 33 30.1563 33.375 30.625C33.6562 31 33.8437 31.5625 33.8437 32.2188C33.9375 32.9688 33.8437 33.4375 33.5625 33.9063ZM28.0312 28.5625C28.4062 28.8437 28.875 29.0313 29.5312 29.2188V25.8438C28.9687 25.9375 28.4062 26.125 28.0312 26.4063C27.6562 26.6875 27.4687 27.0625 27.4687 27.5313C27.5625 28 27.6562 28.2812 28.0312 28.5625ZM32.625 32.4062C32.625 32.0312 32.4375 31.75 32.0625 31.4688C31.6875 31.2812 31.125 31 30.4687 30.8125V34.0938C31.875 34 32.625 33.4375 32.625 32.4062Z" fill="#000815"/>
<path d="M35.5312 48.8105H48.2812V44.5918L58.5937 51.5293L48.2812 58.5605V54.248H32.1562" stroke="#000815" stroke-width="1.25" stroke-miterlimit="10" stroke-linecap="round" stroke-linejoin="round"/>
<path d="M24.4688 10.1875H11.7188V14.4063L1.40625 7.46875L11.7188 0.4375V4.75H27.8437" stroke="#000815" stroke-width="1.25" stroke-miterlimit="10" stroke-linecap="round" stroke-linejoin="round"/>
</g>
</g>
</g>
<defs>
<clipPath id="clip0_145_359">
<rect width="60" height="60" fill="white"/>
</clipPath>
<clipPath id="clip1_145_359">
<rect width="60" height="60" fill="white"/>
</clipPath>
<clipPath id="clip2_145_359">
<rect width="60" height="60" fill="white"/>
</clipPath>
</defs>
</svg>
