<svg width="60" height="59" viewBox="0 0 60 59" fill="none" xmlns="http://www.w3.org/2000/svg">
<g clip-path="url(#clip0_145_341)">
<g clip-path="url(#clip1_145_341)">
<path d="M36.69 6.23815C40.2025 7.86714 42.4746 12.0558 45.3784 15.6386C48.3123 19.2092 51.8779 22.1738 54.0057 26.5258C56.1156 30.9199 56.7877 36.7013 54.3384 40.52C51.9013 44.3686 46.3125 46.2667 41.2569 46.9729C36.2313 47.6667 31.6785 47.1932 26.8232 46.4951C21.998 45.7847 16.8644 44.9217 12.3755 42.0206C7.929 39.137 6.10049 34.3798 7.02075 30.0018C7.941 25.6239 11.5798 21.6376 15.514 17.8393C19.406 14.0235 21.5597 10.2558 25.0282 7.90041C28.4665 5.55738 33.1773 4.60917 36.69 6.23815Z" fill="#E6F2F7"/>
<path d="M19.2969 16.58V12.1878C19.2969 6.33145 24.0795 1.45117 30.0335 1.45117H31.888C37.7443 1.45117 42.6246 6.23384 42.6246 12.1878V16.58" stroke="black" stroke-width="1.01672" stroke-miterlimit="10"/>
<path d="M50.0426 43.8115C50.0426 44.6899 49.945 45.5684 49.8474 46.4468H11.9765C11.8789 45.5684 11.7812 44.6899 11.7812 43.8115C11.7812 35.027 17.6376 31.5132 25.6412 30.5371L30.9119 36.1006L36.1826 30.5371C44.1863 31.5132 50.0426 35.027 50.0426 43.8115Z" stroke="black" stroke-width="1.01672" stroke-miterlimit="10" stroke-linecap="round" stroke-linejoin="round"/>
<path d="M36.182 30.5365L30.9113 36.1L25.6406 30.5365L27.1047 25.6562C28.276 26.3395 29.5448 26.6323 30.9113 26.6323C32.2778 26.6323 33.6443 26.2419 34.7179 25.6562L36.182 30.5365Z" stroke="black" stroke-width="1.01672" stroke-miterlimit="10"/>
<path d="M38.8277 13.9456V18.7283C38.8277 23.1206 35.3139 26.6344 30.9217 26.6344C26.5294 26.6344 23.0156 23.1206 23.0156 18.7283V13.9456C25.5534 13.848 27.8959 12.6768 29.4576 10.8223C30.9217 12.6768 34.045 13.9456 37.6565 13.9456H38.8277Z" stroke="black" stroke-width="1.01672" stroke-miterlimit="10"/>
<path d="M44.8738 19.7035H42.5312V12.9688H44.8738C45.6546 12.9688 46.2403 13.5544 46.2403 14.3352V18.2394C46.3379 19.0203 45.6546 19.7035 44.8738 19.7035Z" stroke="black" stroke-width="1.01672" stroke-miterlimit="10"/>
<path d="M16.9539 19.7035H19.2965V12.9688H16.9539C16.1731 12.9688 15.5874 13.5544 15.5874 14.3352V18.2394C15.4898 19.0203 16.1731 19.7035 16.9539 19.7035Z" stroke="black" stroke-width="1.01672" stroke-miterlimit="10"/>
<path d="M42.5343 19.7031V20.2888C42.5343 21.6552 41.8511 22.8265 40.875 23.5097" stroke="black" stroke-width="1.01672" stroke-miterlimit="10" stroke-linecap="round" stroke-linejoin="round"/>
</g>
</g>
<defs>
<clipPath id="clip0_145_341">
<rect width="60" height="58.97" fill="white"/>
</clipPath>
<clipPath id="clip1_145_341">
<rect width="60" height="58.97" fill="white"/>
</clipPath>
</defs>
</svg>
