<?xml version="1.0" encoding="UTF-8"?>
<svg version="1.1" xmlns="http://www.w3.org/2000/svg" width="512" height="512">
<path d="M0 0 C0.9477681 -0.0071553 1.89553619 -0.01431061 2.87202454 -0.02168274 C3.91518326 -0.02437164 4.95834198 -0.02706055 6.03311157 -0.02983093 C7.67714211 -0.03968773 7.67714211 -0.03968773 9.35438538 -0.04974365 C12.9929002 -0.06950653 16.63137374 -0.08114476 20.26992798 -0.09111023 C21.50978077 -0.09518576 22.74963356 -0.09926128 24.02705765 -0.10346031 C29.90996251 -0.12217821 35.79285418 -0.13674252 41.67578161 -0.14507228 C48.46826928 -0.15484861 55.26043141 -0.18117869 62.05280435 -0.22157317 C67.93462694 -0.25535329 73.81636957 -0.26721568 79.69829178 -0.27127647 C82.20140417 -0.27615983 84.70451264 -0.28782311 87.20756149 -0.30631447 C90.70566771 -0.33055426 94.20291657 -0.32976849 97.70108032 -0.32279968 C98.74019058 -0.33560974 99.77930084 -0.3484198 100.84989929 -0.36161804 C107.83133694 -0.31077114 107.83133694 -0.31077114 111.14093018 1.96780396 C113.87013345 6.35561004 112.82910897 10.60522027 111.7953186 15.3976593 C111.01070005 18.53233696 110.17965144 21.64751625 109.29824829 24.75630188 C108.74779442 26.70505472 108.21881775 28.65876271 107.69180298 30.6139679 C103.18113322 46.81061356 103.18113322 46.81061356 95.49649048 52.14717102 C95.99149048 52.66279602 96.48649048 53.17842102 96.99649048 53.70967102 C99.51330425 57.79949341 98.73984022 61.92785422 97.82559204 66.50874329 C95.93661076 73.46269075 95.93661076 73.46269075 95.29824829 75.73579407 C94.74794345 77.70447312 94.21911005 79.67808376 93.69180298 81.6530304 C93.3437561 82.91051086 92.99570923 84.16799133 92.63711548 85.46357727 C92.32290649 86.60254456 92.00869751 87.74151184 91.68496704 88.91499329 C89.79583165 94.05268092 87.21779242 98.25346983 82.49649048 101.14717102 C79.63340048 102.10153435 77.86056544 102.27279216 74.89050293 102.27415466 C73.4729068 102.2783844 73.4729068 102.2783844 72.02667236 102.28269958 C70.99174652 102.28067535 69.95682068 102.27865112 68.89053345 102.27656555 C67.79930176 102.27831787 66.70807007 102.28007019 65.58377075 102.28187561 C61.96872376 102.28628509 58.35372549 102.28335969 54.73867798 102.27998352 C52.23429352 102.28065672 49.72990913 102.28162688 47.2255249 102.28288269 C41.9748586 102.28435836 36.72420505 102.28230389 31.47354126 102.27754211 C25.39605677 102.27209429 19.31860581 102.27386689 13.24112213 102.27936852 C7.40038981 102.28444487 1.55967027 102.28391853 -4.28106308 102.28098679 C-6.76988606 102.28031741 -9.2587099 102.28114631 -11.74753189 102.28346634 C-15.21715856 102.28599106 -18.68671979 102.28215508 -22.15634155 102.27656555 C-23.19531586 102.27858978 -24.23429016 102.28061401 -25.30474854 102.28269958 C-26.24417297 102.27987976 -27.18359741 102.27705994 -28.15148926 102.27415466 C-28.97259752 102.27377764 -29.79370579 102.27340061 -30.63969612 102.27301216 C-32.50350952 102.14717102 -32.50350952 102.14717102 -33.50350952 101.14717102 C-33.34468908 95.29108287 -32.03069395 89.66946903 -30.43392944 84.06391907 C-30.22563004 83.31134827 -30.01733063 82.55877747 -29.80271912 81.78340149 C-29.1199091 79.32328685 -28.42716577 76.86609857 -27.73397827 74.40888977 C-27.25122006 72.67944727 -26.76899573 70.94985567 -26.28727722 69.22012329 C-25.27861198 65.60384735 -24.26533429 61.98890845 -23.24838257 58.37495422 C-21.95390724 53.77433675 -20.66815775 49.17134058 -19.38555431 44.56740093 C-18.39027632 40.99676341 -17.39172528 37.427048 -16.39208412 33.85762978 C-15.91744199 32.16238204 -15.44345561 30.46695054 -14.97017479 28.77132225 C-8.67204301 6.23533248 -8.67204301 6.23533248 -6.50350952 1.14717102 C-4.1227398 -0.04321384 -2.65745566 0.01374454 0 0 Z M9.49649048 21.14717102 C9.02598267 22.2274054 8.55547485 23.30763977 8.07070923 24.42060852 C7.80604858 25.02824036 7.54138794 25.63587219 7.26870728 26.26191711 C5.4053315 30.81107543 4.06061547 35.20725423 4.49649048 40.14717102 C6.33477319 41.98545373 9.29329489 41.28452769 11.75698853 41.29243469 C12.73761513 41.29747261 12.73761513 41.29747261 13.73805237 41.3026123 C15.91145705 41.31215343 18.08478487 41.31406744 20.25820923 41.31513977 C21.76698336 41.31835178 23.27575717 41.32171581 24.78453064 41.32522583 C27.95471925 41.33122613 31.12488057 41.33306497 34.29507446 41.33247375 C38.34919475 41.33237245 42.40313863 41.34598765 46.45721722 41.36324596 C49.57741593 41.37439307 52.6975725 41.37639208 55.81778908 41.37586403 C57.31164975 41.37704148 58.8055116 41.38145009 60.29935265 41.3891964 C62.39603153 41.39904462 64.49233423 41.39609873 66.58901978 41.39009094 C68.37652901 41.39222847 68.37652901 41.39222847 70.20014954 41.39440918 C76.05308197 40.95541689 80.27859108 39.24790655 84.49649048 35.14717102 C86.96017904 31.00369481 86.62825889 27.76130376 85.49649048 23.14717102 C81.77488302 20.66609938 79.89902615 20.9048215 75.45474243 20.92012024 C74.38606934 20.91968216 74.38606934 20.91968216 73.29580688 20.91923523 C70.94200441 20.92062806 68.58851888 20.93618683 66.23477173 20.95185852 C64.60238315 20.95558882 62.96999233 20.95843571 61.33760071 20.96043396 C57.04182754 20.96806908 52.74618969 20.9877165 48.45046997 21.00984192 C44.06674022 21.03030297 39.6829886 21.03943623 35.29922485 21.04951477 C26.69825131 21.07096253 18.09738773 21.10509698 9.49649048 21.14717102 Z M-2.34625244 62.43756104 C-4.34978606 65.39737104 -4.95677496 68.83776218 -5.75350952 72.27217102 C-5.93913452 73.01338196 -6.12475952 73.7545929 -6.31600952 74.51826477 C-6.7658454 76.38235737 -7.14121933 78.26410455 -7.50350952 80.14717102 C-5.61949651 82.03118403 -2.36647967 81.29473991 0.14004517 81.30830383 C1.18160263 81.31575119 1.18160263 81.31575119 2.24420166 81.323349 C4.5522662 81.33800954 6.86026193 81.3447803 9.16836548 81.35029602 C10.76921593 81.35604587 12.37006635 81.36180363 13.97091675 81.36756897 C17.33361127 81.37809112 20.6962818 81.38392529 24.05899048 81.3874054 C28.3643803 81.3928817 32.66945251 81.41688587 36.97474289 81.44537735 C40.28448402 81.46402197 43.59414909 81.46921037 46.90393829 81.47074127 C48.4907428 81.47376605 50.07754601 81.48178874 51.66429901 81.49492645 C53.88822863 81.51201967 56.11138864 81.51009872 58.33535767 81.50361633 C59.60031067 81.50726196 60.86526367 81.51090759 62.16854858 81.5146637 C66.89919495 80.9922754 69.41224178 79.17281168 72.80899048 75.95967102 C75.23094695 71.9230769 75.16406524 69.82019438 74.49649048 65.14717102 C71.80865435 62.3138887 70.13948741 61.24668252 66.25793457 60.64596558 C65.03454376 60.64579941 63.81115295 60.64563324 62.5506897 60.64546204 C61.8720285 60.64005905 61.19336731 60.63465607 60.49414062 60.62908936 C58.26270232 60.61663502 56.03256238 60.63306563 53.80117798 60.65107727 C52.24609306 60.65092224 50.69100776 60.64943258 49.13592529 60.64666748 C45.88272953 60.6452851 42.62997553 60.6578168 39.37686157 60.68061829 C35.20582343 60.70905023 31.03551641 60.70625087 26.86442375 60.69352818 C23.65594222 60.68657722 20.44762999 60.69435271 17.23917007 60.7067852 C15.7009763 60.71130209 14.16276437 60.71163443 12.62456894 60.7077198 C10.47716663 60.70481197 8.33077661 60.72129034 6.1835022 60.74311829 C4.35080276 60.75122276 4.35080276 60.75122276 2.4810791 60.75949097 C-0.46443731 60.90774242 -0.46443731 60.90774242 -2.34625244 62.43756104 Z " fill="#65676B" transform="translate(33.503509521484375,204.8528289794922)"/>
<path d="M0 0 C4.08858664 3.12180451 6.29504232 5.76453352 8.75 10.3125 C11.80336931 15.92140667 15.02455159 21.41053839 18.32125854 26.87904358 C21.21930222 31.68927312 24.08298346 36.5186075 26.9296875 41.359375 C27.75248083 42.75528104 28.57539754 44.15111436 29.3984375 45.546875 C30.65139363 47.67184098 31.90290202 49.79760008 33.15039062 51.92578125 C34.38515173 54.03113429 35.62561702 56.13303235 36.8671875 58.234375 C37.23907196 58.87179626 37.61095642 59.50921753 37.99411011 60.16595459 C39.74074956 63.11096956 41.39928912 65.74393701 44 68 C45.28970703 66.89205078 45.28970703 66.89205078 46.60546875 65.76171875 C52.5540866 60.6551427 58.50952614 55.55744759 64.5 50.5 C69.01706384 46.68633998 73.51497799 42.85128908 78 39 C84.10624588 33.75751925 90.24189502 28.55085362 96.39111328 23.35888672 C98.55382038 21.53223608 100.71486573 19.7036273 102.87548828 17.87451172 C103.95009098 16.96528221 105.02527741 16.05674211 106.10107422 15.14892578 C108.95956183 12.73542013 111.80546047 10.30869864 114.63671875 7.86328125 C115.23097656 7.3528125 115.82523438 6.84234375 116.4375 6.31640625 C117.58286341 5.33210957 118.72493536 4.34396661 119.86328125 3.3515625 C123.7750756 0 123.7750756 0 126 0 C124.45787705 8.66094034 122.17301655 17.10711819 119.859375 25.5859375 C119.45040902 27.09309189 119.04166105 28.60030546 118.63311768 30.10757446 C117.77787682 33.2599598 116.92032385 36.41170398 116.06103516 39.56298828 C114.9767796 43.5398356 113.89783516 47.51810007 112.82042694 51.4968071 C105.32668194 79.15972469 105.32668194 79.15972469 101.515625 92.1640625 C101.28365417 92.97297943 101.05168335 93.78189636 100.81268311 94.61532593 C100.26978759 96.42971027 99.64430913 98.21910364 99 100 C95.70322112 101.64838944 92.05683956 101.14272738 88.4375 101.125 C87.64408203 101.12886719 86.85066406 101.13273437 86.03320312 101.13671875 C80.12663067 101.12663067 80.12663067 101.12663067 79 100 C78.79000011 90.91391784 82.04531459 81.9979638 84.5625 73.375 C84.9923229 71.879132 85.42136556 70.38303958 85.84960938 68.88671875 C86.89076611 65.25516364 87.94242087 61.62680497 89 58 C88.67 57.67 88.34 57.34 88 57 C86.76636719 58.14275391 86.76636719 58.14275391 85.5078125 59.30859375 C80.40724324 64.02804184 75.3068411 68.74460483 70.125 73.375 C65.17770556 77.8057743 60.33667028 82.34618648 55.49047852 86.88671875 C50.73051391 91.33854567 45.91088826 95.71461783 41 100 C37.29204505 98.54455037 35.97996021 96.82930404 34.0390625 93.3984375 C33.49137207 92.44388672 32.94368164 91.48933594 32.37939453 90.50585938 C31.80044434 89.47267578 31.22149414 88.43949219 30.625 87.375 C29.38573741 85.20554592 28.14614377 83.03628091 26.90625 80.8671875 C26.26816406 79.74280273 25.63007813 78.61841797 24.97265625 77.45996094 C21.73463957 71.78060791 18.42717876 66.14225175 15.125 60.5 C13.93977476 58.46894219 12.75484822 56.43771002 11.5703125 54.40625 C11.07289551 53.55353516 10.57547852 52.70082031 10.06298828 51.82226562 C9.71220215 51.22091797 9.36141602 50.61957031 9 50 C6.76347475 52.23652525 6.49014054 53.28782753 5.73486328 56.29443359 C5.50767609 57.1823056 5.28048889 58.07017761 5.04641724 58.98495483 C4.80680267 59.94640411 4.56718811 60.90785339 4.3203125 61.8984375 C3.79855924 63.92457761 3.27641148 65.95061617 2.75390625 67.9765625 C1.93683034 71.17706309 1.12411085 74.37853722 0.31884766 77.58203125 C-0.46025811 80.66989822 -1.25636398 83.75299204 -2.0546875 86.8359375 C-2.2902536 87.79333832 -2.5258197 88.75073914 -2.76852417 89.7371521 C-5.00271678 98.29318951 -5.00271678 98.29318951 -9 101 C-11.85816183 101.31854769 -14.28841279 101.4266739 -17.125 101.3125 C-17.85332031 101.30283203 -18.58164062 101.29316406 -19.33203125 101.28320312 C-24.660111 101.1699445 -24.660111 101.1699445 -27 100 C-26.38826842 95.14043624 -25.44119662 90.5433 -24.14575195 85.8215332 C-23.96017227 85.14062622 -23.77459259 84.45971924 -23.58338928 83.75817871 C-22.97252504 81.52121349 -22.35554345 79.28598872 -21.73828125 77.05078125 C-21.30537532 75.4721038 -20.87277912 73.89334139 -20.44047546 72.3144989 C-19.53271969 69.00279239 -18.62208296 65.69189644 -17.70922852 62.3815918 C-16.55612393 58.19966317 -15.40880378 54.01617631 -14.26342964 49.83212471 C-9.69893432 33.16379157 -5.11952396 16.50852406 0 0 Z " fill="#65676B" transform="translate(327,206)"/>
<path d="M0 0 C1.10589478 0.00616333 1.10589478 0.00616333 2.23413086 0.01245117 C3.0352832 0.01438477 3.83643555 0.01631836 4.66186523 0.01831055 C5.49911133 0.03055664 6.33635742 0.04280273 7.19897461 0.05541992 C8.04008789 0.05606445 8.88120117 0.05670898 9.74780273 0.05737305 C15.99624277 0.10268808 15.99624277 0.10268808 17.13647461 1.24291992 C16.675269 9.11285395 14.22876568 16.5784622 12.07397461 24.11791992 C11.32972792 26.73938891 10.58989438 29.3620273 9.85131836 31.98510742 C9.52252686 33.13865723 9.19373535 34.29220703 8.85498047 35.48071289 C8.05256034 38.08983022 8.05256034 38.08983022 8.13647461 40.24291992 C17.86340198 40.3123766 27.59027052 40.36570909 37.31739521 40.39835644 C41.83391887 40.41402416 46.35027309 40.43528249 50.86669922 40.46923828 C55.22388058 40.50179247 59.58089879 40.5197646 63.93819237 40.52755165 C65.60201779 40.53310227 67.26583411 40.5439411 68.92959023 40.56011009 C71.25696864 40.58183243 73.58366962 40.58488909 75.91113281 40.58349609 C76.60165237 40.59428192 77.29217194 40.60506775 78.00361633 40.61618042 C80.79891202 40.59803174 82.68543625 40.55643209 85.01811218 38.93501282 C86.89197733 36.09983719 87.51196137 32.88143346 88.29272461 29.61791992 C88.48112915 28.87461426 88.66953369 28.13130859 88.86364746 27.36547852 C89.46456872 24.99366334 90.05210773 22.61886428 90.63647461 20.24291992 C91.40584284 17.114789 92.18874398 13.99052002 92.98022461 10.86791992 C93.2381781 9.78969971 93.2381781 9.78969971 93.50134277 8.68969727 C95.16299607 2.14371886 95.16299607 2.14371886 98.13647461 0.24291992 C100.12939453 -0.09765625 100.12939453 -0.09765625 102.36694336 -0.05004883 C103.16938477 -0.04038086 103.97182617 -0.03071289 104.79858398 -0.02075195 C105.63196289 0.00438477 106.4653418 0.02952148 107.32397461 0.05541992 C108.59144531 0.07572266 108.59144531 0.07572266 109.88452148 0.09643555 C111.96877845 0.13176194 114.05270738 0.18556853 116.13647461 0.24291992 C117.19806411 3.42768843 117.12357119 4.13431935 116.29658508 7.22802734 C116.08497238 8.03557465 115.87335968 8.84312195 115.65533447 9.67514038 C115.41490417 10.55731232 115.17447388 11.43948425 114.92675781 12.34838867 C114.67973618 13.28035065 114.43271454 14.21231262 114.1782074 15.17251587 C113.35678 18.26093692 112.52268484 21.34575908 111.68725586 24.43041992 C111.11217058 26.57120524 110.53740154 28.71207553 109.9629364 30.85302734 C108.75561116 35.34365824 107.54150909 39.83239413 106.32324219 44.32006836 C104.76163692 50.07628304 103.22138698 55.83797098 101.68674946 61.60142517 C100.5053777 66.0256403 99.31046864 70.44611379 98.11165428 74.8656311 C97.53799723 76.98867114 96.96911186 79.11300638 96.40505409 81.23861694 C95.61514867 84.20891782 94.80663203 87.17353049 93.99316406 90.13745117 C93.76285492 91.01962311 93.53254578 91.90179504 93.29525757 92.81069946 C91.64860445 98.70206246 91.64860445 98.70206246 89.19670105 101.29150391 C85.89854999 102.81459558 82.56491385 102.59462838 79.01147461 102.49291992 C78.2831543 102.48776367 77.55483398 102.48260742 76.80444336 102.47729492 C71.44677223 102.39806873 71.44677223 102.39806873 69.13647461 101.24291992 C70.73298006 92.31003194 73.20738678 83.69622104 75.74584961 74.99291992 C76.20604492 73.38803711 76.20604492 73.38803711 76.67553711 71.75073242 C76.95606934 70.78796387 77.23660156 69.82519531 77.52563477 68.83325195 C78.2894879 66.03761401 78.2894879 66.03761401 78.13647461 62.24291992 C52.72647461 62.24291992 27.31647461 62.24291992 1.13647461 62.24291992 C-0.18352539 67.85291992 -1.50352539 73.46291992 -2.86352539 79.24291992 C-3.85257934 83.0709698 -4.85613307 86.87667876 -5.92602539 90.68041992 C-6.16901367 91.58856445 -6.41200195 92.49670898 -6.66235352 93.43237305 C-7.02683594 94.72884766 -7.02683594 94.72884766 -7.39868164 96.05151367 C-7.60887939 96.81262451 -7.81907715 97.57373535 -8.03564453 98.35791016 C-8.86352539 100.24291992 -8.86352539 100.24291992 -11.86352539 102.24291992 C-14.59140589 102.41180235 -17.20262141 102.47617118 -19.92602539 102.43041992 C-20.65885742 102.42977539 -21.39168945 102.42913086 -22.14672852 102.4284668 C-27.58227539 102.38354492 -27.58227539 102.38354492 -29.86352539 101.24291992 C-29.25317042 95.29815316 -28.08150045 89.76574969 -26.48681641 84.01293945 C-26.12565735 82.68464363 -26.12565735 82.68464363 -25.75720215 81.32951355 C-24.96623856 78.42668175 -24.16718222 75.52615459 -23.36743164 72.62573242 C-22.81285448 70.60179493 -22.25857324 68.57777634 -21.70457458 66.55368042 C-20.54567151 62.32472112 -19.38264943 58.09692156 -18.21679688 53.86987305 C-16.72093975 48.4447114 -15.23628514 43.01655624 -13.7547617 37.58746529 C-12.61429489 33.41355556 -11.4675394 29.24139382 -10.31889153 25.06972885 C-9.76862041 23.06795216 -9.22042344 21.06560414 -8.67431831 19.06268692 C-7.91254127 16.27214326 -7.14224593 13.48409193 -6.36962891 10.6965332 C-6.14462204 9.86537491 -5.91961517 9.03421661 -5.68778992 8.1778717 C-3.52953728 0.46009296 -3.52953728 0.46009296 0 0 Z " fill="#65676B" transform="translate(163.863525390625,204.757080078125)"/>
<path d="M0 0 C2.68466043 2.68466043 3.94053776 4.47119657 5.63671875 7.76171875 C6.37365967 9.18230591 6.37365967 9.18230591 7.12548828 10.6315918 C7.89868408 12.14426636 7.89868408 12.14426636 8.6875 13.6875 C9.21843262 14.71593018 9.74936523 15.74436035 10.29638672 16.80395508 C14.60316756 25.16666795 18.83183096 33.5674734 23 42 C23.59941406 42.98419922 23.59941406 42.98419922 24.2109375 43.98828125 C25.51359793 47.30942046 25.53631208 49.45438127 25 53 C23.01089962 55.87180147 20.56346807 58.14175424 18 60.5 C17.30664551 61.16435059 16.61329102 61.82870117 15.89892578 62.51318359 C12.06027518 66.16788194 8.13893542 69.71696709 4.0859375 73.1328125 C1.10329039 75.80267264 -1.68587497 78.65442111 -4.5 81.5 C-9.16822391 86.21554599 -13.91221886 90.7342621 -19 95 C-20.33408315 96.14496025 -21.66744606 97.29076036 -23 98.4375 C-24.485 99.7059375 -24.485 99.7059375 -26 101 C-27.0430083 97.79074369 -26.91277383 95.74548967 -26.0625 92.5 C-25.26352216 89.40991351 -25 87.28070186 -25 84 C-25.4125 84.42410156 -25.825 84.84820312 -26.25 85.28515625 C-30.08890264 89.18404175 -34.04644163 92.86375404 -38.203125 96.421875 C-40.01968133 97.96801194 -40.01968133 97.96801194 -41.609375 99.703125 C-43 101 -43 101 -45 101 C-44.42899832 95.72057684 -43.54657496 90.80986852 -42.12988281 85.67626953 C-41.94269684 84.99200394 -41.75551086 84.30773834 -41.56265259 83.60273743 C-40.94807633 81.36127605 -40.32567379 79.12207136 -39.703125 76.8828125 C-39.26764786 75.30082163 -38.83265938 73.71869618 -38.39813232 72.13644409 C-37.25419476 67.9762085 -36.10357503 63.81784996 -34.95153809 59.65985107 C-33.79692247 55.4879056 -32.64876761 51.31418373 -31.5 47.140625 C-27.35428902 32.0879303 -23.18139155 17.04281779 -19 2 C-17.68 2 -16.36 2 -15 2 C-12.03 7.61 -9.06 13.22 -6 19 C-4.02 12.73 -2.04 6.46 0 0 Z " fill="#ED7925" transform="translate(487,205)"/>
<path d="M0 0 C0.73283203 0.00064453 1.46566406 0.00128906 2.22070312 0.00195312 C7.65625 0.046875 7.65625 0.046875 9.9375 1.1875 C9.36467415 9.84514637 6.98714783 17.91427499 4.640625 26.21875 C4.2050513 27.77925825 3.77006488 29.33993052 3.33563232 30.90075684 C2.19301931 34.99928762 1.04186453 39.09537228 -0.11096191 43.19104004 C-1.03832203 46.4910995 -1.95965666 49.79282564 -2.88062668 53.09467316 C-3.99651685 57.09493239 -5.11503178 61.09445577 -6.234375 65.09375 C-6.4409951 65.83206558 -6.6476152 66.57038116 -6.86049652 67.33106995 C-8.04743201 71.56722653 -9.24538061 75.80006598 -10.45237732 80.0305481 C-11.10179929 82.32643382 -11.73574489 84.62632697 -12.36975098 86.92651367 C-12.8050041 88.4739126 -13.24066108 90.02119799 -13.67675781 91.56835938 C-13.87146038 92.2881321 -14.06616295 93.00790482 -14.26676559 93.74948883 C-16.07073194 100.06837092 -16.07073194 100.06837092 -19.0625 102.1875 C-21.05541992 102.52807617 -21.05541992 102.52807617 -23.29296875 102.48046875 C-24.09541016 102.47080078 -24.89785156 102.46113281 -25.72460938 102.45117188 C-26.55798828 102.42603516 -27.39136719 102.40089844 -28.25 102.375 C-29.5174707 102.35469727 -29.5174707 102.35469727 -30.81054688 102.33398438 C-32.89480384 102.29865799 -34.97873277 102.24485139 -37.0625 102.1875 C-36.5735937 95.49504842 -35.51507099 89.27667169 -33.70166016 82.82226562 C-33.46249374 81.94619659 -33.22332733 81.07012756 -32.97691345 80.16751099 C-32.19350041 77.30721063 -31.39813238 74.45041183 -30.6015625 71.59375 C-30.049281 69.59511952 -29.49739725 67.59637909 -28.94589233 65.59753418 C-27.79303714 61.42706933 -26.63396829 57.25839297 -25.47070312 53.09082031 C-23.9788599 47.74332009 -22.50496351 42.39105726 -21.03586769 37.03726959 C-19.90284843 32.91735369 -18.75935516 28.80040139 -17.61274338 24.68424988 C-17.0646086 22.71079915 -16.52002053 20.73635979 -15.97902298 18.76094055 C-15.22419045 16.01000699 -14.45510671 13.26345936 -13.68212891 10.51757812 C-13.46071732 9.69891266 -13.23930573 8.88024719 -13.01118469 8.03677368 C-10.77446837 0.20871592 -7.51933321 -0.12631948 0 0 Z " fill="#65676B" transform="translate(304.0625,204.8125)"/>
<path d="M0 0 C2.58088463 2.32416471 4.04993868 4.68342991 5.63671875 7.76171875 C6.37365967 9.18230591 6.37365967 9.18230591 7.12548828 10.6315918 C7.89868408 12.14426636 7.89868408 12.14426636 8.6875 13.6875 C9.21843262 14.71593018 9.74936523 15.74436035 10.29638672 16.80395508 C14.60316756 25.16666795 18.83183096 33.5674734 23 42 C23.39960938 42.65613281 23.79921875 43.31226563 24.2109375 43.98828125 C25.51359793 47.30942046 25.53631208 49.45438127 25 53 C23.01089962 55.87180147 20.56346807 58.14175424 18 60.5 C17.30664551 61.16435059 16.61329102 61.82870117 15.89892578 62.51318359 C12.06027518 66.16788194 8.13893542 69.71696709 4.0859375 73.1328125 C1.10329039 75.80267264 -1.68587497 78.65442111 -4.5 81.5 C-9.16822391 86.21554599 -13.91221886 90.7342621 -19 95 C-20.33408315 96.14496025 -21.66744606 97.29076036 -23 98.4375 C-24.485 99.7059375 -24.485 99.7059375 -26 101 C-27.99740936 94.4123903 -25.3913283 86.32792083 -23 80 C-21.049923 77.03588296 -19.06955726 74.80695612 -16 73 C-15.34 73 -14.68 73 -14 73 C-14 72.34 -14 71.68 -14 71 C-12.671875 69.6953125 -12.671875 69.6953125 -10.75 68.125 C-6.89600464 64.81264723 -3.12205236 61.43663198 0.5625 57.9375 C1.11131836 57.44330566 1.66013672 56.94911133 2.22558594 56.43994141 C3.98618754 54.81650324 3.98618754 54.81650324 6 52 C5.69658582 47.69690127 4.43745243 44.426476 2.4609375 40.62890625 C1.96335937 39.64212891 1.46578125 38.65535156 0.953125 37.63867188 C-0.09900718 35.5877954 -1.15891907 33.54089145 -2.2265625 31.49804688 C-6.87476318 22.21980255 -6.87476318 22.21980255 -5 16 C-4.81115234 15.32928467 -4.62230469 14.65856934 -4.42773438 13.9675293 C-3.80846197 11.81594841 -3.13261613 9.69068469 -2.4375 7.5625 C-2.20353516 6.83095703 -1.96957031 6.09941406 -1.72851562 5.34570312 C-1.15732778 3.56219821 -0.57936877 1.78086417 0 0 Z " fill="#108B48" transform="translate(487,205)"/>
<path d="M0 0 C1.96529009 3.45207476 2.7746477 6.88476226 3.625 10.75 C4.01558594 12.50570313 4.01558594 12.50570313 4.4140625 14.296875 C4.60742188 15.18890625 4.80078125 16.0809375 5 17 C5.35827881 16.48501953 5.71655762 15.97003906 6.08569336 15.43945312 C7.69952118 13.12388131 9.31842902 10.81190839 10.9375 8.5 C11.50146484 7.68917969 12.06542969 6.87835938 12.64648438 6.04296875 C13.18466797 5.27597656 13.72285156 4.50898438 14.27734375 3.71875 C15.02359009 2.65043945 15.02359009 2.65043945 15.78491211 1.56054688 C16.38638062 0.78807617 16.38638062 0.78807617 17 0 C17.33 0 17.66 0 18 0 C18 9.24 18 18.48 18 28 C16.35 28 14.7 28 13 28 C12.67 24.04 12.34 20.08 12 16 C8.04 21.94 8.04 21.94 4 28 C3.01 27.67 2.02 27.34 1 27 C-0.3689576 23.07340144 -1.10076195 19.06798163 -2 15 C-3.98 19.29 -5.96 23.58 -8 28 C-9.32 28 -10.64 28 -12 28 C-11.49869382 21.78589211 -8.69955489 16.69534185 -6 11.1875 C-5.5359375 10.22134766 -5.071875 9.25519531 -4.59375 8.25976562 C-1.16215986 1.16215986 -1.16215986 1.16215986 0 0 Z " fill="#65676A" transform="translate(216,324)"/>
<path d="M0 0 C2.24973447 -0.054138 4.49984383 -0.09285491 6.75 -0.125 C8.00296875 -0.14820313 9.2559375 -0.17140625 10.546875 -0.1953125 C13.74865887 -0.01421613 15.38418744 0.23935693 18 2 C20.70728947 5.51947631 20.50974811 9.75758021 20 14 C18.15228973 19.43444197 14.72439909 22.89452215 10 26 C4.89553686 27.5880552 -0.68387708 27.09455555 -6 27 C-5.37693049 23.99958762 -4.7515989 20.99967557 -4.125 18 C-3.95097656 17.16082031 -3.77695313 16.32164062 -3.59765625 15.45703125 C-2.51224894 10.27119631 -1.31853943 5.1316129 0 0 Z M4 5 C2.68 10.61 1.36 16.22 0 22 C6.93147468 22.32106625 6.93147468 22.32106625 12 19 C14.12380553 15.24794357 15.07012172 12.94664322 14.75 8.625 C14.25698605 6.09510507 14.25698605 6.09510507 13 5 C9.99668982 4.85806663 7.00782866 4.95763622 4 5 Z " fill="#65676A" transform="translate(116,325)"/>
<path d="M0 0 C0.66 0 1.32 0 2 0 C3.74840248 2.07032118 5.38532709 4.14191827 7 6.3125 C7.45117188 6.90740234 7.90234375 7.50230469 8.3671875 8.11523438 C10.31997846 10.70066027 12.20241339 13.30362009 14 16 C14.19335938 15.41992188 14.38671875 14.83984375 14.5859375 14.2421875 C16.05729167 9.828125 17.52864583 5.4140625 19 1 C20.32 1 21.64 1 23 1 C22.55449542 7.12568796 21.45877318 13.01491182 20.125 19 C19.96354492 19.76626709 19.80208984 20.53253418 19.63574219 21.32202148 C19.1328125 23.5 19.1328125 23.5 18 27 C17.01 27.33 16.02 27.66 15 28 C11 22.66666667 7 17.33333333 3 12 C1.68 17.28 0.36 22.56 -1 28 C-2.65 28 -4.3 28 -6 28 C-4.63053948 18.4858532 -2.42755144 9.28597346 0 0 Z " fill="#65676A" transform="translate(347,324)"/>
<path d="M0 0 C4.01724509 2.9397957 6.92918813 6.24062538 9.8125 10.25 C11.194375 12.1475 12.57625 14.045 14 16 C15.32 11.38 16.64 6.76 18 2 C19.65 1.67 21.3 1.34 23 1 C22.37423415 6.74922374 21.36011739 12.25712381 20 17.875 C19.82210937 18.63296875 19.64421875 19.3909375 19.4609375 20.171875 C18.13632015 25.72735969 18.13632015 25.72735969 17 28 C13.69644344 26.89881448 13.24248745 26.33948243 11.30078125 23.62109375 C10.57084961 22.61079102 10.57084961 22.61079102 9.82617188 21.58007812 C9.32666016 20.87302734 8.82714844 20.16597656 8.3125 19.4375 C7.54583008 18.37112305 7.54583008 18.37112305 6.76367188 17.28320312 C5.50244054 15.52690902 4.25034113 13.76406364 3 12 C1.68 16.95 0.36 21.9 -1 27 C-2.65 27.33 -4.3 27.66 -6 28 C-5.42100187 21.40474547 -4.20265263 15.3108382 -2.4375 8.9375 C-2.20353516 8.07189453 -1.96957031 7.20628906 -1.72851562 6.31445312 C-1.1582666 4.20802305 -0.57998166 2.10377111 0 0 Z " fill="#65676A" transform="translate(31,324)"/>
<path d="M0 0 C0.66 0 1.32 0 2 0 C3.32861328 1.46875 3.32861328 1.46875 4.8203125 3.5 C5.35527344 4.221875 5.89023437 4.94375 6.44140625 5.6875 C6.99699219 6.450625 7.55257813 7.21375 8.125 8 C8.96998047 9.1446875 8.96998047 9.1446875 9.83203125 10.3125 C11.22714943 12.20418566 12.61611971 14.10008585 14 16 C15.37291142 12.75231459 16.40404934 9.63776389 17.125 6.1875 C17.29257812 5.39730469 17.46015625 4.60710937 17.6328125 3.79296875 C17.75398438 3.20128906 17.87515625 2.60960937 18 2 C19.65 1.67 21.3 1.34 23 1 C22.43755107 7.45846531 21.26271535 13.35063262 19.4375 19.5625 C19.20353516 20.38041016 18.96957031 21.19832031 18.72851562 22.04101562 C18.15880046 24.02920527 17.58033086 26.01488299 17 28 C16.34 28 15.68 28 15 28 C13.67138672 26.53125 13.67138672 26.53125 12.1796875 24.5 C11.64472656 23.778125 11.10976563 23.05625 10.55859375 22.3125 C10.00300781 21.549375 9.44742187 20.78625 8.875 20 C8.31167969 19.236875 7.74835938 18.47375 7.16796875 17.6875 C5.77290451 15.79588747 4.38571506 13.89847201 3 12 C1.68 16.95 0.36 21.9 -1 27 C-2.65 27.33 -4.3 27.66 -6 28 C-5.35521919 21.65594974 -4.03753669 15.6670882 -2.4375 9.5 C-2.20353516 8.5821875 -1.96957031 7.664375 -1.72851562 6.71875 C-1.15666285 4.47802077 -0.58041707 2.23852312 0 0 Z " fill="#65676A" transform="translate(261,324)"/>
<path d="M0 0 C1.77007714 -0.08114106 3.54122098 -0.13925505 5.3125 -0.1875 C6.29863281 -0.22230469 7.28476562 -0.25710938 8.30078125 -0.29296875 C11 0 11 0 12.86328125 1.26171875 C14.65614455 4.00338256 14.041182 6.0173586 13.515625 9.125 C12.85867343 11.51391479 12.12114475 12.69468016 10 14 C9.01 14 8.02 14 7 14 C7.54140625 15.15628906 7.54140625 15.15628906 8.09375 16.3359375 C8.5578125 17.33882813 9.021875 18.34171875 9.5 19.375 C9.9640625 20.37273437 10.428125 21.37046875 10.90625 22.3984375 C12 25 12 25 12 27 C10.35 27 8.7 27 7 27 C5.35 24.03 3.7 21.06 2 18 C1.67 18 1.34 18 1 18 C0.01 20.97 -0.98 23.94 -2 27 C-3.32 27 -4.64 27 -6 27 C-5.37423415 21.25077626 -4.36011739 15.74287619 -3 10.125 C-2.82210938 9.36703125 -2.64421875 8.6090625 -2.4609375 7.828125 C-1.13632015 2.27264031 -1.13632015 2.27264031 0 0 Z M4 4 C3.67 6.31 3.34 8.62 3 11 C4.94999129 10.80528889 4.94999129 10.80528889 7 10 C8.28436734 8.0162233 8.28436734 8.0162233 9 6 C6.525 5.01 6.525 5.01 4 4 Z " fill="#65676A" transform="translate(412,325)"/>
<path d="M0 0 C1.2065625 0.0309375 1.2065625 0.0309375 2.4375 0.0625 C2.11265625 1.3309375 2.11265625 1.3309375 1.78125 2.625 C0.23423817 8.92764079 -0.94428488 14.57215699 -0.5625 21.0625 C2.81150578 21.47975678 2.81150578 21.47975678 6.4375 21.0625 C9.59036087 17.10596871 10.51668956 12.57567852 11.625 7.75 C11.80224609 7.00943359 11.97949219 6.26886719 12.16210938 5.50585938 C12.59480953 3.69319658 13.01720716 1.87807973 13.4375 0.0625 C15.0875 0.0625 16.7375 0.0625 18.4375 0.0625 C15.85032816 19.56841403 15.85032816 19.56841403 9.8125 25.75 C5.32927535 27.49347625 1.1965882 27.76694335 -3.5625 27.0625 C-6.5625 25.0625 -6.5625 25.0625 -7.3671875 22.51953125 C-7.62231158 18.00383499 -6.7461011 14.12111115 -5.6875 9.75 C-5.50058594 8.92693359 -5.31367187 8.10386719 -5.12109375 7.25585938 C-3.45382519 0.08423964 -3.45382519 0.08423964 0 0 Z " fill="#65676A" transform="translate(7.5625,324.9375)"/>
<path d="M0 0 C4.95 0 9.9 0 15 0 C15 1.32 15 2.64 15 4 C11.37 4 7.74 4 4 4 C3.67 5.98 3.34 7.96 3 10 C6.3 10 9.6 10 13 10 C12.67 11.65 12.34 13.3 12 15 C8.7 15.33 5.4 15.66 2 16 C1.67 17.65 1.34 19.3 1 21 C3.97 21.33 6.94 21.66 10 22 C9.67 23.65 9.34 25.3 9 27 C4.05 27 -0.9 27 -6 27 C-4.47680318 17.86081908 -2.31652613 8.96248216 0 0 Z " fill="#65676A" transform="translate(393,325)"/>
<path d="M0 0 C4.95 0 9.9 0 15 0 C15 1.32 15 2.64 15 4 C11.37 4 7.74 4 4 4 C3.67 5.98 3.34 7.96 3 10 C6.3 10 9.6 10 13 10 C12.67 11.65 12.34 13.3 12 15 C8.7 15 5.4 15 2 15 C1.67 16.98 1.34 18.96 1 21 C3.97 21.33 6.94 21.66 10 22 C9.67 23.65 9.34 25.3 9 27 C4.05 27 -0.9 27 -6 27 C-4.2337882 17.91662505 -2.32318454 8.96085465 0 0 Z " fill="#65676A" transform="translate(242,325)"/>
<path d="M0 0 C1.39456452 0.00667256 2.78911118 0.01863093 4.18359375 0.03515625 C4.89451172 0.03966797 5.60542969 0.04417969 6.33789062 0.04882812 C8.09899388 0.06064761 9.86005411 0.07858362 11.62109375 0.09765625 C11.29109375 1.41765625 10.96109375 2.73765625 10.62109375 4.09765625 C7.32109375 4.09765625 4.02109375 4.09765625 0.62109375 4.09765625 C0.29109375 6.07765625 -0.03890625 8.05765625 -0.37890625 10.09765625 C2.59109375 10.09765625 5.56109375 10.09765625 8.62109375 10.09765625 C8.29109375 11.74765625 7.96109375 13.39765625 7.62109375 15.09765625 C4.32109375 15.09765625 1.02109375 15.09765625 -2.37890625 15.09765625 C-2.70890625 17.40765625 -3.03890625 19.71765625 -3.37890625 22.09765625 C-0.40890625 22.09765625 2.56109375 22.09765625 5.62109375 22.09765625 C5.29109375 23.74765625 4.96109375 25.39765625 4.62109375 27.09765625 C0.00109375 27.09765625 -4.61890625 27.09765625 -9.37890625 27.09765625 C-8.93128015 20.94279737 -7.78521886 15.0932858 -6.37890625 9.09765625 C-6.20069336 8.33138916 -6.02248047 7.56512207 -5.83886719 6.77563477 C-4.24292111 0.12262778 -4.24292111 0.12262778 0 0 Z " fill="#65676A" transform="translate(500.37890625,324.90234375)"/>
<path d="M0 0 C1.39456452 0.00667256 2.78911118 0.01863093 4.18359375 0.03515625 C4.89451172 0.03966797 5.60542969 0.04417969 6.33789062 0.04882812 C8.09899388 0.06064761 9.86005411 0.07858362 11.62109375 0.09765625 C11.29109375 1.41765625 10.96109375 2.73765625 10.62109375 4.09765625 C7.32109375 4.42765625 4.02109375 4.75765625 0.62109375 5.09765625 C0.29109375 6.74765625 -0.03890625 8.39765625 -0.37890625 10.09765625 C2.59109375 10.09765625 5.56109375 10.09765625 8.62109375 10.09765625 C8.29109375 11.74765625 7.96109375 13.39765625 7.62109375 15.09765625 C4.32109375 15.09765625 1.02109375 15.09765625 -2.37890625 15.09765625 C-2.70890625 17.40765625 -3.03890625 19.71765625 -3.37890625 22.09765625 C-0.40890625 22.09765625 2.56109375 22.09765625 5.62109375 22.09765625 C5.29109375 23.74765625 4.96109375 25.39765625 4.62109375 27.09765625 C0.00109375 27.09765625 -4.61890625 27.09765625 -9.37890625 27.09765625 C-8.93128015 20.94279737 -7.78521886 15.0932858 -6.37890625 9.09765625 C-6.20069336 8.33138916 -6.02248047 7.56512207 -5.83886719 6.77563477 C-4.24292111 0.12262778 -4.24292111 0.12262778 0 0 Z " fill="#65676A" transform="translate(101.37890625,324.90234375)"/>
<path d="M0 0 C0.66 0 1.32 0 2 0 C2.84415762 3.53917574 3.67337694 7.08169141 4.5 10.625 C4.73847656 11.62402344 4.97695312 12.62304688 5.22265625 13.65234375 C6.34893117 18.51141554 7.34312331 22.97324344 7 28 C5.35 28 3.7 28 2 28 C1.67 25.69 1.34 23.38 1 21 C-2.3 21 -5.6 21 -9 21 C-9.28875 21.78375 -9.5775 22.5675 -9.875 23.375 C-11 26 -11 26 -13 28 C-15.625 28.125 -15.625 28.125 -18 28 C-15.60861544 22.8790553 -12.27637653 18.35344537 -9.12304688 13.68164062 C-7.98698543 11.98051209 -6.87365769 10.26637037 -5.765625 8.546875 C-5.05921875 7.45890625 -4.3528125 6.3709375 -3.625 5.25 C-2.97789062 4.24453125 -2.33078125 3.2390625 -1.6640625 2.203125 C-1.11492187 1.47609375 -0.56578125 0.7490625 0 0 Z M-2 11 C-2.99 12.98 -3.98 14.96 -5 17 C-3.35 17 -1.7 17 0 17 C-0.33 15.02 -0.66 13.04 -1 11 C-1.33 11 -1.66 11 -2 11 Z " fill="#65676A" transform="translate(178,324)"/>
<path d="M0 0 C0 1.65 0 3.3 0 5 C-3 5 -3 5 -6.8125 4.25 C-10.25930436 3.80566058 -11.03489224 4.01679997 -14.375 5.625 C-17.13984453 8.126526 -18.22474751 9.38215507 -19 13 C-18.82871956 16.83234215 -18.82871956 16.83234215 -17 20 C-12.06760838 20.24661958 -8.50137826 20.25068913 -4 18 C-4.25 20.875 -4.25 20.875 -5 24 C-9.25142948 26.86613224 -14.07228698 26.66181259 -19 26 C-22.55680172 23.89495409 -23.69468936 22.91593192 -25 19 C-25.58270706 13.05638796 -24.45030872 8.79824275 -21 4 C-14.99727668 -1.64061008 -7.79593535 -3.89796768 0 0 Z " fill="#65676A" transform="translate(492,326)"/>
<path d="M0 0 C1.83867432 2.75801148 2.40971705 4.11789935 3.0703125 7.23828125 C3.24433594 8.05876953 3.41835938 8.87925781 3.59765625 9.72460938 C3.77167969 10.57861328 3.94570313 11.43261719 4.125 12.3125 C4.30675781 13.15490234 4.48851562 13.99730469 4.67578125 14.86523438 C5.60157031 19.31667879 6.22385885 23.42581758 6 28 C4.35 28 2.7 28 1 28 C0.67 25.69 0.34 23.38 0 21 C-5.70088416 20.88285975 -5.70088416 20.88285975 -10.53515625 23.40234375 C-10.93605469 23.95019531 -11.33695312 24.49804688 -11.75 25.0625 C-12.86375 26.5165625 -12.86375 26.5165625 -14 28 C-16.640625 28.18359375 -16.640625 28.18359375 -19 28 C-15.56410309 21.44162894 -11.63837605 15.4563576 -7.25 9.5 C-6.36634766 8.28570312 -6.36634766 8.28570312 -5.46484375 7.046875 C-1.19041149 1.19041149 -1.19041149 1.19041149 0 0 Z M-3 11 C-3.99 12.98 -4.98 14.96 -6 17 C-4.35 17 -2.7 17 -1 17 C-1 15.35 -1 13.7 -1 12 C-1.66 11.67 -2.32 11.34 -3 11 Z " fill="#65676A" transform="translate(458,324)"/>
<path d="M0 0 C2 2 2 2 2 5 C-1.32534757 6.10844919 -3.62182575 5.84454356 -7 5 C-7 6.32 -7 7.64 -7 9 C-6.030625 9.804375 -5.06125 10.60875 -4.0625 11.4375 C-1 14 -1 14 0.0625 16.5 C-0.04012293 20.60491714 -1.96623521 22.88966005 -4.6875 25.8125 C-8.30345465 27.66934158 -10.95107356 27.38561204 -15 27 C-17 25.75 -17 25.75 -18 24 C-18 22.68 -18 21.36 -18 20 C-16.68 19.67 -15.36 19.34 -14 19 C-13.67 19.99 -13.34 20.98 -13 22 C-11.02 21.67 -9.04 21.34 -7 21 C-7.11341534 18.59122743 -7.11341534 18.59122743 -8 16 C-10.44496043 14.28288757 -10.44496043 14.28288757 -13 13 C-14.44430855 10.11138291 -14.37688506 8.20352299 -14 5 C-9.62641483 -0.31922521 -6.68141255 -1.56373485 0 0 Z " fill="#65676B" transform="translate(319,325)"/>
<path d="M0 0 C1.95803507 -0.05389087 3.91648909 -0.09274217 5.875 -0.125 C7.51082031 -0.15980469 7.51082031 -0.15980469 9.1796875 -0.1953125 C12 0 12 0 14 2 C14.68767908 9.10601719 14.68767908 9.10601719 12.125 12.4375 C8.29984042 15.25011734 5.71882042 15.08738556 1 15 C0.34 18.63 -0.32 22.26 -1 26 C-2.65 26.33 -4.3 26.66 -6 27 C-5.37423415 21.25077626 -4.36011739 15.74287619 -3 10.125 C-2.82210937 9.36703125 -2.64421875 8.6090625 -2.4609375 7.828125 C-1.13632015 2.27264031 -1.13632015 2.27264031 0 0 Z M4 4 C3.67 6.31 3.34 8.62 3 11 C4.98 10.34 6.96 9.68 9 9 C9 7.68 9 6.36 9 5 C7.35 4.67 5.7 4.34 4 4 Z " fill="#65676B" transform="translate(153,325)"/>
<path d="M0 0 C4.95 0 9.9 0 15 0 C14.67 1.32 14.34 2.64 14 4 C10.7 4 7.4 4 4 4 C3.67 5.98 3.34 7.96 3 10 C6.3 10 9.6 10 13 10 C12.67 11.32 12.34 12.64 12 14 C8.7 14 5.4 14 2 14 C1.01 18.29 0.02 22.58 -1 27 C-2.65 27 -4.3 27 -6 27 C-4.69067794 17.74860596 -2.49694646 8.98900725 0 0 Z " fill="#65676B" transform="translate(69,325)"/>
<path d="M0 0 C1.39456452 0.00667256 2.78911118 0.01863093 4.18359375 0.03515625 C4.89451172 0.03966797 5.60542969 0.04417969 6.33789062 0.04882812 C8.09899388 0.06064761 9.86005411 0.07858362 11.62109375 0.09765625 C11.29109375 1.41765625 10.96109375 2.73765625 10.62109375 4.09765625 C7.32109375 4.09765625 4.02109375 4.09765625 0.62109375 4.09765625 C0.29109375 6.07765625 -0.03890625 8.05765625 -0.37890625 10.09765625 C2.59109375 10.09765625 5.56109375 10.09765625 8.62109375 10.09765625 C8.62109375 11.41765625 8.62109375 12.73765625 8.62109375 14.09765625 C4.99109375 14.09765625 1.36109375 14.09765625 -2.37890625 14.09765625 C-2.56453125 15.92296875 -2.56453125 15.92296875 -2.75390625 17.78515625 C-3.16781931 21.16244684 -3.92464076 23.9952232 -5.37890625 27.09765625 C-6.69890625 27.09765625 -8.01890625 27.09765625 -9.37890625 27.09765625 C-8.93128015 20.94279737 -7.78521886 15.0932858 -6.37890625 9.09765625 C-6.20069336 8.33138916 -6.02248047 7.56512207 -5.83886719 6.77563477 C-4.24292111 0.12262778 -4.24292111 0.12262778 0 0 Z " fill="#65676B" transform="translate(435.37890625,324.90234375)"/>
<path d="M0 0 C1.65 0 3.3 0 5 0 C8 5.625 8 5.625 8 9 C9.11375 7.88625 9.11375 7.88625 10.25 6.75 C11.1575 5.8425 12.065 4.935 13 4 C13.66 3.236875 14.32 2.47375 15 1.6875 C17 0 17 0 19.75 -0.25 C20.4925 -0.1675 21.235 -0.085 22 0 C20.01878627 3.55999343 17.896265 6.21560315 15 9.0625 C10.34235971 14.13110856 9.08461142 19.32286093 8 26 C6.35 26.33 4.7 26.66 3 27 C3.11859375 26.11699219 3.2371875 25.23398437 3.359375 24.32421875 C4.1785412 16.69778138 3.99271518 11.17313716 0.91015625 4.109375 C0 2 0 2 0 0 Z " fill="#65676A" transform="translate(188,325)"/>
<path d="M0 0 C5.94 0 11.88 0 18 0 C17.67 1.32 17.34 2.64 17 4 C14.69 4 12.38 4 10 4 C9.9175 5.19625 9.835 6.3925 9.75 7.625 C9.03563469 14.2888555 6.95292986 20.61437353 5 27 C3.35 27 1.7 27 0 27 C3.07517084 11.25512528 3.07517084 11.25512528 5 4 C3.02 4 1.04 4 -1 4 C-0.67 2.68 -0.34 1.36 0 0 Z " fill="#65676B" transform="translate(287,325)"/>
<path d="M0 0 C5.94 0 11.88 0 18 0 C17.67 1.32 17.34 2.64 17 4 C14.69 4 12.38 4 10 4 C9.9175 5.19625 9.835 6.3925 9.75 7.625 C9.03563469 14.2888555 6.95292986 20.61437353 5 27 C3.35 27 1.7 27 0 27 C0.64458097 23.91640349 1.29088443 20.83317045 1.9375 17.75 C2.11990234 16.87730469 2.30230469 16.00460937 2.49023438 15.10546875 C2.66748047 14.26113281 2.84472656 13.41679687 3.02734375 12.546875 C3.18968506 11.77182617 3.35202637 10.99677734 3.51928711 10.19824219 C3.97361933 8.12063563 4.4726508 6.06015019 5 4 C3.02 4 1.04 4 -1 4 C-0.67 2.68 -0.34 1.36 0 0 Z " fill="#65676B" transform="translate(373,325)"/>
<path d="M0 0 C1.65 0 3.3 0 5 0 C4.37547911 6.20213847 3.0842258 11.99429414 1.4375 18 C1.20353516 18.87011719 0.96957031 19.74023438 0.72851562 20.63671875 C0.15709256 22.75914728 -0.41914957 24.88013594 -1 27 C-2.65 27 -4.3 27 -6 27 C-4.52814886 17.85902974 -2.31460464 8.95504804 0 0 Z " fill="#65676A" transform="translate(59,325)"/>
<path d="M0 0 C1.65 0 3.3 0 5 0 C3.69450978 9.22431907 1.51855006 18.05058909 -1 27 C-2.65 27 -4.3 27 -6 27 C-4.52814886 17.85902974 -2.31460464 8.95504804 0 0 Z " fill="#65676A" transform="translate(337,325)"/>
<path d="M0 0 C1.65 0 3.3 0 5 0 C2.03 12.87 2.03 12.87 -1 26 C-2.65 26.33 -4.3 26.66 -6 27 C-5.5523739 20.84514112 -4.40631261 14.99562955 -3 9 C-2.82178711 8.23373291 -2.64357422 7.46746582 -2.45996094 6.67797852 C-1.12880659 1.12880659 -1.12880659 1.12880659 0 0 Z " fill="#65676B" transform="translate(88,325)"/>
</svg>
