<svg width="73" height="50" viewBox="0 0 73 50" fill="none" xmlns="http://www.w3.org/2000/svg">
<path d="M36.3644 30.6318L35.6398 31.3668C33.0465 34.0129 30.4531 36.6561 27.8598 39.2963C27.8084 39.3549 27.7443 39.4013 27.6724 39.4321C27.6004 39.4629 27.5224 39.4773 27.444 39.4741C21.4714 39.4683 15.4978 39.4683 9.52316 39.4741C9.30193 39.4741 9.07774 39.4741 8.86096 39.4741C7.36988 39.5173 5.89621 39.1476 4.60568 38.4069C3.92612 38.0237 3.33292 37.5069 2.86259 36.8883C1.8589 35.5329 1.66143 34.0511 2.19 32.4664C2.53508 31.4954 3.07611 30.6041 3.78016 29.8468C3.95536 29.6483 4.13947 29.4543 4.32803 29.2676L30.3185 3.66518C31.014 2.95958 31.7507 2.29496 32.5248 1.67473C33.2063 1.11873 33.9668 0.665015 34.7817 0.328167C35.364 0.0898041 35.9916 -0.0210245 36.6213 0.00328534C37.251 0.0412492 37.867 0.201595 38.4341 0.475172C39.226 0.860957 39.9654 1.34453 40.6345 1.91435C41.2908 2.44945 41.901 3.03306 42.5023 3.62549L68.5299 29.2749C69.2793 29.9877 69.8996 30.8226 70.3636 31.7431C70.7236 32.4553 70.9203 33.2373 70.9397 34.0335C70.9592 35.1077 70.5948 36.1542 69.9107 36.9883C69.1735 37.8937 68.1969 38.5787 67.0897 38.967C66.0935 39.3356 65.0348 39.5103 63.9718 39.4815C63.8114 39.4815 63.6511 39.4815 63.4907 39.4815C57.4626 39.4815 51.4351 39.4815 45.408 39.4815C45.3365 39.4857 45.2651 39.474 45.1988 39.4473C45.1325 39.4206 45.0731 39.3795 45.0249 39.3271C42.2534 36.4958 39.4784 33.6669 36.6999 30.8405L36.4847 30.62C36.5348 30.5909 36.5938 30.5805 36.6509 30.5906H50.9639C51.3113 30.5906 51.6588 30.6171 52.0032 30.5906C52.4239 30.5658 52.8377 30.473 53.2281 30.3157C53.3888 30.2504 53.5417 30.1675 53.6839 30.0688C53.9541 29.8922 54.1611 29.6357 54.2754 29.3359C54.3898 29.036 54.4057 28.7081 54.3209 28.3988C54.2264 28.0327 54.0649 27.6869 53.8443 27.3786C53.6298 27.0747 53.3873 26.7912 53.1197 26.5318L50.416 23.8622C46.4369 19.9244 42.4583 15.9852 38.4802 12.0445C38.2434 11.799 37.9861 11.5738 37.7111 11.3712C37.5326 11.2432 37.341 11.1343 37.1394 11.0463C36.9162 10.9471 36.6744 10.8958 36.4297 10.8958C36.1851 10.8958 35.9432 10.9471 35.72 11.0463C35.3234 11.2275 34.9621 11.4763 34.6525 11.7813C34.5693 11.8578 34.4906 11.9372 34.4105 12.018L19.8095 26.473C19.4714 26.793 19.1724 27.1512 18.9186 27.5403C18.7217 27.8405 18.5865 28.1762 18.5207 28.5281C18.4637 28.8026 18.487 29.0875 18.588 29.3492C18.689 29.611 18.8635 29.8387 19.0909 30.0055C19.4439 30.2697 19.8558 30.4462 20.292 30.5201C20.7325 30.6005 21.181 30.6291 21.6283 30.6053C21.7768 30.6053 21.9252 30.5965 22.0737 30.5965H36.3555L36.3644 30.6318Z" fill="#407B8D"/>
<path d="M0 40.8354C0.0905695 40.8236 0.121749 40.9045 0.170746 40.9501C0.867091 41.5969 1.56789 42.2393 2.29393 42.8611C3.04812 43.5243 3.85331 44.1284 4.70219 44.6678C5.49203 45.1696 6.38178 45.497 7.31089 45.6278C7.76176 45.6816 8.21531 45.7106 8.66943 45.7145C9.06437 45.7145 9.45783 45.7145 9.85723 45.7145H63.3957C63.9896 45.7145 64.5835 45.7042 65.1774 45.6513C66.1917 45.5503 67.1677 45.2144 68.0266 44.6708C68.847 44.1489 69.6258 43.5656 70.3562 42.9258C71.0985 42.2981 71.8142 41.6439 72.5239 40.9809C72.5759 40.922 72.6376 40.8723 72.7065 40.8339C72.7466 40.8633 72.7184 40.8913 72.7065 40.9163C71.8647 42.5333 71.0273 44.1651 70.0058 45.6895C69.6062 46.3011 69.1451 46.8709 68.6294 47.3904C67.826 48.188 66.7899 48.7155 65.6673 48.8986C64.9237 49.0283 64.17 49.0922 63.415 49.0897C45.3803 49.0897 27.3451 49.0897 9.30936 49.0897C8.39342 49.1029 7.47933 49.0042 6.58782 48.7957C5.63624 48.5591 4.76902 48.0673 4.08157 47.3742C3.46816 46.7458 2.92689 46.0521 2.46765 45.3058C1.62134 43.9828 0.895302 42.6024 0.1752 41.2147C0.0964464 41.0999 0.038189 40.9726 0.00296942 40.8383L0 40.8354Z" fill="#407B8D"/>
<path d="M36.3317 19.4623C37.3954 19.4618 38.4353 19.7737 39.3198 20.3586C40.2044 20.9435 40.8937 21.7751 41.3006 22.7481C41.7075 23.7212 41.8137 24.7918 41.6057 25.8246C41.3977 26.8574 40.8848 27.8059 40.1321 28.55C39.3793 29.294 38.4205 29.8002 37.3771 30.0045C36.3336 30.2087 35.2524 30.1018 34.2703 29.6973C33.2882 29.2928 32.4494 28.6089 31.8602 27.7322C31.2709 26.8554 30.9576 25.8253 30.9599 24.7722C30.965 23.3639 31.5329 22.015 32.5395 21.02C33.546 20.0251 34.9094 19.4651 36.3317 19.4623Z" fill="#407B8D"/>
<path d="M52.1784 42.1952C52.1695 42.2525 52.2155 42.279 52.2393 42.3172C52.3346 42.4507 52.3858 42.6102 52.3858 42.7737C52.3858 42.9371 52.3346 43.0966 52.2393 43.2301C52.0501 43.5081 51.7586 43.7017 51.4271 43.7696C51.344 43.7917 51.2579 43.8049 51.1421 43.827C51.439 44.071 51.782 44.2121 52.1116 44.415C51.9854 44.5296 51.8711 44.634 51.7553 44.7369C51.7364 44.7508 51.7135 44.7582 51.6899 44.7582C51.6664 44.7582 51.6435 44.7508 51.6246 44.7369C51.4984 44.6752 51.3692 44.6208 51.2475 44.5546C50.7688 44.2717 50.3136 43.9517 49.886 43.5976C50.027 43.4962 50.1532 43.4065 50.2779 43.3139C50.3284 43.2772 50.3685 43.3022 50.4041 43.3301C50.7308 43.5962 51.056 43.4771 51.3767 43.3227C51.4381 43.2972 51.4923 43.257 51.5343 43.2057C51.5762 43.1544 51.6047 43.0936 51.6172 43.0287C51.5622 42.9817 51.5147 43.0287 51.4687 43.0375C51.158 43.1284 50.8245 43.1043 50.5303 42.9699C50.4319 42.9273 50.3423 42.867 50.2661 42.792C50.1027 42.6303 50.0805 42.5083 50.1562 42.1908C50.128 42.154 50.0849 42.1629 50.0478 42.1629C49.6662 42.1629 49.2861 42.1629 48.9046 42.1629C48.7338 42.1629 48.7323 42.1629 48.7308 42.3437V42.7847C48.7308 42.9905 48.7457 42.9817 48.5378 42.9817H47.1748C47.0947 42.9788 47.0147 42.9877 46.9373 43.0081C46.8848 43.0204 46.836 43.0446 46.7947 43.079C46.7535 43.1133 46.7209 43.1567 46.6997 43.2057C46.6785 43.2548 46.6691 43.3081 46.6725 43.3613C46.6759 43.4146 46.6918 43.4663 46.719 43.5124C46.7705 43.6135 46.8504 43.6977 46.9491 43.7549C47.1821 43.9009 47.4515 43.9798 47.7271 43.9828C47.8296 43.9828 47.892 43.9622 47.9216 43.8358C47.9413 43.7638 47.976 43.6968 48.0236 43.639C48.0712 43.5812 48.1306 43.5341 48.1979 43.5007C48.2652 43.4672 48.3388 43.4482 48.414 43.4449C48.4892 43.4416 48.5643 43.4541 48.6343 43.4815C48.7056 43.5016 48.7689 43.5428 48.8159 43.5996C48.8629 43.6563 48.8912 43.7259 48.8971 43.799C48.9062 43.8686 48.8932 43.9391 48.8599 44.001C48.8267 44.0629 48.7748 44.1131 48.7115 44.1445L48.6121 44.1989C48.7175 44.4341 48.909 44.6076 49.0723 44.8325C48.8363 44.8486 48.6269 44.8398 48.4176 44.8398C48.3626 44.8398 48.3389 44.7957 48.3136 44.756C48.2541 44.669 48.1996 44.5787 48.1503 44.4855C48.1338 44.4427 48.1035 44.4065 48.064 44.3825C48.0245 44.3586 47.9781 44.3483 47.932 44.3532C47.6113 44.3578 47.2913 44.3208 46.9803 44.243C46.7645 44.1954 46.5589 44.1103 46.3731 43.9916C46.2736 43.9301 46.1879 43.849 46.1213 43.7534C46.0546 43.6579 46.0084 43.5498 45.9855 43.4359C45.9588 43.3282 45.9645 43.2151 46.002 43.1106C46.0395 43.0061 46.107 42.9148 46.1964 42.8479C46.3883 42.6891 46.6307 42.6026 46.8808 42.6039C47.2016 42.6039 47.5223 42.6039 47.843 42.6039C48.0226 42.6039 48.0256 42.6039 48.0256 42.4304C48.0256 42.1232 48.0479 42.1599 47.7613 42.1599C47.1006 42.1599 46.4384 42.1599 45.7777 42.1599C45.7242 42.1599 45.6708 42.1599 45.6173 42.1599C45.609 42.1605 45.6007 42.1595 45.5928 42.1568C45.5849 42.1542 45.5776 42.15 45.5714 42.1445C45.5652 42.139 45.5601 42.1323 45.5565 42.1249C45.5529 42.1174 45.5509 42.1094 45.5505 42.1011C45.5505 42.0805 45.5505 42.0614 45.5505 42.0408C45.5327 41.7777 45.5327 41.7777 45.794 41.7777H53.246C53.246 41.6924 53.1806 41.6748 53.145 41.6425C53.0545 41.5639 52.9759 41.4728 52.9119 41.372C52.8433 41.2722 52.8126 41.1515 52.8254 41.0315C52.8382 40.9114 52.8936 40.7998 52.9817 40.7163C53.1363 40.5574 53.3422 40.457 53.5637 40.4326C53.7357 40.4042 53.9119 40.4127 54.0804 40.4576C54.2289 40.5032 54.2289 40.5032 54.2289 40.6619C54.2333 40.7044 54.224 40.7471 54.2021 40.784C54.0854 40.7604 53.9664 40.75 53.8473 40.7531C53.528 40.7648 53.335 40.9383 53.3335 41.2161C53.3287 41.3595 53.3815 41.499 53.4803 41.604C53.5791 41.7089 53.7158 41.7709 53.8606 41.7762C53.9467 41.7762 54.0343 41.7762 54.1205 41.7762C54.1546 41.7762 54.2021 41.7762 54.2066 41.81C54.2281 41.9138 54.2281 42.0209 54.2066 42.1246C54.2066 42.1511 54.1665 42.157 54.1398 42.1585C54.113 42.1599 54.073 42.1585 54.0403 42.1585C53.7879 42.1585 53.8102 42.1364 53.8102 42.401C53.8102 43.0968 53.8102 43.7917 53.8102 44.4855C53.8102 44.5311 53.8102 44.5782 53.8102 44.6237C53.8102 44.6958 53.7864 44.7384 53.7077 44.7384H53.1777C53.1079 44.7384 53.0871 44.6987 53.09 44.6355C53.093 44.5723 53.09 44.5429 53.09 44.4973C53.09 43.7887 53.09 43.0816 53.09 42.3731C53.09 42.1614 53.09 42.1614 52.8688 42.1599C52.6892 42.1599 52.508 42.1599 52.3284 42.1599C52.2764 42.1702 52.2215 42.154 52.1784 42.1952ZM51.1168 42.1423C51.0626 42.144 51.0085 42.1494 50.955 42.1585C50.8887 42.167 50.8272 42.1976 50.7806 42.2451C50.734 42.2925 50.7049 42.3542 50.6981 42.4201C50.7031 42.4832 50.7284 42.543 50.7704 42.5907C50.8124 42.6383 50.8688 42.6713 50.9312 42.6847C51.0323 42.719 51.1395 42.7318 51.2459 42.7224C51.3523 42.7131 51.4555 42.6817 51.5489 42.6303C51.7181 42.5363 51.73 42.4157 51.5786 42.2908C51.4458 42.1914 51.2832 42.1391 51.1168 42.1423Z" fill="#407B8D"/>
<path d="M22.8131 42.1673H20.1035C20.0812 42.043 20.0782 41.9161 20.0945 41.7909H28.8145C29.0832 41.7909 29.0906 41.8027 29.0669 42.0702C29.0669 42.1467 29.0283 42.1761 28.9555 42.1761H27.1322C26.9838 42.1761 26.9838 42.1761 26.9838 42.3231C26.9838 42.4701 26.9838 42.5612 26.9838 42.6803C26.9877 42.7025 26.9942 42.7242 27.0031 42.745C27.1685 42.6586 27.347 42.5995 27.5316 42.5701C27.701 42.5468 27.8733 42.5569 28.0386 42.5998C28.204 42.6427 28.3592 42.7175 28.4952 42.82C28.6399 42.9145 28.7409 43.0618 28.7762 43.2298C28.8116 43.3979 28.7783 43.5729 28.6838 43.7167C28.522 43.9843 28.3025 44.2133 28.0409 44.387C28.0237 44.4028 28.0017 44.4124 27.9783 44.4145C27.955 44.4167 27.9316 44.4111 27.9117 44.3988C27.7722 44.3224 27.6311 44.2518 27.4767 44.1665C27.6001 44.0765 27.7171 43.9782 27.8271 43.8725C27.9447 43.7633 28.0312 43.6254 28.078 43.4727C28.0943 43.4151 28.0979 43.3548 28.0887 43.2958C28.0795 43.2368 28.0576 43.1804 28.0245 43.1304C27.9915 43.0804 27.948 43.038 27.8971 43.006C27.8461 42.974 27.7889 42.9532 27.7291 42.9449C27.5923 42.9346 27.455 42.958 27.3295 43.0132C27.2041 43.0683 27.0945 43.1535 27.0105 43.261C26.9829 43.3139 26.973 43.3741 26.9823 43.433C26.9823 43.8167 26.9823 44.2003 26.9823 44.584C26.9823 44.7487 26.9823 44.7501 26.8175 44.7531C26.6838 44.7531 26.5502 44.7531 26.4166 44.7531C26.3231 44.7531 26.2815 44.7178 26.2845 44.6252C26.2874 44.5326 26.2845 44.44 26.2845 44.3474C26.2925 44.2577 26.286 44.1674 26.2652 44.0798C26.1093 44.1004 25.9682 44.1724 25.8079 44.1915C25.4611 44.2456 25.1062 44.1752 24.8071 43.9931C24.6599 43.9109 24.5454 43.7816 24.4825 43.6263C24.4196 43.471 24.4121 43.2991 24.4612 43.139C24.4896 43.047 24.5368 42.9618 24.5999 42.8887C24.663 42.8156 24.7406 42.7562 24.8279 42.7141C25.1106 42.5764 25.4215 42.5049 25.7366 42.5054C25.7665 42.5014 25.7969 42.5087 25.8217 42.5258C25.8464 42.543 25.8638 42.5688 25.8702 42.598C25.8999 42.6788 25.9326 42.7582 25.9608 42.8317C25.9296 42.8964 25.8762 42.8729 25.8331 42.8744C25.6657 42.8744 25.5003 42.9095 25.3476 42.9773C25.2709 43.011 25.2061 43.0666 25.1615 43.137C25.117 43.2073 25.0946 43.2893 25.0973 43.3723C25.1 43.4553 25.1277 43.5357 25.1768 43.603C25.2258 43.6704 25.2941 43.7218 25.3728 43.7505C25.5141 43.8024 25.6669 43.8162 25.8154 43.7904C25.9638 43.7645 26.1027 43.7 26.2176 43.6035C26.243 43.5774 26.2623 43.5461 26.2741 43.5118C26.2859 43.4775 26.29 43.4411 26.2859 43.405C26.2859 43.0478 26.2859 42.6906 26.2859 42.3334C26.2859 42.1761 26.2859 42.1732 26.1122 42.1732H24.2444C24.0766 42.1732 23.9103 42.1732 23.7426 42.1732C23.5748 42.1732 23.5941 42.1731 23.5941 42.3319C23.5941 43.0537 23.5941 43.774 23.5941 44.4958C23.5941 44.7722 23.6297 44.7516 23.3387 44.7531C23.2378 44.7531 23.1368 44.7531 23.0418 44.7531C22.9022 44.7531 22.8933 44.7531 22.8933 44.6061C22.8933 44.2562 22.8933 43.9049 22.8933 43.555C22.8933 43.5021 22.8933 43.4492 22.8933 43.3962C22.8933 43.2286 22.8933 43.2257 22.7285 43.2242C22.4078 43.2242 22.0871 43.2242 21.7664 43.2242C21.6639 43.2242 21.6179 43.2566 21.6283 43.361C21.6327 43.4403 21.6327 43.5198 21.6283 43.5991C21.6209 43.7931 21.5184 43.8593 21.3313 43.7784C21.2461 43.7381 21.1655 43.6888 21.0908 43.6314C20.8959 43.4921 20.7193 43.3291 20.5652 43.1463C20.4331 42.989 20.5222 42.8758 20.6721 42.8361C20.7437 42.8207 20.8172 42.8147 20.8904 42.8185H22.6958C22.8844 42.8185 22.8888 42.8185 22.8859 42.6347C22.9013 42.4836 22.8943 42.3311 22.8651 42.182C22.8443 42.154 22.8354 42.1482 22.8131 42.1673Z" fill="#407B8D"/>
<path d="M20.001 42.1643H19.7041C19.6833 42.1452 19.6669 42.1496 19.6551 42.1732C19.6076 42.2393 19.6298 42.3202 19.6298 42.3848C19.6298 43.0856 19.6298 43.7863 19.6298 44.487C19.6298 44.5341 19.6298 44.5796 19.6298 44.634C19.6298 44.7163 19.6016 44.756 19.5155 44.7546C19.3551 44.7546 19.1948 44.7546 19.0344 44.7546C18.9572 44.7546 18.9261 44.7237 18.9275 44.6487C18.9275 44.5488 18.9275 44.4503 18.9275 44.3547C18.9275 43.6947 18.9275 43.0317 18.9275 42.3716C18.9275 42.1834 18.9275 42.182 18.7434 42.1805C18.5237 42.1805 18.298 42.1805 18.0827 42.1805C17.9342 42.1805 17.9342 42.1805 17.9268 42.3378C17.9268 43.0581 17.9268 43.7784 17.9268 44.4988C17.9268 44.7707 17.961 44.7604 17.6714 44.7604C17.5645 44.7604 17.4576 44.7604 17.3507 44.7604C17.2438 44.7604 17.2112 44.7252 17.2127 44.6223C17.2127 44.3282 17.2127 44.0269 17.2127 43.7299C17.2127 43.433 17.2602 43.4521 16.9395 43.4506H16.2372C16.016 43.4506 16.016 43.4506 16.0145 43.6623C16.0167 43.702 16.0167 43.7417 16.0145 43.7814C16.015 43.8147 16.0073 43.8476 15.9921 43.8772C15.9768 43.9069 15.9543 43.9323 15.9267 43.9513C15.8992 43.9704 15.8673 43.9824 15.8339 43.9863C15.8005 43.9903 15.7667 43.986 15.7353 43.974C15.691 43.959 15.6486 43.9387 15.6091 43.9137C15.3502 43.762 15.113 43.5766 14.9039 43.3624C14.8534 43.3124 14.7821 43.261 14.8133 43.1787C14.8445 43.0963 14.9351 43.0831 15.0137 43.0728C15.0869 43.067 15.1604 43.067 15.2335 43.0728C15.3137 43.0728 15.3389 43.0375 15.3389 42.964C15.3389 42.7465 15.3389 42.523 15.3389 42.3099C15.3389 42.2128 15.3018 42.1834 15.2097 42.1849C14.9959 42.1849 14.7821 42.1849 14.5683 42.1849C14.4035 42.1849 14.4035 42.1849 14.4005 42.0188C14.4005 41.9732 14.4005 41.9262 14.4005 41.8806C14.4005 41.835 14.4317 41.7983 14.4881 41.7998H20.0173C20.0301 41.9214 20.0246 42.0443 20.001 42.1643ZM16.6084 43.0625C16.7672 43.0625 16.9276 43.0625 17.0865 43.0625C17.1666 43.0625 17.2112 43.0434 17.2112 42.9538C17.2112 42.7288 17.2112 42.5054 17.2112 42.2819C17.2112 42.2055 17.1785 42.1746 17.1043 42.1746H16.1258C16.0397 42.1746 16.0115 42.2143 16.0115 42.2952C16.0115 42.5127 16.0115 42.7362 16.0115 42.9479C16.0115 43.0346 16.0471 43.064 16.1303 43.0625C16.2847 43.0537 16.4436 43.0625 16.6084 43.0625Z" fill="#407B8D"/>
<path d="M56.6193 44.0578C56.4579 44.1182 56.2907 44.1625 56.1204 44.1901C55.7874 44.2397 55.4473 44.1732 55.1583 44.0019C55.0366 43.9378 54.9353 43.8414 54.8658 43.7235C54.7963 43.6056 54.7614 43.4709 54.7648 43.3345C54.7628 43.2214 54.7901 43.1097 54.8442 43.0101C54.8983 42.9105 54.9773 42.8263 55.0737 42.7656C55.379 42.5844 55.7304 42.4936 56.0863 42.5039C56.1093 42.5006 56.1328 42.5058 56.1523 42.5186C56.1717 42.5313 56.1857 42.5507 56.1917 42.573C56.2243 42.6656 56.263 42.7553 56.306 42.8597L55.9348 42.8949C55.8354 42.9063 55.7393 42.9378 55.6527 42.9876C55.5831 43.0217 55.5247 43.0746 55.484 43.1401C55.4433 43.2056 55.422 43.2811 55.4226 43.358C55.4224 43.4348 55.4443 43.5101 55.4859 43.5749C55.5275 43.6398 55.5869 43.6915 55.6572 43.7241C55.8114 43.8074 55.9921 43.829 56.162 43.7843C56.2797 43.7561 56.391 43.7063 56.4901 43.6373C56.5332 43.6125 56.5685 43.5762 56.5918 43.5325C56.6152 43.4889 56.6257 43.4396 56.6223 43.3904C56.6148 43.0405 56.6223 42.6891 56.6223 42.3393C56.6223 42.1658 56.6223 42.1629 56.4456 42.1629H54.5184C54.3328 42.1629 54.3313 42.1629 54.3313 41.9776C54.3313 41.7601 54.3135 41.7777 54.5377 41.7777H59.2889C59.3646 41.7777 59.4017 41.8027 59.3958 41.8806C59.395 41.887 59.395 41.8934 59.3958 41.8997C59.3958 42.204 59.4136 42.1614 59.1463 42.1629H57.5606C57.2711 42.1629 57.3097 42.1629 57.3067 42.4054V42.7406C57.4838 42.6483 57.6749 42.5853 57.8724 42.5539C58.1935 42.5127 58.5186 42.5902 58.7855 42.7715C58.8655 42.8175 58.9351 42.8794 58.9899 42.9533C59.0447 43.0271 59.0835 43.1114 59.104 43.2007C59.1245 43.2901 59.1262 43.3827 59.1089 43.4727C59.0917 43.5628 59.0559 43.6483 59.0038 43.7241C58.8444 43.9774 58.6335 44.1951 58.3847 44.3635C58.3621 44.3831 58.3335 44.3945 58.3036 44.3958C58.2736 44.3971 58.2441 44.3883 58.2198 44.3709C58.0922 44.2988 57.9615 44.2327 57.8234 44.1592C57.8561 44.0945 57.914 44.0725 57.957 44.0386C58.1095 43.9302 58.2391 43.7934 58.3386 43.6358C58.3965 43.5579 58.4277 43.4636 58.4277 43.3668C58.4277 43.2701 58.3965 43.1758 58.3386 43.0978C58.2734 43.0217 58.1865 42.9669 58.0892 42.9406C57.9919 42.9144 57.8889 42.9179 57.7937 42.9508C57.6282 43.0047 57.4794 43.0999 57.3617 43.2272C57.3382 43.2554 57.3211 43.2881 57.3114 43.3234C57.3016 43.3586 57.2996 43.3954 57.3052 43.4315C57.3052 43.8078 57.3052 44.1842 57.3052 44.562C57.3052 44.7443 57.3052 44.7443 57.1167 44.7457C56.9964 44.7457 56.8762 44.7457 56.7559 44.7457C56.6356 44.7457 56.6074 44.7178 56.6074 44.6105C56.6237 44.437 56.6193 44.2606 56.6193 44.0578Z" fill="#407B8D"/>
<path d="M41.8134 42.1643H41.509C41.4868 42.1452 41.4719 42.1496 41.46 42.1746C41.4323 42.2421 41.4241 42.3159 41.4363 42.3878C41.4363 43.0758 41.4363 43.7637 41.4363 44.4458V44.5458C41.4363 44.7384 41.4363 44.7384 41.2373 44.7399C41.1245 44.7399 41.0102 44.7399 40.8973 44.7399C40.737 44.7399 40.7355 44.7399 40.734 44.5693C40.7325 44.3988 40.734 44.2121 40.734 44.0342C40.7376 44.0171 40.7373 43.9994 40.7332 43.9824C40.7291 43.9653 40.7213 43.9494 40.7102 43.9357C40.6419 43.9254 40.5915 43.9769 40.5321 44.0004C40.2197 44.1376 39.8827 44.2115 39.541 44.2178C39.1994 44.2241 38.8599 44.1627 38.5425 44.0372C38.1985 43.9172 37.9103 43.6774 37.7318 43.3624C37.7046 43.3094 37.6803 43.2549 37.6591 43.1992C37.656 43.1743 37.656 43.1492 37.6591 43.1243C37.8444 43.1534 38.0313 43.1711 38.2188 43.1772C38.4325 43.1896 38.6465 43.1575 38.8469 43.0831C38.9612 43.0421 39.0633 42.9734 39.1438 42.8832C39.197 42.8213 39.2335 42.747 39.2497 42.6674C39.2659 42.5877 39.2614 42.5053 39.2367 42.4278C39.2119 42.3503 39.1676 42.2804 39.108 42.2245C39.0484 42.1687 38.9754 42.1287 38.8959 42.1085C38.7795 42.0754 38.656 42.0754 38.5395 42.1085C38.4902 42.1195 38.4453 42.145 38.4109 42.1818C38.3764 42.2185 38.354 42.2647 38.3465 42.3143C38.3503 42.3644 38.3712 42.4118 38.4057 42.4486C38.4403 42.4855 38.4864 42.5096 38.5366 42.5171C38.6138 42.5363 38.6657 42.548 38.6687 42.6494C38.6687 42.8861 38.6687 42.892 38.4252 42.8567C38.2727 42.8373 38.1252 42.79 37.9902 42.7171C37.6383 42.5127 37.6279 42.1202 37.9679 41.8953C38.1462 41.7839 38.3512 41.7215 38.5618 41.7145C38.9037 41.6816 39.2469 41.7623 39.5373 41.9438C39.662 42.0222 39.7675 42.1272 39.8461 42.2511C39.9235 42.3647 39.9623 42.4997 39.9569 42.6366C39.9516 42.7735 39.9024 42.9052 39.8164 43.0126C39.7027 43.1561 39.5605 43.2752 39.3987 43.3624C39.2368 43.4496 39.0586 43.5031 38.8751 43.5197C38.819 43.5164 38.7628 43.5249 38.7103 43.5447C38.7251 43.6329 38.8009 43.6667 38.8588 43.7035C39.0902 43.827 39.3566 43.8709 39.616 43.8284C39.9961 43.7779 40.3529 43.6179 40.6419 43.3683C40.6719 43.3474 40.6964 43.3197 40.7132 43.2874C40.73 43.2552 40.7387 43.2194 40.7385 43.1831C40.7385 42.8891 40.7385 42.5877 40.7385 42.2908C40.7385 42.1834 40.6954 42.1511 40.59 42.1555C40.4846 42.1599 40.3628 42.1555 40.25 42.1555C40.1802 42.1555 40.1416 42.1379 40.1342 42.0555C40.1089 41.7792 40.1149 41.7689 40.397 41.7704H41.8208C41.8395 41.9012 41.837 42.0342 41.8134 42.1643Z" fill="#407B8D"/>
<path d="M41.9069 41.788C43.0413 41.788 44.1771 41.788 45.3115 41.7806C45.4139 41.7806 45.4599 41.8086 45.451 41.9144C45.451 41.9468 45.451 41.9806 45.451 42.0129C45.451 42.1599 45.451 42.1673 45.2922 42.1687C44.9952 42.1687 45.0368 42.154 45.0368 42.426C45.0368 43.112 45.0368 43.798 45.0368 44.4841C45.0346 44.5237 45.0346 44.5635 45.0368 44.6031C45.0472 44.7016 45.0145 44.7501 44.9046 44.7501C44.7636 44.7501 44.624 44.7501 44.483 44.7501C44.3805 44.7501 44.3419 44.7178 44.3449 44.6134C44.3449 44.3826 44.3449 44.1504 44.3449 43.9225C44.2796 43.8843 44.238 43.9313 44.1964 43.9519C43.751 44.1709 43.3056 44.3929 42.8527 44.6149C42.535 44.7693 42.6389 44.7854 42.3746 44.534C42.3139 44.4861 42.2634 44.4266 42.2262 44.3591L43.3516 43.9181C43.3044 43.8734 43.243 43.8463 43.1779 43.8417C42.9511 43.7808 42.7472 43.6556 42.5914 43.4815C42.4575 43.34 42.3855 43.152 42.391 42.9582C42.3999 42.7406 42.391 42.5171 42.391 42.304C42.391 42.2025 42.3613 42.157 42.2559 42.157C42.1504 42.157 42.0287 42.157 41.9159 42.157C41.8929 42.0353 41.8899 41.9107 41.9069 41.788ZM43.7258 42.1687C43.5595 42.1687 43.3917 42.1687 43.2254 42.1687C43.1185 42.1687 43.0769 42.207 43.0844 42.3084C43.0844 42.5657 43.0844 42.8244 43.0844 43.0816C43.0773 43.1924 43.1142 43.3015 43.1871 43.3858C43.26 43.47 43.3632 43.5228 43.4748 43.5329C43.6102 43.5579 43.7494 43.5536 43.8829 43.5203C44.0164 43.4871 44.1411 43.4257 44.2484 43.3404C44.2789 43.3207 44.3038 43.2936 44.3207 43.2617C44.3376 43.2298 44.3459 43.1941 44.3449 43.1581C44.3449 42.8729 44.3449 42.5877 44.3449 42.304C44.3449 42.1952 44.3004 42.1658 44.1964 42.1687C44.0465 42.1717 43.8861 42.1687 43.7258 42.1687Z" fill="#407B8D"/>
<path d="M36.4461 43.777C36.0954 43.918 35.7085 43.9448 35.3414 43.8534C35.1126 43.8033 34.9051 43.6841 34.7475 43.5124C34.6736 43.4404 34.6157 43.3539 34.5776 43.2585C34.5395 43.163 34.522 43.0607 34.5263 42.9582C34.5367 42.7421 34.5263 42.5171 34.5263 42.3055C34.5263 42.1981 34.4862 42.1585 34.3778 42.1687C34.2694 42.179 34.1922 42.1687 34.0987 42.1687C34.0348 42.1687 34.0066 42.1423 33.9977 42.0761C33.9665 41.8056 33.9829 41.7821 34.2561 41.7821H37.3592C37.5893 41.7821 37.57 41.7557 37.57 41.9967C37.57 42.1629 37.57 42.1629 37.4082 42.1673C37.3621 42.1673 37.3146 42.1673 37.2686 42.1673C37.1929 42.1673 37.1617 42.1996 37.1632 42.2746C37.1632 42.379 37.1632 42.4848 37.1632 42.5906V44.5326C37.1632 44.7384 37.1914 44.7457 36.942 44.7457H36.645C36.4772 44.7457 36.4757 44.7457 36.4743 44.584C36.4743 44.3856 36.4743 44.1871 36.4743 43.9887C36.4858 43.9169 36.476 43.8433 36.4461 43.777ZM35.867 42.1687C35.6948 42.1687 35.5211 42.1687 35.3473 42.1687C35.2449 42.1687 35.2093 42.207 35.2107 42.3157C35.2107 42.573 35.2107 42.8303 35.2107 43.0861C35.2041 43.1934 35.2387 43.2992 35.3075 43.3823C35.3763 43.4655 35.4744 43.5198 35.5819 43.5344C35.7193 43.5635 35.8614 43.5623 35.9982 43.5308C36.135 43.4993 36.2631 43.4383 36.3733 43.3521C36.4045 43.3331 36.4303 43.3065 36.4482 43.2749C36.4661 43.2432 36.4756 43.2076 36.4757 43.1713C36.4757 42.8773 36.4757 42.5906 36.4757 42.301C36.4757 42.2055 36.4327 42.1731 36.3421 42.1746C36.1877 42.1717 36.0274 42.1687 35.867 42.1687Z" fill="#407B8D"/>
<path d="M30.0305 42.1805C30.124 42.1805 30.2175 42.1805 30.3096 42.1805C30.4017 42.1805 30.4373 42.1981 30.4328 42.2893C30.4284 42.3804 30.4328 42.5127 30.4328 42.6259C30.4328 42.7127 30.3942 42.7391 30.3126 42.7376C30.1196 42.7376 29.9265 42.7376 29.7335 42.7376C29.6519 42.7376 29.6073 42.7127 29.6088 42.6259C29.6088 42.5142 29.6088 42.401 29.6088 42.2893C29.6088 42.2025 29.6489 42.1746 29.7305 42.179C29.8122 42.1834 29.931 42.1805 30.0305 42.1805Z" fill="#407B8D"/>
<path d="M30.0394 43.8064H30.3363C30.3495 43.8041 30.3631 43.8051 30.3758 43.8093C30.3885 43.8135 30.3999 43.8207 30.4092 43.8302C30.4184 43.8398 30.4251 43.8515 30.4287 43.8643C30.4323 43.877 30.4327 43.8905 30.4299 43.9034C30.4291 43.9102 30.4291 43.9171 30.4299 43.924C30.4596 44.365 30.4596 44.365 30.0201 44.365C29.9265 44.365 29.833 44.365 29.7409 44.365C29.6489 44.365 29.6014 44.3209 29.6058 44.218C29.6103 44.1151 29.6058 44.0342 29.6058 43.9416C29.6058 43.8064 29.6058 43.8049 29.7543 43.802L30.0394 43.8064Z" fill="#407B8D"/>
<path d="M60.6593 42.1805C60.7261 42.1805 60.7484 42.2084 60.7558 42.2731C60.8078 42.723 60.7974 42.7362 60.349 42.7362C59.9006 42.7362 59.8932 42.7362 59.9422 42.2731C59.9422 42.207 59.9718 42.179 60.0387 42.1805H60.6593Z" fill="#407B8D"/>
<path d="M60.3609 43.8064C60.447 43.8064 60.5331 43.8064 60.6192 43.8064C60.7053 43.8064 60.7677 43.8328 60.7602 43.9387C60.7454 44.465 60.8389 44.3532 60.3534 44.3606C59.8961 44.3694 59.8976 44.3606 59.9451 43.9019C59.9451 43.8358 59.9733 43.8078 60.0401 43.8078C60.147 43.8078 60.2539 43.8078 60.3609 43.8078V43.8064Z" fill="#407B8D"/>
</svg>
