<svg width="72" height="72" viewBox="0 0 72 72" fill="none" xmlns="http://www.w3.org/2000/svg">
<path fill-rule="evenodd" clip-rule="evenodd" d="M47.9055 22.6728L52.3424 25.2359L36.0026 34.6643L31.5658 32.1055L47.3275 23.006L47.9055 22.6728ZM43.3336 20.7044L26.9025 30.1891C26.8828 30.2004 26.8659 30.213 26.842 30.2257L26.4159 30.4731V35.941L28.0978 36.9139V32.0998H28.1021C28.1021 31.7019 28.3088 31.3111 28.68 31.096L45.5865 21.3399L43.9116 20.3712L43.3336 20.7044ZM53.1032 46.3269C53.3549 46.1835 53.4983 45.9318 53.4983 45.6408V27.2366L37.1656 36.6664V55.5262L53.1032 46.3269ZM18.5097 45.6408C18.5097 45.9318 18.6532 46.1835 18.9049 46.3269L34.8424 55.5248V36.665L30.421 34.1146V38.9216C30.421 39.5627 29.9021 40.0815 29.2608 40.0815C29.0091 40.0815 28.7785 40.0014 28.5872 39.8664L24.6763 37.6112C24.4996 37.5098 24.3528 37.3636 24.2506 37.1874C24.1484 37.0111 24.0944 36.8111 24.0941 36.6074H24.0899V30.4605L18.5083 27.2408V45.6408H18.5097ZM35.6075 16.0323L19.6699 25.2344L25.2628 28.4626L25.6818 28.2193C25.7015 28.2081 25.7254 28.1954 25.7451 28.1828L41.5983 19.0327L36.3964 16.0323C36.1461 15.8889 35.8592 15.8889 35.6075 16.0323ZM61.4678 10.5448C54.9496 4.02812 45.9493 0 36.0026 0C30.625 0 25.5103 1.18383 20.9145 3.31248C17.3059 4.97715 14.0222 7.22953 11.1717 9.94728C10.8243 10.2777 10.2702 10.2735 9.93133 9.93181L5.66604 5.67171C5.40728 5.41301 5.04024 5.3413 4.70132 5.48049C4.3624 5.61968 4.15146 5.93462 4.15146 6.30158V20.0872C4.15146 20.5736 4.54944 20.9715 5.04024 20.9715H18.829C19.196 20.9715 19.5068 20.7649 19.646 20.426C19.7895 20.0872 19.7135 19.716 19.4548 19.4573L15.2092 15.2127C15.0334 15.0369 14.9462 14.8218 14.9504 14.5715C14.9546 14.3199 15.0502 14.109 15.2288 13.9374C17.5886 11.7174 20.3112 9.87276 23.301 8.48928C27.1556 6.70791 31.4575 5.71529 36.0012 5.71529C44.3687 5.71529 51.943 9.10229 57.4233 14.5828C62.7377 19.896 66.0861 27.1733 66.2844 35.2309C66.2956 35.6569 66.6472 36 67.0733 36H71.2106C71.4342 36 71.6213 35.9199 71.7759 35.7652C71.932 35.6063 72.0066 35.4151 71.9995 35.1958C71.7914 25.5747 67.806 16.8815 61.4678 10.5448ZM66.9678 51.0285H53.1791C52.8121 51.0285 52.4971 51.2351 52.3578 51.574C52.2186 51.9128 52.2903 52.284 52.5533 52.5427L56.7947 56.7873C56.9747 56.9631 57.0619 57.1824 57.0577 57.4285C57.0534 57.6801 56.9578 57.891 56.775 58.0626C54.3959 60.3002 51.6717 62.1398 48.7071 63.5107C44.8524 65.2921 40.5464 66.2889 36.0026 66.2889C27.6394 66.2889 20.0651 62.8977 14.5834 57.4172C9.26896 52.104 5.92058 44.8267 5.71807 36.7691C5.70963 36.3431 5.35947 36 4.92914 36H0.790414C0.571032 36 0.379776 36.0801 0.227896 36.239C0.0717977 36.3951 -0.00273591 36.5863 7.66816e-05 36.8084C0.211021 46.4295 4.20209 55.1171 10.5403 61.458C17.0598 67.9719 26.0601 72 36.0026 72C41.3845 72 46.4992 70.8162 51.095 68.6875C54.7021 67.0214 57.9872 64.7705 60.8378 62.0513C61.1851 61.7209 61.7392 61.7251 62.0781 62.0668L66.3392 66.3269C66.598 66.5856 66.9692 66.6615 67.3081 66.5181C67.6471 66.3789 67.858 66.064 67.858 65.697V51.9156C67.8566 51.4278 67.4586 51.0285 66.9678 51.0285Z" fill="#407B8D"/>
</svg>
