<svg width="66" height="72" viewBox="0 0 66 72" fill="none" xmlns="http://www.w3.org/2000/svg">
<path d="M15.0896 63.1441V60.1201C15.0896 57.386 15.1076 54.6518 15.0752 51.9194C15.0752 51.3794 15.2895 51.1562 15.7019 50.8683C16.5681 50.2689 17.2921 50.3283 18.1728 50.8845C19.3884 51.6566 20.694 52.2794 21.9745 52.9616C23.5953 53.831 24.422 53.3468 24.422 51.5216C24.422 46.2423 24.4364 40.963 24.4039 35.6818C24.4039 35.0158 24.6345 34.7314 25.2072 34.447C31.4942 31.3295 35.2221 26.3075 36.182 19.3416C36.8609 14.4115 35.6651 9.89173 32.8575 5.79138C32.7692 5.66178 32.6882 5.52679 32.5387 5.29279H65.5802V6.19278C65.5802 21.657 65.5868 37.12 65.6 52.5818C65.6 53.2532 65.3929 53.5502 64.7752 53.7914C58.9438 56.0828 53.2493 58.682 47.8159 61.7977C44.2897 63.8173 40.4321 64.2493 36.5331 63.7021C33.4716 63.2755 30.4839 62.3935 27.4601 61.7221C23.4296 60.8221 19.5361 61.2793 15.7541 62.8957C15.5704 62.9749 15.3723 63.0397 15.0896 63.1441ZM51.8392 25.4382C54.9223 25.4382 58.0055 25.4382 61.0887 25.4382C62.3493 25.4382 62.7329 25.0566 62.7347 23.8182C62.7347 21.2982 62.7347 18.7782 62.7347 16.2583C62.7347 15.0325 62.3223 14.6149 61.1049 14.6149C54.9662 14.6149 48.8262 14.6149 42.6851 14.6149C41.4767 14.6149 41.0156 15.0577 41.0102 16.2439C41.0018 18.7638 41.0018 21.2838 41.0102 23.8038C41.0102 25.0116 41.4479 25.4237 42.6689 25.4328C45.7256 25.4387 48.7824 25.4406 51.8392 25.4382ZM49.5412 39.2404C53.4528 39.2404 57.3644 39.2404 61.276 39.2404C62.1765 39.2404 62.7167 38.7598 62.7293 37.9912C62.7419 37.2226 62.2215 36.7312 61.3174 36.6826C61.1571 36.6736 60.995 36.6826 60.8348 36.6826C53.3069 36.6826 45.7785 36.6826 38.2494 36.6826C37.9821 36.6714 37.7142 36.6865 37.4498 36.7276C37.1527 36.7659 36.8799 36.9115 36.6828 37.137C36.4857 37.3624 36.3781 37.6522 36.3801 37.9516C36.3386 38.7184 36.9528 39.2404 37.8874 39.2422C41.7726 39.2494 45.6572 39.2488 49.5412 39.2404ZM53.7896 33.8171C56.3343 33.8171 58.879 33.8279 61.4255 33.8171C62.2305 33.8171 62.7185 33.3149 62.7293 32.5967C62.7396 32.4285 62.714 32.2601 62.6543 32.1026C62.5946 31.9451 62.502 31.8021 62.3829 31.683C62.2637 31.5638 62.1206 31.4714 61.963 31.4117C61.8054 31.352 61.6369 31.3264 61.4687 31.3367C56.2988 31.3235 51.1278 31.3235 45.9556 31.3367C45.6562 31.3163 45.3603 31.4106 45.1281 31.6006C44.8959 31.7905 44.7449 32.0617 44.7057 32.3591C44.5761 32.9855 44.8714 33.4769 45.4423 33.7253C45.7214 33.8477 46.0726 33.8297 46.3896 33.8315C48.8586 33.8261 51.3241 33.8225 53.7896 33.8225V33.8171ZM55.8678 42.097C54.1029 42.097 52.3362 42.097 50.5695 42.097C49.5718 42.097 49.0387 42.5289 49.0189 43.3173C48.9991 44.1057 49.5214 44.6133 50.4993 44.6169C54.0855 44.6313 57.6717 44.6313 61.258 44.6169C62.2323 44.6169 62.7563 44.1129 62.7293 43.3065C62.7041 42.5434 62.1801 42.1024 61.2472 42.0988C59.4571 42.1042 57.6561 42.1096 55.8678 42.1096V42.097Z" fill="#407B8D"/>
<path d="M33.8156 16.9207C33.9056 25.8773 26.3471 33.5741 17.501 33.7937C8.26049 34.0223 0.13294 26.8187 0.00147271 17.0539C-0.12099 7.85056 7.41046 0.0890502 16.4475 0.000851196C26.1797 -0.0909477 33.7183 7.25297 33.8156 16.9207ZM31.0223 13.6951C30.7989 13.3093 30.5473 12.9405 30.2695 12.5917C28.2885 10.4119 26.3075 8.22855 24.2617 6.10098C23.8706 5.72052 23.355 5.49421 22.8101 5.46379C18.8967 5.41339 14.9815 5.44579 11.0663 5.42599C10.7743 5.41272 10.483 5.46668 10.2151 5.58371C9.94721 5.70074 9.70978 5.87771 9.52114 6.10098C7.72022 8.08096 5.89589 10.0501 4.07516 12.0175C2.52456 13.6915 2.51015 13.7581 3.93648 15.5509C7.85529 20.4792 11.7789 25.404 15.7073 30.3251C16.4997 31.3169 17.2921 31.3601 18.0323 30.4349C22.1948 25.2222 26.3477 20.0022 30.4911 14.7751C30.7108 14.4943 30.8224 14.1235 31.0223 13.6951Z" fill="#407B8D"/>
<path d="M15.086 72C15.086 70.11 15.068 68.2902 15.1094 66.4723C15.1094 66.2383 15.3867 65.9197 15.6191 65.7991C19.2965 63.8821 23.1649 63.3241 27.2206 64.2601C29.6158 64.8145 31.9714 65.5651 34.3846 65.9953C39.827 66.9601 45.0497 66.4363 49.9626 63.5401C54.7603 60.7141 59.8677 58.4696 65.0453 56.4284C65.1876 56.3726 65.3371 56.3366 65.5424 56.2736V72H15.086Z" fill="#407B8D"/>
<path d="M12.0424 49.9701V35.6818C15.2388 36.5494 18.6088 36.5494 21.8052 35.6818V49.9755C20.5122 49.2789 19.2749 48.6561 18.0845 47.9577C17.2777 47.4843 16.5717 47.4789 15.7613 47.9577C14.5745 48.6669 13.3337 49.2789 12.0424 49.9701Z" fill="#407B8D"/>
<path d="M43.609 22.8858V17.2284H60.145V22.8858H43.609Z" fill="#407B8D"/>
<path d="M12.9699 15.1207H20.894L16.9319 26.1005C15.5812 22.3512 14.29 18.7764 12.9699 15.1207Z" fill="#407B8D"/>
<path d="M20.6184 12.4891H13.2526C14.3998 10.9753 15.4606 9.54974 16.5681 8.16915C16.669 8.04136 17.1967 8.03596 17.2885 8.15835C18.3961 9.54074 19.4658 10.9699 20.6184 12.4891Z" fill="#407B8D"/>
<path d="M6.82696 15.0883C7.99036 15.0883 8.96826 15.0757 9.94436 15.1009C10.0308 15.1141 10.113 15.1473 10.1843 15.1979C10.2556 15.2486 10.3141 15.3152 10.355 15.3925C11.2068 17.7162 12.0388 20.0472 12.7142 22.4772L6.82696 15.0883Z" fill="#407B8D"/>
<path d="M20.975 22.4466C21.2379 21.7014 21.4973 20.9562 21.7638 20.2128C22.3167 18.681 22.8588 17.1528 23.4495 15.6265C23.5089 15.4975 23.5971 15.3839 23.7073 15.2944C23.8175 15.2048 23.9468 15.1417 24.0852 15.1099C24.9856 15.0505 25.8987 15.0847 27.0045 15.0847L21.0975 22.5006L20.975 22.4466Z" fill="#407B8D"/>
<path d="M13.4291 8.03236C12.2838 9.53894 11.2086 10.9609 10.119 12.3685C10.0035 12.4719 9.85258 12.5267 9.69763 12.5215C8.90162 12.5359 8.10561 12.5215 7.11871 12.5215C7.51131 12.0751 7.79225 11.7421 8.0858 11.4235C8.88181 10.5559 9.76966 9.75674 10.4594 8.81355C11.2482 7.74076 12.2369 7.89736 13.4291 8.03236Z" fill="#407B8D"/>
<path d="M20.4509 8.03596C21.6035 7.89376 22.5454 7.77496 23.345 8.78295C24.3481 10.0429 25.5151 11.1841 26.7523 12.5269C25.7312 12.5269 24.9154 12.5269 24.0996 12.5269C23.9448 12.5151 23.8007 12.4434 23.698 12.3271C22.63 10.9249 21.5747 9.52094 20.4509 8.03596Z" fill="#407B8D"/>
</svg>
