<svg width="72" height="72" viewBox="0 0 72 72" fill="none" xmlns="http://www.w3.org/2000/svg">
<path d="M54.1537 71.9968H42.1063C38.5094 71.9968 36.9362 70.3769 37.1669 66.795C37.6799 58.8052 39.094 50.9971 41.9579 43.4933C42.7731 41.3585 44.1496 40.4046 46.4272 40.4028H61.8801C64.1648 40.4028 65.536 41.3567 66.3494 43.4968C68.6162 49.4474 69.9856 55.6103 70.6846 61.9316C70.8813 63.7064 71.0314 65.4865 71.1798 67.2666C71.4104 70.0115 69.646 71.9752 66.8893 71.9896C62.6489 72.0076 58.4013 71.9968 54.1537 71.9968ZM60.9184 48.7958L60.8075 48.7778C60.8075 48.1316 60.8075 47.4837 60.8075 46.8357C60.8075 46.4163 60.7628 45.9915 60.2569 45.9861C59.751 45.9807 59.7009 46.4109 59.7027 46.8267C59.7027 48.0866 59.7331 49.3664 59.692 50.6335C59.6426 52.005 59.0894 53.3092 58.1395 54.2935C57.1897 55.2778 55.9107 55.8721 54.5505 55.9613C51.7635 56.1773 49.1785 54.2622 48.7727 51.4831C48.5492 49.9604 48.6475 48.389 48.6136 46.8375C48.6136 46.4271 48.5814 45.9519 48.0772 46.0149C47.8574 46.0419 47.5409 46.5351 47.5409 46.8285C47.4819 48.0884 47.4873 49.3646 47.5248 50.6335C47.6214 53.823 50.1063 56.6399 53.1239 57.0178C56.601 57.4534 59.6527 55.5311 60.5161 52.2355C60.8075 51.1285 60.7896 49.9424 60.9184 48.7904V48.7958Z" fill="#407B8D"/>
<path d="M21.612 2.32547C31.3371 2.30927 39.3103 10.3135 39.3103 20.1141C39.3228 29.9866 31.4158 38.0089 21.6531 38.0233C16.9819 37.9829 12.5153 36.0879 9.22404 32.7502C5.93283 29.4124 4.08301 24.9017 4.07666 20.1984C4.0703 15.4951 5.9079 10.9794 9.19008 7.63264C12.4723 4.2859 16.9337 2.37867 21.6048 2.32547H21.612ZM21.6013 32.8323C28.4875 32.8611 34.1849 27.1662 34.2225 20.2149C34.2306 16.8615 32.9179 13.6417 30.5722 11.2611C28.2265 8.88044 25.0391 7.53321 21.7085 7.51464C14.749 7.48044 9.05333 13.0944 9.02651 20.0295C9.01166 21.703 9.32574 23.3629 9.95067 24.9137C10.5756 26.4645 11.499 27.8755 12.6678 29.0655C13.8366 30.2554 15.2276 31.2009 16.7608 31.8474C18.294 32.4938 19.9391 32.8286 21.6013 32.8323Z" fill="#407B8D"/>
<path d="M9.5521 52.7376C9.19456 53.0814 8.93713 53.3298 8.67433 53.5656C7.50517 54.615 5.85512 54.5916 4.76998 53.5152C4.50446 53.2585 4.29185 52.9517 4.14433 52.6121C3.99681 52.2726 3.91729 51.9071 3.91031 51.5366C3.90334 51.1661 3.96905 50.7978 4.10368 50.4529C4.23832 50.108 4.43922 49.7932 4.69489 49.5266C6.56126 47.5947 8.45445 45.6904 10.3744 43.8136C11.5257 42.6905 13.2348 42.7337 14.4057 43.891C16.2459 45.7018 18.0658 47.5335 19.8654 49.3862C21.0649 50.6173 21.0739 52.3453 19.9423 53.4882C18.8106 54.6312 17.1427 54.624 15.8734 53.4288C15.7268 53.2884 15.5731 53.1552 15.4229 53.0184L15.1816 53.0544C15.2781 54.3666 15.2156 55.7165 15.5141 56.9801C15.8019 58.1986 16.8442 58.78 18.1063 58.78C20.5268 58.7908 22.9456 58.78 25.3644 58.7926C27.2969 58.8088 28.5447 60.1731 28.3588 62.0216C28.2247 63.3374 27.1074 64.4641 25.7952 64.4785C22.9653 64.5109 20.1318 64.5667 17.3036 64.4605C13.4261 64.3129 9.87389 60.7005 9.65579 56.8091C9.59679 55.7489 9.61646 54.687 9.59679 53.625C9.59143 53.364 9.57176 53.1156 9.5521 52.7376Z" fill="#407B8D"/>
<path d="M55.9521 19.2699C55.9521 18.0424 56.0308 16.9822 55.9342 15.9365C55.7876 14.3363 54.6542 13.386 52.9881 13.3716C50.825 13.3536 48.6618 13.3716 46.4987 13.3716C46.1411 13.3716 45.7836 13.3716 45.4261 13.332C44.7124 13.2816 44.0461 12.954 43.5678 12.4183C43.0895 11.8827 42.8366 11.1809 42.8625 10.4611C42.8786 8.94558 43.987 7.71083 45.519 7.68923C48.4026 7.64963 51.2915 7.59744 54.168 7.74323C57.8775 7.92322 61.3188 11.4655 61.5655 15.2147C61.6531 16.552 61.5798 17.9002 61.5798 19.2447L61.8068 19.3365C62.0321 19.1169 62.252 18.8919 62.4808 18.6759C63.6535 17.5618 65.3179 17.542 66.446 18.6238C66.7149 18.8771 66.9314 19.1816 67.0828 19.5196C67.2343 19.8576 67.3178 20.2225 67.3284 20.5932C67.339 20.9638 67.2766 21.333 67.1448 21.6792C67.013 22.0255 66.8144 22.342 66.5604 22.6106C64.6928 24.5785 62.7859 26.5056 60.8397 28.3919C59.6884 29.5097 58.0401 29.4629 56.8746 28.3199C54.9939 26.4756 53.1376 24.6055 51.3058 22.7096C50.1528 21.5126 50.1903 19.7739 51.3058 18.6597C52.4214 17.5456 54.0911 17.5492 55.33 18.6903L55.9521 19.2699Z" fill="#407B8D"/>
<path d="M35.8779 68.1594C34.6658 67.3224 33.8667 66.219 33.9418 64.7485C34.0634 62.3204 34.26 59.8887 34.5747 57.4822C35.2898 51.9853 36.4589 46.5891 38.3718 41.3747C38.5309 40.9374 38.69 40.5018 38.8562 40.068C39.5713 38.2249 40.9371 37.2349 42.9376 37.2223C46.8705 37.1971 50.8142 37.2097 54.7525 37.2223C56.374 37.2223 57.9972 37.1989 59.6151 37.2781C60.9291 37.3429 61.8962 38.0773 62.715 39.249C62.3861 39.2634 62.1787 39.2832 61.957 39.2832H46.4361C43.6866 39.2832 41.9347 40.491 40.9425 43.0631C38.7686 48.7094 37.4153 54.5628 36.677 60.5619C36.3713 63.044 36.1496 65.5423 35.8779 68.1594Z" fill="#407B8D"/>
<path d="M24.2006 1.35891C16.3579 0.628145 9.89892 3.33882 5.67635 10.2307C1.2911 17.3908 1.95791 24.5977 6.44685 31.4536C0.704726 27.3138 -2.58287 17.2054 2.55322 8.68279C8.10406 -0.525604 18.7302 -1.35537 24.2006 1.35891Z" fill="#407B8D"/>
<path d="M21.6352 8.63959C24.6794 8.6415 27.5983 9.85964 29.7512 12.0265C31.9041 14.1934 33.1148 17.132 33.1177 20.1969C33.1087 26.547 27.9083 31.7668 21.603 31.7506C20.0959 31.7484 18.6038 31.4474 17.2122 30.8648C15.8205 30.2821 14.5565 29.4291 13.4922 28.3546C11.3429 26.1845 10.1378 23.2436 10.142 20.1789C10.1463 17.1142 11.3596 14.1767 13.515 12.0127C15.6704 9.84862 18.5913 8.63529 21.6352 8.63959ZM22.016 26.5668L22.9331 26.3868C24.2453 26.1114 25.2714 25.4868 25.7362 24.1333C26.5371 21.8024 25.7917 20.2437 23.4551 19.3869C22.0392 18.8685 22.0392 18.8685 22.0392 17.335V14.6459C23.4176 14.7791 23.827 15.1859 24.256 16.6744H25.6862C25.6022 14.6765 24.6976 13.8108 22.0679 13.197C22.0464 12.8838 22.0232 12.558 21.9981 12.1944H21.2723C21.2437 12.576 21.2151 12.9252 21.1901 13.2582C19.0448 13.5588 17.7023 14.6351 17.5664 16.3073C17.5048 17.05 17.6315 17.7962 17.9347 18.4762C18.5586 19.7883 19.9405 20.0385 21.1651 20.3895V25.1377C19.6151 25.0657 19.2075 24.5977 18.7248 22.3676H17.3036C17.2178 24.8551 18.1313 25.8396 21.2366 26.6028V28.1993H22.0142L22.016 26.5668Z" fill="#407B8D"/>
<path d="M22.0643 25.1755V20.6865C23.4944 20.7495 24.483 21.6944 24.4473 22.9742C24.4115 24.3187 23.5141 25.1593 22.0643 25.1755Z" fill="#407B8D"/>
<path d="M21.1829 14.6351V18.6903C19.7832 18.5374 19.0377 17.7904 19.077 16.5898C19.1163 15.3893 19.8261 14.7143 21.1829 14.6351Z" fill="#407B8D"/>
</svg>
