<svg width="75" height="80" viewBox="0 0 75 80" fill="none" xmlns="http://www.w3.org/2000/svg">
<path d="M74.9544 22.968L74.7944 22.6262C72.482 17.8326 69.5757 13.347 66.1436 9.27436C61.9382 4.40981 57.5271 1.29968 53.0246 0.0806983L52.7961 0.0123424C52.7054 -0.00411412 52.6125 -0.00411412 52.5218 0.0123424H22.5698C22.4791 -0.00411412 22.3862 -0.00411412 22.2955 0.0123424C22.2024 0.0329251 22.1108 0.059564 22.0212 0.0920888C17.5301 1.32247 13.1191 4.4212 8.91365 9.28575C5.48013 13.3532 2.5737 17.8353 0.262874 22.6262L0.102887 22.9566C0.0349848 23.1111 -3.65412e-05 23.2779 3.69887e-05 23.4465V55.8806C-0.0013051 56.0384 0.0338914 56.1943 0.102887 56.3363C0.182881 56.53 0.262874 56.7009 0.342868 56.8718L0.502859 57.2135C2.6302 62.0327 5.46482 66.5095 8.91365 70.4971L9.10793 70.7135C15.576 77.9477 21.5527 79.9072 21.8041 79.9869C21.9101 80.0044 22.0181 80.0044 22.1241 79.9869H52.9332C53.0392 80.0036 53.1472 80.0036 53.2532 79.9869C53.5046 79.9072 59.4813 77.9477 65.9494 70.7135L66.0751 70.5768C69.5254 66.5862 72.3601 62.1053 74.4859 57.2819L74.6573 56.9401C74.7373 56.7692 74.8173 56.5984 74.8973 56.4047C74.9623 56.2618 74.9936 56.1059 74.9887 55.949V23.4465C75.0115 23.2864 74.9998 23.1233 74.9544 22.968ZM72.7946 55.0376L71.7432 54.4794L71.5832 54.3882L70.749 53.9667L70.4633 53.83L69.8462 53.5224L69.5491 53.3743L69.0463 53.1465L68.7377 53.0097L68.3378 52.8275L68.0521 52.7136L67.6978 52.5768C67.617 52.5359 67.5329 52.5016 67.4464 52.4743L67.1493 52.3604L66.9322 52.292L66.7379 52.2237L72.886 43.4743V55.0832L72.7946 55.0376ZM53.5732 77.492C53.5518 77.3994 53.5251 77.3081 53.4932 77.2186C53.4932 77.0135 53.3789 76.8085 53.3103 76.6034C53.2417 76.3983 53.2303 76.3528 53.1846 76.216C53.1389 76.0793 53.0589 75.8173 52.9903 75.6236C52.9218 75.43 52.9104 75.373 52.8761 75.2477C52.8418 75.1224 52.7275 74.8262 52.6589 74.6097L52.5561 74.3249C52.4532 74.0173 52.339 73.7211 52.2361 73.4363C52.1218 73.1401 52.019 72.8553 51.9047 72.5705L51.8361 72.3654C51.7562 72.1604 51.6762 71.9667 51.6076 71.773C51.5647 71.6878 51.5266 71.6004 51.4933 71.511C51.4933 71.3515 51.3676 71.192 51.3105 71.0439L51.2076 70.7705C51.2076 70.6566 51.1048 70.5312 51.0591 70.4173L50.9905 70.235H51.1391H52.7618H53.2532L54.6931 70.3034H55.1159L56.9443 70.4059H57.4586L58.8413 70.4971H59.4927L60.9097 70.5996H61.3326L62.7953 70.7135C60.1612 73.5142 57.0358 75.8114 53.5732 77.492ZM40.6256 74.9173L40.3627 75.1793C39.9628 75.5553 39.5742 75.9426 39.22 76.3186L38.98 76.5578C38.6486 76.8882 38.34 77.2186 38.02 77.549L37.8372 77.7426H37.3001L37.1172 77.549L36.1573 76.5578L35.9173 76.3186C35.5288 75.9199 35.1403 75.5325 34.7746 75.1793L34.5003 74.9173L33.5404 74.0173L33.2433 73.7439L32.1005 72.7072L31.8605 72.6388L30.8663 71.7616L30.592 71.5338L29.6664 70.7477L29.575 70.6793L28.6607 69.9275L28.4322 69.7452L27.8608 69.2895L27.7237 69.1756L37.5744 63.0123L47.3108 69.2211L47.1736 69.335L46.6023 69.7907L46.3623 69.973L45.4595 70.7249L45.3795 70.7933L44.431 71.4996L44.1567 71.7274L43.1511 72.6047L43.0254 72.7072C42.6483 73.0376 42.2711 73.3907 41.8826 73.7439L41.5855 74.0173L40.6256 74.9173ZM23.6211 71.4996L23.5183 71.7388C23.4497 71.9439 23.3697 72.1376 23.2897 72.3426L23.2097 72.5477C23.1069 72.8325 22.9926 73.1173 22.8897 73.4135C22.7755 73.6983 22.6726 73.9945 22.5698 74.3021L22.4669 74.5869C22.3984 74.8034 22.3184 75.0085 22.2498 75.2363C22.1812 75.4641 22.1698 75.4641 22.1241 75.5895C22.0784 75.7148 21.9984 75.9882 21.9298 76.1933C21.8613 76.3983 21.8498 76.4553 21.8155 76.5806C21.7813 76.7059 21.6898 76.9907 21.6213 77.1958C21.5999 77.2884 21.5732 77.3797 21.5413 77.4692C18.0966 75.8374 14.9732 73.6034 12.3191 70.873L13.7933 70.7591H14.2047L15.6217 70.6566H16.2845L17.6559 70.5654H18.1815L20.01 70.4629H20.4328C20.9128 70.4629 21.4041 70.4059 21.8727 70.3945H22.3641H23.9754H24.1354L24.0668 70.5768L23.9182 70.93C23.8851 71.0231 23.8469 71.1143 23.804 71.2034C23.7468 71.1806 23.6783 71.3401 23.6211 71.4996ZM8.7651 66.7945C6.49474 63.8173 4.55228 60.6051 2.97125 57.2135L4.11402 56.6097L5.02823 56.1313L5.31393 55.9946L5.88531 55.7097L6.18243 55.5616L6.65097 55.3452L6.92523 55.2085L7.34806 55.0262L7.57661 54.9237L8.11372 54.7072L8.28513 54.6389L8.59368 54.5249L8.77652 54.4566L9.00508 54.411H9.08507L8.91365 60.2781L8.7651 66.7945ZM2.27415 55.0376H2.20559V43.4743L6.22814 49.1705L8.3537 52.1895H8.17085L7.9423 52.2692L7.62232 52.3946L7.39377 52.4743L6.98237 52.6452L6.76525 52.7363L6.26242 52.9528L6.05672 53.0439L5.45106 53.3287L5.25679 53.4199L4.54827 53.773L4.354 53.8642L3.50834 54.2971L3.34836 54.3882L2.27415 55.0376ZM21.5756 2.56424C21.6008 2.66826 21.6313 2.77092 21.667 2.87183L21.8384 3.44145C21.8384 3.57816 21.9184 3.71487 21.9641 3.85158C22.0098 3.98829 22.0898 4.22753 22.1469 4.40981L22.2841 4.81993C22.2841 5.00221 22.4098 5.18449 22.4669 5.37816L22.6041 5.74271C22.6726 5.95917 22.7526 6.16423 22.8326 6.38069C22.9126 6.59715 22.8326 6.54018 22.9126 6.63132C23.0269 6.90474 23.1297 7.17816 23.2212 7.44018L23.3469 7.74778C23.404 7.91866 23.4726 8.07816 23.5297 8.23765C23.5868 8.39714 23.6211 8.4541 23.6554 8.56803C23.6897 8.68195 23.7583 8.83005 23.8154 8.95537C23.8725 9.08068 23.8954 9.17183 23.9411 9.27436L24.0782 9.59334L24.1468 9.77562H23.9411H22.3298H21.8727L20.3071 9.70727H19.9985L18.033 9.59334H17.8044L16.0788 9.47942H15.6103L13.8961 9.3541H13.6904L12.0791 9.22879C14.672 6.29053 17.9264 4.00662 21.5756 2.56424ZM34.466 5.025L34.7174 4.79715C35.106 4.40981 35.5059 4.02247 35.8602 3.65791L36.0888 3.43006C36.4202 3.09968 36.7401 2.75791 37.0601 2.41614L37.243 2.23386H37.7801L37.9286 2.38196C38.26 2.74652 38.6029 3.09968 38.9571 3.45285L39.14 3.64651C39.5399 4.04525 39.9399 4.44398 40.3513 4.78575L40.5798 5.0136C40.9074 5.33259 41.2388 5.64018 41.5741 5.93639L41.8712 6.2098C42.2597 6.56297 42.6368 6.91613 43.014 7.24651L43.1282 7.34904L44.1453 8.22626L44.4081 8.4541L45.4023 9.28575L46.3737 10.0718L46.488 10.1744L47.2765 10.8009L37.5744 16.987L27.8037 10.8237L28.5807 10.1971L28.7065 10.0946L29.6778 9.30853L30.6835 8.4541L30.9234 8.24904C31.2663 7.95284 31.6205 7.65664 31.9748 7.33765L32.0662 7.2579L33.209 6.2212L33.4832 5.95917L34.466 5.025ZM51.4248 8.56803L51.5619 8.23765C51.5619 8.07816 51.6762 7.91866 51.7447 7.74778C51.8133 7.57689 51.8247 7.55411 51.859 7.44018L52.1675 6.63132C52.1675 6.54018 52.1675 6.46044 52.259 6.38069L52.4875 5.74271L52.6132 5.37816C52.6818 5.19588 52.7389 5.00221 52.8075 4.80854L52.9446 4.40981L53.116 3.85158L53.2532 3.44145L53.4246 2.87183C53.4498 2.76782 53.4803 2.66515 53.516 2.56424C57.1431 3.97122 60.3909 6.20253 63.001 9.08069L61.3897 9.206H61.1954L59.4813 9.33132H59.0128L57.2872 9.44524H57.0015L55.0359 9.55917H54.7274L53.1618 9.62752H52.7046H51.0819H50.8876L50.9562 9.44524C50.9562 9.34271 51.0476 9.22879 51.0819 9.12626L51.2876 8.95537L51.4248 8.56803ZM62.921 68.6629L61.9611 68.5832L61.0926 68.5148L59.7441 68.4237H59.1613L57.2072 68.2983H56.6929L55.253 68.2186H54.5445H53.4017H52.6475H51.5733H50.5791L52.2133 57.4984L63.8581 54.411V54.5135L64.2695 68.7882H63.9724L62.921 68.6629ZM23.5411 67.9907H22.4784H21.7127H20.5699H19.8614L18.4101 68.0705H17.9073L15.8617 68.3781H15.2675L13.919 68.4692L13.0505 68.5376L12.0906 68.6173L11.0849 68.6971H10.7992L11.2906 54.4908V54.411L21.2556 56.8604L22.9355 57.2705L23.2783 59.4692L24.5468 67.968H23.5411V67.9907ZM11.862 11.325L13.1876 11.4275H13.8161L15.3246 11.5301H15.8046L17.8501 11.6668H18.0215L19.8157 11.7579H20.3871H21.7698H22.3641H23.6783H24.5468L23.2669 20.1313L22.9012 22.4781L20.1128 23.1617L11.2906 25.611L11.2106 23.0136L10.8449 11.2338H11.2792L11.862 11.325ZM51.3905 12.0085H52.6932H53.2989H54.6816H55.253L57.0015 11.7579H57.1843L59.287 11.6098H59.767L61.2869 11.5073H61.904L63.2296 11.4047H63.8238H64.2581L63.8581 23.0136V25.611L52.2018 22.7516L50.522 12.0313H51.3905V12.0085ZM61.4354 31.1819L58.1442 37.425L55.3102 30.6693L53.0246 25.2807L63.1953 27.7756L61.4354 31.1819ZM26.3066 65.0287L25.2324 58.068L35.0717 61.93L26.638 67.2502L26.3066 65.0287ZM12.2048 51.5173L16.9245 42.5743L22.0098 54.7186L11.8391 52.2237L12.2048 51.5173ZM11.8391 27.7756L22.0098 25.2807L19.8385 30.487L16.9245 37.4477L13.4962 30.9427L11.8391 27.7756ZM26.6952 12.749L35.1288 18.0693L26.9123 21.2933L25.2896 21.9313L26.0667 16.9073L26.6952 12.749ZM24.6839 55.4477L18.2272 39.9996L24.6839 24.5516L37.5744 19.5047L46.9794 23.1959L50.4077 24.5516L56.8643 39.9996L54.4531 45.7756L50.4077 55.4477L47.4022 56.587L37.5744 60.4945L36.3287 60.0047L24.6839 55.4477ZM48.5564 58.5692L49.8249 58.068L48.4193 67.2502L39.997 61.93L48.5564 58.5692ZM48.4193 12.749L49.8249 21.9313L39.997 18.0693L46.6023 13.8997L48.4193 12.749ZM53.0589 54.7186L57.0015 45.1832L58.1442 42.5743L62.4411 50.7313L63.2296 52.2237L53.0589 54.7186ZM2.43414 39.9996L9.79359 29.5186L10.0679 29.1313L15.7817 39.9996L10.0679 50.868L4.12544 42.4034L2.43414 39.9996ZM65.0009 50.868L64.1438 49.2389L59.287 39.9996L65.0009 29.1313L70.0862 36.3769L72.6346 39.9996L65.0009 50.868ZM72.8974 24.9161V36.5363L70.4862 33.1186L66.7493 27.8098L67.0236 27.7072H67.1836L67.5493 27.5705L67.7435 27.4908L68.1892 27.3199L68.3835 27.2288L69.0806 26.9326C69.6062 26.6933 70.2233 26.4199 70.8404 26.0895L71.0233 25.987L71.8575 25.5541L72.1432 25.406L72.8974 24.9161ZM72.326 22.6376L71.1833 23.2414L71.069 23.3098L70.1891 23.7655L69.9262 23.9022L69.2748 24.2326L69.0234 24.3465L68.452 24.6199L68.2578 24.711L67.6407 24.9845L67.0464 25.2237H66.955L66.5436 25.3832H66.4065L66.1094 25.4857L66.4636 12.8288C68.759 15.8535 70.7747 19.0793 72.486 22.4667L72.326 22.6376ZM51.2876 2.35918L51.0819 3.00854L50.9791 3.31614C50.8991 3.58956 50.8077 3.85158 50.7162 4.1136C50.7211 4.15904 50.7211 4.20488 50.7162 4.25031L50.4077 5.1617L50.2591 5.42373C50.1906 5.62879 50.1106 5.83385 50.042 6.02752L49.9163 6.3579C49.9163 6.52879 49.7906 6.68828 49.7334 6.85917C49.6763 7.03005 49.642 7.07563 49.6077 7.17816L49.4363 7.61107C49.4363 7.72499 49.3563 7.82752 49.3106 7.93006C49.2649 8.03259 49.2078 8.19208 49.1506 8.3174L49.0478 8.59081L48.8192 9.12626H48.7507L48.2021 8.68195L47.9507 8.47689L47.4822 8.10094L47.1394 7.81613L46.6251 7.38322L46.2823 7.1098L45.4938 6.43765L45.3566 6.31233L44.431 5.42373L44.1224 5.13892L43.2882 4.53512L42.934 4.20474L42.2026 3.5212C42.0866 3.42075 41.976 3.31427 41.8712 3.20221C41.5626 2.9174 41.2541 2.60981 40.9455 2.30221L40.8313 2.19968H51.2876C51.2826 2.25272 51.2826 2.30613 51.2876 2.35918ZM34.146 2.24525L33.1518 3.21361L32.8433 3.50981C32.5919 3.74905 32.3405 3.98829 32.0776 4.21613L31.7577 4.52373L30.9691 5.21867L30.7177 5.42373C30.0321 6.02752 29.3693 6.56297 28.7636 7.1098L28.535 7.30347L27.8837 7.83891L27.6437 8.03259L27.0609 8.51107L26.8895 8.63638L26.3066 9.11487L26.0552 8.52246C26.0552 8.52246 26.0552 8.41993 25.9981 8.36297L25.7924 7.87309C25.7593 7.77625 25.7211 7.68119 25.6781 7.58828L25.5067 7.13259C25.4579 7.02517 25.416 6.91483 25.381 6.80221C25.3124 6.64271 25.2553 6.48322 25.1981 6.32373C25.141 6.16424 25.1067 6.09588 25.0724 5.98196C25.0382 5.86803 24.9239 5.59462 24.8553 5.38955L24.7525 5.11613C24.6496 4.81993 24.5468 4.51234 24.4325 4.20474V4.05664C24.3411 3.79462 24.2611 3.53259 24.1697 3.27057C24.1697 3.17943 24.1697 3.07689 24.0782 2.97436L23.8725 2.31361C23.8725 2.25664 23.8725 2.19968 23.8725 2.15411H34.146V2.24525ZM8.8908 19.0946L9.07364 25.6338H8.97079L8.74224 25.5541L8.5594 25.4857L8.19371 25.349H8.07943L7.48519 25.1098H7.42805L6.81096 24.7908L6.62811 24.711L6.02244 24.4262L5.80532 24.3123L5.10823 23.9705L4.8911 23.8566L3.93117 23.3554L2.7884 22.7402H2.73126C4.43752 19.3524 6.44948 16.1264 8.74224 13.1022L8.8908 19.0946ZM3.17694 25.4288L3.86261 25.7819L4.19401 25.9528L5.02823 26.3743H5.10823C5.69104 26.6591 6.251 26.887 6.6624 27.0921H6.7881L7.30235 27.3085H7.45091L7.86231 27.468H7.99944L8.29656 27.5705L4.5597 32.8794L2.14845 36.2971V24.9161L2.7884 25.2579L3.17694 25.4288ZM23.7468 77.6401C23.8154 77.4123 23.884 77.1844 23.964 76.9566L24.0439 76.6717C24.1468 76.3755 24.2382 76.0907 24.3411 75.8059C24.3411 75.7148 24.3982 75.635 24.4211 75.5553C24.4439 75.4755 24.581 75.0768 24.6725 74.849L24.8096 74.4616L24.981 73.9717C25.0374 73.8454 25.087 73.7161 25.1296 73.5844L25.301 73.1401L25.4381 72.7869L25.6095 72.354C25.6095 72.2515 25.6895 72.149 25.7238 72.0578C25.7581 71.9667 25.8838 71.6705 25.9524 71.4882V71.4085L26.2038 70.7933L26.2952 70.873C26.4552 70.9869 26.6152 71.1237 26.798 71.2718L27.1066 71.5224L27.518 71.8528L27.9065 72.1717L28.3408 72.5363L28.7636 72.8781L29.3464 73.3793L29.8492 73.8123L30.6035 74.473L31.0149 74.849L31.632 75.3958L32.0662 75.7945L32.7176 76.3983L33.1061 76.7743L33.9518 77.5945L34.1232 77.7654H23.7354L23.7468 77.6401ZM41.0255 77.6401L41.8712 76.8085L42.2597 76.4439L42.934 75.8173L43.3454 75.4414L43.9853 74.8604L44.3738 74.5186L45.1966 73.7895L45.5852 73.4591L46.2251 72.9123L46.6251 72.5819L47.0936 72.1945L47.4593 71.8869L47.8593 71.4996L48.1678 71.2604C48.3393 71.1123 48.5107 70.9756 48.6707 70.8616L48.7621 70.7819L49.0135 71.3971C49.0135 71.3971 49.0135 71.3971 49.0135 71.4654C49.0135 71.5338 49.1735 71.8528 49.2535 72.0578C49.3335 72.2629 49.322 72.2401 49.3678 72.3313L49.5392 72.7869L49.6763 73.1287L49.8477 73.5958L49.9849 73.949C49.9849 74.1312 50.1106 74.3021 50.1791 74.4844C50.2477 74.6667 50.2591 74.7123 50.3048 74.8262C50.3505 74.9401 50.4877 75.373 50.5905 75.6578C50.5905 75.6578 50.5905 75.6578 50.5905 75.7262L50.8991 76.6604L50.9905 76.9338L51.1962 77.6287C51.2009 77.6703 51.2009 77.7124 51.1962 77.754H40.877L41.0255 77.6401ZM65.9951 54.3313H66.0751L66.2922 54.3996L66.4865 54.468L66.795 54.5819L66.9664 54.6503L67.5035 54.8781L67.7207 54.9692L68.1549 55.1629L68.4178 55.2768L68.8977 55.5047L69.1834 55.6528L69.7777 55.9376L70.0405 56.0743L70.9776 56.5642L72.1203 57.168C70.5306 60.5549 68.5887 63.7662 66.3265 66.749L65.9951 54.3313Z" fill="#0F172A"/>
</svg>
