<svg width="60" height="60" viewBox="0 0 60 60" fill="none" xmlns="http://www.w3.org/2000/svg">
<g clip-path="url(#clip0_145_412)">
<g clip-path="url(#clip1_145_412)">
<g clip-path="url(#clip2_145_412)">
<path d="M49.2187 15.5322C51.1547 18.8257 52.178 23.0764 51.1471 27.1254C50.0714 31.1562 46.9603 34.9397 41.693 39.917C36.3812 44.876 28.9132 51.0289 21.3805 50.715C13.8665 50.3557 6.28769 43.5298 6.86719 36.6349C7.4467 29.74 16.1585 22.7123 21.593 17.9631C27.0276 13.2138 29.248 10.7159 32.0444 9.35831C34.822 8.0463 38.2389 7.84731 41.3494 8.90681C44.4785 9.92072 47.2826 12.2388 49.2187 15.5322Z" fill="#E6F2F7"/>
<path d="M41.046 15.9686C46.3036 10.7108 46.0888 2.1614 46.0776 1.80017C46.0664 1.47576 45.8065 1.21517 45.4818 1.20475C45.1185 1.19512 36.5662 0.974934 31.3092 6.23236C28.6293 8.91222 27.3724 12.444 26.7842 15.3143C26.261 13.5275 25.3645 11.583 23.8076 10.0261C19.9492 6.16773 13.6923 6.32738 13.4268 6.33454C13.1028 6.34497 12.8422 6.60556 12.831 6.92956C12.823 7.19465 12.6625 13.4564 16.5201 17.3135C22.2342 23.029 35.2611 21.753 41.046 15.9686ZM32.1802 7.10321C36.2911 2.99185 42.84 2.49348 44.8417 2.44009C44.7872 4.44147 44.286 10.9872 40.175 15.0977C36.0592 19.2126 29.5136 19.7147 27.5126 19.7695C27.5664 17.7675 28.0652 11.2181 32.1802 7.10321ZM17.391 16.4427C14.5713 13.6229 14.1349 9.18038 14.0716 7.57398C15.6764 7.63657 20.1097 8.07082 22.9366 10.897C25.758 13.7186 26.1975 18.1588 26.2616 19.7652C24.6544 19.7019 20.2123 19.2639 17.391 16.4427Z" fill="black"/>
<path d="M52.3209 10.613C51.1398 10.8002 50.2599 11.7109 50.0474 12.8109L47.943 22.4623C47.7 22.1992 47.404 21.9863 47.0664 21.8367C45.7225 21.2421 44.1561 21.848 43.5626 23.1877L41.8832 26.9743C41.5784 27.6607 41.1903 28.164 40.6674 28.5177C36.2273 32.3689 35.6653 37.1482 35.745 40.6263H33.9284C33.5878 40.6263 33.3125 40.903 33.3125 41.2421V49.5495C33.3125 49.8896 33.5884 50.1653 33.9284 50.1653H48.1683C48.5083 50.1653 48.7842 49.8895 48.7842 49.5495V41.2426C48.7842 40.9025 48.5083 40.6268 48.1683 40.6268H47.0103L53.1615 30.9742C54.6507 28.6329 55.4478 25.933 55.4664 23.1674L55.5338 13.3689C55.5488 11.652 54.0169 10.3365 52.3209 10.613ZM47.5524 48.9334H34.5444V41.858L47.5524 41.8584V48.9334ZM54.2345 23.1587C54.2176 25.693 53.4871 28.1671 52.1221 30.3128L45.5499 40.6261H36.9768C36.891 37.188 37.4355 32.9508 41.4117 29.4959C42.0702 29.058 42.6084 28.3779 43.0093 27.4737L44.6886 23.6868C45.0092 22.9639 45.8529 22.6466 46.5676 22.9625C47.2846 23.2813 47.6103 24.1169 47.2935 24.8384L47.2918 24.8411C46.5279 26.5583 45.4495 30.2735 42.48 33.1857C42.237 33.4238 42.2338 33.814 42.472 34.0567C42.7087 34.2989 43.0984 34.3042 43.343 34.0654C48.6865 28.8241 49.497 21.1022 51.2537 13.0601C51.3848 12.3929 51.8998 11.9267 52.5144 11.8295C52.5152 11.8295 52.516 11.8291 52.5175 11.8291C53.4567 11.6753 54.3104 12.3995 54.3019 13.3588L54.2345 23.1587Z" fill="black"/>
<path d="M24.9812 40.6255H23.1644C23.2431 37.1468 22.6772 32.3639 18.1794 28.4687C17.7176 28.1627 17.3302 27.6599 17.0262 26.9734L15.3469 23.1869C14.7526 21.8483 13.18 21.2445 11.8415 21.836C11.4999 21.9879 11.2056 22.2032 10.9674 22.4627L8.8654 12.8229C8.63671 11.6594 7.72526 10.7925 6.5886 10.6123C4.87573 10.3379 3.36169 11.6634 3.37509 13.3671L3.4433 23.1661C3.46171 25.9333 4.25893 28.6332 5.74822 30.9737L11.8994 40.6258H10.7414C10.4013 40.6258 10.1255 40.9017 10.1255 41.2416V49.5486C10.1255 49.8886 10.4013 50.1645 10.7414 50.1645H24.9813C25.3213 50.1645 25.5971 49.8885 25.5971 49.5486V41.2413C25.597 40.9022 25.3217 40.6255 24.9812 40.6255ZM4.67507 23.1577L4.60686 13.358C4.60011 12.4026 5.45143 11.6725 6.39122 11.8285L6.39438 11.829C6.99861 11.9245 7.51836 12.3749 7.65909 13.0724C9.60585 21.5261 10.2928 28.8921 15.5666 34.0648C15.811 34.3034 16.2006 34.2986 16.4376 34.0561C16.6757 33.8135 16.6726 33.4233 16.4296 33.1851C13.4649 30.2782 12.1301 25.9923 11.6169 24.8414C11.2994 24.1237 11.6242 23.2803 12.3411 22.9619C13.0581 22.6448 13.9018 22.9688 14.221 23.6866L15.9003 27.4727C16.3006 28.3769 16.8378 29.0574 17.4353 29.4471C21.4693 32.9462 22.0179 37.1867 21.9328 40.6255H13.3597L6.78752 30.3121C5.42249 28.1672 4.69195 25.6935 4.67507 23.1577ZM24.3651 48.9327H11.3572V41.8578L24.3652 41.8573L24.3651 48.9327Z" fill="black"/>
</g>
</g>
</g>
<defs>
<clipPath id="clip0_145_412">
<rect width="60" height="60" fill="white"/>
</clipPath>
<clipPath id="clip1_145_412">
<rect width="60" height="60" fill="white"/>
</clipPath>
<clipPath id="clip2_145_412">
<rect width="53.4545" height="60" fill="white" transform="translate(3.27344)"/>
</clipPath>
</defs>
</svg>
