<svg width="57" height="60" viewBox="0 0 57 60" fill="none" xmlns="http://www.w3.org/2000/svg">
<path d="M45.0448 31.6691C42.6323 38.7473 40.0141 44.4464 31.1631 46.7255C22.3121 49.0046 7.22837 47.8636 4.31248 41.0735C1.36792 34.3262 10.6344 21.9586 20.5958 15.3936C30.5717 8.90037 41.2423 8.20967 45.4744 12.0929C49.6778 16.0191 47.4859 24.5481 45.0448 31.6691Z" fill="#E6F2F7"/>
<mask id="mask0_145_316" style="mask-type:luminance" maskUnits="userSpaceOnUse" x="4" y="8" width="44" height="45">
<path d="M47.7457 8.67188H4.10938V52.3082H47.7457V8.67188Z" fill="white"/>
</mask>
<g mask="url(#mask0_145_316)">
<path d="M16.9936 43.5811C9.90267 41.331 4.78906 34.7174 4.78906 26.8765C4.78906 25.581 4.92543 24.3538 5.19815 23.1947C6.49361 17.1947 10.789 12.4219 16.3799 10.3765C18.2209 9.69467 20.1981 9.35376 22.3118 9.35376C26.3345 9.35376 30.0845 10.7174 33.0163 13.0356C34.8572 14.3992 36.3572 16.1719 37.5163 18.1492C39.0163 20.7401 39.8345 23.6719 39.8345 26.8765C39.8345 27.3538 39.8345 27.7628 39.7663 28.2401" stroke="#000815" stroke-width="0.909091" stroke-miterlimit="10" stroke-linecap="round" stroke-linejoin="round"/>
<path d="M17.8125 11.8772C17.9489 12.0136 18.0851 12.2181 18.1534 12.4227C18.017 12.2181 17.8807 12.0136 17.8125 11.8772Z" stroke="#000815" stroke-width="0.909091" stroke-miterlimit="10" stroke-linecap="round" stroke-linejoin="round"/>
<path d="M17.8104 11.8087L17.7422 11.7405C17.7422 11.7405 17.7422 11.7405 17.8104 11.8087ZM17.8104 11.8087C17.7422 11.7405 17.7422 11.8087 17.8104 11.8087Z" stroke="#000815" stroke-width="0.909091" stroke-miterlimit="10" stroke-linecap="round" stroke-linejoin="round"/>
<path d="M18.2869 12.5586C18.5597 13.3768 18.4233 14.3995 18.2188 15.2859C19.0369 14.6722 19.9233 14.0586 20.8778 13.9904C21.9006 13.9222 23.0597 14.5359 23.1278 15.5586C23.196 16.104 22.8551 16.6495 22.9915 17.195C23.1279 17.6722 23.5369 17.945 23.8097 18.2859C24.1506 18.6268 24.3551 19.104 24.1506 19.5131C23.6733 20.3313 22.0369 19.6495 21.6278 20.5359C21.4233 21.0131 21.7642 21.5586 22.2415 21.8313C22.6506 22.104 23.1278 22.445 23.2642 22.9222C23.4688 23.6722 22.6506 24.354 21.8324 24.354C21.0142 24.354 20.3324 23.945 19.6506 23.604C18.7642 23.195 17.8097 22.9222 16.7869 22.9222C15.8324 22.9904 14.8097 23.3995 14.2642 24.2177C13.5142 25.3086 13.6506 26.7404 13.5142 28.104C13.3778 29.4677 12.7642 30.9677 11.4688 31.1722C10.3778 31.3086 9.4233 30.4222 9.0142 29.3995C8.60511 28.3768 8.60511 27.2859 8.46875 26.195C8.33239 25.5131 8.12784 24.7631 7.71875 24.2177" stroke="#000815" stroke-width="0.909091" stroke-miterlimit="10" stroke-linecap="round" stroke-linejoin="round"/>
<path d="M19.9922 27.4885C20.0604 27.4885 20.0604 27.9658 19.9922 28.3749" stroke="#000815" stroke-width="0.909091" stroke-miterlimit="10" stroke-linecap="round" stroke-linejoin="round"/>
<path d="M19.9922 27.4888C20.674 27.3525 21.3558 27.6252 21.8331 28.0343" stroke="#000815" stroke-width="0.909091" stroke-miterlimit="10" stroke-linecap="round" stroke-linejoin="round"/>
<path d="M33.4956 28.0368C33.5638 27.6277 33.4275 27.2868 33.1547 27.014C32.7456 26.6731 32.132 26.7413 31.6547 26.5368C30.9047 26.1277 30.8365 24.9004 31.5184 24.2868C32.132 23.6731 33.2229 23.6731 33.9729 24.0822C34.7911 24.4913 35.3365 25.1731 35.882 25.855C36.2911 26.4686 36.7002 27.1504 37.2456 27.6959" stroke="#000815" stroke-width="0.909091" stroke-miterlimit="10" stroke-linecap="round" stroke-linejoin="round"/>
<path d="M30.6348 14.5354C30.5667 14.7399 30.4303 14.9445 30.4303 15.2172C30.2939 15.8309 30.3621 16.5127 30.4303 17.1263C30.4985 17.6036 30.5667 18.149 30.9757 18.4218C31.5212 18.7627 32.3394 18.3536 33.0212 18.5581C33.703 18.7627 34.0439 19.649 34.7257 19.9218C34.9985 19.9899 35.203 19.9899 35.4757 19.9218" stroke="#000815" stroke-width="0.909091" stroke-miterlimit="10" stroke-linecap="round" stroke-linejoin="round"/>
<path d="M47.061 40.9905V48.3542C47.061 49.036 46.5155 49.6496 45.7655 49.6496H44.4701C44.4701 49.5815 44.4701 49.4451 44.4701 49.3769C44.4701 48.0815 43.4474 47.0587 42.1519 47.0587C40.8564 47.0587 39.8337 48.0815 39.8337 49.3769V49.6496H27.8337C27.8337 49.5815 27.8337 49.4451 27.8337 49.3769C27.8337 48.0815 26.811 47.0587 25.5155 47.0587C24.2201 47.0587 23.1974 48.0815 23.1974 49.3769V49.6496H20.811C20.1292 49.6496 19.5156 49.1042 19.5156 48.3542V45.5587H40.1746V36.4224H42.3564C42.8337 36.4224 43.3792 36.6269 43.7201 36.9678L46.3792 39.6269C46.8564 40.036 47.061 40.5133 47.061 40.9905Z" stroke="#000815" stroke-width="0.909091" stroke-miterlimit="10" stroke-linecap="round" stroke-linejoin="round"/>
<path d="M40.3075 32.6027V45.5572H19.6484V32.6027C19.6484 31.58 20.4666 30.6936 21.5575 30.6936H38.3984C39.4893 30.6936 40.3075 31.5118 40.3075 32.6027Z" stroke="#000815" stroke-width="0.909091" stroke-miterlimit="10" stroke-linecap="round" stroke-linejoin="round"/>
<path d="M25.5838 51.6268C26.8641 51.6268 27.902 50.589 27.902 49.3087C27.902 48.0284 26.8641 46.9905 25.5838 46.9905C24.3034 46.9905 23.2656 48.0284 23.2656 49.3087C23.2656 50.589 24.3034 51.6268 25.5838 51.6268Z" stroke="#000815" stroke-width="0.909091" stroke-miterlimit="10" stroke-linecap="round" stroke-linejoin="round"/>
<path d="M42.2869 51.6268C43.5672 51.6268 44.6051 50.589 44.6051 49.3087C44.6051 48.0284 43.5672 46.9905 42.2869 46.9905C41.0066 46.9905 39.9688 48.0284 39.9688 49.3087C39.9688 50.589 41.0066 51.6268 42.2869 51.6268Z" stroke="#000815" stroke-width="0.909091" stroke-miterlimit="10" stroke-linecap="round" stroke-linejoin="round"/>
</g>
</svg>
