<svg width="49" height="20" viewBox="0 0 49 20" fill="none" xmlns="http://www.w3.org/2000/svg">
<path fill-rule="evenodd" clip-rule="evenodd" d="M43.709 12.8483H43.7432L46.5791 5.73107H48.5723L42.4453 19.9996H40.5547L42.833 15.0084L38.8125 5.73107H40.8057L43.709 12.8483ZM34.1191 5.40783C35.4742 5.40783 36.5453 5.77672 37.3311 6.50451C38.1168 7.23236 38.5039 8.24947 38.5039 9.53185V15.6442H36.75V14.2692H36.6709C35.908 15.4013 34.9055 15.9673 33.6416 15.9674C32.5711 15.9674 31.6598 15.6437 30.9424 14.9967C30.2364 14.396 29.8377 13.5067 29.8604 12.5709C29.8604 11.5427 30.2478 10.734 31.0107 10.1217C31.7737 9.50935 32.7987 9.20861 34.0742 9.20861C35.1673 9.20865 36.0557 9.4164 36.7617 9.8092V9.38146C36.7616 8.74621 36.4879 8.14595 36.0098 7.7301C35.5202 7.29114 34.8941 7.04855 34.2451 7.04845C33.2203 7.04845 32.4115 7.48697 31.8193 8.36486L30.2021 7.33654C31.0676 6.05435 32.377 5.40791 34.1191 5.40783ZM25.4326 1.15588C26.6055 1.13277 27.7449 1.58295 28.5762 2.41467C30.2388 3.98597 30.3414 6.63228 28.7812 8.33068L28.5762 8.53869C27.7221 9.35896 26.6739 9.77502 25.4326 9.77502H22.4043V15.6442H20.5703V1.15588H25.4326ZM34.3584 10.7106C33.618 10.7106 32.9914 10.8954 32.4902 11.2535C32.0006 11.6116 31.7501 12.0622 31.75 12.6051C31.75 13.0902 31.9778 13.5407 32.3535 13.818C32.7635 14.1415 33.2648 14.3149 33.7773 14.3033C34.5518 14.3033 35.2922 13.9917 35.8389 13.4371C36.4425 12.8595 36.75 12.1778 36.75 11.3922C36.1805 10.9301 35.3834 10.699 34.3584 10.7106ZM22.4062 7.99572H25.4814C26.1648 8.01883 26.826 7.74155 27.293 7.24474C28.2497 6.23956 28.2263 4.62149 27.2354 3.65099C26.7684 3.18901 26.1419 2.93517 25.4814 2.93517H22.4062V7.99572Z" fill="white"/>
<path d="M16.0724 8.50399C16.0724 7.93785 16.0268 7.37172 15.9357 6.81714H8.20312V10.0175H12.6331C12.4509 11.0458 11.8587 11.9701 10.9932 12.5478V14.6275H13.6353C15.1841 13.1833 16.0724 11.0458 16.0724 8.50399Z" fill="#4285F4"/>
<path d="M8.20541 16.6379C10.4147 16.6379 12.2824 15.8984 13.6376 14.6275L10.9955 12.5478C10.2553 13.0562 9.31006 13.345 8.20541 13.345C6.06443 13.345 4.25371 11.8777 3.60459 9.91357H0.882812V12.0626C2.27217 14.8701 5.10782 16.6379 8.20541 16.6379Z" fill="#34A853"/>
<path d="M3.60208 9.91343C3.26038 8.88515 3.26038 7.76444 3.60208 6.7246V4.58716H0.879877C-0.293292 6.93257 -0.293292 9.70547 0.879877 12.0509L3.60208 9.91343Z" fill="#FBBC04"/>
<path d="M8.20541 3.29332C9.37839 3.27021 10.5058 3.72081 11.3485 4.54113L13.6945 2.16105C12.2027 0.751496 10.2439 -0.0226047 8.20541 0.00050283C5.10782 0.00050283 2.27217 1.77978 0.882812 4.58734L3.60459 6.73634C4.25371 4.76065 6.06443 3.29332 8.20541 3.29332Z" fill="#EA4335"/>
</svg>
