<svg width="60" height="60" viewBox="0 0 60 60" fill="none" xmlns="http://www.w3.org/2000/svg">
<g clip-path="url(#clip0_145_374)">
<g clip-path="url(#clip1_145_374)">
<path d="M7.58984 32.7449C5.7778 29.2374 4.22723 24.9081 5.60808 21.7825C7.02808 18.6619 11.3346 16.7789 15.0981 14.9271C18.8842 13.0583 22.0658 11.2326 25.431 10.7219C28.8129 10.2332 32.356 11.0767 35.9984 12.1909C39.6633 13.2882 43.4218 14.6953 46.4528 17.2432C49.5229 19.796 51.9047 23.4945 52.4274 27.4957C52.9334 31.4748 51.5637 35.7347 49.303 39.147C47.0031 42.5545 43.7564 45.0876 40.4866 47.7767C37.2559 50.4707 33.9854 53.2989 30.4528 53.7288C26.9426 54.1418 23.176 52.1174 20.3459 49.6942C17.4765 47.2661 15.5493 44.3999 13.5266 41.641C11.5037 38.8821 9.40189 36.2524 7.58984 32.7449Z" fill="#E6F2F7"/>
<path d="M44.778 25.8317L43.2263 27.3834L44.0797 29.4006C44.4677 30.2541 44.0022 31.2627 43.1487 31.6506L41.1315 32.5041V34.6765C41.1315 35.6075 40.3556 36.3834 39.4246 36.3834H37.2522L36.3987 38.4006C36.0108 39.2541 35.0022 39.7196 34.1487 39.3317H33.9935L32.0539 38.5558L30.5022 40.1075C30.347 40.2627 30.1142 40.4179 29.8815 40.4955H28.7953C28.5625 40.4179 28.2522 40.2627 28.097 40.1075L26.5453 38.5558L24.6056 39.3317L24.4504 39.4093C23.597 39.7972 22.5884 39.3317 22.2004 38.4782L21.347 36.461H19.2522C18.3211 36.461 17.5453 35.6851 17.5453 34.7541V32.5817L15.528 31.7282C14.6746 31.3403 14.2091 30.3317 14.597 29.4782L15.4504 27.461L13.8987 25.9093C13.2004 25.211 13.2004 24.1248 13.8987 23.5041L15.4504 21.9524L14.597 19.78C14.2091 18.9265 14.6746 17.9179 15.528 17.53L17.5453 16.6765V14.5041C17.5453 13.5731 18.3211 12.7972 19.2522 12.7972H21.4246L22.278 10.7799C22.6659 9.9265 23.6746 9.46101 24.528 9.84892L26.5453 10.7024L28.097 9.15066C28.7953 8.45238 29.8815 8.45238 30.5022 9.15066L32.0539 10.7024L34.0711 9.84892C34.9246 9.46101 35.9332 9.9265 36.3211 10.7799L37.1746 12.7972H39.4246C40.3556 12.7972 41.1315 13.5731 41.1315 14.5041V16.7541L43.1487 17.6075C44.0022 17.9955 44.4677 19.0041 44.0797 19.8575L43.2263 21.8748L44.778 23.4265C45.4763 24.0472 45.4763 25.1334 44.778 25.8317Z" stroke="black" stroke-width="1.03448" stroke-miterlimit="10" stroke-linecap="round" stroke-linejoin="round"/>
<path d="M28.795 40.4954L22.3553 52.8316L20.9588 46.0816L13.8984 48.4092L20.1829 36.4609H21.4243L22.2777 38.4782C22.6657 39.3316 23.6743 39.7971 24.5277 39.4092L24.6829 39.3316L26.6226 38.5558L28.1743 40.1075C28.3295 40.2627 28.5622 40.4178 28.795 40.4954Z" stroke="black" stroke-width="1.03448" stroke-miterlimit="10" stroke-linecap="round" stroke-linejoin="round"/>
<path d="M44.9345 48.3311L37.8742 46.0035L36.4776 52.7535L29.8828 40.4173C30.1156 40.3397 30.2707 40.1845 30.5035 40.0294L32.0552 38.4776L33.9949 39.2535L34.1501 39.3311C35.0035 39.719 36.0121 39.2535 36.4001 38.4001L37.2535 36.3828H38.6501L44.9345 48.3311Z" stroke="black" stroke-width="1.03448" stroke-miterlimit="10" stroke-linecap="round" stroke-linejoin="round"/>
<path d="M48.7344 20.3238L52.1482 18.4609" stroke="black" stroke-width="1.03448" stroke-miterlimit="10" stroke-linecap="round" stroke-linejoin="round"/>
<path d="M48.7344 24.3555H53.6223" stroke="black" stroke-width="1.03448" stroke-miterlimit="10" stroke-linecap="round" stroke-linejoin="round"/>
<path d="M48.7344 28.4688L52.1482 30.3316" stroke="black" stroke-width="1.03448" stroke-miterlimit="10" stroke-linecap="round" stroke-linejoin="round"/>
<path d="M9.94504 28.4668L6.53125 30.3296" stroke="black" stroke-width="1.03448" stroke-miterlimit="10" stroke-linecap="round" stroke-linejoin="round"/>
<path d="M9.94316 24.3555H5.13281" stroke="black" stroke-width="1.03448" stroke-miterlimit="10" stroke-linecap="round" stroke-linejoin="round"/>
<path d="M9.94504 20.3238L6.53125 18.4609" stroke="black" stroke-width="1.03448" stroke-miterlimit="10" stroke-linecap="round" stroke-linejoin="round"/>
<path d="M24.6797 25.1332L27.3952 27.8487L33.99 21.2539" stroke="black" stroke-width="1.03448" stroke-miterlimit="10" stroke-linecap="round" stroke-linejoin="round"/>
<path d="M29.3362 34.6763C34.9067 34.6763 39.4224 30.1606 39.4224 24.5901C39.4224 19.0196 34.9067 14.5039 29.3362 14.5039C23.7657 14.5039 19.25 19.0196 19.25 24.5901C19.25 30.1606 23.7657 34.6763 29.3362 34.6763Z" stroke="black" stroke-width="1.03448" stroke-miterlimit="10" stroke-linecap="round" stroke-linejoin="round"/>
</g>
</g>
<defs>
<clipPath id="clip0_145_374">
<rect width="60" height="60" fill="white"/>
</clipPath>
<clipPath id="clip1_145_374">
<rect width="60" height="60" fill="white"/>
</clipPath>
</defs>
</svg>
