<svg width="226" height="50" viewBox="0 0 226 50" fill="none" xmlns="http://www.w3.org/2000/svg">
<path fill-rule="evenodd" clip-rule="evenodd" d="M107.499 27.6347C107.061 27.7705 106.607 27.8462 106.149 27.8597C105.792 27.8572 105.436 27.8304 105.084 27.7797C104.754 27.7158 104.434 27.6134 104.129 27.4747C103.787 27.3334 103.462 27.1557 103.159 26.9447C102.835 26.7262 102.529 26.4821 102.244 26.2147C101.698 25.7336 101.196 25.2049 100.744 24.6347L98.1287 21.4197C96.8287 19.8548 95.9537 18.8198 95.5287 18.2848C95.1037 17.7498 94.7537 17.4998 94.4987 17.4998V17.2998C94.9674 17.3154 95.4366 17.302 95.9037 17.2598C96.1651 17.2197 96.4226 17.1579 96.6737 17.0748C96.9206 17.009 97.1507 16.8914 97.3487 16.7298C98.0537 16.2298 98.4237 15.3898 98.4237 14.2298C98.4629 13.4028 98.2502 12.5834 97.8137 11.8799C97.6391 11.6045 97.3965 11.3788 97.1092 11.2247C96.8219 11.0705 96.4997 10.9931 96.1737 10.9999H93.9187V22.7997C93.9085 23.1281 94.0269 23.4474 94.2487 23.6897C94.347 23.8128 94.4729 23.9109 94.6163 23.976C94.7597 24.0412 94.9164 24.0716 95.0737 24.0647H95.2987V24.2597H91.3438V24.0647H91.5687C91.72 24.0643 91.8696 24.0336 92.0087 23.9743C92.1479 23.9151 92.2737 23.8285 92.3787 23.7197C92.6022 23.4814 92.7257 23.1664 92.7237 22.8397V11.8399C92.7242 11.506 92.6013 11.1837 92.3787 10.9349C92.2772 10.8209 92.1523 10.7301 92.0125 10.6689C91.8727 10.6076 91.7214 10.5772 91.5687 10.5799H91.3438V10.3899H96.2387C96.7108 10.3643 97.1832 10.4364 97.6262 10.6016C98.0692 10.7667 98.4735 11.0215 98.8137 11.3499C99.1394 11.6999 99.3917 12.1116 99.5558 12.5607C99.7198 13.0098 99.7922 13.4873 99.7686 13.9648C99.7979 14.9697 99.4899 15.9554 98.8937 16.7648C98.6517 17.119 98.3273 17.4091 97.9485 17.6103C97.5696 17.8115 97.1476 17.9177 96.7187 17.9198C97.1187 18.3848 97.5937 18.9548 98.0987 19.5948C100.209 22.0947 101.549 23.7097 102.134 24.3597C102.719 25.0097 103.249 25.5147 103.729 25.9547C104.092 26.2976 104.491 26.6009 104.919 26.8597C105.554 27.2653 106.29 27.4868 107.044 27.4997C107.19 27.5049 107.336 27.4915 107.479 27.4597V27.6597L107.499 27.6347ZM142.123 26.9447C142.443 27.0661 142.781 27.1288 143.123 27.1297C143.468 27.1175 143.807 27.0412 144.123 26.9047C144.486 26.7444 144.812 26.5093 145.078 26.2147C145.413 25.8136 145.652 25.3418 145.778 24.8347C145.997 24.1157 146.096 23.3658 146.073 22.6147V11.8199C146.074 11.486 145.951 11.1637 145.728 10.9149C145.627 10.8009 145.502 10.7101 145.362 10.6489C145.222 10.5876 145.071 10.5572 144.918 10.5599H144.663V10.3699H148.663V10.5599H148.423C148.274 10.5591 148.126 10.5893 147.989 10.6487C147.852 10.7081 147.729 10.7953 147.628 10.9049C147.51 11.0252 147.419 11.1686 147.359 11.3261C147.3 11.4836 147.274 11.6518 147.283 11.8199V22.6797C147.289 23.4792 147.159 24.2739 146.898 25.0297C146.699 25.6084 146.366 26.1324 145.928 26.5597C145.258 27.1746 144.378 27.5108 143.468 27.4997C142.968 27.5103 142.472 27.4005 142.023 27.1797L142.103 26.9547L142.123 26.9447ZM108.624 10.0949H108.464C108.303 10.7918 108.075 11.4716 107.784 12.1249L103.674 22.8147C103.566 23.1606 103.356 23.4655 103.071 23.6889C102.786 23.9122 102.44 24.0433 102.079 24.0647H101.919V24.2597H105.569V24.0747H105.409C104.944 24.0747 104.454 23.6397 104.719 22.8397L105.939 19.4398H110.839L111.999 22.8147C112.264 23.6097 111.774 24.0747 111.309 24.0747H111.149V24.2597H115.248V24.0647H115.073C114.715 24.0408 114.373 23.9083 114.091 23.6851C113.81 23.4618 113.603 23.1583 113.498 22.8147L108.629 10.0949H108.624ZM106.124 18.8548L108.419 12.4698L110.599 18.8548H106.124ZM116.123 10.3549V10.5449H116.348C116.506 10.5506 116.661 10.5877 116.805 10.6538C116.948 10.7199 117.077 10.8137 117.184 10.93C117.291 11.0462 117.374 11.1825 117.428 11.331C117.482 11.4794 117.506 11.6371 117.498 11.7949V22.7947C117.505 22.9528 117.481 23.1105 117.426 23.259C117.372 23.4075 117.288 23.5437 117.181 23.6599C117.074 23.7761 116.944 23.8699 116.801 23.9359C116.657 24.0019 116.502 24.0389 116.343 24.0447H116.118V24.2397H120.073V24.0447H119.858C119.538 24.0292 119.237 23.8904 119.017 23.6574C118.797 23.4243 118.675 23.1152 118.678 22.7947V10.9999C118.918 10.9999 120.018 10.9599 120.948 10.9999C122.288 11.0749 123.163 12.2349 123.203 14.0398C123.212 14.4416 123.172 14.8428 123.083 15.2348C122.583 17.0248 121.198 17.2648 120.258 17.2898C119.713 17.2898 119.288 17.2898 119.288 17.2898V17.4998C119.953 17.4998 120.483 18.1898 120.948 18.8448C121.093 19.0298 123.138 22.2797 123.348 22.5447C123.695 23.0743 124.167 23.5101 124.723 23.8136C125.279 24.1171 125.9 24.2789 126.533 24.2847H127.533V24.0897C126.458 24.0897 125.783 23.4747 125.033 22.5897C124.283 21.7047 122.763 19.3098 122.763 19.3098C122.449 18.7537 122.017 18.2726 121.498 17.8998C123.248 17.8998 124.588 16.0148 124.588 14.1048C124.588 11.7799 123.248 10.3699 121.033 10.3699L116.123 10.3549ZM136.498 21.0497H136.313C135.768 22.5497 135.028 23.6497 133.088 23.6497H130.448V17.6998H133.553C133.792 17.736 134.009 17.8571 134.165 18.0408C134.321 18.2246 134.406 18.4586 134.403 18.6998V18.9998H134.588V15.8548H134.403V16.1348C134.42 16.3834 134.337 16.6284 134.173 16.8159C134.009 17.0034 133.777 17.1181 133.528 17.1348H130.448V10.9549H134.163C134.453 10.9862 134.721 11.1255 134.912 11.3451C135.104 11.5647 135.206 11.8484 135.198 12.1399V12.4998H135.358V9.99988C134.664 10.2284 133.939 10.3531 133.208 10.3699H127.888V10.5599H128.113C128.414 10.5677 128.702 10.6872 128.92 10.8951C129.138 11.1029 129.271 11.3844 129.293 11.6849V22.8147C129.298 23.1355 129.177 23.4454 128.956 23.6787C128.736 23.912 128.434 24.0505 128.113 24.0647H127.888V24.2597H135.428L136.498 21.0497ZM159.428 21.0497H159.243C158.673 22.5497 157.943 23.6497 156.018 23.6497H153.393V17.6998H156.498C156.738 17.7338 156.958 17.8539 157.116 18.0379C157.274 18.2219 157.36 18.4571 157.358 18.6998V18.9998H157.498V15.8548H157.323V16.1348C157.339 16.3834 157.257 16.6284 157.092 16.8159C156.928 17.0034 156.697 17.1181 156.448 17.1348H153.358V10.9549H157.073C157.357 10.9942 157.615 11.137 157.8 11.3557C157.985 11.5745 158.082 11.8538 158.073 12.1399V12.4998H158.258V9.99988C157.555 10.2289 156.822 10.3536 156.083 10.3699H150.808V10.5599H151.033C151.333 10.5721 151.618 10.693 151.835 10.9C152.052 11.107 152.187 11.386 152.213 11.6849V22.8147C152.216 23.1352 152.095 23.4443 151.875 23.6774C151.655 23.9104 151.353 24.0492 151.033 24.0647H150.793V24.2597H158.343L159.403 21.0497H159.428ZM174.678 10.3699V10.5599H174.838C175.338 10.5599 175.713 10.9849 175.528 11.7399L173.113 21.0347L169.498 10.0649H169.343L165.943 21.4447L163.183 11.7899C162.983 10.9949 163.448 10.5699 163.898 10.5699H164.058V10.3799H160.058V10.5699H160.203C160.56 10.5836 160.905 10.7085 161.188 10.9272C161.471 11.1459 161.679 11.4474 161.783 11.7899L165.883 24.4997H166.038C166.096 23.7542 166.225 23.0158 166.423 22.2947L169.183 13.1448L172.903 24.4997H173.088C173.142 23.7537 173.271 23.015 173.473 22.2947L176.473 11.7949C176.573 11.4465 176.782 11.1391 177.069 10.9171C177.355 10.6951 177.705 10.57 178.068 10.5599H178.238V10.3699H174.678ZM187.738 21.0497H187.578C187.008 22.5497 186.278 23.6497 184.353 23.6497H181.723V17.6998H184.818C185.061 17.7304 185.284 17.8491 185.445 18.0334C185.607 18.2178 185.695 18.4549 185.693 18.6998V18.9998H185.853V15.8548H185.693V16.1348C185.704 16.3862 185.615 16.6318 185.447 16.8188C185.279 17.0058 185.044 17.1193 184.793 17.1348H181.723V10.9549H185.428C185.718 10.9862 185.985 11.1255 186.177 11.3451C186.369 11.5647 186.471 11.8484 186.463 12.1399V12.4998H186.648V9.99988C185.944 10.2275 185.212 10.3521 184.473 10.3699H179.138V10.5599H179.378C179.676 10.5724 179.959 10.6939 180.174 10.9012C180.388 11.1085 180.52 11.3873 180.543 11.6849V22.8147C180.547 23.1355 180.426 23.4454 180.206 23.6787C179.986 23.912 179.683 24.0505 179.363 24.0647H179.138V24.2597H186.703L187.738 21.0497ZM197.873 21.0497C197.303 22.5497 196.573 23.6497 194.638 23.6497H192.048V11.8199C192.038 11.5007 192.153 11.1905 192.369 10.9551C192.585 10.7198 192.884 10.578 193.203 10.5599H193.443V10.3699H189.443V10.5599H189.668C189.989 10.5766 190.291 10.7172 190.511 10.9521C190.731 11.1871 190.852 11.498 190.848 11.8199V22.8197C190.852 23.1405 190.731 23.4504 190.511 23.6837C190.291 23.917 189.988 24.0555 189.668 24.0697H189.443V24.2647H196.998L198.063 21.0548L197.873 21.0497ZM201.707 14.8198C201.229 14.3179 200.959 13.6531 200.952 12.9598C200.947 12.6608 201.002 12.3638 201.113 12.0861C201.224 11.8084 201.389 11.5558 201.599 11.3429C201.809 11.1301 202.06 10.9613 202.336 10.8466C202.612 10.7319 202.908 10.6735 203.207 10.6749C203.479 10.6619 203.75 10.706 204.003 10.8043C204.256 10.9027 204.486 11.0531 204.677 11.2459C204.869 11.4387 205.017 11.6695 205.114 11.9234C205.21 12.1773 205.252 12.4486 205.237 12.7198H205.427V10.2899H204.697C204.193 10.1685 203.676 10.1031 203.157 10.0949C201.057 10.0949 199.943 11.7549 199.943 13.4548C199.941 14.3726 200.3 15.2543 200.942 15.9098L204.407 19.4098C204.649 19.6503 204.837 19.9388 204.96 20.2565C205.084 20.5743 205.139 20.9143 205.122 21.2547C205.141 21.5896 205.094 21.9249 204.982 22.2413C204.871 22.5576 204.698 22.8488 204.473 23.0979C204.249 23.3471 203.977 23.5493 203.674 23.693C203.371 23.8366 203.042 23.9187 202.707 23.9347C201.092 24.0447 199.883 22.6997 200.068 20.6698H199.908C199.648 21.5706 199.577 22.5151 199.698 23.4447C200.412 24.2397 201.902 24.5347 202.787 24.5347C204.887 24.5347 206.197 23.0047 206.197 20.8148C206.214 20.3684 206.14 19.9234 205.981 19.5061C205.822 19.0887 205.581 18.7074 205.272 18.3848L201.712 14.7998L201.707 14.8198Z" fill="#313131"/>
<path fill-rule="evenodd" clip-rule="evenodd" d="M219.45 30.1947C219.416 30.1154 219.366 30.0443 219.302 29.9865C219.238 29.9286 219.162 29.8854 219.08 29.8597C218.907 29.8225 218.728 29.8225 218.555 29.8597C218.205 29.9318 217.888 30.1182 217.655 30.3897C217.553 30.5329 217.48 30.695 217.44 30.8667C217.401 31.0383 217.396 31.216 217.425 31.3896C217.496 31.6271 217.637 31.8381 217.828 31.9957C218.019 32.1533 218.253 32.2504 218.5 32.2746C218.75 32.2832 218.998 32.2252 219.219 32.1066C219.439 31.9881 219.624 31.8131 219.755 31.5996C219.816 31.5099 219.856 31.4072 219.87 31.2996C219.887 31.192 219.887 31.0823 219.87 30.9746C219.834 30.6982 219.733 30.4343 219.575 30.2047C219.499 30.0874 219.388 29.9961 219.259 29.9426C219.13 29.889 218.987 29.8758 218.85 29.9047L219.47 30.1947H219.45Z" fill="url(#paint0_linear_74_2618)"/>
<path fill-rule="evenodd" clip-rule="evenodd" d="M219.644 30.0646C219.194 29.2046 217.944 29.6396 217.459 30.2646C217.337 30.4345 217.254 30.6294 217.217 30.8352C217.18 31.0409 217.19 31.2524 217.245 31.4541C217.3 31.6557 217.399 31.8426 217.536 32.001C217.672 32.1594 217.843 32.2853 218.034 32.3696C218.236 32.4488 218.453 32.4845 218.67 32.4745C218.888 32.4644 219.1 32.4088 219.295 32.3112C219.489 32.2135 219.66 32.0762 219.798 31.9079C219.936 31.7397 220.037 31.5443 220.094 31.3346C220.244 30.5396 219.654 29.5746 218.784 29.6746C218.494 29.7346 218.619 30.1746 218.899 30.0996C219.554 30.0096 219.759 31.0546 219.564 31.4696C219.435 31.6976 219.227 31.8704 218.979 31.9552C218.731 32.04 218.46 32.0309 218.219 31.9296C218.102 31.8908 217.996 31.8275 217.906 31.7441C217.816 31.6606 217.745 31.5589 217.697 31.4457C217.65 31.3325 217.627 31.2105 217.631 31.0878C217.635 30.9652 217.665 30.8447 217.719 30.7346C217.914 30.2746 218.914 29.6296 219.249 30.2996C219.374 30.5596 219.749 30.3296 219.639 30.0646H219.644Z" fill="url(#paint1_linear_74_2618)"/>
<path fill-rule="evenodd" clip-rule="evenodd" d="M218 28.7647C217.973 27.7904 217.863 26.8202 217.67 25.8647C217.54 25.4048 217.335 24.8898 216.795 24.9348C216.255 24.9798 216.22 25.4648 216.295 25.8797C216.465 26.9047 217.04 27.9247 217.41 28.8797C217.5 29.1447 217.96 29.0147 217.845 28.7497C217.64 28.2247 217.43 27.6947 217.235 27.1647C217.135 26.9097 217.03 26.6647 216.94 26.3947C216.85 26.1247 216.49 25.5848 216.905 25.5548C217.235 25.5198 217.2 25.8197 217.25 26.0947C217.3 26.3697 217.365 26.6797 217.4 26.9547C217.465 27.5547 217.535 28.1547 217.57 28.7497C217.595 29.0397 218.03 29.0397 218.005 28.7497L218 28.7647Z" fill="url(#paint2_linear_74_2618)"/>
<path fill-rule="evenodd" clip-rule="evenodd" d="M219.19 33.2446C219.4 34.1828 219.681 35.1037 220.03 35.9996C220.18 36.3696 220.48 36.8395 220.975 36.6695C222.41 36.1046 220.065 33.5596 219.665 33.0096C219.5 32.8046 219.135 33.0096 219.295 33.2296C219.56 33.6296 219.86 34.0346 220.145 34.4246C220.275 34.6196 220.435 34.7946 220.56 34.9996C220.685 35.2046 221.195 35.7346 220.7 35.8296C220.48 35.9696 220.375 35.8996 220.375 35.6446C220.34 35.5296 220.305 35.4246 220.275 35.3096C220.18 35.0796 220.1 34.8496 220.03 34.6346C219.895 34.1346 219.73 33.6346 219.63 33.1346C219.56 32.8696 219.155 32.9746 219.19 33.2396V33.2446Z" fill="url(#paint3_linear_74_2618)"/>
<path fill-rule="evenodd" clip-rule="evenodd" d="M212.555 34.4496H212.625C212.93 34.4205 213.229 34.3428 213.51 34.2196C214.51 33.7496 215.245 32.8196 216.25 32.3246C216.49 32.2096 216.28 31.8246 216.02 31.9546C215.56 32.1596 212.98 34.3846 212.685 33.8546C212.535 33.5746 214.455 32.7246 214.57 32.6796C215.207 32.4704 215.861 32.3165 216.525 32.2196C216.825 32.1596 216.685 31.7496 216.42 31.7796C215.375 31.9226 214.361 32.2386 213.42 32.7146C213.02 32.9446 211.985 33.5196 212.085 34.1196C212.107 34.2221 212.166 34.3127 212.251 34.3738C212.336 34.4348 212.441 34.4619 212.545 34.4496H212.555Z" fill="url(#paint4_linear_74_2618)"/>
<path fill-rule="evenodd" clip-rule="evenodd" d="M220.634 30.5847L222.324 29.9847C222.76 29.8679 223.182 29.7001 223.579 29.4847C223.694 29.4202 223.796 29.3334 223.877 29.2295C223.959 29.1255 224.019 29.0064 224.055 28.879C224.09 28.7516 224.1 28.6184 224.083 28.4872C224.067 28.356 224.025 28.2294 223.959 28.1147C223.544 27.5847 222.794 27.9497 222.359 28.2047C221.573 28.6854 220.911 29.3429 220.424 30.1247C220.409 30.1506 220.4 30.1791 220.397 30.2086C220.393 30.2381 220.396 30.268 220.404 30.2965C220.412 30.3251 220.426 30.3518 220.444 30.375C220.463 30.3983 220.485 30.4177 220.511 30.4322C220.537 30.4466 220.566 30.4558 220.595 30.4592C220.625 30.4626 220.655 30.4602 220.683 30.4521C220.712 30.444 220.739 30.4303 220.762 30.4119C220.785 30.3934 220.804 30.3706 220.819 30.3447C221.092 29.9027 221.429 29.5034 221.819 29.1597C222.054 28.9411 222.312 28.7483 222.589 28.5847C222.7 28.5093 222.819 28.4472 222.944 28.3997C223.154 28.2147 223.314 28.2497 223.444 28.5047C223.754 28.6997 223.719 28.8747 223.354 29.1147C223.22 29.1988 223.078 29.2676 222.929 29.3197C222.684 29.4147 222.429 29.4847 222.204 29.5647C221.639 29.7797 221.064 29.9897 220.524 30.1847C220.269 30.2747 220.364 30.6847 220.639 30.6097L220.634 30.5847Z" fill="url(#paint5_linear_74_2618)"/>
<path fill-rule="evenodd" clip-rule="evenodd" d="M219.835 29.0647C220.537 28.4011 221.118 27.6192 221.55 26.7547C221.77 26.2797 221.885 25.4748 221.34 25.1198C219.905 24.3148 219.55 28.2497 219.285 28.7797C219.18 29.0447 219.535 29.2497 219.675 29.0097C219.872 28.5797 219.997 28.1203 220.045 27.6497C220.1 27.2697 220.225 26.2797 220.545 26.0147C220.615 25.7298 220.74 25.7298 220.945 26.0147C221.305 26.1397 221.37 26.3347 221.13 26.6347C221.015 26.8397 220.875 27.0597 220.74 27.2547C220.372 27.788 219.961 28.2898 219.51 28.7547C219.335 28.9597 219.635 29.2847 219.83 29.0747L219.835 29.0647Z" fill="url(#paint6_linear_74_2618)"/>
<path fill-rule="evenodd" clip-rule="evenodd" d="M216.757 30.0997C216.404 29.3831 215.843 28.7904 215.147 28.3997C214.582 28.1547 213.512 28.0397 212.982 28.4347C212.893 28.5018 212.824 28.5913 212.782 28.6939C212.739 28.7965 212.725 28.9086 212.74 29.0186C212.756 29.1286 212.8 29.2326 212.869 29.3197C212.937 29.4069 213.028 29.4742 213.132 29.5147C213.513 29.6652 213.917 29.7514 214.327 29.7697C215.013 29.7911 215.682 29.9966 216.262 30.3647C216.492 30.5297 216.722 30.1347 216.492 29.9997C216.075 29.6948 215.595 29.4895 215.087 29.3997C214.707 29.3297 213.857 29.4447 213.587 29.2047C213.087 28.7797 213.757 28.6397 214.117 28.6497C214.479 28.6484 214.835 28.7397 215.152 28.9147C215.664 29.2756 216.082 29.754 216.372 30.3097C216.399 30.3614 216.447 30.3999 216.503 30.4168C216.559 30.4337 216.62 30.4275 216.672 30.3997C216.723 30.3718 216.762 30.3246 216.779 30.2683C216.796 30.2121 216.789 30.1514 216.762 30.0997H216.757Z" fill="url(#paint7_linear_74_2618)"/>
<path fill-rule="evenodd" clip-rule="evenodd" d="M217.814 33.5546C217.414 34.1546 215.479 36.6396 216.779 37.2496C217.344 37.5146 217.814 36.8346 217.989 36.3846C218.354 35.5096 217.919 34.5196 218.254 33.6596C218.354 33.3946 217.944 33.2896 217.829 33.5296C217.699 33.9275 217.66 34.3495 217.714 34.7646C217.732 35.0243 217.732 35.2849 217.714 35.5446C217.714 35.6496 217.574 36.6496 217.309 36.6746C217.139 36.5096 216.999 36.3496 216.839 36.1746C216.883 35.9715 216.961 35.7772 217.069 35.5996C217.174 35.4046 217.309 35.1746 217.414 34.9646C217.644 34.5646 217.914 34.1696 218.174 33.7796C218.334 33.5396 217.969 33.3196 217.804 33.5396L217.814 33.5546Z" fill="url(#paint8_linear_74_2618)"/>
<path fill-rule="evenodd" clip-rule="evenodd" d="M225.425 33.0846V32.9546C225.38 32.3446 224.48 32.0246 224.01 31.8496C222.989 31.5326 221.917 31.4089 220.85 31.4846C220.56 31.5146 220.56 31.9546 220.85 31.9196C221.498 31.8691 222.15 31.8993 222.79 32.0096C223.215 32.0796 224.39 32.2396 224.62 32.6096C224.585 32.8496 224.55 33.0596 224.515 33.2896C224.162 33.2829 223.817 33.1829 223.515 32.9996C223.23 32.8681 222.953 32.7195 222.685 32.5546C222.11 32.2196 221.545 31.8846 220.97 31.5146C220.74 31.3796 220.535 31.7496 220.74 31.9096C221.34 32.2896 224.995 34.9096 225.435 33.1996C225.441 33.1615 225.441 33.1228 225.435 33.0846H225.425Z" fill="url(#paint9_linear_74_2618)"/>
<path fill-rule="evenodd" clip-rule="evenodd" d="M211 30.4447H195.001L162.526 30.4997L114.172 30.5497C105.142 30.5497 96.0868 30.5597 87.0069 30.5797C86.3519 30.5797 86.3519 31.6847 87.0069 31.6847C103.177 31.6547 119.3 31.633 135.376 31.6197C151.453 31.6064 167.564 31.5864 183.711 31.5597C192.744 31.5597 201.786 31.548 210.835 31.5247C210.962 31.5185 211.083 31.4684 211.176 31.383C211.27 31.2976 211.331 31.1822 211.349 31.0567C211.366 30.9312 211.34 30.8034 211.274 30.6954C211.207 30.5873 211.105 30.5057 210.985 30.4647L211 30.4447Z" fill="url(#paint10_linear_74_2618)"/>
<path fill-rule="evenodd" clip-rule="evenodd" d="M204.684 29.8596H204.359C204.151 29.8778 203.948 29.9373 203.764 30.0346C203.673 30.1041 203.598 30.1924 203.545 30.2933C203.491 30.3943 203.46 30.5056 203.454 30.6196L203.819 30.1596C203.69 30.213 203.575 30.2926 203.479 30.3933C203.383 30.494 203.309 30.6135 203.262 30.7443C203.215 30.8751 203.196 31.0143 203.206 31.1529C203.215 31.2916 203.254 31.4267 203.319 31.5496C203.472 31.7938 203.706 31.9771 203.979 32.0683C204.253 32.1595 204.55 32.1529 204.819 32.0496C205.02 31.9778 205.199 31.857 205.342 31.6981C205.484 31.5392 205.584 31.3472 205.634 31.1396C205.689 30.9331 205.676 30.7144 205.598 30.5155C205.52 30.3167 205.38 30.1481 205.199 30.0346C205.044 29.95 204.874 29.8957 204.699 29.8746L204.684 29.8596Z" fill="url(#paint11_linear_74_2618)"/>
<path fill-rule="evenodd" clip-rule="evenodd" d="M203.796 30.6196C203.831 29.9846 204.946 30.0896 205.211 30.4796C205.269 30.5836 205.306 30.6989 205.317 30.8178C205.328 30.9368 205.314 31.0568 205.276 31.1701C205.238 31.2833 205.176 31.3872 205.095 31.475C205.014 31.5628 204.915 31.6325 204.806 31.6796C204.623 31.7648 204.418 31.7927 204.219 31.7597C204.02 31.7267 203.836 31.6343 203.691 31.4946C203.625 31.4203 203.578 31.3319 203.553 31.2363C203.527 31.1407 203.525 31.0405 203.544 30.9436C203.564 30.8467 203.606 30.7558 203.667 30.6778C203.728 30.5999 203.806 30.5372 203.896 30.4946C204.291 30.3446 204.126 29.7346 203.726 29.8746C203.544 29.9448 203.38 30.0548 203.246 30.1966C203.113 30.3383 203.012 30.5082 202.953 30.6938C202.893 30.8794 202.876 31.076 202.903 31.269C202.929 31.4621 202.998 31.6468 203.106 31.8096C203.238 31.9833 203.405 32.1279 203.596 32.2343C203.787 32.3408 203.998 32.4069 204.216 32.4284C204.433 32.45 204.653 32.4266 204.861 32.3597C205.069 32.2928 205.261 32.1839 205.426 32.0396C205.597 31.9059 205.736 31.7348 205.831 31.5394C205.926 31.3441 205.976 31.1295 205.976 30.9121C205.976 30.6947 205.926 30.4801 205.831 30.2848C205.736 30.0894 205.597 29.9183 205.426 29.7846C204.641 29.2846 203.216 29.5746 203.161 30.6346C203.161 31.0596 203.781 31.0596 203.816 30.6346L203.796 30.6196Z" fill="url(#paint12_linear_74_2618)"/>
<path fill-rule="evenodd" clip-rule="evenodd" d="M199.925 30.6896C199.915 30.5994 199.934 30.5084 199.979 30.4295C200.024 30.3506 200.092 30.2877 200.175 30.2496C200.32 30.1449 200.495 30.0889 200.675 30.0896C200.889 30.0717 201.104 30.1151 201.295 30.2146C201.432 30.3141 201.537 30.4509 201.598 30.6088C201.66 30.7667 201.674 30.9388 201.64 31.1046C201.601 31.2669 201.522 31.4166 201.409 31.5392C201.296 31.6618 201.153 31.7532 200.995 31.8046C200.783 31.888 200.55 31.8968 200.332 31.8296C200.115 31.7623 199.927 31.623 199.8 31.4346C199.749 31.3358 199.719 31.2274 199.712 31.1163C199.706 31.0052 199.723 30.894 199.762 30.7899C199.801 30.6857 199.861 30.591 199.939 30.5117C200.017 30.4324 200.111 30.3704 200.215 30.3296L199.93 30.6896H199.925Z" fill="url(#paint13_linear_74_2618)"/>
<path fill-rule="evenodd" clip-rule="evenodd" d="M200.152 30.7097C200.182 30.2097 201.082 30.2847 201.287 30.5947C201.335 30.6762 201.364 30.767 201.373 30.861C201.382 30.9549 201.37 31.0496 201.339 31.1386C201.307 31.2276 201.257 31.3086 201.191 31.3762C201.125 31.4437 201.045 31.4961 200.957 31.5297C200.817 31.6068 200.656 31.6358 200.498 31.6123C200.34 31.5888 200.194 31.5141 200.082 31.3997C200.026 31.3416 199.985 31.2709 199.963 31.1935C199.94 31.1162 199.936 31.0345 199.952 30.9554C199.968 30.8763 200.002 30.8022 200.053 30.7394C200.103 30.6766 200.168 30.627 200.242 30.5947C200.542 30.5047 200.412 29.9847 200.117 30.0947C199.971 30.1523 199.839 30.2417 199.732 30.3565C199.624 30.4713 199.543 30.6086 199.496 30.7585C199.448 30.9083 199.434 31.0669 199.455 31.2228C199.476 31.3786 199.531 31.5279 199.617 31.6597C199.838 31.9262 200.156 32.0942 200.501 32.127C200.846 32.1598 201.19 32.0547 201.457 31.8347C201.593 31.726 201.702 31.5882 201.777 31.4316C201.852 31.275 201.891 31.1034 201.891 30.9297C201.891 30.7559 201.852 30.5844 201.777 30.4278C201.702 30.2711 201.593 30.1334 201.457 30.0247C200.837 29.6347 199.722 29.8647 199.672 30.7147C199.672 31.0397 200.172 31.0397 200.172 30.7147L200.152 30.7097Z" fill="url(#paint14_linear_74_2618)"/>
<path fill-rule="evenodd" clip-rule="evenodd" d="M207.742 30.6896C207.73 30.6014 207.745 30.5115 207.786 30.4325C207.828 30.3536 207.893 30.2896 207.972 30.2496C208.121 30.1506 208.294 30.0952 208.472 30.0896C208.687 30.0714 208.902 30.1148 209.092 30.2146C209.233 30.3103 209.341 30.4472 209.401 30.6065C209.461 30.7658 209.47 30.9398 209.427 31.1046C209.387 31.2646 209.309 31.4122 209.198 31.5344C209.087 31.6565 208.948 31.7493 208.792 31.8046C208.58 31.8835 208.348 31.89 208.132 31.823C207.916 31.7561 207.728 31.6195 207.597 31.4346C207.547 31.3366 207.517 31.2291 207.51 31.119C207.502 31.0088 207.518 30.8984 207.556 30.7946C207.593 30.6908 207.652 30.5959 207.728 30.5159C207.804 30.4359 207.896 30.3725 207.997 30.3296L207.737 30.6896H207.742Z" fill="url(#paint15_linear_74_2618)"/>
<path fill-rule="evenodd" clip-rule="evenodd" d="M207.25 31.0697C207.259 31.2692 207.317 31.4633 207.42 31.6346C207.639 31.9005 207.956 32.0683 208.299 32.1011C208.642 32.1339 208.984 32.0291 209.25 31.8096C209.386 31.7015 209.497 31.5639 209.572 31.4072C209.648 31.2505 209.687 31.0787 209.687 30.9047C209.687 30.7306 209.648 30.5588 209.572 30.4021C209.497 30.2454 209.386 30.1078 209.25 29.9997C208.63 29.6097 207.49 29.8397 207.455 30.6897C207.455 30.756 207.481 30.8195 207.528 30.8664C207.575 30.9133 207.639 30.9397 207.705 30.9397C207.771 30.9397 207.835 30.9133 207.882 30.8664C207.929 30.8195 207.955 30.756 207.955 30.6897C207.99 30.1897 208.9 30.2647 209.095 30.5747C209.144 30.6554 209.175 30.7461 209.186 30.8403C209.196 30.9344 209.185 31.0296 209.154 31.1191C209.123 31.2085 209.072 31.2899 209.006 31.3575C208.939 31.425 208.859 31.477 208.77 31.5096C208.628 31.5859 208.465 31.6144 208.306 31.591C208.147 31.5676 207.999 31.4935 207.885 31.3796C207.829 31.3206 207.789 31.2489 207.768 31.1707C207.746 31.0926 207.744 31.0104 207.761 30.9311C207.778 30.8519 207.814 30.7781 207.866 30.716C207.919 30.6539 207.985 30.6054 208.06 30.5747C208.37 30.4847 208.255 29.9647 207.92 30.0747C207.72 30.1527 207.549 30.2906 207.43 30.4696C207.311 30.6485 207.25 30.8598 207.255 31.0747L207.25 31.0697Z" fill="url(#paint16_linear_74_2618)"/>
<path fill-rule="evenodd" clip-rule="evenodd" d="M78.1052 30.2146C78.1344 30.134 78.183 30.0617 78.2466 30.0042C78.3102 29.9467 78.387 29.9056 78.4701 29.8846C78.6434 29.8412 78.8236 29.8327 79.0001 29.8596C79.3449 29.9283 79.6546 30.1159 79.8751 30.3896C79.9879 30.5273 80.0674 30.6892 80.1073 30.8627C80.1472 31.0361 80.1464 31.2165 80.1051 31.3896C80.0469 31.6337 79.9131 31.8531 79.7227 32.0165C79.5323 32.18 79.2952 32.279 79.0451 32.2996C78.7969 32.3055 78.5515 32.2457 78.3337 32.1263C78.116 32.0069 77.9336 31.8321 77.8052 31.6196C77.7403 31.5291 77.6929 31.4274 77.6652 31.3196C77.6602 31.2118 77.672 31.1038 77.7001 30.9996C77.719 30.72 77.8199 30.4522 77.9901 30.2296C78.0686 30.1144 78.179 30.0246 78.3078 29.9713C78.4366 29.918 78.5782 29.9035 78.7151 29.9296L78.1052 30.2146Z" fill="url(#paint17_linear_74_2618)"/>
<path fill-rule="evenodd" clip-rule="evenodd" d="M78.3227 30.3296C78.8227 29.3996 81.0277 31.2396 79.3727 31.9796C79.1455 32.0696 78.895 32.0822 78.6599 32.0153C78.4249 31.9484 78.2185 31.8058 78.0727 31.6096C77.8077 31.2296 77.9327 30.0346 78.6677 30.1346C78.9677 30.1696 79.0727 29.7696 78.7977 29.7096C77.9127 29.6046 77.3377 30.5746 77.4727 31.3696C77.6127 32.2646 78.7627 32.7346 79.5427 32.4046C79.7344 32.3205 79.9046 32.1942 80.0406 32.0352C80.1766 31.8761 80.275 31.6884 80.3283 31.4861C80.3817 31.2837 80.3887 31.0719 80.3487 30.8664C80.3088 30.661 80.223 30.4672 80.0977 30.2996C79.6377 29.6746 78.3727 29.2496 77.9327 30.0996C77.8077 30.3646 78.1977 30.5996 78.3227 30.3296Z" fill="url(#paint18_linear_74_2618)"/>
<path fill-rule="evenodd" clip-rule="evenodd" d="M79.9572 28.7997C79.9732 28.2757 80.0199 27.7532 80.0972 27.2347C80.1322 26.9247 80.1872 26.6047 80.2322 26.2697C80.2772 25.9347 80.2322 25.5697 80.6122 25.5997C80.9922 25.6297 80.7172 26.0747 80.6122 26.3397C80.5072 26.6047 80.4172 26.8397 80.3172 27.0747C80.1072 27.6597 79.8772 28.2397 79.6472 28.7997C79.5472 29.0647 79.9822 29.1947 80.0872 28.9297C80.4522 27.9597 81.0422 26.9297 81.2222 25.8997C81.2922 25.5097 81.2222 25.0247 80.7222 24.9697C80.2222 24.9147 79.9522 25.4697 79.8472 25.8997C79.6515 26.8553 79.5328 27.8251 79.4922 28.7997C79.4922 29.0897 79.9172 29.0897 79.9522 28.7997H79.9572Z" fill="url(#paint19_linear_74_2618)"/>
<path fill-rule="evenodd" clip-rule="evenodd" d="M77.9085 33.1747C77.7785 33.6346 77.6535 34.0946 77.5135 34.5546L77.3085 35.2446C77.2535 35.3846 77.2185 35.5346 77.1485 35.6946C77.1485 35.9346 77.0435 36.0046 76.8385 35.8696C76.3385 35.7746 76.7585 35.4046 76.9185 35.1446C77.0785 34.8846 77.1835 34.7396 77.3085 34.5646C77.6085 34.1296 77.9435 33.7046 78.2535 33.2647C78.4135 33.0347 78.0085 32.8397 77.8485 33.0597C77.4485 33.5996 75.1485 36.1446 76.5485 36.7096C77.0085 36.8696 77.3085 36.4646 77.4685 36.1096C77.838 35.187 78.1307 34.2355 78.3435 33.2647C78.3458 33.2113 78.3291 33.1588 78.2962 33.1166C78.2634 33.0745 78.2166 33.0454 78.1643 33.0345C78.112 33.0237 78.0575 33.0319 78.0106 33.0575C77.9637 33.0832 77.9276 33.1247 77.9085 33.1747Z" fill="url(#paint20_linear_74_2618)"/>
<path fill-rule="evenodd" clip-rule="evenodd" d="M80.998 32.2546C81.6642 32.3603 82.3211 32.5175 82.963 32.7246C83.103 32.7846 84.963 33.6096 84.828 33.8896C84.528 34.4296 81.963 32.2196 81.503 31.9896C81.263 31.8646 81.033 32.2546 81.273 32.3596C82.273 32.8596 82.998 33.7846 83.988 34.2546C84.353 34.4196 85.288 34.7846 85.423 34.1546C85.558 33.5246 84.583 33.0496 84.193 32.8196C83.2323 32.2972 82.1828 31.9581 81.098 31.8196C80.833 31.7846 80.718 32.1996 80.998 32.2446V32.2546Z" fill="url(#paint21_linear_74_2618)"/>
<path fill-rule="evenodd" clip-rule="evenodd" d="M77.021 30.1947C76.521 29.9997 75.971 29.8147 75.456 29.6397C75.156 29.5397 74.881 29.4447 74.606 29.3397C74.4476 29.288 74.2989 29.2102 74.166 29.1097C73.811 28.9047 73.776 28.7097 74.086 28.5347C74.211 28.2697 74.376 28.2397 74.586 28.4347C74.711 28.4797 74.816 28.5497 74.956 28.6147C75.2014 28.7637 75.4354 28.9308 75.656 29.1147C76.0717 29.4789 76.4321 29.9016 76.726 30.3697C76.886 30.5996 77.256 30.3697 77.116 30.1397C76.6223 29.3677 75.9631 28.7153 75.186 28.2297C74.686 27.9647 73.986 27.6097 73.586 28.1397C73.4548 28.3681 73.419 28.639 73.4864 28.8937C73.5538 29.1483 73.719 29.3661 73.946 29.4997C74.3121 29.7065 74.7038 29.8645 75.111 29.9697C75.706 30.1897 76.316 30.3947 76.916 30.6046C77.181 30.6946 77.281 30.2697 77.021 30.1897V30.1947Z" fill="url(#paint22_linear_74_2618)"/>
<path fill-rule="evenodd" clip-rule="evenodd" d="M78.0006 28.7796C77.5842 28.3375 77.1935 27.8717 76.8306 27.3847C76.6906 27.1547 76.5306 26.9347 76.4056 26.6847C76.3556 26.5447 76.3006 26.4197 76.2656 26.2947C76.6206 25.7147 76.8656 25.6497 76.9906 26.0497C77.6356 26.8447 77.4056 28.1446 77.8656 29.0496C77.9906 29.2946 78.3656 29.0846 78.2306 28.8346C77.9656 28.2896 77.6006 24.3697 76.1956 25.1597C74.7356 26.0347 77.0956 28.4646 77.6956 29.0996C77.8656 29.3146 78.1956 28.9946 77.9906 28.7996L78.0006 28.7796Z" fill="url(#paint23_linear_74_2618)"/>
<path fill-rule="evenodd" clip-rule="evenodd" d="M81.175 30.3447C81.4613 29.7886 81.874 29.3074 82.38 28.9397C82.703 28.7694 83.065 28.6866 83.43 28.6997C83.785 28.6997 84.43 28.8147 83.93 29.2397C83.655 29.4697 82.795 29.3647 82.43 29.4347C81.9355 29.5242 81.4653 29.7167 81.05 29.9997C80.82 30.1597 81.05 30.5497 81.29 30.3897C81.8601 30.0283 82.5115 29.8152 83.185 29.7697C83.6023 29.7683 84.0158 29.6904 84.405 29.5397C84.5121 29.5034 84.607 29.4379 84.6791 29.3507C84.7512 29.2635 84.7976 29.158 84.8131 29.046C84.8287 28.9339 84.8128 28.8198 84.7672 28.7162C84.7216 28.6127 84.6481 28.5239 84.555 28.4597C84.2165 28.2972 83.8468 28.2099 83.4713 28.2038C83.0959 28.1978 82.7235 28.2731 82.38 28.4247C81.6891 28.8085 81.1324 29.3948 80.785 30.1047C80.655 30.3547 81.025 30.6047 81.175 30.3347V30.3447Z" fill="url(#paint24_linear_74_2618)"/>
<path fill-rule="evenodd" clip-rule="evenodd" d="M79.3059 33.8196C79.5709 34.2196 79.8609 34.6146 80.0909 35.0146C80.2159 35.2246 80.3409 35.4546 80.4459 35.6496C80.5509 35.8446 80.5609 35.9146 80.6159 36.0496C80.7809 36.3146 80.6159 36.5496 80.1909 36.6846C79.6509 36.4746 79.7909 35.2596 79.8259 34.7946C79.8693 34.3793 79.8215 33.9596 79.6859 33.5646C79.5709 33.3247 79.1459 33.4297 79.2509 33.6946C79.5809 34.5546 79.1459 35.5446 79.5159 36.4196C79.6859 36.8546 80.1909 37.5596 80.7459 37.2846C82.0559 36.6496 80.1259 34.1996 79.7109 33.5897C79.5359 33.3797 79.1709 33.5896 79.3059 33.8196Z" fill="url(#paint25_linear_74_2618)"/>
<path fill-rule="evenodd" clip-rule="evenodd" d="M72.1116 33.0246V33.0946C72.1066 33.1362 72.1066 33.1781 72.1116 33.2196C72.5466 34.9596 76.2065 32.3246 76.7915 31.9446C77.0115 31.7797 76.7915 31.4147 76.5615 31.5497C76.0065 31.9196 75.4465 32.2546 74.8715 32.5896C74.5165 32.7946 72.3066 33.9246 72.9066 32.6546C73.0766 32.3096 74.3415 32.1146 74.7415 32.0446C75.377 31.9349 76.0236 31.9047 76.6665 31.9546C76.9615 31.9896 76.9615 31.5497 76.6665 31.5147C75.6011 31.445 74.5319 31.5704 73.5115 31.8847C73.0415 32.0596 72.1116 32.3846 72.1016 33.0246H72.1116Z" fill="url(#paint26_linear_74_2618)"/>
<path fill-rule="evenodd" clip-rule="evenodd" d="M94.0408 30.6546C94.0419 30.5429 94.015 30.4327 93.9626 30.334C93.9102 30.2353 93.834 30.1513 93.7408 30.0896C93.5397 29.9767 93.3159 29.9101 93.0858 29.8946C92.8146 29.8773 92.5436 29.9325 92.3008 30.0546C92.1289 30.179 91.9965 30.3504 91.9193 30.5481C91.8422 30.7458 91.8236 30.9616 91.8658 31.1696C91.9304 31.4062 92.0604 31.6199 92.2408 31.786C92.4212 31.9522 92.6448 32.0641 92.886 32.109C93.1271 32.1539 93.376 32.1299 93.6042 32.0398C93.8323 31.9497 94.0304 31.7971 94.1758 31.5996C94.2465 31.4783 94.2897 31.3429 94.3024 31.2031C94.3151 31.0633 94.297 30.9224 94.2493 30.7903C94.2016 30.6582 94.1256 30.5382 94.0265 30.4388C93.9274 30.3393 93.8077 30.2628 93.6758 30.2146L94.0358 30.6546H94.0408Z" fill="url(#paint27_linear_74_2618)"/>
<path fill-rule="evenodd" clip-rule="evenodd" d="M94.6386 31.1696V31.1046C94.6342 30.8388 94.5477 30.5809 94.3911 30.3661C94.2345 30.1513 94.0153 29.9901 93.7636 29.9046C93.3736 29.7696 93.2036 30.4046 93.5936 30.5296C93.684 30.5652 93.7649 30.6213 93.8298 30.6935C93.8947 30.7658 93.9419 30.8521 93.9676 30.9458C93.9934 31.0395 93.9969 31.1378 93.978 31.2331C93.959 31.3284 93.9182 31.4179 93.8586 31.4946C93.7193 31.6547 93.5309 31.764 93.3228 31.8056C93.1147 31.8473 92.8988 31.8188 92.7086 31.7246C92.4982 31.6353 92.3317 31.4663 92.2455 31.2545C92.1593 31.0428 92.1604 30.8055 92.2486 30.5946C92.4986 30.1346 93.6736 30.0096 93.7086 30.6646C93.7086 31.1046 94.3986 31.1046 94.3736 30.6646C94.3036 29.6646 92.9386 29.3196 92.1686 29.7796C91.9873 29.9079 91.8383 30.0765 91.7332 30.2722C91.6282 30.4678 91.57 30.6852 91.5632 30.9072C91.5564 31.1292 91.6012 31.3497 91.6941 31.5514C91.787 31.7531 91.9255 31.9305 92.0986 32.0696C92.2581 32.2105 92.4442 32.3179 92.646 32.3855C92.8477 32.4531 93.061 32.4795 93.2731 32.4632C93.4853 32.4469 93.692 32.3881 93.881 32.2905C94.07 32.1928 94.2375 32.0582 94.3736 31.8946C94.5303 31.6838 94.6224 31.4319 94.6386 31.1696Z" fill="url(#paint28_linear_74_2618)"/>
<path fill-rule="evenodd" clip-rule="evenodd" d="M97.6312 30.7347C97.626 30.644 97.602 30.5553 97.5607 30.4744C97.5193 30.3935 97.4616 30.3221 97.3912 30.2647C97.2281 30.1769 97.0465 30.1289 96.8612 30.1247C96.6505 30.1122 96.4401 30.1553 96.2512 30.2497C96.1156 30.3507 96.0106 30.4874 95.9479 30.6445C95.8853 30.8016 95.8674 30.973 95.8962 31.1397C95.9438 31.2991 96.0277 31.4452 96.1414 31.5667C96.255 31.6882 96.3953 31.7816 96.5512 31.8397C96.7617 31.9274 96.9965 31.9373 97.2136 31.8677C97.4308 31.798 97.616 31.6534 97.7362 31.4597C97.7899 31.3638 97.822 31.2575 97.8303 31.148C97.8386 31.0385 97.823 30.9285 97.7844 30.8257C97.7459 30.7228 97.6853 30.6297 97.6071 30.5526C97.5288 30.4756 97.4347 30.4166 97.3312 30.3797L97.6312 30.7347Z" fill="url(#paint29_linear_74_2618)"/>
<path fill-rule="evenodd" clip-rule="evenodd" d="M97.8587 30.7597C97.8237 29.9297 96.7437 29.6747 96.1237 30.0347C95.9782 30.1383 95.8588 30.2743 95.775 30.432C95.6912 30.5898 95.6453 30.7649 95.641 30.9434C95.6366 31.122 95.6739 31.2991 95.7499 31.4607C95.8258 31.6224 95.9384 31.7641 96.0787 31.8747C96.2086 31.982 96.3584 32.0626 96.5195 32.1119C96.6806 32.1612 96.8498 32.1782 97.0175 32.1619C97.1852 32.1457 97.348 32.0965 97.4967 32.0171C97.6453 31.9378 97.7768 31.8299 97.8837 31.6997C97.9754 31.5695 98.0357 31.4199 98.0598 31.2626C98.084 31.1052 98.0714 30.9444 98.0229 30.7928C97.9745 30.6412 97.8915 30.5028 97.7806 30.3886C97.6697 30.2744 97.5338 30.1875 97.3837 30.1347C97.0837 30.0347 96.9337 30.5297 97.2687 30.6347C97.3369 30.6663 97.3971 30.7128 97.4448 30.7709C97.4925 30.829 97.5265 30.8971 97.5443 30.9701C97.5621 31.0431 97.5632 31.1192 97.5475 31.1927C97.5318 31.2662 97.4997 31.3353 97.4537 31.3947C97.3446 31.5262 97.1931 31.6157 97.0252 31.6476C96.8573 31.6796 96.6835 31.652 96.5337 31.5697C96.4504 31.5365 96.3747 31.4867 96.3113 31.4233C96.2479 31.3599 96.198 31.2843 96.1648 31.201C96.1316 31.1177 96.1157 31.0285 96.1181 30.9389C96.1205 30.8493 96.1411 30.7611 96.1787 30.6797C96.3587 30.3347 97.3137 30.2097 97.3487 30.7647C97.3487 31.0747 97.8487 31.0747 97.8487 30.7647L97.8587 30.7597Z" fill="url(#paint30_linear_74_2618)"/>
<path fill-rule="evenodd" clip-rule="evenodd" d="M89.8209 30.7346C89.819 30.6422 89.7954 30.5515 89.7519 30.4698C89.7085 30.3882 89.6465 30.3179 89.5709 30.2646C89.4087 30.1744 89.2265 30.1263 89.0409 30.1246C88.8381 30.1115 88.6356 30.1547 88.4559 30.2496C88.3139 30.3455 88.2031 30.4809 88.1373 30.6391C88.0716 30.7973 88.0537 30.9713 88.0859 31.1396C88.1336 31.3013 88.2193 31.4493 88.3358 31.5711C88.4524 31.6929 88.5965 31.785 88.7559 31.8396C88.9642 31.9264 89.1966 31.9357 89.4112 31.8661C89.6258 31.7964 89.8084 31.6522 89.9259 31.4596C89.9797 31.3641 90.012 31.2581 90.0207 31.1488C90.0293 31.0396 90.0141 30.9298 89.976 30.827C89.938 30.7242 89.878 30.631 89.8003 30.5537C89.7225 30.4765 89.6289 30.4171 89.5259 30.3796L89.8209 30.7346Z" fill="url(#paint31_linear_74_2618)"/>
<path fill-rule="evenodd" clip-rule="evenodd" d="M90.2777 31.1597V31.0697C90.2737 30.8601 90.204 30.6571 90.0784 30.4894C89.9528 30.3216 89.7777 30.1975 89.5777 30.1347C89.2777 30.0347 89.1527 30.5297 89.4527 30.6347C89.5217 30.6653 89.5829 30.7111 89.6317 30.7688C89.6804 30.8264 89.7155 30.8943 89.7343 30.9674C89.753 31.0406 89.755 31.117 89.74 31.191C89.725 31.265 89.6935 31.3346 89.6477 31.3947C89.5434 31.5251 89.3962 31.6143 89.2323 31.6464C89.0684 31.6784 88.8985 31.6512 88.7527 31.5697C88.6699 31.5357 88.5945 31.4857 88.5311 31.4225C88.4676 31.3593 88.4172 31.2842 88.3828 31.2015C88.3484 31.1188 88.3307 31.0302 88.3307 30.9406C88.3307 30.8511 88.3484 30.7624 88.3827 30.6797C88.5777 30.3347 89.5077 30.2097 89.5427 30.7647C89.5427 31.0747 90.0827 31.0747 90.0427 30.7647C90.0077 29.9347 88.9277 29.6797 88.2927 30.0397C88.1509 30.1455 88.0347 30.282 87.953 30.439C87.8713 30.596 87.8261 30.7695 87.8208 30.9464C87.8155 31.1233 87.8503 31.2991 87.9225 31.4607C87.9947 31.6223 88.1024 31.7655 88.2377 31.8797C88.3676 31.987 88.5174 32.0676 88.6785 32.1169C88.8396 32.1662 89.0089 32.1832 89.1766 32.1669C89.3443 32.1507 89.5071 32.1015 89.6557 32.0221C89.8044 31.9428 89.9359 31.8349 90.0427 31.7047C90.1594 31.546 90.2335 31.3601 90.2577 31.1647L90.2777 31.1597Z" fill="url(#paint32_linear_74_2618)"/>
<path fill-rule="evenodd" clip-rule="evenodd" d="M85.9688 39.9195V35.1296H88.0637C88.3914 35.1163 88.7191 35.1568 89.0337 35.2496C89.2439 35.3403 89.4192 35.4964 89.5337 35.6946C89.6782 35.9084 89.7533 36.1615 89.7487 36.4196C89.7544 36.5782 89.7276 36.7363 89.67 36.8841C89.6124 37.032 89.5252 37.1666 89.4137 37.2795C89.1406 37.535 88.787 37.6871 88.4137 37.7095C88.5535 37.7806 88.6844 37.8679 88.8037 37.9695C88.9995 38.1547 89.1679 38.3668 89.3037 38.5995L90.1487 39.9195H89.3437L88.7237 38.9195C88.5928 38.6812 88.4405 38.4553 88.2687 38.2445C88.1865 38.1143 88.0753 38.0047 87.9437 37.9245C87.8637 37.8619 87.7719 37.816 87.6737 37.7895C87.5573 37.7799 87.4402 37.7799 87.3237 37.7895H86.5837V39.9295L85.9688 39.9195ZM86.5837 37.2395H87.9437C88.1684 37.2465 88.3923 37.2109 88.6037 37.1345C88.7518 37.0817 88.8783 36.9815 88.9637 36.8495C89.0609 36.7273 89.1138 36.5757 89.1137 36.4196C89.1212 36.3122 89.1002 36.2048 89.0528 36.1082C89.0054 36.0116 88.9332 35.9293 88.8437 35.8696C88.6328 35.6989 88.364 35.6165 88.0937 35.6396H86.5937V37.2395H86.5837ZM90.2037 39.9195L92.0337 35.1296H92.7287L94.6536 39.9195H93.9537L93.3887 38.4195H91.3887L90.8887 39.9195H90.2037ZM91.5887 37.9195H93.2137L92.7137 36.6046C92.5637 36.1696 92.4437 35.8496 92.3637 35.6046C92.2968 35.9192 92.2066 36.2284 92.0937 36.5296L91.5937 37.9295L91.5887 37.9195ZM95.1936 39.9195V35.1296H97.2886C97.6164 35.1154 97.9442 35.156 98.2586 35.2496C98.473 35.3335 98.6504 35.4913 98.7586 35.6946C98.8918 35.9127 98.9611 36.1639 98.9586 36.4196C98.9671 36.735 98.8564 37.042 98.6486 37.2795C98.3733 37.5315 98.0209 37.6831 97.6486 37.7095C97.7791 37.788 97.9044 37.8748 98.0236 37.9695C98.2164 38.1574 98.3845 38.3691 98.5236 38.5995L99.3436 39.9195H98.5636L97.9336 38.9195C97.8074 38.6846 97.6619 38.4605 97.4986 38.2495C97.4194 38.1235 97.3157 38.0147 97.1936 37.9295C97.1066 37.8693 97.0104 37.8237 96.9086 37.7945C96.7921 37.7855 96.6751 37.7855 96.5586 37.7945H95.8336V39.9345L95.1936 39.9195ZM95.8236 37.2395H97.1536C97.3865 37.2474 97.6188 37.2118 97.8386 37.1345C97.9847 37.0829 98.1084 36.9822 98.1886 36.8495C98.2918 36.7307 98.3455 36.5768 98.3386 36.4196C98.3453 36.3139 98.3255 36.2082 98.281 36.1122C98.2364 36.0161 98.1686 35.9327 98.0836 35.8696C97.8605 35.7 97.583 35.6182 97.3036 35.6396H95.8036V37.2395H95.8236ZM99.9986 39.9195V35.1296H103.439V35.6796H100.599V37.1795H103.234V37.6995H100.599V39.3545H103.499V39.9195H99.9986ZM106.239 39.9195V35.1296H107.998C108.293 35.1181 108.587 35.164 108.863 35.2646C109.077 35.3428 109.254 35.4956 109.363 35.6946C109.481 35.8893 109.545 36.1119 109.548 36.3396C109.552 36.5474 109.497 36.7521 109.388 36.9295C109.264 37.1134 109.091 37.2589 108.888 37.3495C109.147 37.4196 109.376 37.5702 109.543 37.7795C109.699 37.9947 109.779 38.2544 109.773 38.5195C109.785 38.7252 109.748 38.9307 109.667 39.1199C109.585 39.309 109.461 39.4766 109.303 39.6095C109.135 39.7076 108.953 39.78 108.763 39.8245C108.515 39.8941 108.257 39.9261 107.998 39.9195H106.239ZM106.869 37.1195H107.868C108.076 37.132 108.284 37.1186 108.488 37.0795C108.631 37.0471 108.757 36.9612 108.838 36.8395C108.921 36.7155 108.963 36.5686 108.958 36.4196C108.962 36.2675 108.92 36.1179 108.838 35.9896C108.807 35.9279 108.764 35.8735 108.71 35.8296C108.657 35.7857 108.595 35.7533 108.528 35.7346C108.288 35.6883 108.043 35.6698 107.799 35.6796H106.849V37.1195H106.869ZM106.869 39.3545H107.998C108.142 39.3649 108.285 39.3649 108.428 39.3545C108.565 39.3377 108.695 39.2879 108.808 39.2095C108.899 39.1439 108.976 39.0605 109.033 38.9645C109.093 38.8287 109.125 38.6827 109.128 38.5345C109.131 38.368 109.084 38.2045 108.993 38.0645C108.953 37.9964 108.898 37.9374 108.834 37.8909C108.769 37.8445 108.696 37.8117 108.618 37.7945C108.392 37.7241 108.155 37.697 107.918 37.7145H106.849V39.3695L106.869 39.3545ZM111.998 39.9195V37.8595L110.168 35.1296H110.908L111.848 36.5796C112.038 36.8396 112.188 37.0795 112.348 37.3645C112.493 37.1195 112.658 36.8645 112.848 36.5396L113.778 35.1296H114.503L112.608 37.8595V39.9195H111.998ZM116.813 39.9195V35.1296H117.498L119.998 38.8845V35.1296H120.593V39.9195H119.958L117.458 36.1496V39.9195H116.813ZM121.073 39.9195L122.903 35.1296H123.603L125.538 39.9195H124.813L124.263 38.4195H122.263L121.738 39.9195H121.073ZM122.448 37.9195H124.058L123.558 36.6046C123.408 36.1696 123.313 35.8496 123.233 35.6046C123.171 35.9203 123.081 36.2299 122.963 36.5296L122.463 37.9295L122.448 37.9195ZM126.008 39.9195V35.1296H126.998L128.108 38.4995C128.17 38.7507 128.246 38.9979 128.338 39.2395C128.393 39.0495 128.473 38.8045 128.578 38.4445L129.733 35.1346H130.568V39.9245H129.998V35.8796L128.598 39.9195H127.998L126.638 35.8296V39.9195H126.008ZM131.588 39.9195V35.1296H134.998V35.6796H132.203V37.1795H134.838V37.6995H132.203V39.3545H135.123V39.9195H131.588ZM136.088 39.9195V39.2595H136.748V39.9195H136.088ZM139.653 39.9195V35.1296H141.443C141.736 35.1164 142.028 35.1623 142.303 35.2646C142.516 35.3428 142.694 35.4956 142.803 35.6946C142.934 35.8837 143 36.1098 142.993 36.3396C142.995 36.5478 142.938 36.7524 142.828 36.9295C142.704 37.1134 142.531 37.2589 142.328 37.3495C142.589 37.417 142.821 37.568 142.988 37.7795C143.151 37.9914 143.235 38.2527 143.228 38.5195C143.223 38.7362 143.177 38.9499 143.093 39.1495C143.005 39.3228 142.887 39.4786 142.743 39.6095C142.581 39.7102 142.404 39.7829 142.218 39.8245C141.964 39.895 141.701 39.927 141.438 39.9195H139.653ZM140.283 37.1195H141.318C141.517 37.1326 141.717 37.1191 141.913 37.0795C142.056 37.0471 142.181 36.9612 142.263 36.8395C142.346 36.7155 142.388 36.5686 142.383 36.4196C142.397 36.2679 142.358 36.1161 142.273 35.9896C142.202 35.8672 142.088 35.7762 141.953 35.7346C141.714 35.6884 141.471 35.67 141.228 35.6796H140.283V37.1195ZM140.283 39.3545H141.498C141.641 39.3653 141.785 39.3653 141.928 39.3545C142.065 39.3377 142.195 39.2879 142.308 39.2095C142.411 39.1584 142.491 39.0711 142.533 38.9645C142.604 38.8327 142.637 38.6839 142.628 38.5345C142.638 38.3671 142.59 38.2014 142.493 38.0645C142.454 37.995 142.4 37.9349 142.335 37.8882C142.271 37.8416 142.196 37.8096 142.118 37.7945C141.892 37.7241 141.654 37.697 141.418 37.7145H140.328V39.3695L140.283 39.3545ZM144.128 39.9195V35.1296H146.228C146.556 35.1178 146.883 35.1583 147.198 35.2496C147.419 35.3376 147.606 35.4934 147.733 35.6946C147.857 35.9163 147.922 36.1657 147.923 36.4196C147.928 36.578 147.9 36.7358 147.843 36.8835C147.785 37.0312 147.699 37.1659 147.588 37.2795C147.317 37.5387 146.962 37.6914 146.588 37.7095C146.73 37.7689 146.858 37.8575 146.963 37.9695C147.176 38.1476 147.357 38.3606 147.498 38.5995L148.318 39.9195H147.508L146.893 38.9195C146.761 38.6841 146.612 38.4585 146.448 38.2445C146.358 38.117 146.245 38.0083 146.113 37.9245C146.033 37.8619 145.941 37.816 145.843 37.7895C145.727 37.7804 145.61 37.7804 145.493 37.7895H144.753V39.9295L144.128 39.9195ZM144.748 37.2395H146.108C146.333 37.2474 146.557 37.2117 146.768 37.1345C146.92 37.0741 147.054 36.9761 147.158 36.8495C147.235 36.7197 147.271 36.5701 147.263 36.4196C147.272 36.3161 147.255 36.2121 147.215 36.1164C147.175 36.0206 147.113 35.936 147.033 35.8696C146.81 35.6992 146.533 35.6173 146.253 35.6396H144.753V37.2395H144.748ZM149.013 39.9195V35.1296H149.643V39.9195H149.013ZM150.733 39.9195V35.1296H151.378V39.3545H153.718V39.9195H150.733ZM154.418 39.9195V35.1296H155.063V39.3545H157.403V39.9195H154.418ZM158.248 39.9195V35.1296H158.883V39.9195H158.248ZM159.488 39.9195L161.288 35.1296H161.998L163.933 39.9195H163.223L162.658 38.4195H160.658L160.158 39.9195H159.488ZM160.843 37.9195H162.498L161.998 36.6046C161.853 36.1696 161.728 35.8496 161.648 35.6046C161.586 35.9203 161.495 36.2299 161.378 36.5296L160.878 37.9295L160.843 37.9195ZM164.423 39.9195V35.1296H165.053L167.553 38.8845V35.1296H168.143V39.9195H167.548L165.048 36.1496V39.9195H164.423ZM170.423 39.9195V35.6796H168.848V35.1296H172.613V35.6796H171.053V39.9195H170.423ZM174.968 39.9195V35.1296H176.753C177.047 35.116 177.341 35.1619 177.618 35.2646C177.831 35.3428 178.008 35.4956 178.118 35.6946C178.247 35.8842 178.312 36.1103 178.303 36.3396C178.306 36.5474 178.251 36.7521 178.143 36.9295C178.018 37.1134 177.845 37.2589 177.643 37.3495C177.905 37.4118 178.136 37.564 178.298 37.7795C178.473 37.9856 178.565 38.2492 178.558 38.5195C178.548 38.7371 178.497 38.9508 178.408 39.1495C178.318 39.3217 178.2 39.4773 178.058 39.6095C177.903 39.7058 177.734 39.7783 177.558 39.8245C177.303 39.892 177.041 39.924 176.778 39.9195H174.968ZM175.583 37.1195H176.633C176.832 37.1326 177.032 37.1191 177.228 37.0795C177.368 37.0446 177.491 36.9592 177.573 36.8395C177.659 36.717 177.703 36.5695 177.698 36.4196C177.709 36.27 177.676 36.1204 177.603 35.9896C177.526 35.8666 177.407 35.7759 177.268 35.7346C177.032 35.6881 176.792 35.6696 176.553 35.6796H175.583V37.1195ZM175.583 39.3545H176.783C176.926 39.3645 177.07 39.3645 177.213 39.3545C177.343 39.3386 177.467 39.2886 177.573 39.2095C177.678 39.1602 177.76 39.0725 177.803 38.9645C177.878 38.8339 177.916 38.6852 177.913 38.5345C177.925 38.3644 177.871 38.1962 177.763 38.0645C177.727 37.9927 177.674 37.9306 177.608 37.8836C177.543 37.8366 177.467 37.8061 177.388 37.7945C177.161 37.7241 176.924 37.697 176.688 37.7145H175.583V39.3695V39.3545ZM180.763 39.9195V37.8595L178.933 35.1296H179.698L180.628 36.5796C180.788 36.8396 180.978 37.0795 181.128 37.3645C181.273 37.1195 181.438 36.8645 181.663 36.5396L182.568 35.1296H183.318L181.398 37.8595V39.9195H180.763ZM185.563 39.9195V35.1296H186.223L188.723 38.8845V35.1296H189.343V39.9195H188.698L186.198 36.1496V39.9195H185.563ZM189.868 39.9195L191.668 35.1296H192.368L194.302 39.9195H193.588L193.028 38.4195H191.028L190.528 39.9195H189.868ZM191.223 37.9195H192.853L192.353 36.6046C192.203 36.1696 192.083 35.8496 192.003 35.6046C191.94 35.9203 191.85 36.2299 191.733 36.5296L191.233 37.9295L191.223 37.9195ZM195.512 39.9195V35.6796H193.997V35.1296H197.777V35.6796H196.217V39.9195H195.512ZM201.512 35.1296H202.132V37.8845C202.15 38.2781 202.094 38.6715 201.967 39.0445C201.852 39.327 201.651 39.5664 201.392 39.7295C201.049 39.9161 200.663 40.0092 200.272 39.9995C199.898 40.0097 199.526 39.9309 199.187 39.7695C198.915 39.618 198.704 39.3755 198.592 39.0845C198.457 38.6995 198.394 38.2926 198.407 37.8845V35.1296H199.052V37.8845C199.046 38.1972 199.078 38.5095 199.147 38.8145C199.236 39.0063 199.381 39.1667 199.562 39.2745C199.764 39.384 199.993 39.4343 200.222 39.4195C200.583 39.4505 200.942 39.3392 201.222 39.1095C201.454 38.7455 201.555 38.3134 201.507 37.8845V35.1296H201.512ZM203.207 39.9195V35.1296H205.317C205.645 35.1178 205.972 35.1583 206.287 35.2496C206.498 35.3403 206.673 35.4964 206.787 35.6946C206.93 35.9095 207.004 36.1619 207.002 36.4196C207.007 36.578 206.98 36.7358 206.922 36.8835C206.864 37.0312 206.778 37.1659 206.667 37.2795C206.387 37.5389 206.024 37.6911 205.642 37.7095C205.788 37.7694 205.921 37.8578 206.032 37.9695C206.234 38.1496 206.403 38.3626 206.532 38.5995L207.352 39.9195H206.572L205.957 38.9195C205.767 38.5945 205.607 38.4195 205.512 38.2445C205.423 38.117 205.309 38.0083 205.177 37.9245C205.097 37.8619 205.006 37.816 204.907 37.7895C204.786 37.78 204.664 37.78 204.542 37.7895H203.817V39.9295L203.207 39.9195ZM203.837 37.2395H205.197C205.42 37.2452 205.642 37.2096 205.852 37.1345C206.005 37.0794 206.137 36.9802 206.232 36.8495C206.314 36.7212 206.356 36.5716 206.352 36.4196C206.363 36.3135 206.344 36.2066 206.299 36.11C206.255 36.0133 206.185 35.9303 206.097 35.8696C205.884 35.699 205.614 35.6167 205.342 35.6396H203.842V37.2395H203.837ZM207.997 39.9195V35.1296H211.442V35.6796H208.642V37.1795H211.252V37.6995H208.642V39.3545H211.562V39.9195H207.997Z" fill="#313131"/>
<path fill-rule="evenodd" clip-rule="evenodd" d="M60.4693 31.0746L44.5645 47.0045H46.1945L62.1093 31.0746L31.0546 0L0 31.0746L15.9098 47.0045H17.5448L1.62998 31.0746L31.0546 1.62998L60.4693 31.0746Z" fill="url(#paint33_linear_74_2618)"/>
<path fill-rule="evenodd" clip-rule="evenodd" d="M54.2646 49.5945C53.3788 49.8442 52.4648 49.9803 51.5447 49.9995C50.8384 50.0061 50.1329 49.9559 49.4347 49.8495C48.7587 49.7413 48.0987 49.5498 47.4697 49.2795C46.7899 49.0094 46.1313 48.6885 45.4997 48.3195C44.8514 47.9202 44.239 47.4652 43.6697 46.9595C42.5681 46.0661 41.549 45.0754 40.6248 43.9995C39.7015 42.9495 37.9365 40.9779 35.3298 38.0846C32.7232 35.1913 30.9882 33.273 30.1249 32.3297C29.2599 31.3697 28.6249 30.8747 28.1249 30.8297V30.4647C29.0744 30.4833 30.0241 30.4499 30.9699 30.3647C31.4779 30.2972 31.9795 30.1885 32.4699 30.0397C32.9588 29.9096 33.4198 29.691 33.8299 29.3947C35.2765 28.468 35.9998 26.9297 35.9998 24.7798C36.08 23.2651 35.6716 21.7648 34.8348 20.4998C34.4538 19.9746 33.9517 19.549 33.3712 19.2591C32.7906 18.9693 32.1487 18.8237 31.4999 18.8348H26.9349V40.6846C26.9343 40.9847 26.9932 41.2819 27.1082 41.5592C27.2232 41.8364 27.392 42.088 27.6049 42.2995C27.8192 42.526 28.0785 42.7053 28.366 42.8258C28.6536 42.9464 28.9632 43.0055 29.2749 42.9995H29.7149L29.7499 43.3695H21.75V42.9995H22.25C22.8576 42.9936 23.4396 42.7539 23.8753 42.3304C24.311 41.9068 24.5669 41.3318 24.59 40.7246V20.3748C24.5762 19.7609 24.3211 19.177 23.88 18.7498C23.6697 18.5301 23.4165 18.3559 23.1361 18.2381C22.8557 18.1202 22.5541 18.0613 22.25 18.0648H21.75V17.7048H31.6249C33.7749 17.7048 35.5048 18.3048 36.8098 19.5198C37.4623 20.132 37.9751 20.8777 38.3133 21.706C38.6516 22.5343 38.8072 23.4258 38.7698 24.3198C38.821 26.1877 38.192 28.0107 36.9998 29.4497C36.4818 30.1227 35.815 30.6665 35.0516 31.0387C34.2883 31.4108 33.4491 31.6011 32.5999 31.5947H32.5649C33.3999 32.4697 34.3399 33.4947 35.3898 34.6796C39.5998 39.3429 42.3031 42.2829 43.4998 43.4995C44.6964 44.7162 45.7547 45.6995 46.6747 46.4495C47.4211 47.1057 48.2377 47.6775 49.1097 48.1545C50.4156 48.9023 51.8899 49.3066 53.3946 49.3295C53.6879 49.3291 53.9806 49.304 54.2696 49.2545V49.6195L54.2646 49.5945Z" fill="#024715"/>
<defs>
<linearGradient id="paint0_linear_74_2618" x1="217.405" y1="31.0496" x2="219.875" y2="31.0496" gradientUnits="userSpaceOnUse">
<stop stop-color="#FFEA92"/>
<stop offset="0.23" stop-color="#FFFAB8"/>
<stop offset="0.41" stop-color="#AB8124"/>
<stop offset="0.59" stop-color="#DAB25A"/>
<stop offset="0.77" stop-color="#D5A84D"/>
<stop offset="1" stop-color="#EFC873"/>
</linearGradient>
<linearGradient id="paint1_linear_74_2618" x1="217.194" y1="31.0296" x2="220.114" y2="31.0296" gradientUnits="userSpaceOnUse">
<stop stop-color="#FFEA92"/>
<stop offset="0.23" stop-color="#FFFAB8"/>
<stop offset="0.41" stop-color="#AB8124"/>
<stop offset="0.59" stop-color="#DAB25A"/>
<stop offset="0.77" stop-color="#D5A84D"/>
<stop offset="1" stop-color="#EFC873"/>
</linearGradient>
<linearGradient id="paint2_linear_74_2618" x1="216.275" y1="26.9847" x2="218.015" y2="26.9847" gradientUnits="userSpaceOnUse">
<stop stop-color="#FFEA92"/>
<stop offset="0.23" stop-color="#FFFAB8"/>
<stop offset="0.41" stop-color="#AB8124"/>
<stop offset="0.59" stop-color="#DAB25A"/>
<stop offset="0.77" stop-color="#D5A84D"/>
<stop offset="1" stop-color="#EFC873"/>
</linearGradient>
<linearGradient id="paint3_linear_74_2618" x1="219.19" y1="34.8296" x2="221.435" y2="34.8296" gradientUnits="userSpaceOnUse">
<stop stop-color="#FFEA92"/>
<stop offset="0.23" stop-color="#FFFAB8"/>
<stop offset="0.41" stop-color="#AB8124"/>
<stop offset="0.59" stop-color="#DAB25A"/>
<stop offset="0.77" stop-color="#D5A84D"/>
<stop offset="1" stop-color="#EFC873"/>
</linearGradient>
<linearGradient id="paint4_linear_74_2618" x1="212.09" y1="33.1146" x2="216.695" y2="33.1146" gradientUnits="userSpaceOnUse">
<stop stop-color="#FFEA92"/>
<stop offset="0.23" stop-color="#FFFAB8"/>
<stop offset="0.41" stop-color="#AB8124"/>
<stop offset="0.59" stop-color="#DAB25A"/>
<stop offset="0.77" stop-color="#D5A84D"/>
<stop offset="1" stop-color="#EFC873"/>
</linearGradient>
<linearGradient id="paint5_linear_74_2618" x1="220.369" y1="29.2047" x2="224.114" y2="29.2047" gradientUnits="userSpaceOnUse">
<stop stop-color="#FFEA92"/>
<stop offset="0.23" stop-color="#FFFAB8"/>
<stop offset="0.41" stop-color="#AB8124"/>
<stop offset="0.59" stop-color="#DAB25A"/>
<stop offset="0.77" stop-color="#D5A84D"/>
<stop offset="1" stop-color="#EFC873"/>
</linearGradient>
<linearGradient id="paint6_linear_74_2618" x1="219.265" y1="27.0697" x2="221.73" y2="27.0697" gradientUnits="userSpaceOnUse">
<stop stop-color="#FFEA92"/>
<stop offset="0.23" stop-color="#FFFAB8"/>
<stop offset="0.41" stop-color="#AB8124"/>
<stop offset="0.59" stop-color="#DAB25A"/>
<stop offset="0.77" stop-color="#D5A84D"/>
<stop offset="1" stop-color="#EFC873"/>
</linearGradient>
<linearGradient id="paint7_linear_74_2618" x1="212.732" y1="29.2997" x2="216.782" y2="29.2997" gradientUnits="userSpaceOnUse">
<stop stop-color="#FFEA92"/>
<stop offset="0.23" stop-color="#FFFAB8"/>
<stop offset="0.41" stop-color="#AB8124"/>
<stop offset="0.59" stop-color="#DAB25A"/>
<stop offset="0.77" stop-color="#D5A84D"/>
<stop offset="1" stop-color="#EFC873"/>
</linearGradient>
<linearGradient id="paint8_linear_74_2618" x1="216.339" y1="35.3496" x2="218.269" y2="35.3496" gradientUnits="userSpaceOnUse">
<stop stop-color="#FFEA92"/>
<stop offset="0.23" stop-color="#FFFAB8"/>
<stop offset="0.41" stop-color="#AB8124"/>
<stop offset="0.59" stop-color="#DAB25A"/>
<stop offset="0.77" stop-color="#D5A84D"/>
<stop offset="1" stop-color="#EFC873"/>
</linearGradient>
<linearGradient id="paint9_linear_74_2618" x1="220.63" y1="32.6246" x2="225.425" y2="32.6246" gradientUnits="userSpaceOnUse">
<stop stop-color="#FFEA92"/>
<stop offset="0.23" stop-color="#FFFAB8"/>
<stop offset="0.41" stop-color="#AB8124"/>
<stop offset="0.59" stop-color="#DAB25A"/>
<stop offset="0.77" stop-color="#D5A84D"/>
<stop offset="1" stop-color="#EFC873"/>
</linearGradient>
<linearGradient id="paint10_linear_74_2618" x1="86.5169" y1="31.0547" x2="211.36" y2="31.0547" gradientUnits="userSpaceOnUse">
<stop stop-color="#FFEA92"/>
<stop offset="0.23" stop-color="#FFFAB8"/>
<stop offset="0.41" stop-color="#AB8124"/>
<stop offset="0.59" stop-color="#DAB25A"/>
<stop offset="0.77" stop-color="#D5A84D"/>
<stop offset="1" stop-color="#EFC873"/>
</linearGradient>
<linearGradient id="paint11_linear_74_2618" x1="203.209" y1="30.9846" x2="205.654" y2="30.9846" gradientUnits="userSpaceOnUse">
<stop stop-color="#FFEA92"/>
<stop offset="0.23" stop-color="#FFFAB8"/>
<stop offset="0.41" stop-color="#AB8124"/>
<stop offset="0.59" stop-color="#DAB25A"/>
<stop offset="0.77" stop-color="#D5A84D"/>
<stop offset="1" stop-color="#EFC873"/>
</linearGradient>
<linearGradient id="paint12_linear_74_2618" x1="202.886" y1="30.9696" x2="205.966" y2="30.9696" gradientUnits="userSpaceOnUse">
<stop stop-color="#FFEA92"/>
<stop offset="0.23" stop-color="#FFFAB8"/>
<stop offset="0.41" stop-color="#AB8124"/>
<stop offset="0.59" stop-color="#DAB25A"/>
<stop offset="0.77" stop-color="#D5A84D"/>
<stop offset="1" stop-color="#EFC873"/>
</linearGradient>
<linearGradient id="paint13_linear_74_2618" x1="199.71" y1="30.9796" x2="201.65" y2="30.9796" gradientUnits="userSpaceOnUse">
<stop stop-color="#FFEA92"/>
<stop offset="0.23" stop-color="#FFFAB8"/>
<stop offset="0.41" stop-color="#AB8124"/>
<stop offset="0.59" stop-color="#DAB25A"/>
<stop offset="0.77" stop-color="#D5A84D"/>
<stop offset="1" stop-color="#EFC873"/>
</linearGradient>
<linearGradient id="paint14_linear_74_2618" x1="199.442" y1="30.9797" x2="201.872" y2="30.9797" gradientUnits="userSpaceOnUse">
<stop stop-color="#FFEA92"/>
<stop offset="0.23" stop-color="#FFFAB8"/>
<stop offset="0.41" stop-color="#AB8124"/>
<stop offset="0.59" stop-color="#DAB25A"/>
<stop offset="0.77" stop-color="#D5A84D"/>
<stop offset="1" stop-color="#EFC873"/>
</linearGradient>
<linearGradient id="paint15_linear_74_2618" x1="207.517" y1="30.9796" x2="209.457" y2="30.9796" gradientUnits="userSpaceOnUse">
<stop stop-color="#FFEA92"/>
<stop offset="0.23" stop-color="#FFFAB8"/>
<stop offset="0.41" stop-color="#AB8124"/>
<stop offset="0.59" stop-color="#DAB25A"/>
<stop offset="0.77" stop-color="#D5A84D"/>
<stop offset="1" stop-color="#EFC873"/>
</linearGradient>
<linearGradient id="paint16_linear_74_2618" x1="207.25" y1="30.9797" x2="209.69" y2="30.9797" gradientUnits="userSpaceOnUse">
<stop stop-color="#FFEA92"/>
<stop offset="0.23" stop-color="#FFFAB8"/>
<stop offset="0.41" stop-color="#AB8124"/>
<stop offset="0.59" stop-color="#DAB25A"/>
<stop offset="0.77" stop-color="#D5A84D"/>
<stop offset="1" stop-color="#EFC873"/>
</linearGradient>
<linearGradient id="paint17_linear_74_2618" x1="77.6652" y1="31.0746" x2="80.1401" y2="31.0746" gradientUnits="userSpaceOnUse">
<stop stop-color="#FFEA92"/>
<stop offset="0.23" stop-color="#FFFAB8"/>
<stop offset="0.41" stop-color="#AB8124"/>
<stop offset="0.59" stop-color="#DAB25A"/>
<stop offset="0.77" stop-color="#D5A84D"/>
<stop offset="1" stop-color="#EFC873"/>
</linearGradient>
<linearGradient id="paint18_linear_74_2618" x1="77.4527" y1="31.0646" x2="80.3727" y2="31.0646" gradientUnits="userSpaceOnUse">
<stop stop-color="#FFEA92"/>
<stop offset="0.23" stop-color="#FFFAB8"/>
<stop offset="0.41" stop-color="#AB8124"/>
<stop offset="0.59" stop-color="#DAB25A"/>
<stop offset="0.77" stop-color="#D5A84D"/>
<stop offset="1" stop-color="#EFC873"/>
</linearGradient>
<linearGradient id="paint19_linear_74_2618" x1="79.4972" y1="27.0197" x2="81.2572" y2="27.0197" gradientUnits="userSpaceOnUse">
<stop stop-color="#FFEA92"/>
<stop offset="0.23" stop-color="#FFFAB8"/>
<stop offset="0.41" stop-color="#AB8124"/>
<stop offset="0.59" stop-color="#DAB25A"/>
<stop offset="0.77" stop-color="#D5A84D"/>
<stop offset="1" stop-color="#EFC873"/>
</linearGradient>
<linearGradient id="paint20_linear_74_2618" x1="76.1035" y1="34.8546" x2="78.3485" y2="34.8546" gradientUnits="userSpaceOnUse">
<stop stop-color="#FFEA92"/>
<stop offset="0.23" stop-color="#FFFAB8"/>
<stop offset="0.41" stop-color="#AB8124"/>
<stop offset="0.59" stop-color="#DAB25A"/>
<stop offset="0.77" stop-color="#D5A84D"/>
<stop offset="1" stop-color="#EFC873"/>
</linearGradient>
<linearGradient id="paint21_linear_74_2618" x1="80.853" y1="33.1696" x2="85.448" y2="33.1696" gradientUnits="userSpaceOnUse">
<stop stop-color="#FFEA92"/>
<stop offset="0.23" stop-color="#FFFAB8"/>
<stop offset="0.41" stop-color="#AB8124"/>
<stop offset="0.59" stop-color="#DAB25A"/>
<stop offset="0.77" stop-color="#D5A84D"/>
<stop offset="1" stop-color="#EFC873"/>
</linearGradient>
<linearGradient id="paint22_linear_74_2618" x1="73.421" y1="29.2397" x2="77.171" y2="29.2397" gradientUnits="userSpaceOnUse">
<stop stop-color="#FFEA92"/>
<stop offset="0.23" stop-color="#FFFAB8"/>
<stop offset="0.41" stop-color="#AB8124"/>
<stop offset="0.59" stop-color="#DAB25A"/>
<stop offset="0.77" stop-color="#D5A84D"/>
<stop offset="1" stop-color="#EFC873"/>
</linearGradient>
<linearGradient id="paint23_linear_74_2618" x1="75.7356" y1="27.0947" x2="78.2706" y2="27.0947" gradientUnits="userSpaceOnUse">
<stop stop-color="#FFEA92"/>
<stop offset="0.23" stop-color="#FFFAB8"/>
<stop offset="0.41" stop-color="#AB8124"/>
<stop offset="0.59" stop-color="#DAB25A"/>
<stop offset="0.77" stop-color="#D5A84D"/>
<stop offset="1" stop-color="#EFC873"/>
</linearGradient>
<linearGradient id="paint24_linear_74_2618" x1="80.755" y1="29.3347" x2="84.825" y2="29.3347" gradientUnits="userSpaceOnUse">
<stop stop-color="#FFEA92"/>
<stop offset="0.23" stop-color="#FFFAB8"/>
<stop offset="0.41" stop-color="#AB8124"/>
<stop offset="0.59" stop-color="#DAB25A"/>
<stop offset="0.77" stop-color="#D5A84D"/>
<stop offset="1" stop-color="#EFC873"/>
</linearGradient>
<linearGradient id="paint25_linear_74_2618" x1="79.2359" y1="35.3896" x2="81.1959" y2="35.3896" gradientUnits="userSpaceOnUse">
<stop stop-color="#FFEA92"/>
<stop offset="0.23" stop-color="#FFFAB8"/>
<stop offset="0.41" stop-color="#AB8124"/>
<stop offset="0.59" stop-color="#DAB25A"/>
<stop offset="0.77" stop-color="#D5A84D"/>
<stop offset="1" stop-color="#EFC873"/>
</linearGradient>
<linearGradient id="paint26_linear_74_2618" x1="72.1116" y1="32.6596" x2="76.8965" y2="32.6596" gradientUnits="userSpaceOnUse">
<stop stop-color="#FFEA92"/>
<stop offset="0.23" stop-color="#FFFAB8"/>
<stop offset="0.41" stop-color="#AB8124"/>
<stop offset="0.59" stop-color="#DAB25A"/>
<stop offset="0.77" stop-color="#D5A84D"/>
<stop offset="1" stop-color="#EFC873"/>
</linearGradient>
<linearGradient id="paint27_linear_74_2618" x1="91.8508" y1="31.0146" x2="94.3008" y2="31.0146" gradientUnits="userSpaceOnUse">
<stop stop-color="#FFEA92"/>
<stop offset="0.23" stop-color="#FFFAB8"/>
<stop offset="0.41" stop-color="#AB8124"/>
<stop offset="0.59" stop-color="#DAB25A"/>
<stop offset="0.77" stop-color="#D5A84D"/>
<stop offset="1" stop-color="#EFC873"/>
</linearGradient>
<linearGradient id="paint28_linear_74_2618" x1="91.5636" y1="31.0196" x2="94.6386" y2="31.0196" gradientUnits="userSpaceOnUse">
<stop stop-color="#FFEA92"/>
<stop offset="0.23" stop-color="#FFFAB8"/>
<stop offset="0.41" stop-color="#AB8124"/>
<stop offset="0.59" stop-color="#DAB25A"/>
<stop offset="0.77" stop-color="#D5A84D"/>
<stop offset="1" stop-color="#EFC873"/>
</linearGradient>
<linearGradient id="paint29_linear_74_2618" x1="95.8862" y1="31.0147" x2="97.8312" y2="31.0147" gradientUnits="userSpaceOnUse">
<stop stop-color="#FFEA92"/>
<stop offset="0.23" stop-color="#FFFAB8"/>
<stop offset="0.41" stop-color="#AB8124"/>
<stop offset="0.59" stop-color="#DAB25A"/>
<stop offset="0.77" stop-color="#D5A84D"/>
<stop offset="1" stop-color="#EFC873"/>
</linearGradient>
<linearGradient id="paint30_linear_74_2618" x1="95.6437" y1="31.0197" x2="98.0787" y2="31.0197" gradientUnits="userSpaceOnUse">
<stop stop-color="#FFEA92"/>
<stop offset="0.23" stop-color="#FFFAB8"/>
<stop offset="0.41" stop-color="#AB8124"/>
<stop offset="0.59" stop-color="#DAB25A"/>
<stop offset="0.77" stop-color="#D5A84D"/>
<stop offset="1" stop-color="#EFC873"/>
</linearGradient>
<linearGradient id="paint31_linear_74_2618" x1="88.0709" y1="31.0146" x2="90.0259" y2="31.0146" gradientUnits="userSpaceOnUse">
<stop stop-color="#FFEA92"/>
<stop offset="0.23" stop-color="#FFFAB8"/>
<stop offset="0.41" stop-color="#AB8124"/>
<stop offset="0.59" stop-color="#DAB25A"/>
<stop offset="0.77" stop-color="#D5A84D"/>
<stop offset="1" stop-color="#EFC873"/>
</linearGradient>
<linearGradient id="paint32_linear_74_2618" x1="87.8427" y1="31.0197" x2="90.2777" y2="31.0197" gradientUnits="userSpaceOnUse">
<stop stop-color="#FFEA92"/>
<stop offset="0.23" stop-color="#FFFAB8"/>
<stop offset="0.41" stop-color="#AB8124"/>
<stop offset="0.59" stop-color="#DAB25A"/>
<stop offset="0.77" stop-color="#D5A84D"/>
<stop offset="1" stop-color="#EFC873"/>
</linearGradient>
<linearGradient id="paint33_linear_74_2618" x1="0" y1="23.5047" x2="62.1143" y2="23.5047" gradientUnits="userSpaceOnUse">
<stop stop-color="#FFEA92"/>
<stop offset="0.23" stop-color="#FFFAB8"/>
<stop offset="0.41" stop-color="#AB8124"/>
<stop offset="0.59" stop-color="#DAB25A"/>
<stop offset="0.77" stop-color="#D5A84D"/>
<stop offset="1" stop-color="#EFC873"/>
</linearGradient>
</defs>
</svg>
