<svg width="41" height="80" viewBox="0 0 41 80" fill="none" xmlns="http://www.w3.org/2000/svg">
<path d="M20.1642 0.188061L19.9451 0L19.7459 0.217793C18.7899 1.2673 17.8172 2.31018 16.828 3.34648C14.6869 5.60391 12.4761 7.94057 10.5441 10.4356C2.47753 20.8614 -0.908432 31.5643 0.206942 43.1089C1.06339 52.099 4.58877 60.5841 10.9723 69.0396C12.8943 71.594 15.0255 74.0594 17.077 76.4455C18.0231 77.5445 18.9791 78.6535 19.9152 79.7624L20.1144 80L20.3434 79.7921C34.196 66.9208 41.3364 52.4653 40.9878 38.0594C40.6492 24.4752 33.4491 11.396 20.1642 0.188061ZM33.718 18.0792C37.1837 23.8422 39.2089 30.3476 39.6235 37.0495L38.1496 35.3267C36.8402 33.7367 35.4474 32.2164 33.9769 30.7722C33.0407 30.0265 32.3713 29.0005 32.0681 27.8465C31.7649 26.6925 31.8441 25.472 32.2939 24.3663C32.7471 22.8718 33.1063 21.3507 33.3694 19.8118C33.4789 19.2574 33.5885 18.6831 33.718 18.0792ZM30.8897 24.693L30.5113 26.4653C27.4141 24.1485 26.6772 20.9208 25.8904 17.5544C25.6016 16.3069 25.3128 15.0198 24.8946 13.7524L26.4282 14.4158C28.4199 15.2574 30.0432 15.9801 31.7063 16.7722C31.879 16.8807 32.0256 17.0257 32.1358 17.1968C32.2459 17.3679 32.3169 17.5609 32.3437 17.7623C31.8856 19.99 31.4175 22.2772 30.8897 24.693ZM20.1144 61.505L19.8853 61.2574C17.3558 58.4158 14.9657 55.7425 14.5574 51.7425C14.167 48.7895 13.5002 45.8793 12.5657 43.0495C11.5749 40.0013 11.638 36.7113 12.7449 33.703C13.0818 32.7106 13.3578 31.6988 13.5715 30.6733C13.6512 30.3069 13.7308 29.9505 13.8205 29.5743C15.5035 22.7327 15.5234 22.6436 20.3434 17.6931C26.3186 21.6535 27.5436 27.9406 28.7486 34.0297C28.8572 35.2092 28.7077 36.3981 28.3104 37.5148C28.1809 37.9802 28.0614 38.4455 27.9618 38.901C27.6631 40.396 27.3046 41.8713 26.966 43.3663C26.2689 46.3861 25.5518 49.5049 25.1535 52.6237C24.6854 56.2277 22.7733 58.6139 20.1144 61.505ZM23.5501 59.7129L22.5543 64.5247L20.9808 62.6832L23.5501 59.7129ZM19.1882 62.6832L17.5649 64.5941L16.3101 59.2178L19.1882 62.6832ZM10.4246 42.6832L10.793 41.297L13.6711 53.8317L12.6752 52.6831C11.52 51.297 10.325 49.8613 9.19965 48.4059C9.11002 48.2871 9.06022 47.9109 9.19965 47.2376C9.62787 45.693 10.0262 44.1782 10.4246 42.6633V42.6832ZM13.203 26.2277L10.9723 35.1386C9.33907 30.6436 9.76728 28.9307 13.203 26.2079V26.2277ZM16.111 20.4158L17.6446 14.2178L19.5667 16.3267L16.111 20.4158ZM21.399 16.3564L23.4804 13.901L25.3825 20.8317L21.399 16.3564ZM28.3004 26.5446C30.1527 28.0297 30.342 28.7228 29.4556 30.9901L28.3004 26.5446ZM29.6449 37.4356L30.1328 39.4158C30.7503 41.8416 31.3976 44.3663 31.9852 46.8218C32.016 46.9936 32.0115 47.1699 31.9722 47.34C31.9328 47.5102 31.8593 47.6707 31.7561 47.8119C30.0077 49.9957 28.1462 52.0877 26.1792 54.0792L29.6449 37.4356ZM32.0748 15.2673L24.9643 12.198L27.4838 9.22767L32.0748 15.2673ZM26.5079 8.19799L24.1477 10.9802L21.9766 3.97025L26.5079 8.19799ZM20.0746 5.12871C20.1841 4.67326 20.3036 4.20787 20.4231 3.72272C20.5625 4.17817 20.682 4.60391 20.8015 5.01975C21.159 6.37107 21.615 7.6947 22.1659 8.98015C23.2912 11.4653 22.7534 13.396 20.453 15.0594C19.5007 14.5102 18.797 13.6182 18.4875 12.5679C18.178 11.5175 18.2862 10.3891 18.7899 9.41579C19.3157 8.01071 19.7449 6.57178 20.0746 5.10888V5.12871ZM18.8596 4.00989L16.9674 11.2871L14.179 8.099L18.8596 4.00989ZM13.1732 9.11877L16.2106 12.5148L7.64609 17.2772L7.5465 17.198L13.1732 9.11877ZM16.0413 14.2475C15.2147 20.9009 13.5615 24.297 9.24943 28.1782L7.13819 19.1485L16.0413 14.2475ZM5.99294 20.3267L6.39128 22.0891C6.96889 24.604 7.45687 26.7822 7.92493 29.0198C8.00393 29.4164 7.92541 29.828 7.70584 30.1683C6.10249 32.1485 4.42943 34.0594 2.81612 35.9406L1.82025 37.1188C1.87653 31.2747 3.30541 25.5245 5.99294 20.3267ZM8.32327 31.6435C10.8727 36.6633 9.63781 41.4752 7.7855 46.7326L1.70075 39.396L8.32327 31.6435ZM2.71652 42.802C4.1207 44.4752 5.56472 46.2079 6.95894 47.9307C7.20349 48.2578 7.31708 48.6636 7.27762 49.0693C6.77969 51.0495 6.22201 53.0297 5.63444 55.1089L5.21617 56.594C3.03995 51.9398 1.89541 46.875 1.86009 41.7426L2.71652 42.802ZM6.36141 57.7623C6.87926 55.7227 7.44691 53.7326 8.04443 51.6138L8.48262 50.0495C13.462 54.6832 15.7724 59.1683 15.852 64.4851L14.1591 63.4257C11.6993 61.8911 9.17973 60.3069 6.70997 58.703C6.59001 58.5791 6.4985 58.4309 6.44177 58.2685C6.38503 58.1061 6.36442 57.9334 6.38135 57.7623H6.36141ZM7.02866 60.7326L7.12825 60.6337L16.0911 66.2772L13.0537 69.8812L7.02866 60.7326ZM17.9832 75.5841C16.8479 74.3069 15.6728 72.9901 14.5873 71.6237C14.4912 71.4191 14.4414 71.1961 14.4414 70.9703C14.4414 70.7445 14.4912 70.5214 14.5873 70.3168C15.1011 69.5939 15.6669 68.9089 16.2803 68.2673L16.8081 67.6732L19.0388 76.7327L17.9832 75.5841ZM20.2339 75.7723C20.0447 75.0198 19.8355 74.2772 19.6364 73.5346C18.9755 71.2745 18.4534 68.9765 18.0728 66.6534C17.9932 66.1188 18.5907 65.3762 19.1782 64.6732C19.4073 64.3861 19.6364 64.099 19.8455 63.8218C21.8372 65.2772 22.3551 66.7921 21.7177 68.8614C21.2426 70.525 20.8636 72.2142 20.5824 73.9208C20.5326 74.5148 20.4131 75.1386 20.2936 75.7524L20.2339 75.7723ZM21.4787 77.0198H21.4289L23.3012 67.7327L26.5079 71.5941L21.4787 77.0198ZM27.4539 70.5544L23.9286 66.3069L33.7678 60.6138L33.8873 60.7227L27.4539 70.5544ZM33.9072 58.8812C31.3279 60.4356 28.6689 61.9604 26.1095 63.4455L24.1178 64.5742C23.7593 58.7426 27.1054 54.9703 30.7204 50.9802C31.288 50.3465 31.8657 49.7129 32.4233 49.0594L32.8615 50.8118C33.469 53.2673 34.0466 55.5742 34.5445 57.901C34.4881 58.2776 34.2929 58.6199 33.9968 58.8613L33.9072 58.8812ZM35.7595 56.5148L35.3512 54.8812C34.7537 52.4653 34.2258 50.3762 33.7478 48.2376C33.7172 47.8356 33.8459 47.4376 34.1064 47.1287C35.4707 45.4455 36.8948 43.7624 38.2691 42.1782L39.1355 41.1881C39.1723 46.4652 38.0579 51.6875 35.869 56.4951L35.7595 56.5148ZM33.1204 46.0792C32.817 44.3652 32.4045 42.672 31.8856 41.0099C30.82 37.297 29.8042 33.7723 31.2582 29.8119L39.2251 38.8614L33.1204 46.0792Z" fill="#0F172A"/>
</svg>
