<svg width="51" height="80" viewBox="0 0 51 80" fill="none" xmlns="http://www.w3.org/2000/svg">
<path d="M50.9308 54.3537C50.9308 54.0774 50.9944 53.9074 50.9944 53.8861C51.0191 50.8915 50.81 47.8996 50.369 44.9377C50.369 44.9377 50.369 44.8527 50.369 44.8208C49.3795 38.4728 47.4989 32.2972 44.7831 26.4777C44.7579 26.2798 44.6728 26.0944 44.5393 25.9463C42.0424 20.6546 39.028 15.6244 35.5404 10.9296C35.508 10.852 35.469 10.7774 35.4238 10.7064C35.4238 10.6533 35.3284 10.6214 35.286 10.5789C32.5489 6.85 29.4993 3.36212 26.1705 0.153291C26.132 0.122313 26.0892 0.0972496 26.0433 0.0789062C26.0199 0.049082 25.9911 0.023853 25.9585 0.00450569H25.8737C25.8245 -0.0015019 25.7746 -0.0015019 25.7253 0.00450569H25.5663H25.4921H25.3332H25.1742H25.1H25.0364C25.0364 0.00450569 25.0364 0.0576512 24.9622 0.0789062C24.9163 0.0972496 24.8735 0.122313 24.835 0.153291C21.5119 3.35762 18.4693 6.84208 15.7407 10.5683C15.6805 10.6053 15.6268 10.652 15.5817 10.7064C15.5289 10.782 15.4861 10.8642 15.4545 10.9509C11.9857 15.6277 8.98563 20.6362 6.49795 25.9038C6.35348 26.0708 6.26455 26.2789 6.24356 26.499C3.5545 32.2882 1.6885 38.4269 0.700054 44.7358C0.662918 44.8489 0.645 44.9675 0.647054 45.0865C0.2186 48.021 0.016603 50.9843 0.0428775 53.9499C0.0428775 53.9499 0.0428775 54.0987 0.0428775 54.3325C-0.000966025 54.4823 -0.0113442 54.6399 0.0124714 54.7942C0.036287 54.9485 0.0937165 55.0957 0.180675 55.2252C0.687128 58.1801 1.51531 61.0703 2.65035 63.8441C2.65035 63.8441 2.65035 63.9185 2.65035 63.961C2.69383 64.0997 2.76207 64.2294 2.85174 64.3436C4.07631 67.2573 5.74241 69.9638 7.79108 72.3674C7.87856 72.531 8.00174 72.6727 8.15146 72.7819C10.15 74.9902 12.5775 76.7659 15.2849 78L15.3803 78.0744H15.4863C18.5281 79.3851 21.8106 80.0404 25.1212 79.998H25.9373C29.248 80.0414 32.5307 79.386 35.5722 78.0744H35.6782C35.712 78.0522 35.7439 78.0273 35.7736 78C38.4795 76.7633 40.9065 74.988 42.907 72.7819C43.0628 72.6749 43.1872 72.5281 43.2674 72.3568C45.3169 69.9636 46.9799 67.2634 48.1962 64.3542C48.2938 64.2397 48.3661 64.1057 48.4082 63.961C48.4082 63.961 48.4082 63.876 48.4082 63.8335C49.5379 61.0697 50.3625 58.1902 50.8672 55.2465C50.9419 55.1112 50.9863 54.9613 50.9973 54.8071C51.0083 54.653 50.9856 54.4982 50.9308 54.3537ZM46.638 62.4307L44.7195 61.8993L47.9524 58.4028C47.5856 59.7678 47.1469 61.1123 46.638 62.4307ZM35.6676 75.6407L34.6077 73.1857L39.4834 73.0582C38.3154 74.0642 37.0349 74.9308 35.6676 75.6407ZM11.2889 73.0795L16.3024 73.1857L15.1789 75.6938C13.7906 74.9705 12.4921 74.0859 11.3101 73.0582L11.2889 73.0795ZM2.80933 58.3072L6.12696 61.878L4.12367 62.4307C3.6251 61.0814 3.20397 59.7047 2.86233 58.3072H2.80933ZM38.6567 19.506L33.3569 13.6609L34.2897 12.917C35.7842 14.8937 37.2681 17.0936 38.7096 19.506H38.6567ZM23.8174 18.4433L16.631 26.297L19.6413 15.3613L23.8174 18.4433ZM25.418 68.4565L14.9351 64.6306L11.5221 54.7363L15.4015 30.7075L25.418 19.8674L35.4238 30.7075L39.3032 54.7363L35.8902 64.6306L25.418 68.4565ZM10.4939 58.2966L12.2323 63.3234L9.4128 61.8993L10.4939 58.2966ZM40.3314 58.2966L41.3913 61.8993L38.5719 63.3234L40.3314 58.2966ZM40.8083 50.666L38.4659 36.1806L43.0554 44.587L40.8083 50.666ZM37.4165 29.7935L34.0777 17.5825L42.6844 27.0941L43.066 40.0916L37.4165 29.7935ZM31.2159 15.3188L34.2579 26.297L27.0397 18.4858L31.2159 15.3188ZM25.418 16.9554L20.4044 13.2039L25.4603 3.30967L30.5057 13.2039L25.418 16.9554ZM10.017 50.666L7.76988 44.587L12.3594 36.1806L10.017 50.666ZM9.2962 54.8639L7.68508 60.3583L2.27936 54.5131L6.44495 47.0739L9.2962 54.8639ZM13.3346 66.2885L16.0481 71.0177L9.68838 70.8902L9.328 64.248L13.3346 66.2885ZM18.4011 70.8371L16.4826 67.4894L22.1745 69.6149L18.4011 70.8371ZM25.418 70.7414L30.8343 72.58L25.418 77.5218L19.991 72.58L25.418 70.7414ZM28.6508 69.5618L34.3427 67.4362L32.4242 70.7839L28.6508 69.5618ZM37.4907 66.2885L41.5397 64.248L41.1687 70.8902L34.8091 71.0177L37.4907 66.2885ZM43.1826 60.3583L41.6033 54.8639L44.497 47.042L48.6625 54.4813L43.1826 60.3583ZM44.9421 32.4716C46.3312 36.1697 47.3675 39.9914 48.0372 43.8856L45.2707 43.5455L44.9421 32.4716ZM32.2228 11.8755L29.7955 7.16747C30.8025 8.3365 31.9154 9.69682 33.0708 11.2166L32.2228 11.8755ZM18.6873 11.8755L17.8288 11.1953C18.9841 9.68619 20.097 8.32587 21.0934 7.14621L18.6873 11.8755ZM13.4512 29.7935L7.83348 40.0916L8.21506 27.0941L16.8218 17.5825L13.4512 29.7935ZM5.56519 43.5455L2.81994 43.8856C3.48755 40.0071 4.51667 36.1999 5.89377 32.5142L5.56519 43.5455ZM2.49136 46.1068L4.61125 45.8305L2.06738 50.4003C2.19457 48.9443 2.32176 47.5521 2.51255 46.1068H2.49136ZM7.14452 63.8441L7.4095 68.7222C6.48595 67.3759 5.67752 65.9539 4.99283 64.4711L7.14452 63.8441ZM18.2845 73.9297L22.5243 77.7662C20.6924 77.5868 18.8903 77.1761 17.161 76.544L18.2845 73.9297ZM32.5196 73.9297L33.6749 76.5122C31.9697 77.1555 30.1881 77.5735 28.3752 77.7556L32.5196 73.9297ZM43.7232 63.8441L45.7795 64.4074C45.1197 65.8378 44.347 67.2131 43.4688 68.5202L43.7232 63.8441ZM46.2246 45.7773L48.3975 46.0536C48.5777 47.4671 48.7049 48.9018 48.7791 50.3684L46.2246 45.7773ZM16.5462 12.832L17.4684 13.5759L12.1687 19.3891C13.642 17.0723 15.1047 14.8831 16.5462 12.917V12.832Z" fill="#0F172A"/>
</svg>
