<svg width="48" height="49" viewBox="0 0 48 49" fill="none" xmlns="http://www.w3.org/2000/svg">
<mask id="mask0_78_1129" style="mask-type:luminance" maskUnits="userSpaceOnUse" x="0" y="0" width="48" height="49">
<path d="M48 0H0V48.0149H48V0Z" fill="white"/>
</mask>
<g mask="url(#mask0_78_1129)">
<path d="M24.0047 37.2111C31.0877 37.2111 36.8297 31.4674 36.8297 24.3822C36.8297 17.2969 31.0877 11.5532 24.0047 11.5532C16.9216 11.5532 11.1797 17.2969 11.1797 24.3822C11.1797 31.4674 16.9216 37.2111 24.0047 37.2111Z" stroke="#000815" stroke-miterlimit="10" stroke-linecap="round" stroke-linejoin="round"/>
<path d="M26.8547 27.5333C26.6297 27.9084 26.3297 28.1335 25.8797 28.3586C25.4297 28.5836 24.9797 28.6586 24.3797 28.7337V29.634C24.3797 29.709 24.3797 29.859 24.3047 29.859C24.2297 29.934 24.1547 29.934 24.0047 29.934C23.9297 29.934 23.7797 29.934 23.7797 29.859C23.7047 29.784 23.7047 29.709 23.7047 29.5589V28.6586C22.8047 28.5836 21.9797 28.4336 21.2297 28.0585C21.1547 27.9834 21.0797 27.9834 21.0047 27.8334C20.9297 27.7584 20.9297 27.6083 20.9297 27.5333C20.9297 27.3833 21.0047 27.3082 21.0797 27.1582C21.1547 27.0832 21.3047 27.0081 21.4547 27.0081C21.5297 27.0081 21.6047 27.0081 21.6797 27.0832C22.3547 27.3833 23.0297 27.5333 23.7797 27.5333V24.7574C23.2547 24.6074 22.7297 24.4573 22.3547 24.3073C21.9797 24.1573 21.6797 23.9322 21.3797 23.5571C21.1547 23.257 21.0047 22.8819 21.0047 22.3567C21.0047 21.9066 21.0797 21.5314 21.3047 21.1563C21.5297 20.7812 21.8297 20.4811 22.2047 20.256C22.5797 20.031 23.1047 19.8809 23.7047 19.8059V18.9806C23.7047 18.9056 23.7047 18.7556 23.7797 18.6805C23.8547 18.6055 23.9297 18.6055 24.0047 18.6055C24.0797 18.6055 24.2297 18.6055 24.3047 18.6805C24.3797 18.7556 24.3797 18.8306 24.3797 18.9806V19.8059C25.2047 19.8059 25.8797 19.9559 26.4797 20.181C26.7047 20.256 26.8547 20.4061 26.8547 20.6312C26.8547 20.7812 26.7797 20.8562 26.7047 21.0063C26.6297 21.0813 26.4797 21.1563 26.3297 21.1563C26.2547 21.1563 26.1797 21.1563 26.1047 21.0813C25.5797 20.8562 24.9797 20.7812 24.3047 20.7812V23.7071C24.9047 23.8572 25.3547 24.0072 25.7297 24.1573C26.1047 24.3073 26.4047 24.5324 26.7047 24.9075C26.9297 25.2076 27.0797 25.6577 27.0797 26.1829C27.1547 26.7831 27.0797 27.1582 26.8547 27.5333ZM22.4297 23.257C22.7297 23.482 23.1047 23.6321 23.6297 23.7821V21.0813C23.1797 21.1563 22.7297 21.3064 22.4297 21.5314C22.1297 21.7565 21.9797 22.0566 21.9797 22.4317C22.0547 22.8068 22.1297 23.0319 22.4297 23.257ZM26.1047 26.3329C26.1047 26.0328 25.9547 25.8078 25.6547 25.5827C25.3547 25.4326 24.9047 25.2076 24.3797 25.0575V27.6833C25.5047 27.6083 26.1047 27.1582 26.1047 26.3329Z" fill="#000815"/>
<path d="M28.4266 39.4624H38.6266V36.0864L46.8766 41.6381L38.6266 47.2649V43.8138H25.7266" stroke="#000815" stroke-miterlimit="10" stroke-linecap="round" stroke-linejoin="round"/>
<path d="M19.575 8.55242H9.375V11.9284L1.125 6.37674L9.375 0.75V4.20107H22.275" stroke="#000815" stroke-miterlimit="10" stroke-linecap="round" stroke-linejoin="round"/>
</g>
</svg>
