<svg width="40" height="41" viewBox="0 0 40 41" fill="none" xmlns="http://www.w3.org/2000/svg">
<path d="M20.467 9.47788C20.3809 9.42818 20.2831 9.40198 20.1836 9.40198C20.0841 9.40198 19.9864 9.42818 19.9002 9.47788L11.2568 14.4698C11.1707 14.5195 11.0991 14.5911 11.0494 14.6773C10.9996 14.7635 10.9734 14.8613 10.9734 14.9608V24.9445C10.9734 25.044 10.9996 25.1417 11.0494 25.2279C11.0991 25.3141 11.1707 25.3857 11.2568 25.4355L19.9002 30.4274C19.9864 30.4771 20.0841 30.5033 20.1836 30.5033C20.2831 30.5033 20.3809 30.4771 20.467 30.4274L29.1105 25.4355C29.1967 25.3857 29.2682 25.3141 29.318 25.2279C29.3677 25.1417 29.3939 25.044 29.3939 24.9445V14.9608C29.3939 14.8613 29.3677 14.7635 29.318 14.6773C29.2682 14.5911 29.1967 14.5195 29.1105 14.4698L20.467 9.47788ZM20.1836 10.6236L27.6934 14.9608L20.1836 19.2979L12.6738 14.9608L20.1836 10.6236ZM12.107 15.9429L19.6168 20.2799V28.9547L12.107 24.6176V15.9429ZM20.7504 28.9543V20.2795L28.2603 15.9424V24.6171L20.7504 28.9543ZM1.26567 22.2518C1.27447 22.3258 1.26861 22.4008 1.24842 22.4725C1.22823 22.5442 1.1941 22.6112 1.148 22.6698C1.10189 22.7283 1.04471 22.7771 0.97972 22.8135C0.91473 22.8499 0.8432 22.8731 0.76923 22.8819C0.74687 22.8845 0.72438 22.8859 0.70186 22.8859C0.5632 22.8857 0.42941 22.8347 0.32582 22.7425C0.22224 22.6503 0.15604 22.5233 0.13976 22.3855C0.0466201 21.5959 -4.99599e-05 20.8016 4.01327e-08 20.0065C0.00081004 16.483 0.93165 13.0222 2.69841 9.97398C4.46517 6.92578 7.0052 4.3982 10.0617 2.64689C13.1182 0.895581 16.5827 -0.0173989 20.1051 0.000251137C23.6274 0.0179011 27.0827 0.965561 30.1215 2.74742C32.5841 4.1981 34.7096 6.15698 36.3563 8.49358L36.3107 1.96159C36.3102 1.88713 36.3243 1.8133 36.3523 1.7443C36.3803 1.67531 36.4216 1.61251 36.4738 1.55949C36.5794 1.4524 36.7231 1.39163 36.8734 1.39056C37.0238 1.38948 37.1684 1.44819 37.2754 1.55376C37.3825 1.65933 37.4432 1.80311 37.4443 1.95349L37.5036 10.4628C37.5042 10.5376 37.4899 10.6117 37.4616 10.681C37.4334 10.7502 37.3917 10.8132 37.339 10.8663C37.2864 10.9193 37.2237 10.9615 37.1547 10.9902C37.0856 11.0189 37.0116 11.0337 36.9368 11.0337C36.9314 11.0337 36.9259 11.0337 36.9206 11.0337L29.0183 10.8057C28.9436 10.8041 28.8699 10.7876 28.8016 10.7574C28.7332 10.7272 28.6715 10.6837 28.62 10.6295C28.5686 10.5753 28.5283 10.5115 28.5016 10.4417C28.4748 10.3718 28.4622 10.2974 28.4643 10.2227C28.4664 10.148 28.4833 10.0744 28.514 10.0062C28.5447 9.93798 28.5885 9.87658 28.643 9.82538C28.6975 9.77428 28.7616 9.73438 28.8316 9.70808C28.9015 9.68178 28.976 9.66958 29.0507 9.67228L35.9171 9.87038C34.2071 7.19778 31.8537 4.9974 29.0727 3.47104C26.2917 1.94468 23.1721 1.14117 20 1.1342C9.597 1.1342 1.1336 9.60028 1.1336 20.0065C1.13364 20.7569 1.17774 21.5066 1.26567 22.2518ZM40 20.0065C39.9988 23.4426 39.1132 26.8205 37.4285 29.8149C35.7438 32.8093 33.3168 35.3195 30.3811 37.1035C27.4454 38.8876 24.0999 39.8856 20.6669 40.0013C17.2338 40.117 13.8288 39.3466 10.7797 37.7643C8.4597 36.5516 6.3979 34.8988 4.70907 32.8983L4.45895 38.7248C4.45269 38.8708 4.39035 39.0087 4.28494 39.1098C4.17952 39.2109 4.03916 39.2674 3.89312 39.2675C3.88502 39.2675 3.87692 39.2675 3.86834 39.267C3.71815 39.2605 3.57668 39.1946 3.47505 39.0838C3.37342 38.973 3.31994 38.8264 3.3264 38.6762L3.64219 31.3144C3.64809 31.1678 3.71075 31.0292 3.81692 30.928C3.9231 30.8267 4.06447 30.7707 4.21117 30.7718L12.3482 30.8115C12.4226 30.8116 12.4963 30.8265 12.565 30.8551C12.6337 30.8838 12.6961 30.9257 12.7486 30.9785C12.8011 31.0312 12.8427 31.0938 12.871 31.1627C12.8993 31.2316 12.9138 31.3053 12.9136 31.3798C12.9135 31.4542 12.8986 31.5279 12.87 31.5966C12.8413 31.6654 12.7994 31.7278 12.7467 31.7803C12.6939 31.8328 12.6313 31.8744 12.5625 31.9028C12.4937 31.9311 12.4199 31.9456 12.3455 31.9454H12.3428L5.36178 31.9116C7.1344 34.084 9.3669 35.8358 11.8982 37.0406C14.4296 38.2454 17.1967 38.8732 20 38.8787C30.403 38.8787 38.8664 30.4127 38.8664 20.0065C38.8664 19.8561 38.9261 19.7119 39.0324 19.6056C39.1387 19.4992 39.2829 19.4395 39.4332 19.4395C39.5835 19.4395 39.7277 19.4992 39.834 19.6056C39.9403 19.7119 40 19.8561 40 20.0065Z" fill="black"/>
</svg>
