<svg width="48" height="49" viewBox="0 0 48 49" fill="none" xmlns="http://www.w3.org/2000/svg">
<g clip-path="url(#clip0_78_1140)">
<g clip-path="url(#clip1_78_1140)">
<path d="M38.9266 19.8161L37.4266 21.3166L38.2516 23.2672C38.6266 24.0924 38.1766 25.0677 37.3516 25.4429L35.4016 26.2681V28.3688C35.4016 29.269 34.6516 30.0193 33.7516 30.0193H31.6516L30.8266 31.9699C30.4516 32.7951 29.4766 33.2453 28.6516 32.8702H28.5016L26.6266 32.1199L25.1266 33.6204C24.9766 33.7704 24.7516 33.9205 24.5266 33.9955H23.4766C23.2516 33.9205 22.9516 33.7704 22.8016 33.6204L21.3016 32.1199L19.4266 32.8702L19.2766 32.9452C18.4516 33.3203 17.4766 32.8702 17.1016 32.0449L16.2766 30.0943H14.2516C13.3516 30.0943 12.6016 29.3441 12.6016 28.4438V26.3431L10.6516 25.5179C9.82656 25.1428 9.37656 24.1675 9.75156 23.3422L10.5766 21.3916L9.07656 19.8911C8.40156 19.2159 8.40156 18.1656 9.07656 17.5654L10.5766 16.0649L9.75156 13.9643C9.37656 13.139 9.82656 12.1637 10.6516 11.7886L12.6016 10.9634V8.8627C12.6016 7.96242 13.3516 7.21219 14.2516 7.21219H16.3516L17.1766 5.26158C17.5516 4.43633 18.5266 3.98619 19.3516 4.3613L21.3016 5.18656L22.8016 3.68609C23.4766 3.01089 24.5266 3.01089 25.1266 3.68609L26.6266 5.18656L28.5766 4.3613C29.4016 3.98619 30.3766 4.43633 30.7516 5.26158L31.5766 7.21219H33.7516C34.6516 7.21219 35.4016 7.96242 35.4016 8.8627V11.0384L37.3516 11.8636C38.1766 12.2388 38.6266 13.2141 38.2516 14.0393L37.4266 15.9899L38.9266 17.4904C39.6016 18.0906 39.6016 19.1409 38.9266 19.8161Z" stroke="#000815" stroke-width="0.8" stroke-miterlimit="10" stroke-linecap="round" stroke-linejoin="round"/>
<path d="M23.4781 33.9954L17.2531 45.9242L15.9031 39.3971L9.07812 41.6478L15.1531 30.0942H16.3531L17.1781 32.0448C17.5531 32.8701 18.5281 33.3202 19.3531 32.9451L19.5031 32.8701L21.3781 32.1199L22.8781 33.6203C23.0281 33.7704 23.2531 33.9204 23.4781 33.9954Z" stroke="#000815" stroke-width="0.8" stroke-miterlimit="10" stroke-linecap="round" stroke-linejoin="round"/>
<path d="M39.0734 41.5726L32.2484 39.3219L30.8984 45.849L24.5234 33.9203C24.7484 33.8452 24.8984 33.6952 25.1234 33.5451L26.6234 32.0447L28.4984 32.7949L28.6484 32.8699C29.4734 33.245 30.4484 32.7949 30.8234 31.9697L31.6484 30.019H32.9984L39.0734 41.5726Z" stroke="#000815" stroke-width="0.8" stroke-miterlimit="10" stroke-linecap="round" stroke-linejoin="round"/>
<path d="M42.75 14.4893L46.05 12.6885" stroke="#000815" stroke-width="0.8" stroke-miterlimit="10" stroke-linecap="round" stroke-linejoin="round"/>
<path d="M42.75 18.3901H47.475" stroke="#000815" stroke-width="0.8" stroke-miterlimit="10" stroke-linecap="round" stroke-linejoin="round"/>
<path d="M42.75 22.3667L46.05 24.1675" stroke="#000815" stroke-width="0.8" stroke-miterlimit="10" stroke-linecap="round" stroke-linejoin="round"/>
<path d="M5.25313 22.3662L1.95312 24.167" stroke="#000815" stroke-width="0.8" stroke-miterlimit="10" stroke-linecap="round" stroke-linejoin="round"/>
<path d="M5.25156 18.3901H0.601562" stroke="#000815" stroke-width="0.8" stroke-miterlimit="10" stroke-linecap="round" stroke-linejoin="round"/>
<path d="M5.25313 14.4893L1.95312 12.6885" stroke="#000815" stroke-width="0.8" stroke-miterlimit="10" stroke-linecap="round" stroke-linejoin="round"/>
<path d="M19.5 19.1408L22.125 21.7666L28.5 15.3896" stroke="#000815" stroke-width="0.8" stroke-miterlimit="10" stroke-linecap="round" stroke-linejoin="round"/>
<path d="M24 28.3693C29.3848 28.3693 33.75 24.0028 33.75 18.6163C33.75 13.2299 29.3848 8.86328 24 8.86328C18.6152 8.86328 14.25 13.2299 14.25 18.6163C14.25 24.0028 18.6152 28.3693 24 28.3693Z" stroke="#000815" stroke-width="0.8" stroke-miterlimit="10" stroke-linecap="round" stroke-linejoin="round"/>
</g>
</g>
<defs>
<clipPath id="clip0_78_1140">
<rect width="48" height="49" fill="white"/>
</clipPath>
<clipPath id="clip1_78_1140">
<rect width="48" height="49" fill="white"/>
</clipPath>
</defs>
</svg>
