<svg width="81" height="80" viewBox="0 0 81 80" fill="none" xmlns="http://www.w3.org/2000/svg">
<path d="M80.5023 49.6458L81 49.5865H80.5023V30.936C80.5023 21.9517 80.5023 12.7104 80.552 3.63716C80.5672 3.15115 80.5372 2.66482 80.4624 2.18429C80.4624 2.06568 80.4624 1.96686 80.4624 1.88779C80.4624 1.80872 80.3828 1.63081 80.333 1.48255L80.2634 1.33427C80.1518 1.11325 80.0075 0.910049 79.8353 0.731383C79.666 0.589829 79.4864 0.46097 79.2978 0.345905L79.1684 0.286605H79.0688L78.9295 0.237199C78.7933 0.180983 78.6486 0.147578 78.5014 0.138356C78.0628 0.0464799 77.6158 0.000122636 77.1675 0C56.3527 0.0889532 34.2538 0.0889532 3.28538 0C2.9967 0 2.69808 0 2.39944 0H2.22024C2.05551 0.0110844 1.89221 0.0375447 1.73248 0.0790562V0.207549H1.33431C1.10218 0.316566 0.890173 0.46358 0.70717 0.642433C0.568039 0.790935 0.444626 0.953209 0.338859 1.12672V1.17616C0.193378 1.46365 0.102289 1.77519 0.0700991 2.09534C0.0198667 2.42237 -0.00344489 2.75289 0.000410425 3.08367C0.0800463 26.8045 0.0800463 51.5137 0.000410425 76.7369C-0.00315727 77.0903 0.0167927 77.4436 0.0601349 77.7945C0.0877947 77.9896 0.134452 78.1816 0.199482 78.3677V78.4468C0.25704 78.6027 0.337571 78.7492 0.43841 78.8817C0.561431 79.0624 0.712622 79.2226 0.886343 79.3561C1.13636 79.5534 1.42427 79.698 1.73248 79.7811C2.22789 79.897 2.73719 79.9436 3.24558 79.9195C15.8579 79.9195 27.4449 79.9195 38.3052 79.9195C52.2415 79.9195 64.9832 79.9194 77.1277 79.9985C77.5853 80.0084 78.0426 79.9687 78.4915 79.8799C78.9277 79.8181 79.338 79.6367 79.6761 79.3561L79.8353 79.2375L79.905 79.1287C80.2139 78.7745 80.4112 78.3381 80.4724 77.8736V77.7154C80.5302 77.2598 80.5535 76.8006 80.5421 76.3415C80.4824 67.466 80.4923 58.4027 80.5023 49.6458ZM75.744 3.47905L76.1223 3.33077L76.6798 3.11335L77.7449 2.71798L75.8635 7.37322C73.793 12.5127 71.593 17.9883 69.4429 23.4638C69.1343 24.2348 68.6963 24.3633 67.7506 24.3633H65.4909C62.3652 24.3633 59.6875 24.3633 57.3183 24.3633C56.5319 24.3633 56.3228 24.215 56.1636 24.0865C56.0043 23.958 55.855 23.79 55.9446 22.9202C55.9594 22.7757 55.9594 22.6299 55.9446 22.4854V22.258C55.9446 21.1708 55.8749 20.0243 55.7952 18.9174V18.7296C55.5862 16.14 55.3772 13.5011 56.4124 11.7023C57.4477 9.90345 59.8069 9.28078 62.3851 8.55927H62.5046C63.6645 8.26811 64.8049 7.90496 65.919 7.47203C68.0691 6.57262 70.2691 5.693 72.5487 4.7837L74.5396 4.01274L75.744 3.47905ZM31.8547 67.1794L35.6574 65.2719L39.7785 63.2061C40.1866 62.9986 40.545 63.2062 41.1323 63.4631L41.3513 63.5817C43.7504 64.7875 46.1792 65.9934 48.6081 67.1794L50.5294 68.1184H29.9733L31.8547 67.1794ZM26.7083 67.5649V56.2975L38.0365 61.9213L26.7083 67.5649ZM42.3965 61.9312L53.7646 56.2876V67.5649L42.3965 61.9312ZM44.3874 58.9661C43.0303 59.5454 41.5739 59.8608 40.097 59.8951C38.7114 59.8656 37.3437 59.5772 36.0655 59.0451C32.6106 57.7749 29.4771 55.7705 26.8841 53.1721C24.2912 50.5736 22.3014 47.444 21.0541 44.0022C20.4925 42.7379 20.2024 41.3712 20.2024 39.9894C20.2024 38.6076 20.4925 37.2409 21.0541 35.9766C22.2731 32.4133 24.3207 29.1855 27.0308 26.5547C29.741 23.9239 33.0374 21.9643 36.6528 20.8348C37.5589 20.5048 38.4375 20.105 39.2808 19.6388L40.2762 19.1051L40.5052 19.2336C40.8337 19.4017 41.1223 19.5598 41.421 19.6981C42.3515 20.2398 43.3314 20.6932 44.3476 21.0523C51.4949 23.3848 56.293 28.0993 59.4286 35.8778C60.6132 38.7935 60.5834 40.8888 59.3291 44.18C56.5618 51.3655 51.8334 56.0405 44.4173 58.9463L44.3874 58.9661ZM12.8914 31.8946C14.2453 34.5533 15.5891 37.2318 16.8732 39.8708L16.9429 39.9993V40.1475C16.8883 40.3669 16.7939 40.5745 16.6642 40.7603C16.5942 40.8615 16.531 40.9671 16.4751 41.0766L16.4253 41.1754C15.4232 43.2115 14.4012 45.2475 13.3593 47.2835L11.9259 50.1202V30.0563L12.8914 31.8946ZM12.3241 26.3696H14.962C17.6597 26.3696 20.1682 26.3696 22.6867 26.3696C22.8325 26.3587 22.9789 26.3587 23.1246 26.3696L23.7418 26.4388L23.5427 27.022C23.5046 27.1419 23.4546 27.2578 23.3934 27.3679C22.1292 29.7993 20.9048 32.2505 19.4116 35.1958C19.123 35.7592 18.8343 36.3423 18.5456 36.9156L18.0976 37.815L17.6198 36.9749L12.3241 26.3696ZM12.7123 52.9074C12.7491 52.8123 12.7923 52.7198 12.8417 52.6306C14.1358 50.1498 15.3801 47.6888 16.7637 44.8719L17.1122 44.1702L17.6696 43.0533L18.1275 42.1737L18.904 43.7452C19.0831 44.0911 19.2524 44.437 19.4216 44.7335L20.1781 46.2458C21.1736 48.2818 22.169 50.2487 23.1645 52.176C23.2922 52.4093 23.4052 52.6503 23.5029 52.8975L23.7319 53.5103L23.0749 53.5597H22.5174C21.3129 53.5102 20.0587 53.4905 18.675 53.4905H16.1963H13.6281C13.5124 53.5053 13.3953 53.5053 13.2797 53.4905H12.563L12.7123 52.9074ZM53.8541 22.9696V23.8889L53.0876 23.3848C53.0112 23.3279 52.9275 23.2814 52.8388 23.2464C51.1565 22.4261 49.5339 21.6156 47.8615 20.7755L42.3866 18.0575L53.874 12.3645V15.1418C53.9039 17.84 53.9039 20.3802 53.884 22.9499L53.8541 22.9696ZM48.4488 12.8784C45.7412 14.2325 43.2526 15.4679 40.7739 16.733C40.6222 16.8184 40.4506 16.8627 40.2762 16.8615C39.9032 16.8244 39.543 16.7063 39.2211 16.5156L32.9796 13.3825L30.0729 11.9395H50.39L48.4488 12.8784ZM35.3488 16.733C35.9328 17.0098 36.53 17.3063 37.1406 17.6226L37.9867 18.0674L26.4992 23.7703V21.1017C26.4992 18.4133 26.4992 15.9325 26.4992 13.4615C26.4992 13.2935 26.4992 13.1552 26.4992 13.0464L26.5689 12.3744L27.1961 12.6412L27.4847 12.7697C29.7643 13.936 32.1832 15.1418 35.3786 16.7133L35.3488 16.733ZM56.5717 26.5179H68.0094L62.3354 37.8248L56.5717 26.5179ZM62.2756 42.2231L67.9099 53.451H56.6016L62.2756 42.2231ZM66.6755 46.6016C65.6004 44.4963 64.5652 42.4702 63.5896 40.4638V40.4045C63.5046 40.0707 63.5509 39.7172 63.719 39.4161C64.8041 37.1923 65.9289 34.9783 67.0538 32.7545L68.4474 29.997V50.0312L66.6755 46.6016ZM73.7133 2.18429L68.308 4.3686C63.9679 6.10813 59.8766 7.74882 55.7555 9.31044C54.81 9.58824 53.8227 9.69861 52.8388 9.63656H52.6098C44.4372 9.63656 36.2447 9.63656 28.0919 9.63656C26.3271 9.65256 24.577 9.31646 22.9455 8.64819C19.5709 7.26448 16.2162 5.92029 12.6525 4.50693L6.67986 2.1052L73.7133 2.18429ZM9.71599 5.45578C14.4941 7.37322 19.0135 9.18194 23.5726 10.961C24.369 11.2872 24.4984 11.6628 24.4984 12.6412V14.9244C24.4984 17.2965 24.4984 20.0441 24.4984 22.7522C24.5768 23.2218 24.4699 23.7032 24.1997 24.0964L24.1301 24.1656C23.7965 24.3382 23.4193 24.4104 23.045 24.3732H22.9554C20.1383 24.2842 16.6941 24.2842 12.8019 24.3732C12.3615 24.4323 11.9146 24.3278 11.5471 24.0797C11.1796 23.8316 10.9174 23.4574 10.811 23.029C8.82006 17.929 6.82919 12.829 4.6392 7.41273L2.75779 2.66858L9.71599 5.45578ZM2.27999 6.80984L4.46 12.2261C6.17217 16.4958 7.88104 20.7788 9.58658 25.0749C9.74525 25.5999 9.80928 26.1487 9.77572 26.6958C9.77572 35.5516 9.77572 44.4041 9.77572 53.2533C9.80517 53.9026 9.71751 54.552 9.51689 55.1707C7.72508 59.6974 5.5351 65.0544 3.23562 70.3718L2.24017 72.5363L2.27999 6.80984ZM2.73789 77.2509L4.60934 72.5858C6.67987 67.466 8.8798 62.0102 11.0399 56.5248C11.3286 55.7934 11.7069 55.5364 12.6525 55.5364H14.0661C17.0524 55.5364 20.0388 55.5364 23.1246 55.5364C23.5357 55.4765 23.954 55.5794 24.2893 55.8231C24.369 55.8922 24.588 56.1195 24.5083 56.9695C24.499 57.1242 24.499 57.2794 24.5083 57.4341V57.5823C24.5083 58.798 24.5979 60.0434 24.6875 61.1405C24.8965 63.7201 25.1056 66.3689 24.0803 68.1777C23.055 69.9864 20.6062 70.6486 18.018 71.3899H17.8388C16.748 71.6747 15.6745 72.0212 14.6235 72.4276C11.8263 73.6038 8.95944 74.7305 6.03282 75.877L2.73789 77.2509ZM6.62013 77.8736L8.61103 76.9346C29.7444 67.1399 50.4198 67.1399 71.8021 76.9346L73.8626 77.8736H6.62013ZM70.0899 74.2067C65.5307 72.3881 61.1308 70.6387 56.721 68.9189C56.0839 68.662 55.9744 68.3259 55.9744 67.4561C55.9744 66.5863 55.9744 65.4794 55.9744 64.4218C55.9744 62.0794 55.9744 59.48 55.9247 57.0486C55.8687 56.6549 55.9494 56.254 56.1536 55.912C56.3374 55.7647 56.55 55.6571 56.7779 55.5958C57.0058 55.5346 57.2441 55.5211 57.4776 55.5562H57.6169C59.8567 55.5562 62.1163 55.5562 64.3163 55.5562H67.452C68.4474 55.5562 69.0248 55.5562 69.4429 56.5446C71.5034 61.7533 73.554 66.8335 75.8336 72.4474L77.8245 77.2805L70.0899 74.2067ZM78.2227 73.2183L77.2272 71.1428C76.849 70.2928 76.4607 69.4526 76.0725 68.6224C74.0816 64.2736 71.9514 59.7963 71.1948 55.2103C69.5997 45.1924 69.5829 34.9892 71.1451 24.9662C71.9315 19.8168 74.44 14.8255 76.8689 9.99242L78.1829 7.29413L78.2227 73.2183Z" fill="#0F172A"/>
</svg>
