<svg width="77" height="80" viewBox="0 0 77 80" fill="none" xmlns="http://www.w3.org/2000/svg">
<path d="M76.8725 11.6695C76.8775 11.6131 76.8775 11.5563 76.8725 11.4998C76.848 11.4208 76.8122 11.3458 76.7662 11.277C76.7704 11.2418 76.7704 11.2062 76.7662 11.1709C76.7662 11.1709 76.7662 11.1709 76.7662 11.1073L66.2456 0.254598L66.1393 0.180345C66.1393 0.180345 66.0756 0.106072 66.0437 0.0848551H65.9693C65.907 0.0458589 65.8388 0.0172116 65.7674 0H65.5549H11.1453H10.9327L10.7415 0.0742523H10.6565C10.6565 0.0742523 10.5927 0.1379 10.5608 0.169726L10.4545 0.243995L0.1571 11.033V11.0967H0.103962C0.105795 11.1355 0.105795 11.1745 0.103962 11.2134C0.0614978 11.275 0.0292116 11.3431 0.0083241 11.4149C-0.0027747 11.4817 -0.0027747 11.5498 0.0083241 11.6165C0.0022203 11.6587 0.0022203 11.7016 0.0083241 11.7438V68.7654C0.0069956 68.9178 0.0385803 69.0687 0.10093 69.2079C0.163279 69.347 0.254925 69.4711 0.369634 69.5717L10.3695 78.6103C10.297 78.8331 10.3004 79.0736 10.3792 79.2943C10.458 79.515 10.6078 79.7035 10.8052 79.8303C10.9743 79.9349 11.1695 79.99 11.3685 79.9894C11.5348 79.9884 11.6986 79.9484 11.8467 79.8727C11.9874 79.949 12.1436 79.9925 12.3036 80H64.7047C64.8647 79.9925 65.0209 79.949 65.1617 79.8727C65.3065 79.9468 65.4665 79.9867 65.6293 79.9894C65.8318 79.992 66.0309 79.9368 66.2031 79.8303C66.4005 79.7035 66.5503 79.515 66.6291 79.2943C66.7079 79.0736 66.7113 78.8331 66.6388 78.6103L76.6387 69.5717C76.7508 69.469 76.8407 69.3445 76.9028 69.2058C76.9649 69.0672 76.998 68.9173 77 68.7654V11.8181C76.9642 11.7632 76.9214 11.7132 76.8725 11.6695ZM2.04868 13.9398L6.71388 17.4088V62.5805L2.04868 66.0496V13.9398ZM11.1028 2.73702L14.514 8.24293L7.65967 15.4462L2.59066 11.6695L11.1028 2.73702ZM74.2158 11.6695L69.1468 15.4462L62.303 8.24293L65.7143 2.73702L74.2158 11.6695ZM67.9565 39.9947V60.9892L64.014 58.0612V21.9281L67.9565 19.0001V39.9947ZM38.4032 70.537H17.7871L19.9124 67.1423H56.9471L59.0725 70.537H38.4032ZM8.79675 39.9947V19.0001L12.7499 21.9281V58.0612L8.79675 60.9892V39.9947ZM38.3501 9.46293H58.9768L56.8515 12.8471H19.8381L17.7127 9.46293H38.3501ZM61.8248 39.9947V56.4699L59.4231 54.6877V25.3123L61.8248 23.5194V39.9947ZM38.3501 64.9993H21.177L23.4193 61.3818H53.2915L55.5337 64.9993H38.3501ZM14.8859 39.9947V23.5194L17.2876 25.3123V54.6877L14.8859 56.4699V39.9947ZM38.3501 15.0007H55.5337L53.2915 18.6182H23.4193L21.177 15.0007H38.3501ZM53.3977 59.2282H23.3024L19.4236 54.815V25.1744L23.3024 20.7612H53.3977L57.2872 25.1744V54.815L53.3977 59.2282ZM58.4986 23.3179L55.2149 19.5836L57.5316 15.8387L61.3998 21.1431L58.4986 23.3179ZM21.4959 19.5836L18.2122 23.3179L15.311 21.1961L19.1792 15.8918L21.4959 19.5836ZM18.2122 56.714L21.4959 60.4588L19.1792 64.1931L15.311 58.8887L18.2122 56.714ZM55.2149 60.4588L58.4986 56.714L61.3998 58.8357L57.5316 64.14L55.2149 60.4588ZM63.1213 19.9231L58.8068 13.8761L61.1341 10.1207L67.4146 16.7299L63.1213 19.9231ZM17.9571 13.9186L13.5895 19.9231L9.33872 16.7405L15.6298 10.1313L17.9571 13.9186ZM13.5895 60.1511L17.9571 66.1557L15.6298 69.9111L9.33872 63.3019L13.5895 60.1511ZM58.7537 66.1557L63.1213 60.1511L67.3721 63.3338L61.0916 69.943L58.7537 66.1557ZM60.3052 7.3518H16.395L13.1113 2.07929H63.5145L60.3052 7.3518ZM7.60655 64.6386L14.4609 71.8313L11.2728 76.8811L2.16558 68.6487L7.60655 64.6386ZM16.395 72.7755H60.3052L63.557 78.0056H13.1113L16.395 72.7755ZM62.2499 71.8313L69.0936 64.6386L74.4921 68.6487L65.3848 76.8068L62.2499 71.8313ZM70.0394 62.6654V17.3982L74.7152 13.9292V66.039L70.0394 62.6654Z" fill="#0F172A"/>
</svg>
