<?xml version="1.0" encoding="UTF-8"?>
<svg version="1.1" xmlns="http://www.w3.org/2000/svg" width="3840" height="1011">
<path d="M0 0 C45.18978014 -0.02295637 90.37955966 -0.04054378 135.56934449 -0.05106533 C140.92074139 -0.05231583 146.27213828 -0.05361018 151.62353516 -0.05493164 C152.68877193 -0.05519395 153.75400869 -0.05545626 154.85152537 -0.05572652 C172.03410271 -0.06006187 189.21667666 -0.06793754 206.399252 -0.0771528 C224.06828021 -0.08654896 241.73730666 -0.09206816 259.40633726 -0.09408849 C270.28354113 -0.09545141 281.16073541 -0.09973449 292.03793633 -0.10791647 C299.52626224 -0.11325772 307.0145833 -0.11478778 314.50291097 -0.11350138 C318.80449783 -0.11286936 323.1060681 -0.11374326 327.4076519 -0.11920547 C355.01428155 -0.1524748 382.66048533 -0.00639135 410.1875 2.3125 C410.96986023 2.37658051 411.75222046 2.44066101 412.55828857 2.50668335 C444.24986687 5.12335723 475.77450753 9.812989 506 20 C506.70511719 20.23686523 507.41023437 20.47373047 508.13671875 20.71777344 C528.38126648 27.6400414 546.90412023 37.83034847 563 52 C563.62132812 52.53753906 564.24265625 53.07507812 564.8828125 53.62890625 C586.76860164 73.93688268 595.67654839 105.3069201 597.1640625 134.18505859 C598.98244805 185.31957554 585.39865802 238.240097 563 284 C562.38801758 285.26070313 562.38801758 285.26070313 561.76367188 286.546875 C549.68391581 311.1858889 534.01816491 333.27109707 515 353 C514.19876709 353.834104 514.19876709 353.834104 513.38134766 354.68505859 C506.32159176 361.99657399 499.08487602 368.81171018 491 375 C490.46213867 375.41427246 489.92427734 375.82854492 489.37011719 376.25537109 C467.70638019 392.85030973 443.92402516 405.96462563 419 417 C419.64324219 417.22550537 420.28648437 417.45101074 420.94921875 417.68334961 C448.57959689 427.46089694 471.65238163 439.14732522 485.875 465.875 C500.60896115 497.18033393 496.40187621 535.61829118 489.57421875 568.4453125 C489.19506065 570.27074585 489.19506065 570.27074585 488.8082428 572.13305664 C484.86745898 590.83655635 480.21317361 609.38470191 475.68109131 627.95135498 C474.43968584 633.04098493 473.20333762 638.13184261 471.96679688 643.22265625 C470.56858377 648.97894966 469.17009872 654.7351709 467.76683044 660.49023438 C465.57983089 669.46318196 463.40885775 678.43972078 461.26708984 687.42358398 C461.05965117 688.29284767 460.85221251 689.16211136 460.63848782 690.05771637 C457.49629409 703.26957356 454.67028641 716.30188493 454.5625 729.9375 C454.5524292 730.74775635 454.5423584 731.5580127 454.53198242 732.39282227 C454.60939806 737.61480895 455.44264685 741.4131877 458 746 C459.72786264 747.41768371 459.72786264 747.41768371 461.6875 747.9375 C462.780625 748.288125 463.87375 748.63875 465 749 C462.9703059 759.14847048 459.97389252 769.08702495 457 779 C379.45 779 301.9 779 222 779 C224.34641068 741.45742905 224.34641068 741.45742905 225.75 730.0625 C225.94722656 728.23235352 225.94722656 728.23235352 226.1484375 726.36523438 C229.25362469 700.56323404 237.69259824 675.37504921 244.73516846 650.42987061 C263.32169661 594.75286534 263.32169661 594.75286534 256.6015625 538.6796875 C248.42293975 524.99545529 236.02744828 518.84948132 221 515 C205.56736009 511.63183268 190.05124263 511.52870357 174.328125 511.48828125 C171.82321314 511.47139336 169.31830954 511.45323777 166.81341553 511.43388367 C160.29037053 511.3868235 153.76735902 511.35673161 147.24420166 511.33044434 C140.5598677 511.30041432 133.87565342 511.25396241 127.19140625 511.20898438 C114.12766725 511.12345301 101.06390012 511.05532758 88 511 C87.87022766 512.01926575 87.74045532 513.03853149 87.60675049 514.08868408 C87.04717337 517.69590475 86.26694166 521.06690688 85.29199219 524.58105469 C85.12026898 525.20460405 84.94854578 525.82815342 84.77161884 526.47059822 C84.20086377 528.53886663 83.62390979 530.6053506 83.046875 532.671875 C82.63525938 534.15811485 82.22400885 535.64445584 81.81309509 537.13088989 C80.69786714 541.16053163 79.57707693 545.1886071 78.45516586 549.21639252 C77.50471277 552.63129841 76.55749705 556.04709878 75.61028194 559.46290398 C68.15981022 586.32923364 60.65211421 613.17969265 53.12158203 640.02368164 C52.24899772 643.13427013 51.37643274 646.24486404 50.50390625 649.35546875 C50.28609497 650.13195581 50.06828369 650.90844288 49.84387207 651.70845985 C46.07919343 665.13135611 42.3318537 678.55904961 38.58984375 691.98828125 C38.04480727 693.94385115 37.49975826 695.89941757 36.95469666 697.85498047 C34.57763028 706.38387482 32.2011728 714.9129363 29.82776356 723.44284916 C28.84887401 726.95975492 27.86877864 730.47632391 26.88841438 733.99281883 C26.44033902 735.60103064 25.99275824 737.20938035 25.54577446 738.81789589 C21.81345105 752.24791299 17.90354281 765.61642464 14 779 C-61.9 779 -137.8 779 -216 779 C-205.67820413 740.00654895 -205.67820413 740.00654895 -201.78515625 726.171875 C-201.33163467 724.55251277 -200.87836729 722.93307933 -200.42532349 721.31358337 C-199.46920771 717.89705646 -198.51182184 714.4808896 -197.55331421 711.06503296 C-194.91191445 701.65062723 -192.28057935 692.23340364 -189.6484375 682.81640625 C-189.23855245 681.35034659 -189.23855245 681.35034659 -188.82038689 679.85466957 C-182.83707202 658.45135084 -176.91133352 637.03224181 -170.99480438 615.61038208 C-161.84425635 582.48040849 -152.65974122 549.36008924 -143.4375 516.25 C-142.87056096 514.21441757 -142.30362574 512.17883407 -141.73669434 510.14324951 C-140.60595193 506.08332909 -139.4751945 502.02341285 -138.34442139 497.96350098 C-137.92626286 496.46214851 -137.92626286 496.46214851 -137.49965668 494.9304657 C-136.93774175 492.91299659 -136.37581651 490.89553036 -135.81388092 488.87806702 C-129.68066824 466.85836529 -123.55605222 444.83627972 -117.4375 422.8125 C-117.0540914 421.43248999 -117.0540914 421.43248999 -116.66293716 420.02460098 C-108.18880413 389.52257143 -99.74600804 359.01193545 -91.31274414 328.49858475 C-82.71938987 297.40686295 -74.09229335 266.32467453 -65.4375 235.25 C-65.01641275 233.73805431 -65.01641275 233.73805431 -64.5868187 232.19556427 C-62.32928072 224.08972627 -60.07165196 215.98391355 -57.81389809 207.87813568 C-51.68068051 185.85841067 -45.55622981 163.83625496 -39.4375 141.8125 C-39.18572369 140.90633816 -38.93394737 140.00017632 -38.67454147 139.06655502 C-32.3325672 116.24101819 -26.00433246 93.41171343 -19.69140625 70.578125 C-19.38851622 69.48265036 -19.08562618 68.38717571 -18.77355766 67.25850487 C-15.8141883 56.55498976 -12.85560285 45.85125914 -9.89983273 35.1467495 C-8.82214975 31.24430289 -7.74387821 27.34201906 -6.66549492 23.43976593 C-6.16341496 21.62230718 -5.66162608 19.80476798 -5.1601429 17.98714447 C-4.47530705 15.50498709 -3.78952187 13.02309388 -3.10351562 10.54125977 C-2.80304904 9.45073413 -2.80304904 9.45073413 -2.49651241 8.33817768 C-1.72075679 5.53474131 -0.9200614 2.76018419 0 0 Z M177 190 C176.73485596 190.96336777 176.46971191 191.92673553 176.1965332 192.91929626 C172.79997226 205.2593268 169.40066693 217.5986004 166 229.9375 C165.72864227 230.92217506 165.45728455 231.90685013 165.17770386 232.92136383 C157.35099025 261.32034949 149.47974218 289.70574011 141.47265625 318.05444336 C141.16348267 319.1504335 140.85430908 320.24642365 140.5357666 321.37562561 C139.96727077 323.39008724 139.39760853 325.40422022 138.82653809 327.41795349 C138.58278442 328.28146927 138.33903076 329.14498505 138.08789062 330.03466797 C137.87604126 330.78263641 137.66419189 331.53060486 137.44592285 332.30123901 C136.95768381 333.86848634 136.95768381 333.86848634 137 335 C151.82311976 335.04712144 166.64623363 335.08218242 181.4694128 335.10362434 C188.3550412 335.1138533 195.24062255 335.12774898 202.1262207 335.15087891 C208.79174494 335.17325852 215.45721065 335.18462398 222.12277412 335.18975449 C224.64479902 335.1934029 227.16682178 335.20052441 229.68882561 335.21146011 C266.52299513 335.3645832 307.06525735 335.42851173 335 308 C335.68964844 307.33484375 336.37929688 306.6696875 337.08984375 305.984375 C355.9982842 286.36452788 363.66994629 255.32210014 363.27734375 228.90625 C362.92243891 219.61162762 359.50915387 211.67078071 353 205 C336.34979347 189.9542031 305.47358584 189.81638106 284.50854492 189.88647461 C282.7500547 189.88625557 282.7500547 189.88625557 280.95603943 189.8860321 C277.13082952 189.88672159 273.30567002 189.89446827 269.48046875 189.90234375 C266.80861834 189.90421136 264.13677063 189.90568292 261.46492004 189.90663147 C255.1825519 189.90972091 248.90020146 189.91790163 242.61784106 189.92798096 C235.45685607 189.93921685 228.29587016 189.94467126 221.13487852 189.94967639 C206.42324335 189.96008665 191.71162198 189.97763914 177 190 Z " fill="#1A3181" transform="translate(216,0)"/>
<path d="M0 0 C39.48230938 -0.02299066 78.96461787 -0.04056094 118.44693262 -0.05106533 C123.12966082 -0.05231573 127.81238901 -0.05361009 132.49511719 -0.05493164 C133.42719304 -0.05519395 134.3592689 -0.05545626 135.31958948 -0.05572652 C150.32536082 -0.06005384 165.33112824 -0.06792489 180.33689727 -0.0771528 C195.78435004 -0.08657166 211.23180079 -0.09207285 226.67925632 -0.09408849 C235.33468863 -0.09532627 243.99011277 -0.09827942 252.64554214 -0.10573006 C340.625735 -0.17920792 340.625735 -0.17920792 375.5625 2.25 C376.48238708 2.31246918 377.40227417 2.37493835 378.35003662 2.43930054 C427.4905092 5.83415816 483.60888531 12.29515576 524 43 C524.86367187 43.65613281 525.72734375 44.31226563 526.6171875 44.98828125 C535.1359137 51.65567334 543.15955318 58.59643221 550 67 C550.74894531 67.89976563 551.49789062 68.79953125 552.26953125 69.7265625 C572.21058607 94.53511888 584.19188989 125.30847157 587 157 C587.10957031 158.13050781 587.21914062 159.26101562 587.33203125 160.42578125 C592.61208166 222.58957479 573.38740345 286.93659499 548 343 C547.33719912 344.49216953 546.67443604 345.98435584 546.01171875 347.4765625 C534.68375515 372.62282735 519.47151101 396.67833965 502 418 C501.58508301 418.50966309 501.17016602 419.01932617 500.74267578 419.54443359 C493.23196641 428.73483632 485.18731295 437.41222065 477 446 C475.87078125 447.19302734 475.87078125 447.19302734 474.71875 448.41015625 C470.34096853 452.92250067 465.60438055 456.86482417 460.69921875 460.79296875 C458.33490849 462.72616021 456.10532737 464.72884793 453.875 466.8125 C393.69547739 520.61256791 305.06371396 541.31566979 226.38256836 541.11352539 C224.80372621 541.1132423 223.22488394 541.11340362 221.64604187 541.1139679 C217.41989869 541.11425112 213.19378474 541.1084323 208.96764827 541.10139394 C204.52877249 541.09508025 200.08989581 541.09455033 195.65101624 541.09336853 C187.27215816 541.09027859 178.89331337 541.08209718 170.5144611 541.07201904 C160.96406903 541.06078472 151.41367627 541.05532913 141.86327922 541.05032361 C122.24217878 541.03991223 102.62109023 541.02235874 83 541 C82.73747531 542.05784258 82.47495062 543.11568516 82.20447063 544.20558357 C80.44507476 551.27980821 78.68027143 558.34742519 76.73950195 565.37451172 C76.54445698 566.08275715 76.349412 566.79100258 76.14845657 567.52070999 C75.5135769 569.82421637 74.8759735 572.12695832 74.23828125 574.4296875 C73.77425688 576.1107877 73.31038941 577.79193121 72.84666443 579.47311401 C71.59800186 583.99788757 70.34683005 588.52196361 69.09507751 593.04588318 C68.03881242 596.86441527 66.9839689 600.68333953 65.92907524 604.50225067 C54.73880137 645.01083788 43.50088294 685.50633681 32.22826862 725.99208641 C30.64572951 731.67678026 29.06632756 737.36233857 27.48836899 743.04830551 C26.37265973 747.06717138 25.25524814 751.0855627 24.13748932 755.10385895 C23.60119804 757.03321846 23.06562081 758.9627766 22.53078461 760.89253998 C21.79226438 763.55681775 21.05122027 766.2203811 20.30957031 768.88378906 C20.08958626 769.67977257 19.8696022 770.47575607 19.64295197 771.29586029 C18.11400718 776.77198564 18.11400718 776.77198564 17 779 C-59.56 779 -136.12 779 -215 779 C-214.38701996 774.70913973 -213.84769524 771.0256818 -212.72265625 766.94213867 C-212.462034 765.98814178 -212.20141174 765.0341449 -211.93289185 764.05123901 C-211.50204788 762.50027023 -211.50204788 762.50027023 -211.0625 760.91796875 C-210.75520966 759.79875031 -210.44791931 758.67953186 -210.13131714 757.52639771 C-209.27401904 754.40811741 -208.41274378 751.29096831 -207.54964447 748.1742897 C-206.8034512 745.47703869 -206.06050011 742.77889879 -205.3175106 740.08076382 C-202.55538291 730.0509678 -199.77909137 720.02510687 -197 710 C-196.76629196 709.15689774 -196.53258392 708.31379547 -196.29179382 707.44514465 C-190.06726316 684.992047 -183.8276321 662.54315084 -177.58518219 640.09502983 C-172.1132804 620.41684551 -166.65770143 600.73415782 -161.20630264 581.05028534 C-155.11789411 559.06653775 -149.0259069 537.08379943 -142.91796875 515.10546875 C-142.66303272 514.18811573 -142.40809669 513.27076271 -142.14543533 512.32561111 C-140.84848221 507.65878904 -139.55145284 502.99198816 -138.25439453 498.32519531 C-137.73209517 496.44596387 -137.20979699 494.5667321 -136.6875 492.6875 C-136.29949722 491.29146042 -136.29949722 491.29146042 -135.90365601 489.86721802 C-127.30625809 458.93270542 -118.73691214 427.99051276 -110.18291855 397.04397202 C-101.72031165 366.42833515 -93.23341301 335.81954801 -84.72616959 305.21628571 C-76.35690891 275.10887593 -68.01362421 244.9943668 -59.6875 214.875 C-50.14157109 180.34412036 -40.572311 145.81984014 -30.97566223 111.30302429 C-27.69898162 99.51714708 -24.4252373 87.73045545 -21.15221596 75.94356155 C-20.28145493 72.80777396 -19.41065479 69.67199722 -18.5398407 66.53622437 C-18.25364144 65.50562834 -17.96744219 64.47503231 -17.67257023 63.4132061 C-17.09599883 61.33698961 -16.51942705 59.26077323 -15.94285488 57.18455696 C-14.52485848 52.07834849 -13.10693824 46.9721189 -11.68917847 41.86584473 C-10.36148044 37.08398017 -9.03353122 32.30218544 -7.70540047 27.52044106 C-7.21444562 25.75265368 -6.7235823 23.98484088 -6.2328167 22.21700096 C-5.55698068 19.78254014 -4.88082313 17.34816885 -4.20458984 14.91381836 C-4.00938216 14.21035152 -3.81417448 13.50688469 -3.61305141 12.78210068 C-2.42750783 8.51591458 -1.21817343 4.25696787 0 0 Z M180 192 C178.13782556 197.47154548 176.3936502 202.95044453 174.83374023 208.51757812 C174.63754058 209.21552238 174.44134092 209.91346664 174.23919582 210.63256073 C173.59353384 212.93153294 172.95103007 215.2313745 172.30859375 217.53125 C171.84604662 219.18103741 171.38332459 220.8307758 170.92044067 222.48046875 C169.68000164 226.90381382 168.44247865 231.32796947 167.20573807 235.75234985 C166.43703968 238.50164638 165.66760687 241.25073628 164.8979187 243.99975586 C161.25866916 256.99799403 157.62697909 269.99833291 154 283 C153.75919205 283.86312805 153.51838409 284.7262561 153.27027893 285.61553955 C150.22419124 296.53439547 147.18431984 307.45496016 144.15202713 318.37765503 C143.56220588 320.50105885 142.97150779 322.62421702 142.38058472 324.74731445 C141.29355699 328.6535949 140.21090805 332.56107443 139.12890625 336.46875 C138.80818146 337.61996338 138.48745667 338.77117676 138.15701294 339.95727539 C137.72653152 341.5165979 137.72653152 341.5165979 137.28735352 343.10742188 C136.91176048 344.46184387 136.91176048 344.46184387 136.52857971 345.84362793 C135.92064122 347.95371364 135.92064122 347.95371364 136 350 C148.3630995 350.04675122 160.72617728 350.0820832 173.08934784 350.10362434 C178.83270942 350.11397334 184.57600965 350.12796588 190.31933594 350.15087891 C195.88259974 350.17292961 201.44580529 350.18463499 207.0091095 350.18975449 C209.11050837 350.1933934 211.21190478 350.2004949 213.3132782 350.21146011 C232.40905705 350.30695875 251.5959537 349.51695767 270.4375 346.1875 C271.42427734 346.01573242 272.41105469 345.84396484 273.42773438 345.66699219 C294.22397753 341.8901566 312.14144993 335.4748033 327 320 C327.66386719 319.33226562 328.32773438 318.66453125 329.01171875 317.9765625 C343.14031914 302.92722186 349.7732293 282.49867154 355 263 C355.40412109 261.54400391 355.40412109 261.54400391 355.81640625 260.05859375 C357.25877154 253.77472258 357.22864052 247.35646557 357.3125 240.9375 C357.33932861 239.55328857 357.33932861 239.55328857 357.36669922 238.14111328 C357.35257569 226.82412799 354.0683728 217.69193993 346.44140625 209.28125 C324.71129946 188.8539074 281.23121219 191.83021261 253.53515625 191.90234375 C251.40425144 191.90421313 249.27334619 191.90563457 247.1424408 191.90663147 C241.5843076 191.91041573 236.02620131 191.92021018 230.46807861 191.93133545 C224.77624882 191.94163842 219.0844146 191.94614797 213.39257812 191.95117188 C202.26170705 191.96183688 191.13085578 191.97886301 180 192 Z " fill="#1A3181" transform="translate(1579,0)"/>
<path d="M0 0 C1.14157562 0.00060425 2.28315125 0.0012085 3.45932007 0.00183105 C68.14795693 0.09447824 149.59827254 4.97893004 199.6875 51.1875 C200.34878906 51.77917969 201.01007812 52.37085938 201.69140625 52.98046875 C219.33323126 69.55805374 231.40853973 93.48913744 232.90673828 117.7355957 C233.02877925 121.74175654 233.07393727 125.7424497 233.0625 129.75 C233.06168427 130.83139252 233.06168427 130.83139252 233.06085205 131.93463135 C232.93363584 168.92198012 221.6086837 204.88893608 211.72055054 240.22473145 C210.27326993 245.40291101 208.83432962 250.58340791 207.39453125 255.76367188 C205.00447662 264.35935061 202.6101059 272.95381516 200.21240234 281.54736328 C196.91058757 293.38212271 193.6191132 305.21973481 190.33203125 317.05859375 C189.94936285 318.43672587 189.94936285 318.43672587 189.55896378 319.84269905 C188.53363382 323.53530126 187.5083235 327.22790891 186.48311424 330.92054462 C184.69192149 337.37187681 182.89946963 343.82285828 181.10644531 350.27368164 C172.32556522 381.86690763 163.57310036 413.46797198 154.84008789 445.07446289 C154.44107977 446.51853878 154.44107977 446.51853878 154.03401089 447.99178791 C152.98159484 451.80072843 151.92918537 455.60967075 150.87693596 459.4186573 C147.63828876 471.14160748 144.39135399 482.86220518 141.13332939 494.57978439 C139.98626469 498.70697598 138.84141618 502.83478276 137.69679356 506.96265221 C136.83721427 510.0617771 135.97559991 513.16031322 135.11105347 516.25805664 C134.19386482 519.54467574 133.28185728 522.83268946 132.37109375 526.12109375 C132.10893066 527.05481308 131.84676758 527.98853241 131.57666016 528.95054626 C127.97498995 542.01477388 126.35051404 556.41760767 133.1171875 568.8046875 C134.56710499 571.00481105 136.07492964 573.10459662 137.6875 575.1875 C138.6775 576.5075 139.6675 577.8275 140.6875 579.1875 C139.0375 584.4675 137.3875 589.7475 135.6875 595.1875 C65.0675 595.1875 -5.5525 595.1875 -78.3125 595.1875 C-77.6525 577.6975 -76.9925 560.2075 -76.3125 542.1875 C-80.2725 545.1575 -84.2325 548.1275 -88.3125 551.1875 C-90.73831134 552.88677481 -93.15370557 554.56069852 -95.625 556.1875 C-96.24979248 556.60064453 -96.87458496 557.01378906 -97.51831055 557.43945312 C-104.32393249 561.90327325 -111.26970978 566.11000381 -118.3125 570.1875 C-118.98587402 570.57905273 -119.65924805 570.97060547 -120.35302734 571.37402344 C-162.37640626 595.66986002 -208.04961081 610.28573406 -256.3125 615.1875 C-257.64740479 615.33106934 -257.64740479 615.33106934 -259.00927734 615.47753906 C-305.49807224 619.98348792 -360.18030881 616.71547165 -398.2734375 586.78515625 C-413.20924346 574.01868972 -423.37266404 560.7504968 -430.3125 542.1875 C-430.69148438 541.1871875 -431.07046875 540.186875 -431.4609375 539.15625 C-447.87747106 491.26440775 -432.4624869 431.35918789 -411.2734375 387.1171875 C-410.62376727 385.80531534 -409.9700142 384.49545835 -409.3125 383.1875 C-408.95446289 382.46723633 -408.59642578 381.74697266 -408.22753906 381.00488281 C-399.0315343 362.65275189 -387.43830541 346.09543894 -373.3125 331.1875 C-372.48234375 330.30449219 -371.6521875 329.42148437 -370.796875 328.51171875 C-348.11834557 305.07060719 -318.66986007 290.18181515 -288.3125 279.1875 C-287.44012695 278.86217285 -286.56775391 278.5368457 -285.66894531 278.20166016 C-252.84272692 266.03215078 -217.77812159 258.92748669 -183.3125 253.1875 C-182.47255493 253.04739502 -181.63260986 252.90729004 -180.76721191 252.76293945 C-161.44076269 249.55768297 -142.0736402 246.72365446 -122.625 244.3671875 C-121.3734613 244.21554138 -120.12192261 244.06389526 -118.8324585 243.90765381 C-112.73308931 243.17311309 -106.63232929 242.45468423 -100.52832031 241.75976562 C-63.24481874 237.44141734 -15.10228966 231.68718741 10.62109375 200.87109375 C18.00623299 190.57609915 20.67883543 178.65821234 19.6875 166.1875 C18.25459852 159.57972502 15.39143923 154.88731397 10.0703125 150.71484375 C-10.43509424 137.57121418 -42.83147566 137.25371882 -66.1328125 141.4375 C-86.69653418 146.28791101 -106.72175945 155.61256053 -118.51367188 174.06738281 C-122.8234826 181.24925141 -126.56696136 188.69642273 -130.3125 196.1875 C-198.6225 196.1875 -266.9325 196.1875 -337.3125 196.1875 C-329.69113733 161.89136797 -312.16757341 129.67763872 -289.3125 103.1875 C-288.76851562 102.55142822 -288.22453125 101.91535645 -287.6640625 101.26000977 C-275.58808425 87.27051161 -262.42808181 74.82131699 -247.3125 64.1875 C-246.25409912 63.43460693 -246.25409912 63.43460693 -245.17431641 62.66650391 C-233.11519585 54.14887899 -220.4224793 46.95539531 -207.3125 40.1875 C-206.58772461 39.81141602 -205.86294922 39.43533203 -205.11621094 39.04785156 C-142.97462122 7.21485827 -68.79897 -0.06764463 0 0 Z M-31.47265625 340.734375 C-57.08873617 350.34040497 -83.40027783 357.8616615 -109.8125 364.9375 C-164.109319 379.49652264 -164.109319 379.49652264 -205.1015625 415.96484375 C-211.02012275 426.82525603 -214.23085941 439.9566229 -211.3125 452.1875 C-207.96664606 461.53281617 -203.31699851 468.24427268 -194.33203125 472.6484375 C-167.21673467 483.85738925 -132.77448609 478.62190606 -106.16796875 467.8828125 C-75.1910962 454.67495393 -54.71924159 427.31574614 -42.13671875 396.91796875 C-34.98436602 378.82719397 -27.25600221 358.81234587 -26.3125 339.1875 C-28.12737241 339.1875 -29.79621703 340.0943268 -31.47265625 340.734375 Z " fill="#1A3181" transform="translate(2478.3125,183.8125)"/>
<path d="M0 0 C71.28 0 142.56 0 216 0 C215.67515625 34.10666016 215.67515625 34.10666016 215.34375 68.90234375 C215.20690111 83.32617066 215.07011081 97.74999808 214.93359375 112.17382812 C214.8618345 119.75528988 214.79006047 127.3367515 214.71826172 134.91821289 C214.70476651 136.3433127 214.70476651 136.3433127 214.69099867 137.79720241 C214.54618636 153.08717633 214.40054175 168.37714222 214.25458378 183.66710525 C214.10454215 199.38682019 213.95540871 215.10654356 213.80709887 230.82627493 C213.71573329 240.50736871 213.62367953 250.18845542 213.53071368 259.86953396 C213.46682356 266.52989136 213.40382442 273.19025683 213.34149063 279.85062896 C213.30563174 283.67946089 213.26941406 287.50828841 213.23212624 291.3371067 C213.06144593 308.89174598 212.95702308 326.44440046 213 344 C220.49902254 330.08854155 227.98517859 316.17043899 235.44363403 302.23718262 C240.52439897 292.74645318 245.62328434 283.26559882 250.73046875 273.7890625 C254.99904408 265.8658193 259.25259824 257.9346104 263.5 250 C268.32121501 240.99344379 273.15347938 231.99296548 278 223 C285.35763253 209.34634064 292.68034383 195.67404152 300 182 C307.8935538 167.25384528 315.79566659 152.51245616 323.73071289 137.78857422 C327.99923797 129.86551053 332.25268409 121.93445002 336.5 114 C341.32121501 104.99344379 346.15347938 95.99296548 351 87 C355.82409675 78.04785766 360.63631619 69.08945245 365.4375 60.125 C366.0564917 58.9695166 366.6754834 57.8140332 367.31323242 56.62353516 C370.19321542 51.24612235 373.07141448 45.86777577 375.94413757 40.48648071 C377.25235845 38.03628827 378.5616938 35.58669218 379.87112427 33.137146 C380.76534639 31.46326609 381.65798596 29.78854103 382.55053711 28.11376953 C387.59463666 18.6789178 392.80180914 9.35674355 398 0 C464 0 530 0 598 0 C597.13501415 3.45994341 596.27722007 5.54967515 594.55078125 8.578125 C594.0398291 9.47893799 593.52887695 10.37975098 593.00244141 11.30786133 C592.44476074 12.27876709 591.88708008 13.24967285 591.3125 14.25 C590.73161621 15.26924561 590.15073242 16.28849121 589.55224609 17.33862305 C584.29474606 26.54100953 578.95108559 35.69305158 573.59765625 44.83984375 C567.98321325 54.43942238 562.4419968 64.08135951 556.89111328 73.71777344 C553.13971976 80.22871257 549.38309006 86.73663194 545.62744141 93.24511719 C542.48817754 98.68585336 539.35018503 104.12731477 536.21484375 109.5703125 C529.59777108 121.0544882 522.95366023 132.52196894 516.26708984 143.96582031 C509.46412377 155.61659185 502.73357814 167.30903744 496 179 C488.12337411 192.67554314 480.22879908 206.33960958 472.26708984 219.96582031 C466.10080946 230.52620282 459.9950405 241.12126766 453.89111328 251.71777344 C450.13971976 258.22871257 446.38309006 264.73663194 442.62744141 271.24511719 C439.48817754 276.68585336 436.35018503 282.12731477 433.21484375 287.5703125 C426.59777108 299.0544882 419.95366023 310.52196894 413.26708984 321.96582031 C406.46412377 333.61659185 399.73357814 345.30903744 393 357 C385.12337411 370.67554314 377.22879908 384.33960958 369.26708984 397.96582031 C363.10080946 408.52620282 356.9950405 419.12126766 350.89111328 429.71777344 C347.13971976 436.22871257 343.38309006 442.73663194 339.62744141 449.24511719 C336.48817754 454.68585336 333.35018503 460.12731477 330.21484375 465.5703125 C323.59777108 477.0544882 316.95366023 488.52196894 310.26708984 499.96582031 C302.22265068 513.74274082 294.27231215 527.57417123 286.31640625 541.40234375 C274.45713212 562.00333683 262.54453312 582.58041878 250.24951172 602.92529297 C248.7240058 605.4582647 247.20770502 607.99666223 245.69140625 610.53515625 C192.21958126 700.00022561 192.21958126 700.00022561 164 732 C163.25492188 732.8559375 162.50984375 733.711875 161.7421875 734.59375 C151.69623697 745.97195921 141.16135647 755.94595047 129 765 C128.43023438 765.43054688 127.86046875 765.86109375 127.2734375 766.3046875 C78.01472784 803.41741395 16.28649312 806.19620217 -43.125 806.25 C-44.22466095 806.25200409 -45.3243219 806.25400818 -46.45730591 806.256073 C-66.14870969 806.26465863 -85.77616914 805.5554617 -105.4375 804.5625 C-106.10663673 804.52872757 -106.77577347 804.49495514 -107.46518707 804.4601593 C-116.31221342 804.01100543 -125.15821609 803.54328747 -134 803 C-135.90774704 802.88396927 -135.90774704 802.88396927 -137.85403442 802.76559448 C-139.12044769 802.68302399 -140.38686096 802.60045349 -141.69165039 802.51538086 C-142.84991837 802.44097275 -144.00818634 802.36656464 -145.20155334 802.28990173 C-148 802 -148 802 -150 801 C-149.43130857 795.73246872 -148.55255576 790.84457136 -147.12426758 785.72631836 C-146.93469451 785.04094592 -146.74512144 784.35557348 -146.54980373 783.64943218 C-145.92008088 781.37803829 -145.28232701 779.1089828 -144.64453125 776.83984375 C-144.18950894 775.20492039 -143.73499324 773.56985596 -143.28094482 771.93466187 C-142.05323622 767.51863361 -140.8185961 763.1045705 -139.58269119 758.69083023 C-138.29247443 754.07847833 -137.00872318 749.46432787 -135.72436523 744.8503418 C-133.58066559 737.15221886 -131.43322786 729.45514772 -129.28320312 721.75878906 C-126.04074479 710.15115458 -122.80837636 698.54072403 -119.578125 686.9296875 C-118.55758679 683.26178594 -117.5369892 679.59390091 -116.51635742 675.92602539 C-116.27002154 675.04074819 -116.02368567 674.15547098 -115.76988506 673.2433672 C-111.85102481 659.16100966 -107.92557128 645.080488 -104 631 C-103.28686142 630.99191315 -102.57372284 630.98382629 -101.838974 630.97549438 C-95.00300514 630.89642112 -88.16718833 630.80882982 -81.33144283 630.71247292 C-77.82003881 630.66325498 -74.30865475 630.61694317 -70.79711914 630.578125 C-57.17500083 630.4254928 -43.57358598 630.23968719 -29.9921875 629.07421875 C-29.08367538 628.99656281 -28.17516327 628.91890686 -27.23912048 628.83889771 C-9.83441258 627.16895425 4.32633791 620.99540998 15.97265625 607.7578125 C29.33194065 590.31734011 32.22991907 565.00874003 32.24609375 543.7983551 C32.24742215 542.63859215 32.24742215 542.63859215 32.24877739 541.45539964 C32.22739403 519.22991421 30.70310992 497.0748975 29.29462433 474.90326011 C28.89383422 468.55458523 28.50612383 462.20510847 28.11669922 455.85572815 C27.44289755 444.89787485 26.7612127 433.940537 26.07373047 422.98353386 C25.35397575 411.51154065 24.63901171 400.0392645 23.93017578 388.56659126 C23.88581268 387.84860094 23.84144959 387.13061061 23.79574215 386.39086301 C23.57039253 382.74329871 23.34512815 379.09572916 23.11989784 375.4481575 C21.53141744 349.72522534 19.93287614 324.00292766 18.328125 298.28100586 C16.77128364 273.3265472 15.21862823 248.37183414 13.671875 223.41674805 C13.62406521 222.6454231 13.57625542 221.87409816 13.52699685 221.07939974 C12.90406432 211.02937573 12.28135157 200.97933812 11.65872574 190.92929511 C10.86898903 178.18185551 10.07910689 165.43442493 9.28904557 152.68700546 C9.19804569 151.21873363 9.10704846 149.75046165 9.01605392 148.28218949 C7.76927914 128.16452046 6.51972855 108.04702619 5.26690698 87.92973281 C4.96939155 83.15227251 4.67202182 78.37480317 4.37475586 73.59732735 C4.2931358 72.28561169 4.21151573 70.97389603 4.12742233 69.6224314 C3.96579731 67.0248672 3.80417867 64.42730261 3.64256668 61.8297376 C3.17940102 54.38655363 2.71541097 46.94342165 2.2507906 39.50032836 C1.97001498 34.99945777 1.68998555 30.49854098 1.4101696 25.99761064 C1.28129731 23.92729382 1.15209926 21.85699725 1.0225544 19.78672241 C0.84744395 16.98773905 0.67345541 14.18868819 0.49975586 11.38961697 C0.44841681 10.57352889 0.39707775 9.75744081 0.34418297 8.91662279 C0.16031498 5.9387181 0 2.98442441 0 0 Z " fill="#1A3181" transform="translate(2765,204)"/>
<path d="M0 0 C0.8219682 0.00291284 1.64393639 0.00582568 2.49081272 0.00882679 C3.79066401 0.00754515 3.79066401 0.00754515 5.11677492 0.00623763 C8.04343087 0.00458016 10.9700305 0.01010853 13.89668125 0.01555592 C15.98547213 0.01583776 18.07426311 0.01568012 20.16305393 0.01511341 C25.8529045 0.01482531 31.54273419 0.02072401 37.23257989 0.02768737 C43.17167361 0.03391888 49.11076775 0.03452455 55.04986423 0.03571278 C66.30502998 0.03882669 77.56018607 0.04704089 88.81534755 0.05706227 C101.62528293 0.06822154 114.43521875 0.07373338 127.24515778 0.0787577 C153.60418334 0.08922346 179.96320031 0.10682406 206.32221836 0.12908131 C205.63305599 5.21836107 204.63850242 10.0738532 203.25044101 15.01335865 C203.03946309 15.7775927 202.82848516 16.54182675 202.61111397 17.3292194 C201.90698634 19.87565602 201.1966455 22.42031568 200.48628086 24.96501881 C199.9789384 26.7946996 199.47197489 28.6244855 198.96536106 30.45436817 C197.58694069 35.42884917 196.20306489 40.40179787 194.81820148 45.37448841 C193.34776142 50.65803369 191.88232095 55.9429656 190.4162125 61.22771412 C187.02742286 73.43886477 183.63075756 85.64781803 180.2329163 97.85645252 C178.77072274 103.11090246 177.30942366 108.36560109 175.84809726 113.62029225 C170.2506768 133.74663476 164.64911153 153.87182334 159.04487461 173.99626881 C158.76882766 174.98756039 158.49278072 175.97885197 158.20836872 177.00018269 C154.80158981 189.23349662 151.39187338 201.46598701 147.97899574 213.6976009 C145.69830414 221.87211876 143.4201199 230.04733312 141.14357513 238.22300678 C139.81079062 243.00891753 138.47683733 247.79449409 137.13957065 252.57915455 C132.04486732 270.81020298 127.01062124 289.05294108 122.26753086 307.37908131 C122.08186935 308.09171005 121.89620785 308.8043388 121.70492023 309.53856236 C118.56510784 321.61875646 116.00333914 333.75650663 114.32221836 346.12908131 C114.22199375 346.8644109 114.12176914 347.59974049 114.01850742 348.35735279 C112.0654667 364.10852196 110.74982041 382.73896788 120.59956211 396.09783131 C126.24592307 402.75567189 131.99470011 406.52426517 140.32221836 409.12908131 C140.98350742 409.34306568 141.64479648 409.55705006 142.32612461 409.77751881 C164.4892938 415.76287566 189.17110072 411.19415771 209.01631016 400.35100514 C214.99455604 396.91405115 220.2324203 392.77733537 225.32221836 388.12908131 C226.07760898 387.45490162 226.83299961 386.78072193 227.61128086 386.08611256 C238.382767 375.94264593 246.52195509 363.17363169 253.32221836 350.12908131 C253.69669101 349.42734791 254.07116367 348.72561451 254.45698398 348.00261647 C260.2099118 337.10642053 264.65163083 325.87425798 268.50971836 314.18767506 C268.74471357 313.48014214 268.97970878 312.77260922 269.22182506 312.0436359 C274.69018944 295.52349868 279.30916023 278.7902192 283.83733982 261.99284321 C285.00420906 257.67375873 286.18266024 253.35783562 287.3603043 249.04167897 C288.84718517 243.59000189 290.33334602 238.1381355 291.8151688 232.68508106 C296.9368112 213.83890221 302.13045959 195.01279008 307.33085102 176.18821675 C308.56994338 171.70205783 309.80799636 167.21561213 311.04609531 162.72917897 C313.33509282 154.43502744 315.62490957 146.14110241 317.91509956 137.84728009 C319.86161811 130.79782217 321.80734554 123.74814614 323.75288242 116.69841725 C326.38078681 107.17634097 329.01006178 97.65464408 331.64072269 88.13332897 C333.03768478 83.07716211 334.43420951 78.02087573 335.82942051 72.96422535 C337.13924044 68.21720191 338.45063488 63.47061586 339.76307148 58.72431523 C340.23596659 57.01321676 340.70837653 55.30198409 341.18016285 53.59057957 C346.10353067 35.73381587 351.23313565 17.9408708 356.32221836 0.12908131 C426.28221836 0.12908131 496.24221836 0.12908131 568.32221836 0.12908131 C567.6333123 5.6403298 566.82534257 10.54116807 565.32636875 15.80730397 C565.12355793 16.53743199 564.92074711 17.26756001 564.7117905 18.01981312 C564.03649782 20.44578426 563.35316564 22.86941444 562.66987461 25.29314381 C562.18208187 27.03977296 561.694827 28.7865524 561.20806736 30.53346974 C560.15892351 34.29476477 559.10631268 38.05506547 558.05097812 41.81462818 C556.35762707 47.84752639 554.67216685 53.88261091 552.98823398 59.91814381 C552.40819935 61.99682175 551.82815165 64.07549603 551.24809116 66.15416676 C550.95792495 67.19400463 550.66775875 68.23384251 550.36879963 69.30519062 C549.47483406 72.50765642 548.5801041 75.70990776 547.68516392 78.91210133 C542.06318351 99.03129025 536.49299983 119.16465298 530.9320206 139.3007732 C528.22182649 149.11393902 525.50854405 158.92625105 522.79487461 168.73845631 C522.39176563 170.19608576 522.39176563 170.19608576 521.98051304 171.68316227 C515.92274116 193.586198 509.84393405 215.48337849 503.75971836 237.37908131 C503.50261459 238.30437138 503.24551082 239.22966145 502.98061603 240.18299061 C498.83683917 255.09587171 494.69159938 270.00834607 490.54617161 284.92076832 C486.65831761 298.90667735 482.77100446 312.89273652 478.88471836 326.87908131 C478.49918356 328.26653301 478.49918356 328.26653301 478.10586017 329.68201405 C469.55210061 360.46581436 461.02645969 391.25733117 452.51410526 422.05260426 C441.38892405 462.30033624 430.2212885 502.53620989 419.0366196 542.76744801 C418.82564294 543.52653084 418.61466627 544.28561367 418.39729637 545.06769902 C417.98624541 546.54580515 417.57476822 548.02379282 417.16282791 549.50165135 C416.0755131 553.40490049 414.99840371 557.31067446 413.93321079 561.22002369 C413.70499039 562.05332329 413.47677 562.88662289 413.24163383 563.74517399 C412.80203925 565.35102044 412.36508042 566.95759133 411.93108505 568.56496006 C410.43461995 574.01667971 410.43461995 574.01667971 409.32221836 575.12908131 C406.81808319 575.22681243 404.34155645 575.25903811 401.83697361 575.24933583 C401.04391002 575.25019025 400.25084644 575.25104468 399.43375063 575.25192499 C396.7558444 575.25358221 394.07799975 575.24805449 391.40009922 575.2426067 C389.48864599 575.24232485 387.57719265 575.24248251 385.66573948 575.2430492 C380.45934377 575.24333728 375.25297088 575.23743892 370.04658049 575.23047525 C364.61197677 575.22424339 359.17737259 575.22363804 353.74276584 575.22244984 C343.44383078 575.21933603 333.14490628 575.21112197 322.84597588 575.20110035 C311.12429079 575.18994076 299.40260521 575.18442915 287.68091613 575.17940491 C263.56134434 575.16893939 239.44178194 575.15133899 215.32221836 575.12908131 C216.44138624 569.26838864 217.67867688 563.50008898 219.29340976 557.7516399 C219.47901966 557.08693684 219.66462955 556.42223377 219.85586399 555.73738819 C220.45834174 553.5831012 221.06599348 551.43031318 221.67378086 549.27751881 C222.09723088 547.76732514 222.52035154 546.25703908 222.94315952 544.74666554 C224.04790864 540.80359195 225.15707895 536.8617758 226.26722568 532.920219 C227.40285206 528.88513187 228.5342222 524.84885186 229.66596836 520.81267506 C231.88059246 512.91698092 234.09989628 505.02261221 236.32221836 497.12908131 C235.99221836 496.79908131 235.66221836 496.46908131 235.32221836 496.12908131 C234.89513584 496.53634449 234.46805332 496.94360768 234.02802891 497.36321217 C225.70179992 505.28491896 217.3411674 512.99431382 208.32221836 520.12908131 C207.21920541 521.03356538 206.11773193 521.93992899 205.01753086 522.84783131 C147.98304158 569.66240319 76.96383919 597.16038684 2.57221836 590.37908131 C-33.70391563 586.63308346 -69.02598629 574.06720447 -92.92778164 545.25408131 C-112.34532986 519.6983412 -120.13725678 491.23658011 -120.11528164 459.44158131 C-120.1150198 458.56648915 -120.11475796 457.69139698 -120.11448818 456.78978688 C-120.02442702 431.09330362 -115.41531554 406.74697567 -110.05278164 381.69158131 C-109.77775814 380.40160237 -109.77775814 380.40160237 -109.49717861 379.08556324 C-102.11862642 344.8274725 -92.67539187 310.99260577 -83.29503781 277.23956639 C-82.0020306 272.58323732 -80.71408249 267.92550822 -79.42534024 263.26799732 C-76.44969559 252.5180757 -73.46645682 241.77026967 -70.48146206 231.02294117 C-69.43014786 227.23741164 -68.37926568 223.45176225 -67.32839829 219.66610867 C-62.95710839 203.91907624 -58.58373473 188.17262364 -54.20585781 172.42742115 C-48.70624375 152.64649765 -43.21636005 132.86292826 -37.74418789 113.07439381 C-37.45531452 112.029783 -37.16644116 110.9851722 -36.86881405 109.90890652 C-34.07148412 99.79272898 -31.27529469 89.67623677 -28.4806152 79.55932671 C-25.72911027 69.59893562 -22.9742087 59.63949228 -20.21531826 49.6811443 C-19.1420968 45.80695646 -18.07043444 41.93234088 -16.99962002 38.05748707 C-15.59831903 32.98757736 -14.19352216 27.91864758 -12.78635746 22.85036236 C-12.25087295 20.91955101 -11.71654615 18.98841819 -11.18341786 17.05695492 C-10.4493751 14.39840174 -9.71120389 11.74102922 -8.97197109 9.08391529 C-8.64408439 7.89085302 -8.64408439 7.89085302 -8.30957371 6.67368847 C-6.4492869 0.01734145 -6.4492869 0.01734145 0 0 Z " fill="#1A3181" transform="translate(872.6777816414833,203.8709186911583)"/>
<path d="M0 0 C0.66 0 1.32 0 2 0 C2.34123587 0.68339353 2.68247173 1.36678705 3.03404808 2.07088947 C11.38041571 18.78581746 19.72906338 35.49960484 28.0801754 52.21216297 C32.11883867 60.29462126 36.15676089 68.37744809 40.19287109 76.46118164 C43.71534141 83.51616535 47.23927097 90.570418 50.7648741 97.6238367 C52.62741151 101.35020247 54.48927113 105.07690304 56.34937668 108.80448341 C66.95084487 130.04805413 66.95084487 130.04805413 77.93261719 151.09695435 C81.25901801 157.34128519 84.42673251 163.66740797 87.59033203 169.99536133 C88.65616085 172.12475553 89.72844934 174.2508276 90.80078125 176.37695312 C91.48476247 177.74199342 92.16837208 179.10721999 92.8515625 180.47265625 C93.17017242 181.10269058 93.48878235 181.73272491 93.81704712 182.3818512 C96 186.77107242 96 186.77107242 96 189 C96.66 189 97.32 189 98 189 C98.12128769 188.01121353 98.24257538 187.02242706 98.36753845 186.00367737 C98.95807113 181.89311998 99.99799488 177.93452107 101.11938477 173.94116211 C101.33504561 173.15975735 101.55070646 172.37835258 101.77290249 171.57326889 C102.49158127 168.97345614 103.21647441 166.37541922 103.94140625 163.77734375 C104.45812793 161.91325299 104.97447617 160.04905868 105.49047852 158.18476868 C106.88580364 153.14799488 108.28661608 148.11276245 109.68858719 143.07783508 C111.14997826 137.82644433 112.60674544 132.57377091 114.06420898 127.32128906 C116.78976529 117.5022368 119.52042148 107.68461041 122.25340939 97.86762428 C124.35948085 90.30236907 126.46356122 82.73656279 128.56640625 75.17041016 C131.63092993 64.14473384 134.69918973 53.12010178 137.76990891 42.09614944 C138.56358861 39.24609088 139.3566935 36.39587286 140.14968872 33.54562378 C141.39005383 29.0881302 142.63256244 24.63123966 143.87680054 20.17482567 C144.33226953 18.54232321 144.78704576 16.90962729 145.24108887 15.27672768 C145.85746076 13.0605731 146.47635541 10.84513894 147.09594727 8.62988281 C147.44166275 7.39006653 147.78737823 6.15025024 148.14356995 4.87286377 C149 2 149 2 150 0 C150.66 0 151.32 0 152 0 C152.30515974 0.61124127 152.61031948 1.22248255 152.92472649 1.85224628 C160.39484115 16.81468551 167.86724612 31.77597852 175.3421154 46.73604298 C178.95704115 53.97102237 182.57122725 61.20636936 186.18359375 68.44262695 C189.33689526 74.75928509 192.49166447 81.07520777 195.64810479 87.39029807 C197.31502334 90.72542414 198.98126842 94.06088234 200.64574814 97.39722633 C206.73377727 109.59926871 212.83620752 121.78667035 219.23587608 133.82924366 C224.88337885 144.49672952 230.21651636 155.32537164 235.59844017 166.12841797 C237.19217233 169.32606916 238.78864229 172.52235287 240.3848877 175.71875 C244.76710964 184.4950943 249.14526218 193.27346693 253.52333832 202.05187988 C257.54480953 210.11516172 261.56720606 218.17797871 265.59287405 226.23916626 C267.17043978 229.39840127 268.74717428 232.55804478 270.3217926 235.71875 C278.51125055 252.16883105 278.51125055 252.16883105 286.98632812 268.47265625 C293.1378329 280.05100253 298.95409141 291.79790011 304.80036926 303.53227615 C306.42213043 306.78598091 308.04662612 310.03831979 309.67089844 313.29077148 C314.13052447 322.22192691 318.58608237 331.15511015 323.04156494 340.08833313 C327.13395101 348.29344123 331.22726063 356.49808542 335.32384109 364.70110035 C336.92935195 367.91622692 338.53403072 371.13176256 340.13659668 374.34835815 C346.94216747 388.00774431 353.82068056 401.61654586 360.990448 415.08894348 C368 428.35784892 368 428.35784892 368 431 C366.6015625 432.375 366.6015625 432.375 364.625 434 C361.25204852 436.86045355 358.10326523 439.84869661 355 443 C351.47893677 446.56400302 347.86813992 449.90304168 344.0625 453.15625 C341.61075311 455.34796313 339.31114427 457.66067104 337 460 C333.47893677 463.56400302 329.86813992 466.90304168 326.0625 470.15625 C323.61075311 472.34796313 321.31114427 474.66067104 319 477 C315.47893677 480.56400302 311.86813992 483.90304168 308.0625 487.15625 C305.61075311 489.34796313 303.31114427 491.66067104 301 494 C298.10408042 496.93118191 295.19757429 499.76403174 292.0625 502.4375 C288.71074927 505.30172335 285.59443244 508.36333716 282.5 511.5 C278.81005412 515.24030338 275.02496302 518.7823935 271.02734375 522.19140625 C267.68256946 525.17528004 264.58664843 528.40619732 261.4375 531.59375 C258.74716094 534.24959753 255.93426475 536.70135432 253.0625 539.15625 C250.61075311 541.34796313 248.31114427 543.66067104 246 546 C242.47893677 549.56400302 238.86813992 552.90304168 235.0625 556.15625 C232.61075311 558.34796313 230.31114427 560.66067104 228 563 C224.47893677 566.56400302 220.86813992 569.90304168 217.0625 573.15625 C214.61075311 575.34796313 212.31114427 577.66067104 210 580 C207.10408042 582.93118191 204.19757429 585.76403174 201.0625 588.4375 C197.71074927 591.30172335 194.59443244 594.36333716 191.5 597.5 C187.81005412 601.24030338 184.02496302 604.7823935 180.02734375 608.19140625 C176.68256946 611.17528004 173.58664843 614.40619732 170.4375 617.59375 C167.74716094 620.24959753 164.93426475 622.70135432 162.0625 625.15625 C159.61075311 627.34796313 157.31114427 629.66067104 155 632 C151.47893677 635.56400302 147.86813992 638.90304168 144.0625 642.15625 C141.61075311 644.34796313 139.31114427 646.66067104 137 649 C133.47893677 652.56400302 129.86813992 655.90304168 126.0625 659.15625 C123.61075311 661.34796313 121.31114427 663.66067104 119 666 C115.47893677 669.56400302 111.86813992 672.90304168 108.0625 676.15625 C105.61075311 678.34796313 103.31114427 680.66067104 101 683 C98.10408042 685.93118191 95.19757429 688.76403174 92.0625 691.4375 C88.71074927 694.30172335 85.59443244 697.36333716 82.5 700.5 C78.81005412 704.24030338 75.02496302 707.7823935 71.02734375 711.19140625 C67.68256946 714.17528004 64.58664843 717.40619732 61.4375 720.59375 C58.74716094 723.24959753 55.93426475 725.70135432 53.0625 728.15625 C50.61075311 730.34796313 48.31114427 732.66067104 46 735 C42.47893677 738.56400302 38.86813992 741.90304168 35.0625 745.15625 C32.61075311 747.34796313 30.31114427 749.66067104 28 752 C24.47893677 755.56400302 20.86813992 758.90304168 17.0625 762.15625 C14.61075311 764.34796313 12.31114427 766.66067104 10 769 C7.10408042 771.93118191 4.19757429 774.76403174 1.0625 777.4375 C-2.28925073 780.30172335 -5.40556756 783.36333716 -8.5 786.5 C-12.18994588 790.24030338 -15.97503698 793.7823935 -19.97265625 797.19140625 C-23.31743054 800.17528004 -26.41335157 803.40619732 -29.5625 806.59375 C-32.25283906 809.24959753 -35.06573525 811.70135432 -37.9375 814.15625 C-40.38924689 816.34796313 -42.68885573 818.66067104 -45 821 C-48.52106323 824.56400302 -52.13186008 827.90304168 -55.9375 831.15625 C-58.38924689 833.34796313 -60.68885573 835.66067104 -63 838 C-66.51408369 841.55693837 -70.11306234 844.89360501 -73.91796875 848.1328125 C-77.3810385 851.23852984 -80.5765966 854.61021499 -83.80078125 857.9609375 C-86 860 -86 860 -89 861 C-86.1900723 849.49526199 -83.13507409 838.07379142 -79.94921875 826.66796875 C-79.45661379 824.89818113 -78.96420828 823.12833799 -78.47198486 821.35844421 C-77.42389537 817.59123423 -76.37455969 813.82437465 -75.32418823 810.05780029 C-73.66855194 804.12065542 -72.01573425 798.18272837 -70.36352539 792.24462891 C-69.79826508 790.21313434 -69.23300323 788.1816402 -68.66773987 786.15014648 C-68.38559694 785.1361377 -68.10345402 784.12212891 -67.81276131 783.07739258 C-66.94873835 779.97251778 -66.08444046 776.86771962 -65.22007751 773.76293945 C-59.36376717 752.72534161 -53.5311525 731.68119389 -47.7022438 710.63599014 C-46.43863599 706.07392805 -45.17474484 701.51194446 -43.91088867 696.94995117 C-41.606922 688.63339414 -39.30331372 680.3167379 -37 672 C-40.69594525 674.91126645 -44.02215869 677.94597133 -47.3125 681.3125 C-51.0625743 685.11787957 -54.90786746 688.72511397 -58.97265625 692.19140625 C-61.41428634 694.36958492 -63.70048032 696.67248008 -66 699 C-68.89591958 701.93118191 -71.80242571 704.76403174 -74.9375 707.4375 C-78.28925073 710.30172335 -81.40556756 713.36333716 -84.5 716.5 C-88.18994588 720.24030338 -91.97503698 723.7823935 -95.97265625 727.19140625 C-99.31743054 730.17528004 -102.41335157 733.40619732 -105.5625 736.59375 C-108.25283906 739.24959753 -111.06573525 741.70135432 -113.9375 744.15625 C-116.38924689 746.34796313 -118.68885573 748.66067104 -121 751 C-123.89591958 753.93118191 -126.80242571 756.76403174 -129.9375 759.4375 C-133.28925073 762.30172335 -136.40556756 765.36333716 -139.5 768.5 C-143.18994588 772.24030338 -146.97503698 775.7823935 -150.97265625 779.19140625 C-153.41428634 781.36958492 -155.70048032 783.67248008 -158 786 C-160.89591958 788.93118191 -163.80242571 791.76403174 -166.9375 794.4375 C-170.28925073 797.30172335 -173.40556756 800.36333716 -176.5 803.5 C-180.18994588 807.24030338 -183.97503698 810.7823935 -187.97265625 814.19140625 C-191.31743054 817.17528004 -194.41335157 820.40619732 -197.5625 823.59375 C-200.25283906 826.24959753 -203.06573525 828.70135432 -205.9375 831.15625 C-208.38924689 833.34796313 -210.68885573 835.66067104 -213 838 C-215.89591958 840.93118191 -218.80242571 843.76403174 -221.9375 846.4375 C-227.25608128 850.98068236 -232.09830369 856.01720945 -237 861 C-237.66 860.67 -238.32 860.34 -239 860 C-227.33365797 817.43497153 -215.59961246 774.88939602 -203.75 732.375 C-201.45278726 724.13290658 -199.15569947 715.89077845 -196.859375 707.6484375 C-196.57403208 706.62423895 -196.28868916 705.6000404 -195.99469948 704.54480553 C-189.6324895 681.70500199 -183.31374098 658.85324033 -177 636 C-167.92143194 603.14049606 -158.80121614 570.29282541 -149.65106201 537.45318604 C-141.06705666 506.64471123 -132.51729574 475.82698261 -124 445 C-114.92115297 412.14057279 -105.80121634 379.29282611 -96.65106201 346.45318604 C-88.06705666 315.64471123 -79.51729574 284.82698261 -71 254 C-61.64791694 220.1516389 -52.25306746 186.31542011 -42.82440186 152.48831177 C-36.42221696 129.51883071 -30.03843803 106.544462 -23.6953125 83.55859375 C-23.0927295 81.37573788 -22.49012951 79.19288669 -21.88751221 77.01004028 C-19.29545473 67.61978405 -16.70468183 58.22918349 -14.12048531 48.83676052 C-13.07067189 45.02314747 -12.01867569 41.21013879 -10.96618271 37.39726448 C-10.48385496 35.64798028 -10.00247846 33.89843342 -9.52219009 32.14858818 C-6.56074572 21.36035799 -3.41158602 10.65481367 0 0 Z " fill="#F37820" transform="translate(3472,75)"/>
<path d="M0 0 C0.66 0 1.32 0 2 0 C2.30515974 0.61124127 2.61031948 1.22248255 2.92472649 1.85224628 C10.39484115 16.81468551 17.86724612 31.77597852 25.3421154 46.73604298 C28.95704115 53.97102237 32.57122725 61.20636936 36.18359375 68.44262695 C39.33689526 74.75928509 42.49166447 81.07520777 45.64810479 87.39029807 C47.31502334 90.72542414 48.98126842 94.06088234 50.64574814 97.39722633 C56.73377727 109.59926871 62.83620752 121.78667035 69.23587608 133.82924366 C74.88337885 144.49672952 80.21651636 155.32537164 85.59844017 166.12841797 C87.19217233 169.32606916 88.78864229 172.52235287 90.3848877 175.71875 C94.76710964 184.4950943 99.14526218 193.27346693 103.52333832 202.05187988 C107.54480953 210.11516172 111.56720606 218.17797871 115.59287405 226.23916626 C117.17043978 229.39840127 118.74717428 232.55804478 120.3217926 235.71875 C128.51125055 252.16883105 128.51125055 252.16883105 136.98632812 268.47265625 C143.1378329 280.05100253 148.95409141 291.79790011 154.80036926 303.53227615 C156.42213043 306.78598091 158.04662612 310.03831979 159.67089844 313.29077148 C164.13052447 322.22192691 168.58608237 331.15511015 173.04156494 340.08833313 C177.13395101 348.29344123 181.22726063 356.49808542 185.32384109 364.70110035 C186.92935195 367.91622692 188.53403072 371.13176256 190.13659668 374.34835815 C196.94216747 388.00774431 203.82068056 401.61654586 210.990448 415.08894348 C218 428.35784892 218 428.35784892 218 431 C216.6015625 432.375 216.6015625 432.375 214.625 434 C211.25204852 436.86045355 208.10326523 439.84869661 205 443 C201.47893677 446.56400302 197.86813992 449.90304168 194.0625 453.15625 C191.61075311 455.34796313 189.31114427 457.66067104 187 460 C183.47893677 463.56400302 179.86813992 466.90304168 176.0625 470.15625 C173.61075311 472.34796313 171.31114427 474.66067104 169 477 C165.47893677 480.56400302 161.86813992 483.90304168 158.0625 487.15625 C155.61075311 489.34796313 153.31114427 491.66067104 151 494 C148.10408042 496.93118191 145.19757429 499.76403174 142.0625 502.4375 C138.71074927 505.30172335 135.59443244 508.36333716 132.5 511.5 C128.81005412 515.24030338 125.02496302 518.7823935 121.02734375 522.19140625 C117.68256946 525.17528004 114.58664843 528.40619732 111.4375 531.59375 C108.74716094 534.24959753 105.93426475 536.70135432 103.0625 539.15625 C100.61075311 541.34796313 98.31114427 543.66067104 96 546 C92.47893677 549.56400302 88.86813992 552.90304168 85.0625 556.15625 C82.61075311 558.34796313 80.31114427 560.66067104 78 563 C74.47893677 566.56400302 70.86813992 569.90304168 67.0625 573.15625 C64.61075311 575.34796313 62.31114427 577.66067104 60 580 C57.10408042 582.93118191 54.19757429 585.76403174 51.0625 588.4375 C47.71074927 591.30172335 44.59443244 594.36333716 41.5 597.5 C37.81005412 601.24030338 34.02496302 604.7823935 30.02734375 608.19140625 C26.68256946 611.17528004 23.58664843 614.40619732 20.4375 617.59375 C17.74716094 620.24959753 14.93426475 622.70135432 12.0625 625.15625 C9.61075311 627.34796313 7.31114427 629.66067104 5 632 C1.47893677 635.56400302 -2.13186008 638.90304168 -5.9375 642.15625 C-8.38924689 644.34796313 -10.68885573 646.66067104 -13 649 C-16.52106323 652.56400302 -20.13186008 655.90304168 -23.9375 659.15625 C-26.38924689 661.34796313 -28.68885573 663.66067104 -31 666 C-34.52106323 669.56400302 -38.13186008 672.90304168 -41.9375 676.15625 C-44.38924689 678.34796313 -46.68885573 680.66067104 -49 683 C-51.89591958 685.93118191 -54.80242571 688.76403174 -57.9375 691.4375 C-61.28925073 694.30172335 -64.40556756 697.36333716 -67.5 700.5 C-71.18994588 704.24030338 -74.97503698 707.7823935 -78.97265625 711.19140625 C-82.31743054 714.17528004 -85.41335157 717.40619732 -88.5625 720.59375 C-91.25283906 723.24959753 -94.06573525 725.70135432 -96.9375 728.15625 C-99.38924689 730.34796313 -101.68885573 732.66067104 -104 735 C-107.52106323 738.56400302 -111.13186008 741.90304168 -114.9375 745.15625 C-117.38924689 747.34796313 -119.68885573 749.66067104 -122 752 C-125.52106323 755.56400302 -129.13186008 758.90304168 -132.9375 762.15625 C-135.38924689 764.34796313 -137.68885573 766.66067104 -140 769 C-142.89591958 771.93118191 -145.80242571 774.76403174 -148.9375 777.4375 C-152.28925073 780.30172335 -155.40556756 783.36333716 -158.5 786.5 C-162.18994588 790.24030338 -165.97503698 793.7823935 -169.97265625 797.19140625 C-173.31743054 800.17528004 -176.41335157 803.40619732 -179.5625 806.59375 C-182.25283906 809.24959753 -185.06573525 811.70135432 -187.9375 814.15625 C-190.38924689 816.34796313 -192.68885573 818.66067104 -195 821 C-198.52106323 824.56400302 -202.13186008 827.90304168 -205.9375 831.15625 C-208.38924689 833.34796313 -210.68885573 835.66067104 -213 838 C-216.51408369 841.55693837 -220.11306234 844.89360501 -223.91796875 848.1328125 C-227.3810385 851.23852984 -230.5765966 854.61021499 -233.80078125 857.9609375 C-236 860 -236 860 -239 861 C-236.19007117 849.49525739 -233.13495827 838.0738264 -229.94921875 826.66796875 C-229.45674639 824.89841132 -228.96447835 823.12879702 -228.47239685 821.35913086 C-227.15337492 816.61749442 -225.83187969 811.87655107 -224.5096817 807.13579941 C-222.27182477 799.11096468 -220.0368691 791.08532103 -217.80210114 783.05962563 C-217.2266526 780.99310951 -216.65110577 778.92662076 -216.07546234 776.86015892 C-212.07362756 762.49247092 -208.09944278 748.11743919 -204.15104866 733.73497581 C-202.56941782 727.97600691 -200.98407297 722.21805882 -199.39903545 716.46002674 C-197.89231489 710.9843178 -196.39209252 705.50687859 -194.89630604 700.02817345 C-193.96889084 696.63745658 -193.03529109 693.24846579 -192.09996223 689.85992432 C-191.66916512 688.29410591 -191.24099544 686.72756186 -190.81567192 685.1602478 C-190.23574661 683.02437636 -189.64661162 680.89125288 -189.05517578 678.75854492 C-188.72865021 677.56662033 -188.40212463 676.37469574 -188.06570435 675.14665222 C-186.51644297 670.57222519 -184.33953833 667.08208963 -180.92578125 663.6953125 C-180.34473633 663.11555664 -179.76369141 662.53580078 -179.16503906 661.93847656 C-178.55370117 661.3400293 -177.94236328 660.74158203 -177.3125 660.125 C-176.68182617 659.50077148 -176.05115234 658.87654297 -175.40136719 658.23339844 C-171.6876146 654.58080904 -167.89909143 651.06846198 -163.921875 647.703125 C-160.60500353 644.76378362 -157.55107242 641.55779281 -154.4375 638.40625 C-151.74716094 635.75040247 -148.93426475 633.29864568 -146.0625 630.84375 C-143.61075311 628.65203687 -141.31114427 626.33932896 -139 624 C-136.10408042 621.06881809 -133.19757429 618.23596826 -130.0625 615.5625 C-126.71074927 612.69827665 -123.59443244 609.63666284 -120.5 606.5 C-116.81005412 602.75969662 -113.02496302 599.2176065 -109.02734375 595.80859375 C-106.58571366 593.63041508 -104.29951968 591.32751992 -102 589 C-99.10408042 586.06881809 -96.19757429 583.23596826 -93.0625 580.5625 C-89.71074927 577.69827665 -86.59443244 574.63666284 -83.5 571.5 C-79.81005412 567.75969662 -76.02496302 564.2176065 -72.02734375 560.80859375 C-69.58571366 558.63041508 -67.29951968 556.32751992 -65 554 C-62.10408042 551.06881809 -59.19757429 548.23596826 -56.0625 545.5625 C-52.71074927 542.69827665 -49.59443244 539.63666284 -46.5 536.5 C-42.81005412 532.75969662 -39.02496302 529.2176065 -35.02734375 525.80859375 C-31.68256946 522.82471996 -28.58664843 519.59380268 -25.4375 516.40625 C-22.74716094 513.75040247 -19.93426475 511.29864568 -17.0625 508.84375 C-14.61075311 506.65203687 -12.31114427 504.33932896 -10 502 C-7.10408042 499.06881809 -4.19757429 496.23596826 -1.0625 493.5625 C2.28925073 490.69827665 5.40556756 487.63666284 8.5 484.5 C12.18994588 480.75969662 15.97503698 477.2176065 19.97265625 473.80859375 C22.41428634 471.63041508 24.70048032 469.32751992 27 467 C29.89591958 464.06881809 32.80242571 461.23596826 35.9375 458.5625 C39.80301831 455.2592389 43.35491426 451.67454109 46.92236328 448.05810547 C49.63389289 445.32390895 52.3965057 442.70205722 55.3125 440.1875 C55.93640625 439.64609375 56.5603125 439.1046875 57.203125 438.546875 C58.41305116 437.5052864 59.63206095 436.47416778 60.859375 435.453125 C62.79510724 433.80698664 62.79510724 433.80698664 65 431 C64.94688256 424.87597741 61.49589181 419.47300096 58.78515625 414.14453125 C58.25538681 413.08828049 57.72561737 412.03202972 57.17979431 410.94377136 C55.48148199 407.56287139 53.77196554 404.18777181 52.0625 400.8125 C50.94657211 398.59214529 49.83133097 396.37144529 48.71679688 394.15039062 C42.94477169 382.64066462 42.94477169 382.64066462 36.99406433 371.22288513 C28.56965971 355.39887315 20.60740936 339.34435886 12.60217834 323.30575061 C10.48798543 319.07102636 8.37146004 314.83746814 6.25520325 310.60377502 C2.25787621 302.6060339 -1.73741511 294.60727771 -5.73194093 286.60813719 C-10.26551952 277.52977747 -14.8013847 268.45256091 -19.33744204 259.37543952 C-27.0942161 243.85323649 -34.84935925 228.33021961 -42.60246277 212.80618286 C-42.92853413 212.15371924 -43.2546055 211.50125562 -43.59055781 210.82902038 C-44.21390874 209.58008834 -44.83595031 208.33050172 -45.45652699 207.08018887 C-46.80208884 204.37261263 -48.16883579 201.68173609 -49.58579636 199.0106945 C-50.04938679 198.13054743 -50.51297722 197.25040035 -50.99061584 196.34358215 C-51.59198663 195.23177188 -51.59198663 195.23177188 -52.20550632 194.0975008 C-53.80465035 189.8756851 -52.2815082 186.15024634 -51 182 C-50.64699386 180.69705126 -50.29986974 179.39250101 -49.95721436 178.08679199 C-48.66941456 173.20684589 -47.31512943 168.34623874 -45.9609375 163.484375 C-45.44571524 161.62455247 -44.93079489 159.76464628 -44.41615295 157.90466309 C-43.02837672 152.89278638 -41.6360697 147.88217898 -40.24274826 142.87184143 C-39.08241538 138.69738734 -37.92455653 134.52224879 -36.76671505 130.34710312 C-33.45656846 118.41104509 -30.13954134 106.47690727 -26.82000732 94.54345703 C-25.31918063 89.14807561 -23.8193216 83.75242582 -22.31981277 78.35667801 C-18.96060906 66.26919746 -15.59730543 54.18286414 -12.23053741 42.0974884 C-11.43658584 39.24671762 -10.64324645 36.39577706 -9.85003662 33.5447998 C-8.60972918 29.08752156 -7.36729498 24.63084164 -6.12313652 20.17463684 C-5.66769648 18.54221386 -5.21294704 16.90959803 -4.7589283 15.27677917 C-4.14255128 13.06060726 -3.52365082 10.84515597 -2.90405273 8.62988281 C-2.55833725 7.39006653 -2.21262177 6.15025024 -1.85643005 4.87286377 C-1 2 -1 2 0 0 Z " fill="#008C43" transform="translate(3622,75)"/>
</svg>
