<svg width="60" height="60" viewBox="0 0 60 60" fill="none" xmlns="http://www.w3.org/2000/svg">
<g clip-path="url(#clip0_145_396)">
<g clip-path="url(#clip1_145_396)">
<path d="M13.75 33.25H1.25V54.5H13.75V33.25Z" fill="#E6F2F7"/>
<path d="M44.4103 50.8691C43.1224 51.2613 41.7605 50.5353 41.3684 49.2474L40.7079 47.0784C40.3158 45.7905 41.0418 44.4286 42.3297 44.0365L54.0408 40.4703C55.9275 39.8958 57.9228 40.9595 58.4974 42.8463C59.0719 44.7331 58.0082 46.7284 56.1214 47.3029L44.4103 50.8691Z" fill="#E6F2F7"/>
<path d="M40 32C47.5939 32 53.75 25.8439 53.75 18.25C53.75 10.6561 47.5939 4.5 40 4.5C32.4061 4.5 26.25 10.6561 26.25 18.25C26.25 25.8439 32.4061 32 40 32Z" fill="#E6F2F7"/>
<path d="M40.5297 22.4472H36.4714C36.0817 22.4472 35.7656 22.7634 35.7656 23.153C35.7656 23.5427 36.0817 23.8589 36.4714 23.8589H39.131V25.8155C39.131 26.2051 39.4471 26.5212 39.8368 26.5212C40.2265 26.5212 40.5426 26.2051 40.5426 25.8155V23.8576C42.4011 23.8505 43.9116 22.3372 43.9116 20.4765C43.9116 18.6114 42.3944 17.0941 40.5297 17.0941H39.1486C38.0614 17.0941 37.1774 16.21 37.1774 15.1234C37.1774 14.0367 38.0614 13.1526 39.1486 13.1526C39.4542 13.1526 43.3221 13.1526 43.206 13.1526C43.5956 13.1526 43.9118 12.8365 43.9118 12.4467C43.9118 12.0571 43.5956 11.741 43.206 11.741H40.5427V9.78395C40.5427 9.3943 40.2266 9.07812 39.8369 9.07812C39.4472 9.07812 39.1311 9.3943 39.1311 9.78395V11.7427C37.2737 11.7525 35.7658 13.2642 35.7658 15.1234C35.7658 16.9885 37.283 18.5057 39.1486 18.5057H40.5299C41.6161 18.5057 42.5001 19.3899 42.5001 20.4765C42.5001 21.5631 41.616 22.4472 40.5297 22.4472Z" fill="#000815"/>
<path d="M59.2372 41.487C58.3213 40.0691 56.6288 39.4294 55.0539 39.7933L40.0329 42.8811C40.3811 42.2844 40.5448 41.59 40.5448 40.9843C40.5444 38.9016 38.8499 37.2073 36.7668 37.2073C31.2616 37.0505 29.4522 37.6375 27.5681 36.4536C22.8846 34.2681 18.4494 34.1164 14.0451 35.992V33.3875C14.0451 32.9979 13.7288 32.6816 13.3392 32.6816H0.830821C0.441172 32.6816 0.125 32.9979 0.125 33.3875V54.8295C0.125 55.2191 0.441172 55.5354 0.830821 55.5354H13.3393C13.7289 55.5354 14.0451 55.2191 14.0451 54.8295V52.0284L31.9421 54.7316C36.0167 55.3444 40.1807 54.8066 43.9737 53.1543L57.5031 47.2658C59.7528 46.2894 60.5747 43.5318 59.2372 41.487ZM1.53664 54.1236V34.0933H12.6334C12.6334 38.0406 12.6283 33.0564 12.6334 54.1236H1.53664ZM56.9407 45.9713L43.4103 51.8603C39.8732 53.4018 35.9803 53.9118 32.1521 53.3356L14.0451 50.6008V37.5346C18.2482 35.5713 22.4774 35.6365 26.8908 37.6884C29.1441 39.125 31.5786 38.4366 36.7668 38.6189C38.0717 38.6189 39.1331 39.6796 39.1332 40.9841C39.1331 42.2878 38.0727 43.348 36.7696 43.348H26.1676C25.7779 43.348 25.4618 43.6643 25.4618 44.0539C25.4618 44.4435 25.7779 44.7598 26.1676 44.7598C27.3593 44.7599 21.8506 44.7589 37.8227 44.762C37.9606 44.762 37.0044 44.9399 55.3553 41.173C56.4039 40.929 57.4847 41.3751 58.0534 42.2569C58.9157 43.5731 58.3882 45.343 56.9407 45.9713Z" fill="#000815"/>
<path d="M39.8309 32.1339C47.737 32.1339 54.169 25.7055 54.169 17.8035C54.169 9.89726 47.7369 3.46484 39.8309 3.46484C31.9289 3.46484 25.5 9.89738 25.5 17.8035C25.5 25.7055 31.9288 32.1339 39.8309 32.1339ZM39.8309 4.87648C46.9585 4.87648 52.7575 10.6754 52.7575 17.8035C52.7575 24.9271 46.9585 30.7222 39.8309 30.7222C32.7068 30.7222 26.9116 24.9271 26.9116 17.8035C26.9115 10.6753 32.7068 4.87648 39.8309 4.87648Z" fill="#000815"/>
</g>
</g>
<defs>
<clipPath id="clip0_145_396">
<rect width="60" height="60" fill="white"/>
</clipPath>
<clipPath id="clip1_145_396">
<rect width="60" height="60" fill="white"/>
</clipPath>
</defs>
</svg>
