<svg width="31" height="30" viewBox="0 0 31 30" fill="none" xmlns="http://www.w3.org/2000/svg">
<path d="M30.8095 18.6172L31 18.5949H30.8095V11.601C30.8095 8.23189 30.8095 4.7664 30.8285 1.36394C30.8344 1.18168 30.8229 0.999308 30.7943 0.819109C30.7943 0.77463 30.7943 0.737573 30.7943 0.707921C30.7943 0.67827 30.7638 0.611554 30.7447 0.555956L30.7181 0.500351C30.6754 0.417469 30.6202 0.341268 30.5543 0.274269C30.4895 0.221186 30.4207 0.172864 30.3485 0.129714L30.299 0.107477H30.2609L30.2076 0.0889497C30.1555 0.0678686 30.1001 0.0553418 30.0437 0.0518835C29.8759 0.01743 29.7048 4.59885e-05 29.5332 0C21.5671 0.0333575 13.1095 0.0333575 1.25737 0C1.14689 0 1.0326 0 0.918304 0H0.849722C0.786677 0.00415665 0.724179 0.0140793 0.663048 0.0296461V0.0778309H0.510662C0.421822 0.118712 0.340683 0.173843 0.270645 0.240912C0.217398 0.296601 0.170166 0.357453 0.129687 0.42252V0.44106C0.0740089 0.548869 0.0391476 0.665696 0.0268281 0.785753C0.00760331 0.908389 -0.00131841 1.03233 0.000157076 1.15638C0.030635 10.0517 0.030635 19.3176 0.000157076 28.7763C-0.00120834 28.9089 0.00642684 29.0414 0.0230146 29.1729C0.0336004 29.2461 0.0514569 29.3181 0.076345 29.3879V29.4176C0.0983733 29.476 0.129194 29.531 0.167787 29.5806C0.214869 29.6484 0.272732 29.7085 0.339218 29.7585C0.434903 29.8325 0.545091 29.8868 0.663048 29.9179C0.852649 29.9614 1.04757 29.9789 1.24214 29.9698C6.06907 29.9698 10.5036 29.9698 14.66 29.9698C19.9937 29.9698 24.8701 29.9698 29.518 29.9994C29.6931 30.0032 29.8682 29.9883 30.04 29.955C30.2069 29.9318 30.3639 29.8638 30.4933 29.7585L30.5543 29.7141L30.5809 29.6733C30.6991 29.5404 30.7747 29.3768 30.7981 29.2026V29.1433C30.8202 28.9724 30.8291 28.8002 30.8248 28.6281C30.8019 25.2998 30.8057 21.901 30.8095 18.6172ZM28.9884 1.30464L29.1332 1.24904L29.3466 1.16751L29.7542 1.01924L29.0342 2.76496C28.2418 4.69226 27.3998 6.74561 26.5769 8.79893C26.4588 9.08805 26.2912 9.13624 25.9292 9.13624H25.0644C23.8682 9.13624 22.8434 9.13624 21.9366 9.13624C21.6357 9.13624 21.5556 9.08063 21.4947 9.03244C21.4337 8.98425 21.3766 8.92125 21.4109 8.59508C21.4166 8.54089 21.4166 8.48621 21.4109 8.43203V8.34675C21.4109 7.93905 21.3842 7.50912 21.3537 7.09403V7.0236C21.2737 6.0525 21.1937 5.06291 21.5899 4.38836C21.9862 3.71379 22.8891 3.48029 23.8758 3.20973H23.9215C24.3654 3.10054 24.8019 2.96436 25.2283 2.80201C26.0511 2.46473 26.8931 2.13488 27.7656 1.79389L28.5275 1.50478L28.9884 1.30464ZM12.1913 25.1923L13.6467 24.477L15.2239 23.7023C15.3801 23.6245 15.5172 23.7023 15.742 23.7987L15.8258 23.8431C16.744 24.2953 17.6735 24.7475 18.6031 25.1923L19.3384 25.5444H11.4713L12.1913 25.1923ZM10.2217 25.3368V21.1116L14.5572 23.2205L10.2217 25.3368ZM16.2258 23.2242L20.5766 21.1079V25.3368L16.2258 23.2242ZM16.9878 22.1123C16.4684 22.3295 15.911 22.4478 15.3458 22.4607C14.8155 22.4496 14.292 22.3415 13.8028 22.1419C12.4806 21.6656 11.2814 20.9139 10.289 19.9395C9.29663 18.9651 8.5351 17.7915 8.05774 16.5008C7.84281 16.0267 7.73178 15.5142 7.73178 14.996C7.73178 14.4779 7.84281 13.9653 8.05774 13.4912C8.52427 12.155 9.30792 10.9446 10.3451 9.95802C11.3824 8.97147 12.6439 8.23662 14.0276 7.81305C14.3744 7.6893 14.7106 7.53938 15.0334 7.36455L15.4143 7.16441L15.502 7.2126C15.6277 7.27564 15.7382 7.33493 15.8525 7.38679C16.2086 7.58993 16.5836 7.75995 16.9725 7.89461C19.7079 8.7693 21.5442 10.5372 22.7443 13.4542C23.1976 14.5476 23.1862 15.3333 22.7062 16.5675C21.6471 19.2621 19.8375 21.0152 16.9992 22.1049L16.9878 22.1123ZM4.93375 11.9605C5.45191 12.9575 5.9662 13.9619 6.45764 14.9516L6.48432 14.9997V15.0553C6.46342 15.1376 6.4273 15.2154 6.37766 15.2851C6.35087 15.3231 6.32668 15.3627 6.30528 15.4037L6.28623 15.4408C5.90271 16.2043 5.51157 16.9678 5.11282 17.7313L4.56423 18.7951V11.2711L4.93375 11.9605ZM4.71663 9.8886H5.7262C6.75865 9.8886 7.71869 9.8886 8.68256 9.8886C8.73837 9.88452 8.79439 9.88452 8.85016 9.8886L9.08637 9.91455L9.01017 10.1333C8.99559 10.1782 8.97645 10.2217 8.95303 10.263C8.4692 11.1747 8.0006 12.0939 7.42913 13.1984C7.31868 13.4097 7.20819 13.6284 7.0977 13.8434L6.92624 14.1806L6.74338 13.8656L4.71663 9.8886ZM4.8652 19.8403C4.87929 19.8046 4.89582 19.7699 4.91472 19.7365C5.41 18.8062 5.88621 17.8833 6.41574 16.827L6.54911 16.5638L6.76244 16.145L6.93769 15.8151L7.23486 16.4045C7.30341 16.5342 7.3682 16.6639 7.43296 16.7751L7.72248 17.3422C8.10348 18.1057 8.48443 18.8433 8.86543 19.566C8.9143 19.6535 8.95755 19.7439 8.99494 19.8366L9.08258 20.0664L8.83113 20.0849H8.61777C8.15679 20.0663 7.67679 20.0589 7.14722 20.0589H6.19858H5.21569C5.17141 20.0645 5.1266 20.0645 5.08235 20.0589H4.80806L4.8652 19.8403ZM20.6108 8.6136V8.95834L20.3175 8.7693C20.2882 8.74796 20.2562 8.73053 20.2223 8.7174C19.5784 8.40979 18.9574 8.10585 18.3174 7.79081L16.222 6.77156L20.6184 4.63669V5.67818C20.6299 6.69 20.6299 7.64258 20.6223 8.60622L20.6108 8.6136ZM18.5421 4.8294C17.5059 5.33719 16.5535 5.80046 15.6048 6.27488C15.5468 6.3069 15.4811 6.32351 15.4143 6.32306C15.2716 6.30915 15.1337 6.26486 15.0105 6.19335L12.6218 5.01844L11.5094 4.47731H19.2851L18.5421 4.8294ZM13.5286 6.27488C13.7521 6.37868 13.9806 6.48986 14.2143 6.60848L14.5381 6.77528L10.1417 8.91387V7.91314C10.1417 6.90499 10.1417 5.97469 10.1417 5.04806C10.1417 4.98506 10.1417 4.9332 10.1417 4.8924L10.1683 4.6404L10.4084 4.74045L10.5188 4.78864C11.3913 5.226 12.317 5.67818 13.54 6.26749L13.5286 6.27488ZM21.6509 9.94422H26.0283L23.8568 14.1843L21.6509 9.94422ZM23.8339 15.8337L25.9902 20.0441H21.6623L23.8339 15.8337ZM25.5178 17.4756C25.1063 16.6861 24.7101 15.9263 24.3368 15.1739V15.1517C24.3042 15.0265 24.322 14.894 24.3863 14.781C24.8016 13.9471 25.232 13.1169 25.6626 12.2829L26.1959 11.2489V18.7617L25.5178 17.4756ZM28.2113 0.819109L26.1426 1.63823C24.4815 2.29055 22.9157 2.90581 21.3385 3.49142C20.9767 3.59559 20.5988 3.63698 20.2223 3.61371H20.1346C17.0068 3.61371 13.8714 3.61371 10.7512 3.61371C10.0758 3.61971 9.40601 3.49367 8.78161 3.24307C7.4901 2.72418 6.2062 2.22011 4.84232 1.6901L2.55649 0.78945L28.2113 0.819109ZM3.71847 2.04592C5.54712 2.76496 7.27677 3.44323 9.02161 4.11038C9.32641 4.2327 9.37593 4.37355 9.37593 4.74045V5.59665C9.37593 6.48619 9.37593 7.51654 9.37593 8.53208C9.40594 8.70818 9.36502 8.8887 9.26161 9.03615L9.23498 9.0621C9.1073 9.12683 8.96294 9.1539 8.81969 9.13995H8.7854C7.70725 9.10658 6.3891 9.10658 4.89949 9.13995C4.73094 9.16212 4.55991 9.12293 4.41926 9.02989C4.27861 8.93685 4.17826 8.79653 4.13754 8.63588C3.37558 6.72338 2.61364 4.81088 1.7755 2.77977L1.05545 1.00072L3.71847 2.04592ZM0.872589 2.55369L1.70691 4.58479C2.36219 6.18593 3.0162 7.79205 3.66894 9.40309C3.72966 9.59997 3.75417 9.80577 3.74132 10.0109C3.74132 13.3319 3.74132 16.6515 3.74132 19.97C3.7526 20.2135 3.71905 20.457 3.64227 20.689C2.95651 22.3865 2.11837 24.3954 1.23832 26.3894L0.857349 27.2011L0.872589 2.55369ZM1.04783 28.9691L1.76407 27.2197C2.55649 25.2998 3.39844 23.2538 4.22515 21.1968C4.33564 20.9225 4.48042 20.8262 4.84232 20.8262H5.38332C6.52623 20.8262 7.66917 20.8262 8.85016 20.8262C9.00749 20.8037 9.16758 20.8423 9.29591 20.9337C9.32641 20.9596 9.41022 21.0448 9.37972 21.3636C9.37616 21.4216 9.37616 21.4798 9.37972 21.5378V21.5934C9.37972 22.0493 9.41401 22.5163 9.4483 22.9277C9.52829 23.895 9.60832 24.8883 9.21592 25.5666C8.82352 26.2449 7.88632 26.4932 6.89578 26.7712H6.8272C6.40973 26.878 5.99888 27.008 5.59665 27.1604C4.52611 27.6014 3.42892 28.0239 2.30886 28.4539L1.04783 28.9691ZM2.53363 29.2026L3.29558 28.8505C11.3837 25.1775 19.2965 25.1775 27.4798 28.8505L28.2684 29.2026H2.53363ZM26.8245 27.8275C25.0797 27.1455 23.3957 26.4895 21.708 25.8446C21.4642 25.7483 21.4223 25.6222 21.4223 25.296C21.4223 24.9699 21.4223 24.5548 21.4223 24.1582C21.4223 23.2798 21.4223 22.305 21.4033 21.3932C21.3818 21.2456 21.4127 21.0953 21.4909 20.967C21.5612 20.9118 21.6426 20.8714 21.7298 20.8484C21.817 20.8255 21.9082 20.8204 21.9976 20.8336H22.0509C22.9081 20.8336 23.7729 20.8336 24.6149 20.8336H25.815C26.1959 20.8336 26.4169 20.8336 26.5769 21.2042C27.3655 23.1575 28.1503 25.0626 29.0227 27.1678L29.7847 28.9802L26.8245 27.8275ZM29.9371 27.4569L29.5561 26.6786C29.4113 26.3598 29.2627 26.0447 29.1142 25.7334C28.3522 24.1026 27.537 22.4236 27.2474 20.7039C26.6369 16.9472 26.6305 13.121 27.2284 9.36233C27.5293 7.4313 28.4894 5.55956 29.419 3.74716L29.9219 2.7353L29.9371 27.4569Z" fill="#2B5C6B"/>
</svg>
