<svg width="30" height="30" viewBox="0 0 30 30" fill="none" xmlns="http://www.w3.org/2000/svg">
<path d="M15.0003 30C23.2712 30 30 23.2712 30 15.0008C30 6.7305 23.2712 0 15.0003 0C6.72938 0 0 6.72938 0 15.0008C0 23.2723 6.72881 30 15.0003 30ZM8.81794 9.80797L6.95704 14.3011L2.46444 9.80685L8.81794 9.80797ZM2.46388 20.1943L6.95704 15.7006L8.8185 20.1931L2.46388 20.1943ZM9.01481 20.9863V27.8829C5.97375 26.4703 3.53053 24.0273 2.11765 20.9863H9.01481ZM7.52475 15.0014L9.71456 9.71456L15.0003 7.52588L20.2849 9.71456L22.4747 15.0014L20.2849 20.2866L15.0003 22.4736L9.71456 20.2854L7.52475 15.0014ZM14.3006 23.0424L9.80963 27.535V21.1821L14.3006 23.0424ZM15.0003 23.4636L19.8777 28.341C16.7278 29.4921 13.2722 29.4921 10.1223 28.341L15.0003 23.4636ZM20.1926 21.1826V27.535L15.6994 23.0419L20.1926 21.1826ZM23.0452 14.3028L21.1838 9.80854H27.5378L23.0452 14.3028ZM21.1843 20.1948L23.0452 15.7023L27.5378 20.1948H21.1843ZM20.9868 27.884V20.9852H27.8846C26.4708 24.0266 24.0266 26.4698 20.9846 27.8823L20.9868 27.884ZM28.3433 19.8794L23.4664 15.0025L28.3433 10.1245C29.4985 13.2735 29.4985 16.7304 28.3433 19.8794ZM20.9846 9.01481V2.11765C24.0256 3.53071 26.4687 5.97386 27.8818 9.01481H20.9846ZM15.6994 6.9576L20.1926 2.46499V8.81794L15.6994 6.9576ZM15.0003 6.5364L10.1223 1.65955C13.2723 0.508706 16.7277 0.508706 19.8777 1.65955L15.0003 6.5364ZM9.80963 8.81794V2.46499L14.3028 6.9576L9.80963 8.81794ZM9.01706 2.11821V9.01481H2.12045C3.53256 5.97427 5.97476 3.5313 9.01481 2.11821H9.01706ZM1.65899 10.1229L6.53584 15.0008L1.65899 19.8777C0.50286 16.7289 0.50286 13.2717 1.65899 10.1229Z" fill="#2B5C6B"/>
</svg>
