<svg width="28" height="30" viewBox="0 0 28 30" fill="none" xmlns="http://www.w3.org/2000/svg">
<path d="M27.983 8.613L27.9232 8.48482C27.0599 6.68722 25.9749 5.00512 24.6936 3.47788C23.1236 1.65368 21.4768 0.48738 19.7958 0.0302618L19.7105 0.00462839C19.6767 -0.0015428 19.642 -0.0015428 19.6081 0.00462839H8.42605C8.39219 -0.0015428 8.35751 -0.0015428 8.32365 0.00462839C8.28889 0.0123469 8.2547 0.0223365 8.22124 0.0345333C6.54457 0.495926 4.8978 1.65795 3.32776 3.48216C2.04591 5.00745 0.960848 6.68824 0.0981396 8.48482L0.0384111 8.60872C0.013061 8.66666 -1.3642e-05 8.72921 1.38092e-05 8.79243V20.9552C-0.000487237 21.0144 0.0126528 21.0729 0.0384111 21.1261C0.0682755 21.1987 0.0981396 21.2628 0.128004 21.3269L0.187734 21.4551C0.981941 23.2623 2.0402 24.9411 3.32776 26.4364L3.40029 26.5176C5.81504 29.2304 8.04634 29.9652 8.14019 29.9951C8.17977 30.0016 8.22009 30.0016 8.25966 29.9951H19.7617C19.8013 30.0013 19.8416 30.0013 19.8812 29.9951C19.975 29.9652 22.2063 29.2304 24.6211 26.5176L24.668 26.4663C25.9561 24.9698 27.0144 23.2895 27.8081 21.4807L27.872 21.3525C27.9019 21.2884 27.9318 21.2244 27.9616 21.1518C27.9859 21.0982 27.9976 21.0397 27.9958 20.9809V8.79243C28.0043 8.7324 27.9999 8.67124 27.983 8.613ZM27.1766 20.6391L26.7841 20.4298L26.7244 20.3956L26.413 20.2375L26.3063 20.1862L26.0759 20.0709L25.965 20.0154L25.7773 19.9299L25.6621 19.8786L25.5128 19.8103L25.4061 19.7676L25.2738 19.7163C25.2437 19.701 25.2123 19.6881 25.18 19.6779L25.0691 19.6351L24.988 19.6095L24.9155 19.5839L27.2108 16.3029V20.6562L27.1766 20.6391ZM20.0007 29.0595C19.9927 29.0248 19.9827 28.9905 19.9708 28.957C19.9708 28.8801 19.9281 28.8032 19.9025 28.7263C19.8769 28.6494 19.8726 28.6323 19.8556 28.581C19.8385 28.5297 19.8086 28.4315 19.783 28.3588C19.7575 28.2862 19.7532 28.2649 19.7404 28.2179C19.7276 28.1709 19.6849 28.0598 19.6593 27.9786L19.6209 27.8718C19.5825 27.7565 19.5399 27.6454 19.5015 27.5386C19.4588 27.4275 19.4204 27.3207 19.3777 27.2139L19.3521 27.137C19.3223 27.0601 19.2924 26.9875 19.2668 26.9149C19.2508 26.8829 19.2366 26.8501 19.2242 26.8166C19.2242 26.7568 19.1772 26.697 19.1559 26.6415L19.1175 26.5389C19.1175 26.4962 19.0791 26.4492 19.0621 26.4065L19.0364 26.3381H19.0919H19.6977H19.8812L20.4187 26.3638H20.5766L21.2592 26.4022H21.4512L21.9674 26.4364H22.2106L22.7396 26.4748H22.8975L23.4436 26.5176C22.4602 27.5678 21.2934 28.4293 20.0007 29.0595ZM15.1669 28.094L15.0687 28.1922C14.9194 28.3332 14.7744 28.4785 14.6421 28.6195L14.5525 28.7092C14.4288 28.8331 14.3136 28.957 14.1941 29.0809L14.1259 29.1535H13.9254L13.8571 29.0809L13.4987 28.7092L13.4091 28.6195C13.2641 28.47 13.119 28.3247 12.9825 28.1922L12.8801 28.094L12.5217 27.7565L12.4108 27.654L11.9842 27.2652L11.8946 27.2395L11.5234 26.9106L11.421 26.8252L11.0755 26.5304L11.0413 26.5047L10.7 26.2228L10.6147 26.1544L10.4014 25.9836L10.3502 25.9408L14.0278 23.6296L17.6627 25.9579L17.6115 26.0006L17.3982 26.1715L17.3086 26.2399L16.9715 26.5218L16.9417 26.5475L16.5876 26.8123L16.4852 26.8978L16.1097 27.2268L16.0628 27.2652C15.922 27.3891 15.7812 27.5215 15.6362 27.654L15.5252 27.7565L15.1669 28.094ZM8.81854 26.8123L8.78016 26.902C8.75455 26.979 8.72468 27.0516 8.69482 27.1285L8.66495 27.2054C8.62657 27.3122 8.5839 27.419 8.54548 27.5301C8.50285 27.6369 8.46443 27.7479 8.42605 27.8633L8.38764 27.9701C8.36207 28.0513 8.3322 28.1282 8.30659 28.2136C8.28098 28.299 8.27672 28.299 8.25966 28.3461C8.2426 28.393 8.21273 28.4956 8.18712 28.5725C8.16155 28.6494 8.15726 28.6707 8.14445 28.7177C8.13168 28.7647 8.09752 28.8715 8.07195 28.9484C8.06396 28.9831 8.05399 29.0174 8.04208 29.0509C6.75606 28.439 5.58999 27.6013 4.59913 26.5774L5.1495 26.5347H5.30309L5.8321 26.4962H6.07954L6.59153 26.462H6.78776L7.4704 26.4236H7.62824C7.80744 26.4236 7.99086 26.4022 8.1658 26.3979H8.34926H8.95081H9.01055L8.98493 26.4663L8.92946 26.5987C8.9171 26.6337 8.90284 26.6679 8.88682 26.7013C8.86547 26.6927 8.8399 26.7525 8.81854 26.8123ZM3.2723 25.0479C2.4247 23.9315 1.69952 22.7269 1.10927 21.4551L1.5359 21.2286L1.87721 21.0492L1.98387 20.998L2.19718 20.8911L2.30811 20.8356L2.48303 20.7544L2.58542 20.7032L2.74327 20.6348L2.8286 20.5964L3.02912 20.5152L3.09311 20.4896L3.20831 20.4468L3.27657 20.4212L3.3619 20.4041H3.39176L3.32776 22.6043L3.2723 25.0479ZM0.849016 20.6391H0.82342V16.3029L2.32517 18.4389L3.11871 19.5711H3.05045L2.96512 19.6009L2.84566 19.648L2.76034 19.6779L2.60675 19.7419L2.52569 19.7761L2.33797 19.8573L2.26117 19.8915L2.03506 19.9983L1.96253 20.0325L1.69802 20.1649L1.62549 20.1991L1.30978 20.3614L1.25005 20.3956L0.849016 20.6391ZM8.05489 0.96159C8.0643 1.0006 8.07568 1.03909 8.08901 1.07694L8.153 1.29054C8.153 1.34181 8.18287 1.39308 8.19993 1.44434C8.21699 1.49561 8.24686 1.58532 8.26817 1.65368L8.31939 1.80747C8.31939 1.87583 8.36632 1.94418 8.38764 2.01681L8.43886 2.15352C8.46443 2.23469 8.4943 2.31159 8.52417 2.39276C8.55403 2.47393 8.52417 2.45257 8.55403 2.48674C8.59671 2.58928 8.63509 2.69181 8.66924 2.79007L8.71617 2.90542C8.73749 2.9695 8.7631 3.02931 8.78442 3.08912C8.80573 3.14893 8.81854 3.17029 8.83135 3.21301C8.84415 3.25573 8.86976 3.31127 8.89108 3.35826C8.9124 3.40525 8.92095 3.43944 8.93801 3.47788L8.98919 3.5975L9.0148 3.66586H8.93801H8.33646H8.1658L7.58131 3.64022H7.4661L6.73232 3.5975H6.64697L6.00275 3.55478H5.82784L5.18788 3.50779H5.11108L4.50953 3.4608C5.47754 2.35895 6.69252 1.50248 8.05489 0.96159ZM12.8673 1.88437L12.9612 1.79893C13.1062 1.65368 13.2555 1.50843 13.3878 1.37172L13.4731 1.28627C13.5969 1.16238 13.7163 1.03422 13.8358 0.906052L13.904 0.837697H14.1046L14.16 0.893235C14.2837 1.02994 14.4117 1.16238 14.544 1.29482L14.6123 1.36744C14.7616 1.51697 14.9109 1.66649 15.0645 1.79466L15.1498 1.8801C15.2721 1.99972 15.3958 2.11507 15.521 2.22615L15.6319 2.32867C15.7769 2.46111 15.9177 2.59355 16.0586 2.71744L16.1012 2.75589L16.4809 3.08485L16.579 3.17029L16.9502 3.48216L17.3128 3.77692L17.3555 3.8154L17.6499 4.05034L14.0278 6.37012L10.38 4.05889L10.6701 3.82391L10.7171 3.78547L11.0797 3.4907L11.4552 3.17029L11.5447 3.09339C11.6727 2.98231 11.805 2.87124 11.9373 2.75162L11.9714 2.72171L12.398 2.33295L12.5004 2.23469L12.8673 1.88437ZM19.1986 3.21301L19.2498 3.08912C19.2498 3.02931 19.2924 2.9695 19.318 2.90542C19.3436 2.84133 19.3479 2.83279 19.3607 2.79007L19.4759 2.48674C19.4759 2.45257 19.4759 2.42266 19.51 2.39276L19.5953 2.15352L19.6423 2.01681C19.6679 1.94845 19.6892 1.87583 19.7148 1.8032L19.766 1.65368L19.83 1.44434L19.8812 1.29054L19.9452 1.07694C19.9546 1.03793 19.966 0.999431 19.9793 0.96159C21.3334 1.48921 22.5459 2.32595 23.5204 3.40526L22.9188 3.45225H22.8463L22.2063 3.49924H22.0314L21.3872 3.54196H21.2806L20.5467 3.58469H20.4316L19.8471 3.61032H19.6764H19.0706H18.998L19.0236 3.54196C19.0236 3.50352 19.0578 3.4608 19.0706 3.42235L19.1474 3.35826L19.1986 3.21301ZM23.4905 25.7486L23.1321 25.7187L22.8079 25.693L22.3045 25.6589H22.0869L21.3573 25.6119H21.1653L20.6278 25.582H20.3633H19.9366H19.6551H19.254H18.8829L19.493 21.5619L23.8403 20.4041V20.4426L23.9939 25.7956H23.883L23.4905 25.7486ZM8.78867 25.4965H8.39193H8.10607H7.67943H7.41492L6.8731 25.5264H6.68539L5.9217 25.6418H5.69986L5.19642 25.6759L4.87218 25.7016L4.51382 25.7315L4.13836 25.7614H4.0317L4.21516 20.434V20.4041L7.93542 21.3226L8.56258 21.4764L8.69056 22.3009L9.16413 25.488H8.78867V25.4965ZM4.42848 4.24687L4.92337 4.28531H5.15801L5.72118 4.32379H5.90038L6.66403 4.37505H6.72802L7.39786 4.40921H7.61118H8.12739H8.34926H8.8399H9.16413L8.68631 7.54923L8.54978 8.42929L7.50878 8.68563L4.21516 9.60412L4.18529 8.6301L4.04876 4.21267H4.2109L4.42848 4.24687ZM19.1858 4.50319H19.6721H19.8982H20.4145H20.6278L21.2806 4.40921H21.3488L22.1338 4.35367H22.313L22.8804 4.31524H23.1108L23.6057 4.27676H23.8275H23.9897L23.8403 8.6301V9.60412L19.4887 8.53185L18.8615 4.51174H19.1858V4.50319ZM22.9359 11.6932L21.7072 14.0344L20.6491 11.501L19.7958 9.48026L23.5929 10.4158L22.9359 11.6932ZM9.82113 24.3858L9.42009 21.7755L13.0934 23.2237L9.94485 25.2188L9.82113 24.3858ZM4.55646 19.319L6.31848 15.9654L8.21699 20.5195L4.41993 19.5839L4.55646 19.319ZM4.41993 10.4158L8.21699 9.48026L7.40637 11.4326L6.31848 14.0429L5.03858 11.6035L4.41993 10.4158ZM9.9662 4.78087L13.1147 6.77599L10.0473 7.98499L9.44145 8.22423L9.73156 6.34024L9.9662 4.78087ZM9.21532 20.7929L6.80482 14.9998L9.21532 9.20685L14.0278 7.31426L17.539 8.69846L18.8189 9.20685L21.2293 14.9998L20.3291 17.1658L18.8189 20.7929L17.6968 21.2201L14.0278 22.6854L13.5627 22.5018L9.21532 20.7929ZM18.1277 21.9634L18.6013 21.7755L18.0765 25.2188L14.9322 23.2237L18.1277 21.9634ZM18.0765 4.78087L18.6013 8.22423L14.9322 6.77599L17.3982 5.21239L18.0765 4.78087ZM19.8086 20.5195L21.2806 16.9437L21.7072 15.9654L23.3113 19.0242L23.6057 19.5839L19.8086 20.5195ZM0.908745 14.9998L3.65627 11.0695L3.75868 10.9242L5.89183 14.9998L3.75868 19.0755L1.54016 15.9013L0.908745 14.9998ZM24.267 19.0755L23.947 18.4646L22.1338 14.9998L24.267 10.9242L26.1655 13.6413L27.1169 14.9998L24.267 19.0755ZM27.215 9.34353V13.7011L26.3148 12.4195L24.9197 10.4287L25.0221 10.3902H25.0819L25.2184 10.3389L25.2909 10.309L25.4573 10.245L25.5298 10.2108L25.7901 10.0997C25.9863 10.01 26.2167 9.90746 26.4471 9.78356L26.5154 9.74512L26.8268 9.58278L26.9335 9.52725L27.215 9.34353ZM27.0017 8.4891L26.5751 8.71552L26.5324 8.74117L26.2039 8.91206L26.1058 8.96332L25.8626 9.08722L25.7687 9.12993L25.5554 9.23246L25.4829 9.26662L25.2525 9.36918L25.0306 9.45888H24.9965L24.8429 9.5187H24.7917L24.6808 9.55713L24.8131 4.8108C25.67 5.94506 26.4225 7.15474 27.0614 8.42501L27.0017 8.4891ZM19.1474 0.884692L19.0706 1.1282L19.0322 1.24355C19.0023 1.34608 18.9682 1.44434 18.934 1.5426C18.9359 1.55964 18.9359 1.57683 18.934 1.59387L18.8189 1.93564L18.7634 2.0339C18.7378 2.1108 18.708 2.18769 18.6823 2.26032L18.6354 2.38421C18.6354 2.4483 18.5885 2.5081 18.5671 2.57219C18.5458 2.63627 18.533 2.65336 18.5202 2.69181L18.4562 2.85415C18.4562 2.89687 18.4263 2.93532 18.4093 2.97377C18.3922 3.01222 18.3709 3.07203 18.3496 3.11902L18.3112 3.22155L18.2258 3.42235H18.2003L17.9954 3.25573L17.9016 3.17883L17.7267 3.03785L17.5987 2.93105L17.4067 2.76871L17.2787 2.66617L16.9843 2.41412L16.9331 2.36712L16.5876 2.0339L16.4724 1.92709L16.1609 1.70067L16.0287 1.57678L15.7556 1.32045C15.7123 1.28278 15.671 1.24285 15.6319 1.20083C15.5167 1.09402 15.4015 0.978678 15.2863 0.863329L15.2437 0.82488H19.1474C19.1455 0.84477 19.1455 0.864798 19.1474 0.884692ZM12.7478 0.841968L12.3767 1.2051L12.2615 1.31618C12.1676 1.40589 12.0738 1.49561 11.9756 1.58105L11.8562 1.6964L11.5618 1.957L11.4679 2.0339C11.212 2.26032 10.9645 2.46111 10.7384 2.66617L10.6531 2.7388L10.4099 2.93959L10.3203 3.01222L10.1027 3.19165L10.0387 3.23864L9.82113 3.41808L9.72727 3.19592C9.72727 3.19592 9.72727 3.15747 9.70595 3.13611L9.62916 2.95241C9.6168 2.91609 9.60254 2.88045 9.58649 2.8456L9.5225 2.67472C9.50428 2.63444 9.48864 2.59306 9.47557 2.55083C9.44996 2.49102 9.42864 2.43121 9.40729 2.3714C9.38597 2.31159 9.37316 2.28595 9.36036 2.24323C9.34759 2.20051 9.30492 2.09798 9.27931 2.02108L9.24093 1.91855C9.20251 1.80747 9.16413 1.69213 9.12146 1.57678V1.52124C9.08734 1.42298 9.05747 1.32472 9.02335 1.22646C9.02335 1.19229 9.02335 1.15383 8.98919 1.11538L8.9124 0.867603C8.9124 0.84624 8.9124 0.82488 8.9124 0.807791H12.7478V0.841968ZM3.31923 7.16047L3.38749 9.61267H3.34909L3.26377 9.58278L3.19551 9.55713L3.05898 9.50587H3.01632L2.79447 9.41617H2.77314L2.54276 9.29655L2.47449 9.26662L2.24838 9.15982L2.16732 9.11711L1.90707 8.98894L1.82601 8.94622L1.46764 8.75827L1.041 8.52757H1.01967C1.65667 7.25715 2.4078 6.0474 3.26377 4.91332L3.31923 7.16047ZM1.18606 9.5358L1.44204 9.66821L1.56576 9.7323L1.87721 9.89036H1.90707C2.12465 9.99716 2.33371 10.0826 2.48729 10.1595H2.53422L2.72621 10.2407H2.78167L2.93526 10.3005H2.98646L3.09738 10.3389L1.70229 12.3298L0.802088 13.6114V9.34353L1.041 9.47171L1.18606 9.5358ZM8.86547 29.115C8.89108 29.0296 8.91669 28.9441 8.94656 28.8587L8.97639 28.7519C9.0148 28.6408 9.04892 28.534 9.08734 28.4272C9.08734 28.393 9.10866 28.3631 9.11721 28.3332C9.12572 28.3033 9.1769 28.1538 9.21106 28.0684L9.26225 27.9231L9.32624 27.7394C9.34729 27.692 9.36581 27.6435 9.38171 27.5941L9.4457 27.4275L9.49689 27.2951L9.56088 27.1327C9.56088 27.0943 9.59074 27.0559 9.60355 27.0217C9.61635 26.9875 9.66328 26.8764 9.68889 26.8081V26.7782L9.78275 26.5475L9.81687 26.5774C9.8766 26.6201 9.93634 26.6714 10.0046 26.7269L10.1198 26.8209L10.2734 26.9448L10.4184 27.0644L10.5806 27.2011L10.7384 27.3293L10.956 27.5172L11.1437 27.6796L11.4253 27.9274L11.5789 28.0684L11.8093 28.2734L11.9714 28.4229L12.2146 28.6494L12.3596 28.7904L12.6753 29.0979L12.7393 29.162H8.86121L8.86547 29.115ZM15.3162 29.115L15.6319 28.8032L15.7769 28.6665L16.0287 28.4315L16.1823 28.2905L16.4212 28.0726L16.5662 27.9445L16.8734 27.6711L17.0185 27.5472L17.2574 27.3421L17.4067 27.2182L17.5816 27.0729L17.7181 26.9576L17.8675 26.8123L17.9826 26.7226C18.0467 26.6671 18.1107 26.6158 18.1704 26.5731L18.2045 26.5432L18.2984 26.7739C18.2984 26.7739 18.2984 26.7739 18.2984 26.7995C18.2984 26.8252 18.3581 26.9448 18.388 27.0217C18.4178 27.0986 18.4135 27.09 18.4306 27.1242L18.4946 27.2951L18.5458 27.4233L18.6098 27.5984L18.661 27.7309C18.661 27.7992 18.708 27.8633 18.7335 27.9316C18.7591 28 18.7634 28.0171 18.7805 28.0598C18.7975 28.1025 18.8487 28.2649 18.8871 28.3717C18.8871 28.3717 18.8871 28.3717 18.8871 28.3973L19.0023 28.7476L19.0364 28.8502L19.1132 29.1108C19.115 29.1264 19.115 29.1421 19.1132 29.1577H15.2607L15.3162 29.115ZM24.6382 20.3742H24.668L24.7491 20.3998L24.8216 20.4255L24.9368 20.4682L25.0008 20.4939L25.2013 20.5793L25.2824 20.6134L25.4445 20.6861L25.5426 20.7288L25.7218 20.8143L25.8285 20.8698L26.0503 20.9766L26.1484 21.0279L26.4983 21.2116L26.9249 21.438C26.3314 22.7081 25.6064 23.9123 24.7619 25.0309L24.6382 20.3742Z" fill="#2B5C6B"/>
</svg>
