<svg width="31" height="30" viewBox="0 0 31 30" fill="none" xmlns="http://www.w3.org/2000/svg">
<path d="M30.8035 7.23443C30.5621 5.9403 30.0603 4.70801 29.328 3.61158C28.5958 2.51514 27.6482 1.57718 26.5423 0.854003C25.4235 0.307404 24.1964 0.0156651 22.95 0C22.2006 0.0021995 21.4558 0.117087 20.7409 0.340776C18.0405 1.16194 16.2402 3.36266 15.5094 4.39733C14.7868 3.36266 12.9824 1.17836 10.282 0.340776C9.56713 0.117087 8.82233 0.0021995 8.07293 0C6.81554 0.0167762 5.57799 0.314243 4.45171 0.870428C3.35309 1.59473 2.41223 2.53141 1.68513 3.62472C0.958039 4.71803 0.459579 5.94563 0.219418 7.23443C-0.0119783 8.42187 -0.0607025 9.63735 0.0749039 10.8393C0.0354754 10.8999 0.0128019 10.9698 0.00917732 11.0419C0.00555274 11.114 0.0211041 11.1857 0.0542572 11.2499C0.0762184 11.2894 0.105662 11.3243 0.140964 11.3526C0.636452 14.8343 2.48215 18.6978 5.67394 22.8981C7.44117 25.222 14.9809 29.7753 15.3029 29.9683L15.369 29.997H15.3979H15.4928C15.5258 30.001 15.559 30.001 15.592 29.997H15.6167L15.6828 29.9683C16.0049 29.7753 23.528 25.222 25.3118 22.8981C28.5036 18.6978 30.3493 14.8343 30.8448 11.3526C30.8791 11.3233 30.9084 11.2886 30.9315 11.2499C30.9646 11.1857 30.9802 11.114 30.9765 11.0419C30.9729 10.9698 30.9503 10.8999 30.9108 10.8393C31.0587 9.63923 31.0225 8.42374 30.8035 7.23443ZM30.1552 10.3384L28.0907 9.1929L29.4904 5.71526C29.7115 6.25965 29.8815 6.82316 29.9983 7.39868C30.1843 8.367 30.2371 9.35595 30.1552 10.3384ZM29.6391 13.2125L28.4004 10.3138L30.052 11.2253C29.9616 11.9006 29.8236 12.5687 29.6391 13.2248V13.2125ZM19.7953 26.3511L18.9324 25.6038L22.5288 24.3721C21.6947 25.0495 20.7368 25.7311 19.7953 26.3716V26.3511ZM8.48583 24.3762L12.0822 25.6079L11.2193 26.3593C10.2779 25.7311 9.31988 25.0495 8.48583 24.3967V24.3762ZM0.97504 11.2335L2.62667 10.322L1.38795 13.2207C1.204 12.5687 1.06603 11.9046 0.97504 11.2335ZM15.9429 5.6742L17.4666 6.015L15.9223 7.12766L15.9429 5.6742ZM15.1171 7.11537L13.5935 6.015L15.1171 5.6742V7.11537ZM15.2906 8.26909C15.2906 8.26909 15.2906 8.26909 15.3112 8.26909L15.3442 8.2896H15.3649C15.4164 8.3166 15.4738 8.3307 15.5321 8.3307C15.5903 8.3307 15.6477 8.3166 15.6993 8.2896L15.7323 8.26909L18.5112 6.26138L23.0243 7.39455V13.4342L19.8697 18.3242L15.5052 21.9086L11.1284 18.3489L7.99448 13.4383V7.39868L12.5075 6.26546L15.2906 8.26909ZM27.3516 8.77001L23.8707 6.81563V2.90691L28.9124 4.88179L27.3516 8.77001ZM17.9373 24.5979L16.0998 22.4629L19.4031 19.7736L17.9373 24.5979ZM13.0773 24.5979L11.6074 19.7736L14.9107 22.4629L13.0773 24.5979ZM7.14387 12.5268L4.12965 9.45979L7.14387 7.7682V12.5268ZM7.6311 14.4196L9.93512 17.9916L6.38415 17.2814L7.6311 14.4196ZM10.4926 18.936L12.2681 24.7703L6.96218 22.9679L6.28914 18.0943L10.4926 18.936ZM15.5052 23.0418L17.5987 25.4765L15.5052 28.8228L13.4159 25.4765L15.5052 23.0418ZM20.5221 18.936L24.7214 18.1148L24.0524 22.9884L18.73 24.8032L20.5221 18.936ZM21.0795 17.9752L23.3835 14.4032L24.6222 17.2772L21.0795 17.9752ZM23.8707 7.75174L26.885 9.44337L23.8707 12.5104V7.75174ZM23.0449 3.07936V6.50771L19.432 5.60033L23.0449 3.07936ZM7.99448 6.54056V3.1122L11.6074 5.63318L7.99448 6.54056ZM7.16863 6.83205L3.66306 8.77001L2.10228 4.88179L7.14387 2.90691L7.16863 6.83205ZM3.61765 10.1167L7.09019 13.6518L5.64502 16.9693L1.85866 14.2718L3.61765 10.1167ZM12.8337 26.0924L14.2294 28.326C13.5894 27.9154 12.7966 27.4104 11.9584 26.852L12.8337 26.0924ZM18.2346 26.0924L19.1058 26.852C18.28 27.4104 17.4542 27.9195 16.8348 28.326L18.2346 26.0924ZM25.3903 16.9816L23.9492 13.6641L27.4218 10.129L29.1807 14.2841L25.3903 16.9816ZM28.4458 3.84304L24.358 2.24177L25.6463 1.39597C25.8197 1.46166 25.989 1.53146 26.1582 1.61358C27.0598 2.20116 27.8369 2.95855 28.4458 3.84304ZM24.6305 1.0675L23.4455 1.8435L21.9342 0.940223C22.2699 0.883977 22.6096 0.855143 22.95 0.854003C23.5159 0.850035 24.0803 0.914839 24.6305 1.04698V1.0675ZM20.7946 1.22352L22.6898 2.36084L18.3502 5.3868L16.1865 4.90643C16.8348 3.97031 18.4451 2.02005 20.7946 1.203V1.22352ZM14.8281 4.91876L12.6603 5.39914L8.32066 2.37316L10.2159 1.23584C12.5654 2.02005 14.1881 3.97031 14.8281 4.88591V4.91876ZM9.08043 0.952538L7.56918 1.85582L6.38415 1.07982C6.93349 0.941003 7.49784 0.869314 8.06465 0.866322C8.40413 0.856774 8.74385 0.874624 9.08043 0.919699V0.952538ZM4.82745 1.63821C5.00502 1.5561 5.18668 1.47809 5.36837 1.40829L6.65664 2.25408L2.57299 3.85125C3.17746 2.96969 3.94203 2.20803 4.82745 1.60536V1.63821ZM1.02046 7.45204C1.13864 6.87109 1.31003 6.30214 1.53247 5.75224L2.93222 9.22575L0.867686 10.3713C0.783525 9.3849 0.834924 8.39175 1.02046 7.41919V7.45204ZM2.21376 15.5569L5.42205 17.8397L5.98772 21.9455C4.48502 19.9686 3.21854 17.8247 2.21376 15.5569ZM25.0434 21.9332L25.6091 17.8274L28.8174 15.5446C27.8109 17.8132 26.5416 19.9572 25.0351 21.9332H25.0434Z" fill="#2B5C6B"/>
</svg>
