<svg width="20" height="30" viewBox="0 0 20 30" fill="none" xmlns="http://www.w3.org/2000/svg">
<path d="M9.98149 30H10.0118C11.5459 29.9786 13.0327 29.48 14.2545 28.5772H14.2915C14.2915 28.5772 14.3117 28.5543 14.3252 28.5444C15.6189 27.5721 16.6946 26.3528 17.4861 24.9612C17.5093 24.9302 17.5275 24.8959 17.54 24.8596C18.309 23.5126 18.8957 22.0747 19.2856 20.5813C20.2381 16.9392 20.2381 13.123 19.2856 9.48094C18.8951 7.98784 18.3084 6.5499 17.54 5.20271C17.5268 5.16664 17.5087 5.13247 17.4861 5.10109C16.6947 3.70943 15.619 2.49001 14.3252 1.51787L14.2915 1.48508H14.2545C13.04 0.56121 11.5529 0.0406819 10.0118 0H9.97815C8.44584 0.0230453 6.96142 0.522806 5.74227 1.42608H5.70857L5.67823 1.45558C4.38146 2.42787 3.30339 3.64851 2.5106 5.04206C2.48799 5.07461 2.46986 5.10986 2.45668 5.14699C1.7041 6.46613 1.12661 7.87282 0.738069 9.33341C0.725557 9.35925 0.717584 9.38696 0.71448 9.41535C0.235045 11.2362 -0.00500569 13.1089 7.91114e-05 14.9885C-0.00500569 16.8682 0.235045 18.7409 0.71448 20.5617C0.717177 20.5902 0.725169 20.618 0.738069 20.6436C1.12661 22.1042 1.7041 23.5109 2.45668 24.8301C2.46916 24.8675 2.48734 24.9029 2.5106 24.935C3.30441 26.3279 4.38231 27.5483 5.67823 28.5215C5.67823 28.5215 5.67823 28.5444 5.70857 28.551H5.73888C6.95965 29.4537 8.44496 29.9533 9.97815 29.977L9.98149 30ZM6.32188 28.2035L7.7945 25.9086L9.47938 29.328C8.34546 29.2217 7.25838 28.8345 6.32188 28.2035ZM1.39519 20.6863L2.97563 19.8372L2.54429 23.6827C2.06951 22.7195 1.68491 21.7166 1.39519 20.6863ZM2.54429 6.31736L2.97563 10.1628L1.39519 9.31372C1.68491 8.28337 2.06951 7.28055 2.54429 6.31736ZM9.4693 0.668782L7.78438 4.08806L6.31177 1.79325C7.24765 1.16103 8.33503 0.773786 9.4693 0.668782ZM13.6748 1.79981L12.2022 4.09462L10.5173 0.675345C11.6513 0.781215 12.7385 1.16838 13.6748 1.79981ZM18.6015 9.31372L17.0211 10.1628L17.4558 6.31736C17.9295 7.28062 18.3129 8.28349 18.6015 9.31372ZM17.4558 23.6827L17.0211 19.8372L18.6015 20.6863C18.3129 21.7165 17.9295 22.7194 17.4558 23.6827ZM10.5274 29.3312L12.2123 25.9119L13.685 28.2068C12.7493 28.8395 11.6618 29.2268 10.5274 29.3312ZM4.54934 16.1819L5.7928 20.4797L3.73721 19.1225L4.54934 16.1819ZM3.73721 10.8742L5.7928 9.51371L4.54934 13.8247L3.73721 10.8742ZM15.4507 13.8247L14.2073 9.52684L16.2628 10.8873L15.4507 13.8247ZM16.2628 19.129L14.2073 20.4863L15.4507 16.1884L16.2628 19.129ZM6.642 21.0371L4.88969 14.9918L6.642 8.95639L10.0118 6.25834L13.3816 8.95639L15.1306 14.9984L13.3816 21.0371L10.0118 23.7351L6.642 21.0371ZM10.6083 24.0859L12.9671 22.2041L12.0068 24.8006L10.6083 24.0859ZM15.8079 14.9918L16.7515 11.4741L19.2822 14.9984L16.7515 18.5259L15.8079 14.9918ZM10.5915 5.90756L11.9899 5.19289L12.9503 7.78931L10.5915 5.90756ZM11.7338 4.59623L10.0118 5.48464L8.27638 4.59949L10.0118 1.05562L11.7338 4.59623ZM9.40526 5.90756L7.04638 7.79261L8.01015 5.19289L9.40526 5.90756ZM4.20561 14.9984L3.23511 18.5259L0.704373 14.9984L3.23511 11.4741L4.20561 14.9984ZM9.40526 24.0924L8.01015 24.8071L7.04638 22.2107L9.40526 24.0924ZM8.26288 25.4038L10.0118 24.5154L11.7473 25.4038L10.0118 28.9444L8.26288 25.4038ZM13.9175 21.4468L16.3741 19.8077L16.893 24.4301L12.647 24.8727L13.9175 21.4468ZM17.1087 19.152L19.3429 16.0376C19.2861 17.3909 19.0954 18.7358 18.7734 20.0535L17.1087 19.152ZM17.1087 10.8513L18.7734 9.95629C19.0959 11.2707 19.2878 12.6123 19.3463 13.9624L17.1087 10.8513ZM16.3741 10.1792L13.9175 8.54006L12.647 5.10435L16.893 5.54366L16.3741 10.1792ZM6.07923 8.54006L3.62601 10.1792L3.10369 5.55679L7.35303 5.11748L6.07923 8.54006ZM2.88802 10.8349L0.657196 13.946C0.71625 12.5961 0.906942 11.2547 1.2267 9.9399L2.88802 10.8349ZM2.88802 19.1356L1.2267 20.0535C0.906942 18.7387 0.71625 17.3973 0.657196 16.0474L2.88802 19.1356ZM3.62601 19.7913L6.07923 21.4305L7.35303 24.8694L3.10369 24.4432L3.62601 19.7913ZM14.2005 27.7969L12.7212 25.5021L16.6369 25.0989C15.9877 26.1345 15.1641 27.0566 14.2005 27.8265V27.7969ZM16.6369 4.84864L12.7077 4.47491L14.187 2.1801C15.1545 2.93956 15.9829 3.85294 16.6369 4.88145V4.84864ZM5.79619 2.14403L7.27888 4.43888L3.35979 4.84538C4.01384 3.83032 4.83727 2.92844 5.79619 2.17682V2.14403ZM3.35979 25.0923L7.27888 25.4956L5.79619 27.7904C4.83877 27.0372 4.01561 26.1356 3.35979 25.1218V25.0923Z" fill="#2B5C6B"/>
</svg>
