<svg width="19" height="30" viewBox="0 0 19 30" fill="none" xmlns="http://www.w3.org/2000/svg">
<path d="M18.9742 20.3826C18.9742 20.279 18.9979 20.2153 18.9979 20.2073C19.0071 19.0843 18.9292 17.9623 18.7649 16.8516C18.7649 16.8516 18.7649 16.8198 18.7649 16.8078C18.3963 14.4273 17.6957 12.1114 16.6839 9.92913C16.6745 9.85492 16.6428 9.7854 16.5931 9.72986C15.6629 7.74547 14.5398 5.85915 13.2405 4.0986C13.2285 4.0695 13.2139 4.04152 13.1971 4.0149C13.1971 3.99499 13.1616 3.98302 13.1458 3.96709C12.1261 2.56875 10.9899 1.26079 9.74979 0.0574841C9.73545 0.0458674 9.71951 0.0364686 9.70241 0.0295898C9.69369 0.0184057 9.68296 0.00894487 9.67081 0.00168963H9.63922C9.62089 -0.000563211 9.6023 -0.000563211 9.58394 0.00168963H9.5247H9.49706H9.43786H9.37862H9.35098H9.32729C9.32729 0.00168963 9.32729 0.0216192 9.29964 0.0295898C9.28254 0.0364686 9.2666 0.0458674 9.25225 0.0574841C8.01424 1.25911 6.88072 2.56578 5.86418 3.96311C5.84175 3.97699 5.82175 3.9945 5.80495 4.0149C5.78528 4.04325 5.76933 4.07407 5.75756 4.10659C4.46526 5.86039 3.34759 7.73857 2.4208 9.71392C2.36698 9.77655 2.33385 9.85458 2.32603 9.93712C1.32423 12.1081 0.629049 14.4101 0.260804 16.7759C0.246969 16.8183 0.240294 16.8628 0.241059 16.9074C0.0814392 18.0079 0.00618544 19.1191 0.015974 20.2312C0.015974 20.2312 0.015974 20.287 0.015974 20.3747C-0.000359886 20.4309 -0.00422626 20.49 0.00464622 20.5478C0.0135187 20.6057 0.034914 20.6609 0.0673103 20.7094C0.255989 21.8175 0.564527 22.9014 0.987385 23.9415C0.987385 23.9415 0.987385 23.9694 0.987385 23.9854C1.00358 24.0374 1.02901 24.086 1.06241 24.1288C1.51863 25.2215 2.13933 26.2364 2.90256 27.1378C2.93515 27.1991 2.98104 27.2523 3.03682 27.2932C3.78137 28.1213 4.68574 28.7872 5.69437 29.25L5.72992 29.2779H5.76941C6.90263 29.7694 8.12552 30.0151 9.35888 29.9992H9.66292C10.8963 30.0155 12.1193 29.7697 13.2524 29.2779H13.2919C13.3045 29.2696 13.3164 29.2602 13.3274 29.25C14.3355 28.7862 15.2397 28.1205 15.985 27.2932C16.043 27.2531 16.0893 27.198 16.1192 27.1338C16.8828 26.2363 17.5023 25.2238 17.9554 24.1328C17.9918 24.0899 18.0187 24.0396 18.0344 23.9854C18.0344 23.9854 18.0344 23.9535 18.0344 23.9376C18.4553 22.9011 18.7625 21.8213 18.9505 20.7174C18.9784 20.6667 18.9949 20.6105 18.999 20.5527C19.0031 20.4949 18.9946 20.4368 18.9742 20.3826ZM17.3749 23.4115L16.6602 23.2122L17.8646 21.901C17.728 22.4129 17.5645 22.9171 17.3749 23.4115ZM13.2879 28.3653L12.8931 27.4446L14.7095 27.3968C14.2744 27.7741 13.7973 28.099 13.2879 28.3653ZM4.20567 27.4048L6.07344 27.4446L5.65488 28.3852C5.13767 28.1139 4.65392 27.7822 4.21357 27.3968L4.20567 27.4048ZM1.04661 21.8652L2.28259 23.2042L1.53627 23.4115C1.35053 22.9055 1.19364 22.3893 1.06636 21.8652H1.04661ZM14.4015 7.31475L12.4271 5.12284L12.7746 4.84387C13.3314 5.58514 13.8842 6.4101 14.4212 7.31475H14.4015ZM8.87315 6.91624L6.19586 9.86137L7.31735 5.76049L8.87315 6.91624ZM9.46945 25.6712L5.56406 24.2365L4.29255 20.5261L5.73781 11.5153L9.46945 7.45027L13.1971 11.5153L14.6424 20.5261L13.3709 24.2365L9.46945 25.6712ZM3.90949 21.8612L4.55713 23.7463L3.50673 23.2122L3.90949 21.8612ZM15.0254 21.8612L15.4203 23.2122L14.3699 23.7463L15.0254 21.8612ZM15.2031 18.9997L14.3304 13.5677L16.0402 16.7201L15.2031 18.9997ZM13.9395 11.1726L12.6956 6.59344L15.902 10.1603L16.0442 15.0343L13.9395 11.1726ZM11.6295 5.74455L12.7627 9.86137L10.0736 6.93217L11.6295 5.74455ZM9.46945 6.35827L7.60164 4.95146L9.48521 1.24113L11.3649 4.95146L9.46945 6.35827ZM3.73182 18.9997L2.89466 16.7201L4.60448 13.5677L3.73182 18.9997ZM3.46329 20.574L2.86307 22.6344L0.849173 20.4424L2.40106 17.6527L3.46329 20.574ZM4.96779 24.8582L5.9787 26.6316L3.6094 26.5838L3.47514 24.093L4.96779 24.8582ZM6.85531 26.5639L6.14058 25.3085L8.26109 26.1056L6.85531 26.5639ZM9.46945 26.528L11.4873 27.2175L9.46945 29.0707L7.44763 27.2175L9.46945 26.528ZM10.6738 26.0857L12.7943 25.2886L12.0796 26.544L10.6738 26.0857ZM13.9671 24.8582L15.4756 24.093L15.3374 26.5838L12.9681 26.6316L13.9671 24.8582ZM16.0876 22.6344L15.4993 20.574L16.5773 17.6407L18.1292 20.4305L16.0876 22.6344ZM16.7431 12.1768C17.2606 13.5636 17.6467 14.9968 17.8962 16.4571L16.8656 16.3296L16.7431 12.1768ZM12.0046 4.45331L11.1003 2.6878C11.4754 3.12619 11.8901 3.63631 12.3205 4.20622L12.0046 4.45331ZM6.96194 4.45331L6.6421 4.19824C7.07251 3.63232 7.48712 3.1222 7.85833 2.67983L6.96194 4.45331ZM5.01123 11.1726L2.91836 15.0343L3.06051 10.1603L6.26695 6.59344L5.01123 11.1726ZM2.07331 16.3296L1.05057 16.4571C1.29928 15.0027 1.68268 13.575 2.19572 12.1928L2.07331 16.3296ZM0.928154 17.29L1.71792 17.1864L0.7702 18.9001C0.817585 18.3541 0.864969 17.832 0.936048 17.29H0.928154ZM2.66168 23.9415L2.7604 25.7708C2.41633 25.266 2.11515 24.7327 1.86007 24.1767L2.66168 23.9415ZM6.81187 27.7236L8.39141 29.1623C7.70893 29.095 7.03756 28.941 6.39331 28.704L6.81187 27.7236ZM12.1151 27.7236L12.5456 28.6921C11.9103 28.9333 11.2465 29.0901 10.5712 29.1583L12.1151 27.7236ZM16.289 23.9415L17.0551 24.1528C16.8093 24.6892 16.5214 25.2049 16.1943 25.6951L16.289 23.9415ZM17.2209 17.1665L18.0304 17.2701C18.0976 17.8002 18.145 18.3382 18.1726 18.8881L17.2209 17.1665ZM6.16427 4.812L6.50783 5.09096L4.53344 7.27091C5.08231 6.40211 5.62724 5.58116 6.16427 4.84387V4.812Z" fill="#2B5C6B"/>
</svg>
