<svg width="16" height="30" viewBox="0 0 16 30" fill="none" xmlns="http://www.w3.org/2000/svg">
<path d="M7.86896 0.0705229L7.78346 0L7.70572 0.0816724C7.33265 0.475238 6.95306 0.866318 6.56703 1.25493C5.73148 2.10147 4.86872 2.97771 4.11477 3.91335C0.966841 7.82303 -0.35451 11.8366 0.0807579 16.1658C0.414982 19.5371 1.79074 22.719 4.28188 25.8898C5.03192 26.8477 5.86361 27.7723 6.6642 28.6671C7.03341 29.0792 7.40648 29.4951 7.77179 29.9109L7.84953 30L7.93889 29.922C13.3448 25.0953 16.1313 19.6745 15.9952 14.2723C15.8631 9.1782 13.0533 4.2735 7.86896 0.0705229ZM13.1582 6.7797C14.5107 8.94083 15.301 11.3804 15.4628 13.8936L14.8877 13.2475C14.3767 12.6513 13.8331 12.0812 13.2593 11.5396C12.8939 11.2599 12.6327 10.8752 12.5144 10.4424C12.3961 10.0097 12.427 9.552 12.6025 9.13736C12.7794 8.57693 12.9195 8.00651 13.0222 7.42943C13.0649 7.22153 13.1077 7.00616 13.1582 6.7797ZM12.0545 9.25988L11.9069 9.92449C10.6982 9.05569 10.4106 7.8453 10.1036 6.5829C9.99087 6.11509 9.87817 5.63243 9.71497 5.15715L10.3134 5.40592C11.0907 5.72153 11.7242 5.99254 12.3732 6.28957C12.4406 6.33026 12.4978 6.38464 12.5408 6.4488C12.5838 6.51296 12.6115 6.58534 12.6219 6.66086C12.4432 7.49625 12.2605 8.35395 12.0545 9.25988ZM7.84953 23.0644L7.76012 22.9715C6.773 21.9059 5.84028 20.9034 5.68094 19.4034C5.52859 18.2961 5.26837 17.2047 4.90369 16.1436C4.51704 15.0005 4.54166 13.7667 4.97362 12.6386C5.10509 12.2665 5.2128 11.887 5.2962 11.5025C5.3273 11.3651 5.35836 11.2314 5.39337 11.0904C6.05015 8.52476 6.05791 8.49135 7.93889 6.63491C10.2707 8.12006 10.7487 10.4777 11.219 12.7611C11.2614 13.2035 11.203 13.6493 11.048 14.0681C10.9974 14.2426 10.9508 14.4171 10.9119 14.5879C10.7954 15.1485 10.6555 15.7017 10.5233 16.2624C10.2513 17.3948 9.97144 18.5643 9.816 19.7339C9.63333 21.0854 8.88715 21.9802 7.84953 23.0644ZM9.19029 22.3923L8.80168 24.1968L8.18763 23.5062L9.19029 22.3923ZM7.48808 23.5062L6.8546 24.2228L6.36492 22.2067L7.48808 23.5062ZM4.06814 16.0062L4.2119 15.4864L5.33507 20.1869L4.94642 19.7562C4.49561 19.2364 4.02927 18.698 3.59011 18.1522C3.55513 18.1077 3.5357 17.9666 3.59011 17.7141C3.75722 17.1349 3.91267 16.5668 4.06814 15.9987V16.0062ZM5.15239 9.83539L4.28188 13.177C3.64452 11.4914 3.81162 10.849 5.15239 9.82796V9.83539ZM6.28722 7.65592L6.8857 5.33168L7.63579 6.12251L6.28722 7.65592ZM8.35083 6.13365L9.16309 5.21287L9.90537 7.81189L8.35083 6.13365ZM11.0441 9.95422C11.7669 10.5111 11.8408 10.7711 11.4949 11.6213L11.0441 9.95422ZM11.5687 14.0384L11.7591 14.7809C12.0001 15.6906 12.2527 16.6374 12.482 17.5582C12.4941 17.6226 12.4923 17.6887 12.477 17.7525C12.4616 17.8163 12.4329 17.8765 12.3926 17.9295C11.7103 18.7484 10.9839 19.5329 10.2163 20.2797L11.5687 14.0384ZM12.517 5.72524L9.74217 4.57425L10.7254 3.46038L12.517 5.72524ZM10.3446 3.07425L9.4235 4.11757L8.57624 1.48884L10.3446 3.07425ZM7.83399 1.92327C7.87673 1.75247 7.92336 1.57795 7.96999 1.39602C8.02439 1.56681 8.07103 1.72647 8.11766 1.88241C8.25717 2.38915 8.43513 2.88551 8.65011 3.36756C9.08925 4.29949 8.87938 5.0235 7.98166 5.64727C7.61003 5.44132 7.33542 5.10682 7.21464 4.71296C7.09386 4.31906 7.13608 3.89591 7.33265 3.53092C7.53784 3.00402 7.70533 2.46442 7.83399 1.91583V1.92327ZM7.35985 1.50371L6.62143 4.23266L5.53327 3.03713L7.35985 1.50371ZM5.14076 3.41954L6.32609 4.69305L2.98384 6.47895L2.94498 6.44925L5.14076 3.41954ZM6.26002 5.34281C5.93745 7.83784 5.29229 9.11137 3.60954 10.5668L2.78564 7.18069L6.26002 5.34281ZM2.33871 7.62251L2.49416 8.28341C2.71957 9.2265 2.91 10.0433 3.09266 10.8824C3.12349 11.0311 3.09284 11.1855 3.00716 11.3131C2.38146 12.0557 1.72856 12.7723 1.09897 13.4777L0.710342 13.9195C0.732305 11.728 1.28992 9.57169 2.33871 7.62251ZM3.24811 11.8663C4.24301 13.7487 3.7611 15.5532 3.03825 17.5247L0.663708 14.7735L3.24811 11.8663ZM1.06011 16.0507C1.60808 16.6782 2.1716 17.328 2.71569 17.974C2.81112 18.0967 2.85545 18.2488 2.84005 18.401C2.64573 19.1436 2.4281 19.8861 2.19881 20.6658L2.03558 21.2228C1.18632 19.4774 0.739673 17.5781 0.725889 15.6535L1.06011 16.0507ZM2.4825 21.6609C2.68459 20.896 2.90611 20.1497 3.13929 19.3552L3.31029 18.7686C5.25347 20.5062 6.15509 22.1881 6.18615 24.1819L5.52551 23.7846C4.56558 23.2092 3.58234 22.6151 2.61853 22.0136C2.57171 21.9672 2.536 21.9116 2.51386 21.8507C2.49172 21.7898 2.48368 21.725 2.49028 21.6609H2.4825ZM2.74289 22.7747L2.78176 22.7376L6.27946 24.854L5.09413 26.2055L2.74289 22.7747ZM7.01784 28.344C6.57479 27.8651 6.11622 27.3713 5.69261 26.8589C5.65511 26.7822 5.63567 26.6985 5.63567 26.6139C5.63567 26.5292 5.65511 26.4455 5.69261 26.3688C5.89312 26.0977 6.11392 25.8408 6.35329 25.6002L6.55926 25.3775L7.42978 28.7748L7.01784 28.344ZM7.89616 28.4146C7.82233 28.1324 7.74069 27.854 7.66299 27.5755C7.40508 26.7279 7.20133 25.8662 7.0528 24.995C7.02174 24.7945 7.25491 24.5161 7.48418 24.2525C7.57358 24.1448 7.66299 24.0371 7.74459 23.9332C8.52184 24.479 8.72395 25.047 8.4752 25.823C8.2898 26.4469 8.1419 27.0803 8.03216 27.7203C8.01273 27.9431 7.96609 28.177 7.91946 28.4072L7.89616 28.4146ZM8.38194 28.8824H8.3625L9.09316 25.3998L10.3446 26.8478L8.38194 28.8824ZM10.7137 26.4579L9.33799 24.8651L13.1777 22.7302L13.2243 22.771L10.7137 26.4579ZM13.2321 22.0805C12.2255 22.6633 11.1879 23.2351 10.1891 23.7921L9.41183 24.2153C9.27193 22.0285 10.5777 20.6139 11.9885 19.1176C12.21 18.8799 12.4354 18.6423 12.653 18.3973L12.824 19.0544C13.0611 19.9752 13.2865 20.8403 13.4808 21.7129C13.4588 21.8541 13.3826 21.9825 13.2671 22.073L13.2321 22.0805ZM13.9549 21.1931L13.7956 20.5805C13.5624 19.6745 13.3564 18.8911 13.1699 18.0891C13.1579 17.9383 13.2082 17.7891 13.3098 17.6733C13.8422 17.0421 14.398 16.4109 14.9343 15.8168L15.2724 15.4455C15.2868 17.4244 14.8519 19.3828 13.9977 21.1857L13.9549 21.1931ZM12.925 17.2797C12.8066 16.6369 12.6457 16.002 12.4432 15.3787C12.0273 13.9864 11.6309 12.6646 12.1983 11.1795L15.3074 14.573L12.925 17.2797Z" fill="#2B5C6B"/>
</svg>
