<svg width="27" height="27" viewBox="0 0 27 27" fill="none" xmlns="http://www.w3.org/2000/svg">
<path d="M12.5838 0.0330292C15.6206 -0.184368 18.7166 0.678193 21.212 2.42017C22.7661 3.49585 24.0885 4.90598 25.0614 6.52791C26.2194 8.44959 26.895 10.663 26.9864 12.9063C27.0842 15.0577 26.6538 17.2287 25.7456 19.181C24.9163 20.9764 23.6858 22.5846 22.1676 23.8528C20.7699 25.0268 19.1268 25.9016 17.3805 26.429C15.1798 27.093 12.8075 27.1826 10.5642 26.6732C8.64751 26.2505 6.82848 25.3974 5.27157 24.2033C3.53393 22.8717 2.12889 21.1092 1.22506 19.1152C0.393032 17.3056 -0.0269998 15.3098 0.00134506 13.3192C0.022686 11.7964 0.303383 10.2774 0.828362 8.84719C1.57781 6.80277 2.8289 4.94304 4.44603 3.48402C6.67152 1.46871 9.58674 0.228847 12.5838 0.0330292ZM9.32117 1.4454C9.33297 1.45644 9.35783 1.47954 9.36912 1.49109C10.6664 2.02329 11.9614 2.56028 13.256 3.09901C13.2833 2.31375 13.2665 1.52676 13.2653 0.740269C11.9241 0.765123 10.5878 1.00581 9.32117 1.4454ZM13.7375 0.740209C13.7335 1.52695 13.726 2.31394 13.7423 3.1005C15.0373 2.56252 16.3329 2.02629 17.6297 1.49109C17.6427 1.48004 17.6685 1.45645 17.682 1.4449C16.4144 1.00834 15.0791 0.765079 13.7375 0.740209ZM8.53028 1.81563C8.10445 2.84716 7.67588 3.87741 7.25006 4.90893C7.08837 5.33143 6.87822 5.73738 6.74792 6.1704C7.90235 6.18094 9.05652 6.1704 10.2112 6.17543C10.2908 6.17467 10.3711 6.17893 10.4505 6.16464C10.6463 5.99518 10.8175 5.79938 11.0043 5.62013C11.7018 4.9152 12.4156 4.22562 13.1021 3.51119C11.6351 2.9225 10.1811 2.2992 8.71509 1.70499C8.63073 1.66783 8.55188 1.73706 8.53028 1.81563ZM18.2505 1.71672C16.7995 2.31243 15.3543 2.92498 13.8997 3.50961C14.7317 4.37295 15.5963 5.20711 16.438 6.06243C16.491 6.12193 16.5558 6.18016 16.6431 6.16461C17.8458 6.16284 19.0479 6.17037 20.25 6.16109C20.2191 6.00243 20.1378 5.86059 20.0825 5.70972C19.5469 4.41311 19.0084 3.11853 18.4746 1.82139C18.4492 1.72876 18.3389 1.66224 18.2505 1.71672ZM4.69182 4.27C4.6853 4.28481 4.67274 4.31418 4.66671 4.32949C5.16911 4.84086 5.67878 5.3472 6.18924 5.85105C6.23142 5.89424 6.27711 5.9339 6.32783 5.96729C6.86712 4.65234 7.42678 3.34518 7.95177 2.02497C6.74836 2.58 5.65169 3.35871 4.69182 4.27ZM19.0513 2.02398C19.1121 2.23057 19.2113 2.42262 19.288 2.6232C19.7498 3.73809 20.2092 4.85418 20.6737 5.96753C21.2349 5.44636 21.7607 4.88504 22.3092 4.35009C22.3766 4.30541 22.2899 4.25293 22.2604 4.21954C21.3082 3.33513 20.233 2.57024 19.0513 2.02398ZM11.2497 6.01147C11.2035 6.0544 11.1631 6.10285 11.1335 6.15832C12.7122 6.16938 14.2909 6.16938 15.8693 6.15832C15.8391 6.10285 15.7984 6.0544 15.7527 6.01147C14.9988 5.26844 14.2593 4.50925 13.5008 3.77021C12.7436 4.50925 12.0039 5.2674 11.2497 6.01147ZM2.0103 7.96527C3.33871 7.43433 4.65158 6.86145 5.98302 6.33678C5.95063 6.27879 5.90745 6.22783 5.85849 6.18265C5.34129 5.67405 4.83762 5.15292 4.31694 4.64882C3.37191 5.61609 2.59083 6.74577 2.0103 7.96527ZM21.0258 6.30414C21.126 6.37142 21.2418 6.40731 21.3519 6.45375C22.0354 6.73567 22.7183 7.01833 23.4007 7.30174C23.924 7.50534 24.4323 7.74909 24.9628 7.9326C24.8667 7.64817 24.6971 7.39612 24.5569 7.13178C24.0354 6.23353 23.4165 5.38407 22.6814 4.64778C22.1232 5.19305 21.5706 5.74458 21.0258 6.30414ZM6.63354 6.60964C6.59563 6.76554 6.61673 6.92646 6.6122 7.08436C6.61647 8.05362 6.60366 9.0239 6.61948 9.9929C6.66443 9.9678 6.7056 9.93666 6.74175 9.90001C7.79571 8.84188 8.85348 7.78702 9.90924 6.73095C9.94641 6.69253 9.97804 6.64937 10.0094 6.60644C8.88487 6.62475 7.75905 6.61869 6.63354 6.60964ZM10.6703 6.60964C9.37529 7.90197 8.08299 9.19686 6.78895 10.4889C6.71589 10.5705 6.59161 10.6393 6.61296 10.7663C6.61144 12.5675 6.61397 14.3692 6.61144 16.1707C6.61823 16.2405 6.59713 16.3291 6.65865 16.3815C7.96771 17.6915 9.27859 19 10.5877 20.3107C10.6293 20.3598 10.6863 20.3907 10.7521 20.3799C12.6125 20.3773 14.4733 20.3826 16.3329 20.377C17.6762 19.035 19.0194 17.692 20.3616 16.3491C20.3983 15.867 20.3667 15.378 20.3772 14.8927C20.375 13.4718 20.3814 12.0509 20.3745 10.6298C19.0415 9.30906 17.7206 7.97631 16.3899 6.65185C16.3451 6.59362 16.2687 6.60869 16.205 6.60567C14.3595 6.60994 12.5149 6.60363 10.6703 6.60964ZM16.9899 6.60387C17.5513 7.18477 18.1311 7.74735 18.699 8.321C19.2594 8.87478 19.8071 9.44211 20.3743 9.9874C20.3766 8.85948 20.3825 7.73083 20.3717 6.60291C19.2446 6.61119 18.1176 6.60864 16.9899 6.60387ZM1.72485 8.57278C1.68318 8.68048 1.74143 8.7844 1.78035 8.88256C2.36912 10.2826 2.93529 11.6929 3.53104 13.0897C3.55339 13.0722 3.59808 13.0357 3.61992 13.0182C4.47432 12.1684 5.32191 11.3106 6.17933 10.4636C6.1866 9.22046 6.18283 7.97781 6.18157 6.73516C4.69144 7.33489 3.21094 7.962 1.72485 8.57278ZM20.8214 6.72618C20.8146 7.91034 20.8216 9.09423 20.8181 10.2786C20.8257 10.3456 20.799 10.434 20.8587 10.4834C21.7335 11.3458 22.5897 12.2264 23.4696 13.082C24.0714 11.6634 24.6487 10.2334 25.2454 8.81253C25.2736 8.73696 25.3163 8.65262 25.2714 8.57405C25.1583 8.49848 25.0251 8.45958 24.9018 8.40459C23.5403 7.84954 22.1877 7.26889 20.8214 6.72618ZM0.740178 13.2671C1.52882 13.2779 2.31767 13.2719 3.10625 13.2707C2.57748 11.9354 2.00701 10.6147 1.46648 9.28341C1.00199 10.5567 0.770838 11.9131 0.740178 13.2671ZM25.4568 9.46087C25.0518 10.4472 24.6431 11.4328 24.2343 12.4171C24.1241 12.7035 23.982 12.9782 23.8956 13.2729C24.6843 13.2696 25.4739 13.2794 26.2625 13.2678C26.2401 11.9233 25.9888 10.5885 25.5605 9.316C25.4789 9.28388 25.4888 9.41669 25.4568 9.46087ZM3.79514 13.482L3.79337 13.5103C4.52802 14.2617 5.28099 14.9967 6.02034 15.7446C6.06703 15.7935 6.11927 15.8359 6.17475 15.8751C6.16747 14.2881 6.16823 12.7013 6.174 11.1137C5.37159 11.8934 4.59054 12.6947 3.79514 13.482ZM20.8214 11.1019C20.8187 12.6947 20.8172 14.2875 20.8216 15.8796C21.6261 15.0979 22.4104 14.2941 23.2073 13.5044L23.2095 13.4755C22.728 12.9789 22.231 12.4952 21.7443 12.0037C21.4327 11.7069 21.1472 11.3805 20.8214 11.1019ZM0.741462 13.7202C0.745479 14.4091 0.825571 15.0962 0.942069 15.7748C1.07237 16.4279 1.22 17.0854 1.46681 17.7046C1.97372 16.5015 2.46435 15.291 2.96922 14.0867C3.01717 13.9625 3.07869 13.8437 3.10857 13.7139C2.31896 13.7182 1.52985 13.7069 0.741462 13.7202ZM23.8975 13.7157C24.4137 15.0411 24.9935 16.3435 25.5147 17.6673C25.6128 17.6924 25.5994 17.4832 25.6452 17.4139C26.0282 16.221 26.2405 14.9729 26.2626 13.7189C25.4745 13.7089 24.6854 13.7154 23.8975 13.7157ZM3.53225 13.9045C2.92692 15.3354 2.34189 16.7755 1.74311 18.2103C1.7052 18.2889 1.67281 18.4254 1.7878 18.4543C3.25453 19.0533 4.7115 19.6779 6.18332 20.2612C6.18408 19.0448 6.18483 17.8277 6.18332 16.6116C6.19437 16.5414 6.13912 16.4964 6.09519 16.454C5.23603 15.6086 4.39667 14.7437 3.53225 13.9045ZM23.1609 14.1897C22.3799 14.9659 21.6068 15.7499 20.8219 16.5225C20.8161 17.7657 20.8193 19.0093 20.8204 20.2526C22.3116 19.6511 23.7917 19.0231 25.2806 18.4151C25.3086 18.3303 25.2855 18.2444 25.2474 18.1675C24.6516 16.7465 24.0744 15.3164 23.4709 13.8975C23.3538 13.9788 23.2629 14.0912 23.1609 14.1897ZM6.61934 16.9998C6.60301 17.9177 6.61658 18.8364 6.61206 19.7551C6.61784 19.9643 6.59799 20.175 6.62537 20.3835C7.7544 20.3763 8.88299 20.3775 10.0116 20.3834C8.92894 19.2774 7.82176 18.194 6.7336 17.0934C6.69896 17.0588 6.66002 17.0271 6.61934 16.9998ZM19.4523 17.8973L17.2675 20.0819C17.1726 20.1788 17.0682 20.2663 16.9929 20.3805C17.3838 20.3582 17.7757 20.3756 18.1672 20.3705C18.9002 20.3752 19.6341 20.36 20.367 20.378C20.3897 19.2509 20.373 18.1215 20.375 16.9947C20.0491 17.2737 19.7635 17.5998 19.4523 17.8973ZM2.00638 19.0299C2.58936 20.2489 3.36468 21.3864 4.31646 22.3459C4.87257 21.7966 5.43149 21.2454 5.97576 20.6828C5.83968 20.6014 5.68929 20.5527 5.54517 20.4912C4.36542 20.0044 3.18768 19.5123 2.00638 19.0299ZM21.02 20.6517C21.0754 20.7502 21.1653 20.8217 21.2439 20.9015C21.7209 21.3871 22.2003 21.8708 22.6881 22.3464C23.2311 21.8052 23.702 21.1945 24.1301 20.5599C24.4497 20.066 24.7568 19.5596 24.9935 19.0212C23.6651 19.5546 22.3506 20.1243 21.02 20.6517ZM6.75174 20.8246C6.7658 20.9368 6.81978 21.0363 6.86297 21.1389C7.4226 22.4944 7.98423 23.8486 8.54412 25.2042C8.56848 25.294 8.67041 25.3182 8.74574 25.2725C10.1999 24.6794 11.6461 24.0648 13.1023 23.4763C12.5487 22.8912 11.9639 22.3341 11.3988 21.7593C11.0807 21.4522 10.7826 21.1203 10.4515 20.8287C9.21873 20.8139 7.98497 20.8225 6.75174 20.8246ZM11.134 20.8284C11.1628 20.8841 11.2043 20.9324 11.2502 20.9753C12.0041 21.7195 12.7438 22.4775 13.5013 23.217C14.259 22.4772 14.9989 21.7195 15.7531 20.9753C15.7987 20.9324 15.8396 20.8833 15.8694 20.8288C14.2914 20.817 12.7127 20.817 11.134 20.8284ZM15.0401 22.3236C14.6625 22.7109 14.2663 23.0807 13.8997 23.4771C15.3564 24.064 16.8024 24.6805 18.2568 25.2726C18.3321 25.3182 18.4344 25.294 18.4587 25.2034C19.0001 23.8945 19.542 22.5864 20.0849 21.2778C20.1429 21.1242 20.2253 20.9788 20.2566 20.8164C19.0229 20.8139 17.7862 20.8015 16.5534 20.8228C16.0386 21.3109 15.5464 21.8253 15.0401 22.3236ZM4.69194 22.6386C4.62366 22.6818 4.70023 22.7414 4.73538 22.7742C5.66486 23.6474 6.72339 24.385 7.86798 24.9462C7.89033 24.9522 7.9335 24.9634 7.95585 24.9687C7.42635 23.6475 6.87199 22.3359 6.32791 21.0203C5.76702 21.5418 5.24104 22.1028 4.69194 22.6386ZM20.6763 21.0212C20.1327 22.3367 19.5749 23.6481 19.0491 24.9705C19.0793 24.9604 19.1397 24.9414 19.1702 24.9324C20.319 24.3555 21.3925 23.6202 22.3153 22.7228C22.3832 22.6755 22.2922 22.62 22.2628 22.5842C21.7288 22.0684 21.2247 21.519 20.6763 21.0212ZM13.7488 23.8883C13.7187 24.6758 13.738 25.465 13.7378 26.2528C15.0243 26.2467 16.3077 26.0106 17.5272 25.6038C17.5805 25.58 17.6546 25.5743 17.6808 25.5125C16.3661 24.9813 15.0578 24.434 13.7488 23.8883ZM12.0835 24.3768C11.1623 24.7536 10.2464 25.1435 9.32322 25.5132C9.34882 25.5746 9.42214 25.5805 9.47688 25.604C10.6966 26.0091 11.9796 26.2438 13.266 26.2528C13.2718 25.4711 13.2726 24.688 13.2658 23.9058C12.8603 24.028 12.4779 24.2232 12.0835 24.3768Z" fill="#2B5C6B"/>
</svg>
