<svg width="26" height="30" viewBox="0 0 26 30" fill="none" xmlns="http://www.w3.org/2000/svg">
<path d="M25.9845 16.7599V13.6482C25.9845 11.2772 25.9845 8.90756 25.9845 6.53914C25.9836 6.33818 25.9153 6.14351 25.791 5.98714C24.8492 4.91284 23.9037 3.83974 22.9546 2.76789L20.7643 0.282137C20.6899 0.190013 20.5955 0.116649 20.4884 0.0677981C20.3814 0.0189474 20.2647 -0.00406316 20.1474 0.000587527C15.3872 0.000587527 10.6269 0.000587527 5.86675 0.000587527C5.75012 -0.00181032 5.63442 0.0218315 5.52782 0.0698441C5.42122 0.117857 5.32632 0.189067 5.24981 0.278428C3.59008 2.16528 1.92304 4.04719 0.248694 5.92414C0.166244 6.0126 0.101857 6.11674 0.0592529 6.23051C0.0166488 6.34433 -0.0033382 6.4656 0.000454211 6.58729C0.000454211 12.233 0.000454211 17.88 0.000454211 23.5282C-0.00188526 23.6497 0.0194872 23.7706 0.0633416 23.8837C0.107195 23.9969 0.17267 24.1002 0.255991 24.1876C0.956882 24.9606 1.65655 25.7373 2.35501 26.5177C3.33333 27.5995 4.30801 28.6849 5.27536 29.7629C5.41521 29.9103 5.60679 29.9955 5.80832 30H12.9194H20.1766C20.3861 29.9962 20.5856 29.9083 20.7314 29.7555C21.6708 28.7183 22.6066 27.6785 23.5387 26.6363L25.7545 24.169C25.8373 24.081 25.9017 23.9769 25.9437 23.8629C25.9857 23.7489 26.0046 23.6275 25.9991 23.5059C25.9893 21.2511 25.9845 19.0024 25.9845 16.7599ZM9.94065 8.35433C9.96086 8.30711 9.99562 8.26785 10.0398 8.24242C10.0839 8.21704 10.1349 8.20691 10.1852 8.21355C12.064 8.21355 13.9428 8.21355 15.8216 8.21355C15.8669 8.2089 15.9126 8.2185 15.9524 8.241C15.9923 8.26354 16.0243 8.29792 16.0443 8.33951C16.2815 8.70998 16.5224 9.11749 16.7743 9.50276C17.0773 9.99547 17.384 10.4845 17.6797 10.9846C17.7427 11.0975 17.7755 11.2253 17.7746 11.355C17.7746 12.3034 17.7746 13.2517 17.7746 14.2001V15.945C17.7746 16.8933 17.7746 17.8417 17.7746 18.7938C17.7717 18.9165 17.7378 19.0364 17.676 19.142C17.3949 19.5939 17.1066 20.0459 16.8218 20.4941C16.5735 20.8646 16.3253 21.2684 16.0917 21.6611C16.0679 21.7121 16.0292 21.7544 15.9809 21.7822C15.9325 21.81 15.8769 21.8221 15.8216 21.8167H13.018H10.2181C10.1673 21.8225 10.1159 21.813 10.0705 21.7892C10.025 21.7655 9.98745 21.7286 9.96257 21.6833C9.6961 21.261 9.42596 20.8424 9.15582 20.4201C8.88568 19.9977 8.60095 19.5569 8.32717 19.1198C8.2719 19.0228 8.24178 18.9132 8.23955 18.8011C8.23955 16.3117 8.23955 13.821 8.23955 11.3291C8.24322 11.2055 8.27981 11.0851 8.3454 10.9809C8.61922 10.5289 8.90028 10.0807 9.17774 9.6324C9.45516 9.18416 9.68147 8.77665 9.94065 8.35433ZM9.37486 5.69449H16.6174C16.5407 5.8908 16.4677 6.06495 16.391 6.26498L16.2961 6.50576C16.1939 6.76507 16.0917 7.03181 15.9712 7.28374C15.9416 7.32251 15.9007 7.35101 15.8544 7.36522C14.1825 7.36522 12.3646 7.36522 10.1414 7.36522H10.0794C9.87131 6.87251 9.67055 6.37241 9.46248 5.86118L9.37486 5.69449ZM1.03718 23.8467L5.22425 21.1054L5.31919 21.2091L6.12957 22.1908C6.81586 23.0256 7.5046 23.8554 8.19576 24.6803C8.29797 24.7988 8.29797 24.8285 8.22131 24.947C7.58613 25.9349 6.95459 26.9154 6.32673 27.8884L5.66599 28.9183L5.63312 28.9664L1.03718 23.8467ZM9.43324 24.3357L9.52818 24.0876C9.67055 23.7171 9.80924 23.3652 9.95893 23.0132C10.0064 22.9021 10.0392 22.8132 10.0648 22.7465C10.0903 22.6798 10.094 22.6613 10.1049 22.6354H10.24H10.5028H15.7486C15.9019 22.6354 15.9238 22.6354 15.9712 22.7761C16.1318 23.2059 16.3071 23.6319 16.486 24.069L16.5955 24.3357H9.43324ZM9.29819 22.1723C9.32973 22.2197 9.3486 22.2746 9.35294 22.3316C9.17406 22.8058 8.9879 23.2726 8.77983 23.769L8.69585 23.9801L5.95073 20.646L7.68835 19.631L7.75405 19.731L8.11909 20.3052L8.34904 20.6757C8.65934 21.1609 8.97694 21.6574 9.28724 22.1575L9.29819 22.1723ZM7.15171 28.1255C7.74551 27.1993 8.33812 26.2708 8.92951 25.3397C8.95577 25.2845 8.99845 25.2392 9.05149 25.2099C9.10453 25.1807 9.1653 25.169 9.22517 25.1767H12.8099H16.7999C16.8785 25.1756 16.9553 25.2003 17.0189 25.2471C17.7672 26.3918 18.501 27.5402 19.2384 28.6923L19.5377 29.1628H6.48002L7.15171 28.1255ZM16.6429 22.3205C16.6391 22.3022 16.6391 22.2833 16.6429 22.2649C17.1138 21.524 17.592 20.7831 18.0776 20.0088L18.3112 19.6384L20.0525 20.6571L17.3037 23.9912L17.2306 23.8097C17.0299 23.2726 16.8327 22.791 16.6429 22.3057V22.3205ZM20.2642 19.8273L19.7641 19.5346C19.4161 19.3272 19.0656 19.1235 18.7127 18.9234C18.6708 18.9085 18.6352 18.8793 18.6119 18.8409C18.5886 18.8024 18.5791 18.757 18.585 18.7122C18.585 16.2821 18.585 13.8519 18.585 11.4217C18.5773 11.3768 18.5855 11.3305 18.6082 11.2912C18.6309 11.2518 18.6667 11.2219 18.7091 11.2068C19.1398 10.9661 19.5669 10.7141 20.0123 10.466L20.2642 10.3177V19.8273ZM18.3221 10.4919L17.2963 8.84332C17.0992 8.52844 16.9058 8.21726 16.7159 7.8987C16.6926 7.85636 16.6777 7.80979 16.6721 7.7616C16.8546 7.28745 17.0372 6.81322 17.2416 6.33908L17.3365 6.10939L20.0634 9.47681L18.3221 10.4919ZM8.96599 8.42471C8.65414 8.85773 8.36416 9.30656 8.09718 9.76946C7.98036 9.96581 7.85991 10.1659 7.73214 10.3622C7.70996 10.4019 7.68556 10.4402 7.65912 10.4771L5.9215 9.462L8.65206 6.09457L8.70317 6.22792C8.80282 6.52954 8.92483 6.82301 9.0682 7.10591C9.20028 7.30316 9.26213 7.54024 9.24356 7.77799C9.22498 8.01574 9.12708 8.23995 8.96599 8.41361V8.42471ZM6.46542 10.7327C6.75016 10.8957 7.03489 11.0587 7.31235 11.2365C7.34972 11.2676 7.37546 11.3107 7.38534 11.3588C7.38534 13.8284 7.38534 16.2981 7.38534 18.7678C7.38534 18.8049 7.3671 18.8567 7.38534 18.8604C6.90712 19.1531 6.42527 19.4346 5.92518 19.731L5.7463 19.8384V10.2881L6.46542 10.7327ZM20.3664 28.9516L17.7016 24.7877L20.7716 21.0832L24.966 23.8245L20.3664 28.9516ZM25.1449 22.954L23.462 21.8426C22.7319 21.3573 21.9799 20.872 21.2352 20.3941C21.1878 20.3724 21.1484 20.336 21.1228 20.29C21.0972 20.244 21.0867 20.1909 21.0928 20.1385C21.0928 18.627 21.0928 17.1168 21.0928 15.6078C21.0928 13.7185 21.0928 11.8305 21.0928 9.94361C21.1003 9.86516 21.1323 9.79117 21.1841 9.73245C22.2975 8.99152 23.4182 8.25064 24.5389 7.50971L25.1339 7.13925L25.1449 22.954ZM20.3993 1.09714L24.966 6.2835L20.7716 9.036L17.7344 5.27955L20.3993 1.09714ZM19.5925 0.841526L18.9062 1.90844C18.3173 2.82717 17.7308 3.74713 17.1467 4.66834C17.1178 4.72256 17.0743 4.76734 17.0213 4.79749C16.9683 4.82764 16.908 4.84196 16.8473 4.83874C15.4419 4.83874 14.0328 4.83874 12.6238 4.83874H9.15218C8.99518 4.83874 8.95871 4.83874 8.9076 4.74983C8.28702 3.76811 7.65912 2.79012 7.03489 1.81212L6.41431 0.845235L19.5925 0.841526ZM5.60025 1.09714L5.62948 1.13418L6.61146 2.66416L8.1994 5.13877C8.27242 5.25364 8.27242 5.25364 8.22495 5.31292C7.39507 6.32055 6.57128 7.33189 5.75358 8.34694L5.22793 8.99891L1.03354 6.25759L5.60025 1.09714ZM0.854661 7.12072L2.04837 7.8987C2.95855 8.4939 3.86995 9.08782 4.78255 9.68059C4.82552 9.70065 4.86107 9.7341 4.88403 9.77606C4.90702 9.81802 4.91623 9.86633 4.91032 9.91395C4.91032 11.3958 4.91032 12.8776 4.91032 14.3594C4.91032 16.2957 4.91032 18.2344 4.91032 20.1756C4.90835 20.2452 4.88254 20.312 4.83734 20.3645C3.68012 21.135 2.51927 21.8908 1.35843 22.6502L0.865614 22.9688L0.854661 7.12072Z" fill="#2B5C6B"/>
</svg>
