<svg width="22" height="30" viewBox="0 0 22 30" fill="none" xmlns="http://www.w3.org/2000/svg">
<path d="M15.6611 0H6.33122C6.28225 0.000165939 6.23385 0.0106001 6.18917 0.0306273H6.15845C6.11801 0.0490179 6.08152 0.0750159 6.05095 0.107197L0.0998231 6.36679C0.035893 6.43241 9.34917e-05 6.52027 0 6.61177V23.5452C0.000525599 23.6385 0.0377452 23.7278 0.103661 23.794L6.06248 29.9005C6.09419 29.9302 6.13049 29.9548 6.16998 29.9732H6.19687C6.24087 29.9905 6.28775 29.9996 6.33509 30H15.6611C15.7084 29.9996 15.7553 29.9905 15.7993 29.9732H15.83C15.8684 29.9548 15.9034 29.9302 15.9337 29.9005L21.8963 23.7978C21.9296 23.7656 21.956 23.7269 21.9739 23.6841C21.9917 23.6413 22.0006 23.5953 22 23.549V6.61177C21.9999 6.52027 21.9641 6.43241 21.9002 6.36679L15.9452 0.118681C15.9146 0.0865003 15.8781 0.0605049 15.8377 0.0421115H15.807C15.7621 0.017458 15.7122 0.00307274 15.6611 0ZM15.2042 29.2841H6.78814L7.10297 27.6149H14.8932L15.0545 28.4763L15.2042 29.2841ZM16.4482 25.5858L15.7686 26.2213L15.8185 25.9188L16.068 24.4908L18.1989 23.9586L16.4482 25.5858ZM4.52669 17.9785L5.10647 20.6585L5.75915 23.6868L2.9602 22.9824L3.58219 20.9877L4.52669 17.9785ZM17.4579 17.9785L19.0283 22.9939L16.2293 23.6983L17.4579 17.9785ZM6.74588 24.7856L9.17241 25.7504L7.07991 26.7113L7.03003 26.428L6.74588 24.7856ZM14.9239 26.6999L12.8276 25.7389L15.2541 24.7741L14.97 26.4165L14.9239 26.6999ZM5.92809 24.4793L6.22373 26.2098L3.79337 23.9472L5.92809 24.4793ZM8.46211 26.8721L10.1899 26.0796H11.8216L13.5494 26.8721H8.46211ZM17.0202 16.4472L16.1064 20.6968L15.4115 23.9357L11.8216 25.3599H10.1822L6.58847 23.9357L5.99337 21.1677L4.97974 16.4586V13.5528L6.00486 8.79018L6.58847 6.07965L10.1822 4.65161H11.8216L15.4115 6.07965L16.0988 9.27259L17.0202 13.5528V16.4472ZM17.6461 6.65775L19.0359 7.00612L17.4656 12.0214L16.237 6.30551L17.6461 6.65775ZM7.07991 3.28867L9.17241 4.2726L6.74588 5.23354L7.03003 3.59494L7.07991 3.28867ZM15.2541 5.2029L13.0733 4.33766L12.8276 4.24196L14.9239 3.27718L14.97 3.56432L15.2541 5.2029ZM6.22373 3.77107L5.92809 5.49768L3.79337 6.03367L6.22373 3.77107ZM2.96788 6.99465L4.40383 6.63476L5.76685 6.29403L4.52669 12.0329L3.61675 9.12326L2.96788 6.99465ZM16.0757 5.49768L15.7762 3.77107L18.2066 6.03367L16.0757 5.49768ZM13.5379 3.1049L11.8101 3.90124H10.1899L8.46211 3.1049H13.5379ZM4.22339 13.572V16.4433L2.86805 20.7733V9.2496L4.22339 13.572ZM17.7766 16.4433V13.572L19.1166 9.2496V20.7733L17.7766 16.4433ZM14.8932 2.39663H7.09914L6.78427 0.73124H15.208L15.0545 1.55054L14.8932 2.39663ZM6.09704 1.15237L6.26981 2.08269L6.37348 2.634L2.33822 6.39356H1.10192L6.09704 1.15237ZM2.10785 7.12481V22.8905H0.752525V7.12481H2.10785ZM0.956018 23.6179H2.32286L6.36195 27.3775L6.32739 27.5689L6.08168 28.8706L0.956018 23.6179ZM15.903 28.8706L15.7187 27.8867L15.6227 27.3775L19.6617 23.6179H21.0363L15.903 28.8706ZM19.8844 22.8905V7.12481H21.2398V22.8905H19.8844ZM20.8942 6.39356H19.6579L18.6213 5.42115L15.6227 2.63016L15.6572 2.45022L15.903 1.14854L20.8942 6.39356Z" fill="#2B5C6B"/>
</svg>
