<svg width="29" height="30" viewBox="0 0 29 30" fill="none" xmlns="http://www.w3.org/2000/svg">
<path d="M28.952 4.37606C28.9539 4.35491 28.9539 4.33361 28.952 4.31242C28.9428 4.2828 28.9293 4.25468 28.9119 4.22888C28.9135 4.21568 28.9135 4.20233 28.9119 4.18909C28.9119 4.18909 28.9119 4.18909 28.9119 4.16524L24.9496 0.0954742L24.9096 0.0676294C24.9096 0.0676294 24.8856 0.039777 24.8736 0.0318207H24.8456C24.8221 0.0171971 24.7964 0.00645435 24.7695 0H24.6895H4.19758H4.11751L4.0455 0.0278446H4.01349C4.01349 0.0278446 3.98946 0.0517125 3.97744 0.0636472L3.93741 0.0914981L0.0591675 4.13737V4.16126H0.0391545C0.0398449 4.17581 0.0398449 4.19044 0.0391545 4.20502C0.0231615 4.22813 0.0110018 4.25366 0.00313505 4.28059C-0.00104502 4.30564 -0.00104502 4.33117 0.00313505 4.35619C0.000836217 4.37201 0.000836217 4.3881 0.00313505 4.40392V25.787C0.00263471 25.8442 0.0145302 25.9008 0.0380126 25.953C0.0614947 26.0051 0.0960107 26.0517 0.139213 26.0894L3.9054 29.4789C3.87809 29.5624 3.87937 29.6526 3.90905 29.7354C3.93873 29.8181 3.99515 29.8888 4.06949 29.9364C4.13318 29.9756 4.20669 29.9963 4.28164 29.996C4.34427 29.9957 4.40597 29.9807 4.46174 29.9523C4.51473 29.9809 4.57356 29.9972 4.63382 30H24.3693C24.4296 29.9972 24.4884 29.9809 24.5414 29.9523C24.596 29.9801 24.6562 29.995 24.7175 29.996C24.7938 29.997 24.8688 29.9763 24.9336 29.9364C25.008 29.8888 25.0644 29.8181 25.0941 29.7354C25.1238 29.6526 25.125 29.5624 25.0977 29.4789L28.8639 26.0894C28.9061 26.0509 28.94 26.0042 28.9634 25.9522C28.9868 25.9002 28.9992 25.844 29 25.787V4.43179C28.9865 4.4112 28.9704 4.39245 28.952 4.37606ZM0.771581 5.22743L2.5286 6.5283V23.4677L0.771581 24.7686V5.22743ZM4.18157 1.02638L5.46631 3.0911L2.88481 5.79233L0.975703 4.37606L4.18157 1.02638ZM27.9514 4.37606L26.0423 5.79233L23.4648 3.0911L24.7495 1.02638L27.9514 4.37606ZM25.594 14.998V22.871L24.1092 21.7729V8.22304L25.594 7.12504V14.998ZM14.4635 26.4514H6.69904L7.49948 25.1784H21.4476L22.2481 26.4514H14.4635ZM3.31306 14.998V7.12504L4.80191 8.22304V21.7729L3.31306 22.871V14.998ZM14.4435 3.5486H22.212L21.4116 4.81766H7.47149L6.67102 3.5486H14.4435ZM23.2847 14.998V21.1762L22.3801 20.5079V9.49211L23.2847 8.81977V14.998ZM14.4435 24.3747H7.97575L8.82026 23.0182H20.0708L20.9153 24.3747H14.4435ZM5.60638 14.998V8.81977L6.51091 9.49211V20.5079L5.60638 21.1762V14.998ZM14.4435 5.62526H20.9153L20.0708 6.98182H8.82026L7.97575 5.62526H14.4435ZM20.1108 22.2106H8.77623L7.31538 20.5556V9.4404L8.77623 7.78545H20.1108L21.5757 9.4404V20.5556L20.1108 22.2106ZM22.0319 8.74421L20.7952 7.34385L21.6677 5.93951L23.1246 7.92866L22.0319 8.74421ZM8.09586 7.34385L6.85914 8.74421L5.76648 7.94854L7.22333 5.95942L8.09586 7.34385ZM6.85914 21.2677L8.09586 22.6721L7.22333 24.0724L5.76648 22.0833L6.85914 21.2677ZM20.7952 22.6721L22.0319 21.2677L23.1246 22.0634L21.6677 24.0525L20.7952 22.6721ZM23.773 7.47116L22.148 5.20354L23.0245 3.79526L25.3899 6.27371L23.773 7.47116ZM6.76306 5.21947L5.11812 7.47116L3.51718 6.27769L5.88655 3.79924L6.76306 5.21947ZM5.11812 22.5567L6.76306 24.8084L5.88655 26.2167L3.51718 23.7382L5.11812 22.5567ZM22.128 24.8084L23.773 22.5567L25.3739 23.7502L23.0085 26.2286L22.128 24.8084ZM22.7123 2.75693H6.17474L4.93802 0.779734H23.921L22.7123 2.75693ZM2.8648 24.2395L5.44631 26.9367L4.2456 28.8304L0.815608 25.7433L2.8648 24.2395ZM6.17474 27.2908H22.7123L23.937 29.2521H4.93802L6.17474 27.2908ZM23.4448 26.9367L26.0223 24.2395L28.0555 25.7433L24.6254 28.8026L23.4448 26.9367ZM26.3785 23.4995V6.52432L28.1395 5.22345V24.7646L26.3785 23.4995Z" fill="#2B5C6B"/>
</svg>
