<svg width="51" height="20" viewBox="0 0 51 20" fill="none" xmlns="http://www.w3.org/2000/svg">
<path d="M29.3248 5.90421C29.3248 8.8746 27.2423 10.995 24.3321 10.995H21.5904C21.5601 10.995 21.5301 11.001 21.5022 11.0126C21.4742 11.0242 21.4489 11.0413 21.4275 11.0627C21.4062 11.0842 21.3893 11.1096 21.3778 11.1377C21.3663 11.1657 21.3605 11.1957 21.3606 11.2259V15.1299C21.3606 15.191 21.3364 15.2495 21.2934 15.2928C21.2503 15.3361 21.1919 15.3605 21.1308 15.3608H19.2123C19.1667 15.3606 19.1221 15.3469 19.0842 15.3216C19.0463 15.2962 19.0168 15.2602 18.9992 15.2181C18.9877 15.1905 18.9816 15.1609 18.9814 15.131V1.04317C18.9812 1.0129 18.9871 0.982899 18.9986 0.954892C19.01 0.926885 19.0269 0.901422 19.0483 0.879967C19.0696 0.858512 19.095 0.841487 19.123 0.82987C19.1509 0.818252 19.1809 0.812273 19.2112 0.812273H24.3444C27.2423 0.808927 29.3248 2.92936 29.3248 5.90421ZM26.9322 5.90421C26.9322 4.19649 25.7677 2.94832 24.1882 2.94832H21.5904C21.5601 2.94832 21.5301 2.9543 21.5022 2.96592C21.4742 2.97754 21.4489 2.99456 21.4275 3.01602C21.4062 3.03747 21.3893 3.06293 21.3778 3.09094C21.3663 3.11895 21.3605 3.14895 21.3606 3.17921V8.61582C21.3606 8.67676 21.3848 8.73521 21.4279 8.7783C21.471 8.82139 21.5294 8.8456 21.5904 8.8456H24.1882C25.7677 8.85676 26.9322 7.60747 26.9322 5.90421ZM29.8936 12.6581C29.8737 12.2026 29.968 11.7493 30.1679 11.3394C30.3677 10.9295 30.6669 10.5761 31.0381 10.3113C31.7865 9.74798 32.9566 9.45686 34.6744 9.39662L36.5037 9.33193V8.79206C36.5037 7.71009 35.7786 7.25277 34.6141 7.25277C33.4496 7.25277 32.7112 7.66547 32.5417 8.34031C32.5279 8.38777 32.4987 8.42929 32.4587 8.45836C32.4187 8.48744 32.3702 8.50241 32.3208 8.50093H30.5138C30.4805 8.50184 30.4475 8.49541 30.417 8.48208C30.3865 8.46876 30.3593 8.44887 30.3374 8.42384C30.3154 8.39882 30.2993 8.36926 30.29 8.33728C30.2808 8.30529 30.2788 8.27167 30.284 8.23881C30.5517 6.63928 31.8825 5.42346 34.6967 5.42346C37.6905 5.42346 38.7713 6.81775 38.7713 9.47916V15.1299C38.7708 15.1916 38.7458 15.2505 38.7019 15.2937C38.658 15.337 38.5987 15.3611 38.5371 15.3608H36.7156C36.6547 15.3607 36.5962 15.3366 36.5528 15.2939C36.5314 15.2725 36.5146 15.2471 36.5031 15.2191C36.4916 15.1912 36.4857 15.1613 36.4858 15.131V14.7083C36.4865 14.6734 36.4766 14.639 36.4573 14.6099C36.4381 14.5807 36.4105 14.558 36.3781 14.5449C36.3457 14.5317 36.3101 14.5287 36.276 14.5361C36.2419 14.5436 36.2108 14.5612 36.1869 14.5867C35.6403 15.1812 34.758 15.6107 33.3448 15.6107C31.2656 15.6107 29.8936 14.5287 29.8936 12.6581ZM36.5037 11.4334V10.995L34.1345 11.12C32.8863 11.1835 32.1602 11.7022 32.1602 12.5756C32.1602 13.3653 32.8261 13.8026 33.9895 13.8026C35.5701 13.8026 36.5037 12.9493 36.5037 11.4334ZM40.6007 19.6307V17.9932C40.601 17.9589 40.6089 17.9251 40.6238 17.8941C40.6387 17.8632 40.6602 17.8359 40.6868 17.8142C40.7134 17.7924 40.7444 17.7768 40.7778 17.7685C40.8111 17.7601 40.8458 17.7592 40.8795 17.7657C41.1584 17.8181 41.4428 17.8449 41.7272 17.846C42.2162 17.8698 42.6991 17.7288 43.0985 17.4457C43.4979 17.1626 43.7907 16.7537 43.9302 16.2844L44.0484 15.9074C44.0656 15.8567 44.0656 15.8019 44.0484 15.7512L40.2526 6.00237C40.2389 5.96703 40.234 5.92888 40.2382 5.89121C40.2425 5.85354 40.2559 5.81747 40.2771 5.78609C40.2984 5.75472 40.327 5.72898 40.3604 5.71108C40.3939 5.69319 40.4311 5.68367 40.469 5.68336H42.3095C42.3565 5.68384 42.4023 5.69846 42.4409 5.72531C42.4795 5.75217 42.5091 5.79002 42.5259 5.83394L45.1036 12.7094C45.1198 12.7551 45.1497 12.7947 45.1892 12.8226C45.2288 12.8506 45.2761 12.8656 45.3245 12.8656C45.3729 12.8656 45.4202 12.8506 45.4598 12.8226C45.4993 12.7947 45.5292 12.7551 45.5454 12.7094L47.784 5.8529C47.7995 5.80604 47.8295 5.76527 47.8695 5.73642C47.9096 5.70758 47.9577 5.69213 48.0071 5.69228H49.9111C49.9493 5.69251 49.9868 5.70197 50.0205 5.71984C50.0542 5.73771 50.0831 5.76347 50.1047 5.79492C50.1263 5.82637 50.1399 5.86258 50.1445 5.90045C50.149 5.93832 50.1444 5.97673 50.1309 6.01241L46.0707 16.8388C45.136 19.3552 43.5331 19.9988 41.7685 19.9988C41.4339 20.0077 41.0992 19.9676 40.7758 19.8794C40.722 19.8652 40.6749 19.8325 40.6429 19.787C40.6109 19.7415 40.5959 19.6861 40.6007 19.6307ZM6.65254 0.000240202C4.23438 -0.0169883 1.90156 0.893146 0.13397 2.54342C0.05838 2.61265 0.0112559 2.70753 0.00177145 2.80959C-0.00771298 2.91165 0.021121 3.01359 0.08266 3.09556L1.1769 4.59023C1.21237 4.64 1.25832 4.68139 1.31151 4.71148C1.36469 4.74158 1.42383 4.75966 1.48476 4.76444C1.54568 4.76923 1.60692 4.7606 1.66415 4.73918C1.72139 4.71775 1.77323 4.68405 1.81604 4.64043C2.45162 4.00501 3.20748 3.50264 4.03944 3.1627C4.8714 2.82275 5.76277 2.65204 6.66147 2.66054C10.4138 2.66054 12.3736 5.48481 12.3736 8.27338C12.3736 11.3051 10.3145 13.4378 7.35526 13.4802C5.06863 13.4802 3.34529 11.9643 3.34529 9.96215C3.34768 9.45633 3.46227 8.95734 3.68081 8.50116C3.89935 8.04499 4.21639 7.64299 4.60908 7.32415C4.69209 7.25481 4.74456 7.15565 4.7552 7.048C4.76584 6.94036 4.7338 6.83284 4.66596 6.74859L3.51595 5.2963C3.48118 5.25238 3.43795 5.21588 3.38883 5.18894C3.33971 5.162 3.28569 5.14517 3.22997 5.13945C3.17424 5.13373 3.11793 5.13924 3.06436 5.15564C3.01079 5.17204 2.96106 5.19901 2.91808 5.23495C2.21181 5.80398 1.64187 6.52388 1.25005 7.34187C0.858238 8.15985 0.654493 9.05517 0.65376 9.96215C0.65376 13.4088 3.58288 16.1126 7.33519 16.1349H7.38538C11.8404 16.0769 15.0618 12.7775 15.0618 8.26781C15.0618 4.26341 12.1126 0.000240202 6.65366 0.000240202H6.65254Z" fill="white"/>
</svg>
