<?xml version="1.0" encoding="UTF-8"?>
<svg version="1.1" xmlns="http://www.w3.org/2000/svg" width="629" height="189">
<path d="M0 0 C1.08090266 0.00129972 1.08090266 0.00129972 2.18364173 0.0026257 C2.94388705 -0.00034542 3.70413237 -0.00331654 4.48741543 -0.0063777 C7.05456953 -0.01510266 9.6216772 -0.01657615 12.18884498 -0.01806521 C14.0215995 -0.02269081 15.85435306 -0.02771512 17.68710548 -0.03311038 C22.68109114 -0.04626379 27.67506334 -0.05268539 32.66906363 -0.05712104 C35.78731101 -0.06004785 38.90555468 -0.06415196 42.02380019 -0.06862521 C51.77454777 -0.08230968 61.5252869 -0.09197092 71.27604342 -0.0958271 C82.5414173 -0.10030629 93.80666975 -0.11784376 105.0720067 -0.1468277 C113.77183886 -0.16843555 122.47163684 -0.17853095 131.17149556 -0.17986822 C136.37073315 -0.18091716 141.56985675 -0.18684351 146.76906615 -0.20468783 C151.66180351 -0.22115234 156.554341 -0.22333187 161.44709617 -0.21454883 C163.24258361 -0.21377751 165.03808171 -0.21813367 166.83354217 -0.22800708 C169.28609244 -0.24070214 171.73793234 -0.23486324 174.19047767 -0.22442508 C174.89992583 -0.23248148 175.609374 -0.24053789 176.34032059 -0.24883842 C180.94487384 -0.20305275 184.08706672 0.73318764 188.00451881 3.1430676 C191.00573543 7.40598769 190.51620288 12.15006981 190.00451881 17.1430676 C188.93503255 22.39218994 187.51427698 27.52659229 186.05920631 32.67822385 C185.64693668 34.16676532 185.23533811 35.6554928 184.82437354 37.14439511 C183.96364466 40.25067191 183.09338193 43.35407674 182.21643287 46.45581174 C181.10054941 50.40639506 180.01117079 54.36372789 178.92918426 58.32370973 C178.08617335 61.39582829 177.22789178 64.46352582 176.3652404 67.53018117 C175.95769813 68.98667254 175.55503411 70.44453905 175.15762168 71.90382695 C172.55783912 81.41228664 169.88011018 90.09736412 162.06701881 96.5805676 C156.64061435 99.3491413 151.52985485 100.39105417 145.46815711 100.4215405 C143.56053848 100.43828572 143.56053848 100.43828572 141.61438209 100.45536923 C140.22302496 100.45773365 138.83166751 100.4599094 137.44030982 100.46191525 C135.96145807 100.47122273 134.48261153 100.48139261 133.00377113 100.49235654 C129.00432422 100.51957833 125.00491239 100.53478266 121.00539738 100.54778457 C116.82000009 100.56344944 112.63467405 100.59022892 108.44932777 100.6158154 C100.53057747 100.66254386 92.61181369 100.69931664 84.69299626 100.73248827 C75.67482356 100.77075164 66.65672253 100.82015074 57.6386103 100.87047243 C39.09396564 100.97370402 20.54927719 101.06299288 2.00451881 101.1430676 C-0.35742571 105.71868331 -1.98342159 110.14595211 -3.26501244 115.1196301 C-3.46673058 115.87929578 -3.66844872 116.63896146 -3.87627953 117.42164731 C-4.30487685 119.03733152 -4.73070611 120.65375221 -5.15395898 122.2708447 C-6.24834677 126.44949519 -7.3643857 130.62234811 -8.47985619 134.79541135 C-8.69730996 135.61046643 -8.91476372 136.42552152 -9.138807 137.26527524 C-10.84810673 143.64981825 -12.64555786 150.0035983 -14.55798119 156.3305676 C-14.79686059 157.12350217 -15.03573998 157.91643674 -15.28185815 158.73339963 C-16.84622223 163.84454968 -16.84622223 163.84454968 -17.99548119 166.1430676 C-29.21548119 166.1430676 -40.43548119 166.1430676 -51.99548119 166.1430676 C-47.39223454 147.73008099 -47.39223454 147.73008099 -45.5694558 141.13818479 C-45.35911202 140.37174146 -45.14876824 139.60529813 -44.93205041 138.81562924 C-44.25628625 136.35642337 -43.57747844 133.89807623 -42.89782494 131.4399426 C-42.5448695 130.16208261 -42.5448695 130.16208261 -42.18478364 128.85840726 C-40.94535921 124.37269187 -39.70327291 119.8877232 -38.45910424 115.4033215 C-37.17856629 110.78544373 -35.90823756 106.16481821 -34.63995808 101.54356122 C-33.65661108 97.96805579 -32.66554552 94.39472327 -31.67236298 90.82193875 C-31.20016044 89.11792499 -30.73091318 87.41308934 -30.26472062 85.70742154 C-29.61538497 83.33432218 -28.95512179 80.96452555 -28.29211205 78.59521604 C-28.00914269 77.54643025 -28.00914269 77.54643025 -27.72045678 76.47645688 C-26.67170691 72.77723372 -25.74659219 69.86529382 -22.99548119 67.1430676 C-20.04947156 66.63525891 -20.04947156 66.63525891 -16.37067956 66.62408566 C-15.35615544 66.61283379 -15.35615544 66.61283379 -14.32113588 66.6013546 C-12.04992121 66.58101969 -9.77969937 66.58919073 -7.50842065 66.59716916 C-5.88237297 66.58843723 -4.25633389 66.57795278 -2.63030785 66.56584287 C1.78886305 66.53791542 6.20775452 66.53457966 10.62700087 66.53556275 C15.24353031 66.53243942 19.85993281 66.50683337 24.47639686 66.48358274 C33.22049757 66.44297463 41.96452361 66.42267075 50.70870411 66.40960884 C60.66270219 66.39375505 70.6165729 66.35534631 80.57049721 66.31501555 C101.04846244 66.23255081 121.52642176 66.17849982 142.00451881 66.1430676 C142.15147193 65.52045041 142.29842506 64.89783322 142.44983131 64.25634885 C144.99403396 53.77247931 148.03070291 43.55142322 151.00451881 33.1430676 C96.55451881 33.1430676 42.10451881 33.1430676 -13.99548119 33.1430676 C-12.67548119 27.8630676 -11.35548119 22.5830676 -9.99548119 17.1430676 C-9.58942651 15.48404416 -9.18337182 13.82502072 -8.76501244 12.11572385 C-8.60194604 11.44992307 -8.43887963 10.78412229 -8.27087182 10.09814572 C-7.94809397 8.77843376 -7.62798805 7.45806666 -7.30993432 6.13720822 C-5.9384241 0.56787727 -5.78504129 0.03420297 0 0 Z " fill="#414042" transform="translate(273.99548119306564,10.856932401657104)"/>
<path d="M0 0 C1.29228516 0.01611328 2.58457031 0.03222656 3.91601562 0.04882812 C5.27085032 0.09059851 6.62566803 0.13292316 7.98046875 0.17578125 C9.35477741 0.20088056 10.72912991 0.22369089 12.10351562 0.24414062 C15.45944851 0.30301664 18.81314965 0.38521705 22.16796875 0.48828125 C20.65027957 9.02059816 18.3939931 17.33055858 16.08984375 25.67578125 C15.68177684 27.16334232 15.27398738 28.65097952 14.86645508 30.13868713 C13.77896608 34.10484575 12.68702972 38.06976665 11.59403992 42.03441238 C10.69032974 45.31452014 9.78920183 48.5953351 8.8880043 51.87613392 C1.40723586 79.10610041 -6.16671403 106.30966534 -13.83203125 133.48828125 C-10.83846176 134.48613775 -8.87179798 134.61397708 -5.74597168 134.61526489 C-4.16863503 134.61949463 -4.16863503 134.61949463 -2.55943298 134.62380981 C-1.40608963 134.62178558 -0.25274628 134.61976135 0.93554688 134.61767578 C2.1503624 134.6194281 3.36517792 134.62118042 4.61680603 134.62298584 C7.94938997 134.62663652 11.28191193 134.62577569 14.61449242 134.62260675 C18.10045836 134.62007679 21.58642165 134.62242247 25.0723877 134.62399292 C30.92668127 134.62581275 36.78096224 134.62341319 42.63525391 134.61865234 C49.40570286 134.61321008 56.1761217 134.61497287 62.94656992 134.62047875 C68.75724753 134.62501518 74.56791607 134.62565782 80.37859488 134.62304008 C83.85006294 134.62148023 87.32151685 134.62127557 90.79298401 134.62457657 C94.66213148 134.62799865 98.53124515 134.62325686 102.40039062 134.61767578 C103.55373398 134.61970001 104.70707733 134.62172424 105.89537048 134.62380981 C107.47270714 134.61958008 107.47270714 134.61958008 109.08190918 134.61526489 C110.4546059 134.61469935 110.4546059 134.61469935 111.85503387 134.61412239 C114.32798868 134.58173096 114.32798868 134.58173096 117.16796875 133.48828125 C120.3063468 126.51883686 122.08512416 119.01009074 124.125 111.66015625 C124.50851614 110.28767598 124.89228606 108.9152666 125.27629089 107.54292297 C126.30310133 103.86929509 127.32511893 100.1943493 128.34619141 96.51912308 C128.98128841 94.23533378 129.6181384 91.95204086 130.25561523 89.66891479 C134.7234452 73.66682326 139.15107529 57.65538703 143.4296875 41.6015625 C143.75282425 40.39065948 144.075961 39.17975647 144.40888977 37.93215942 C145.91484831 32.28116566 147.41027966 26.62767512 148.88989258 20.96972656 C149.41992928 18.96675576 149.95011223 16.96382365 150.48046875 14.9609375 C150.71090378 14.06514481 150.94133881 13.16935211 151.17875671 12.24641418 C153.55700731 3.31922947 153.55700731 3.31922947 156.16796875 0.48828125 C158.81683943 0.02960662 160.82231112 -0.09948254 163.4609375 0 C164.51998039 0.01061211 164.51998039 0.01061211 165.60041809 0.0214386 C167.85318459 0.04940595 170.10345523 0.11213791 172.35546875 0.17578125 C173.88342761 0.20086159 175.41142548 0.22367524 176.93945312 0.24414062 C180.68325181 0.29923881 184.42518734 0.38551839 188.16796875 0.48828125 C187.54544175 6.71580515 186.23604858 12.49992119 184.5625 18.5234375 C184.29067398 19.51861893 184.01884796 20.51380035 183.73878479 21.53913879 C182.82497398 24.87792515 181.90287802 28.21436099 180.98046875 31.55078125 C180.32667907 33.93041709 179.67320489 36.31013962 179.02001953 38.68994141 C176.74686528 46.95906853 174.45846567 55.2239438 172.16796875 63.48828125 C171.7133169 65.12925185 171.25866604 66.77022272 170.80401611 68.41119385 C167.39025837 80.7303901 163.96874133 93.04742119 160.54296875 105.36328125 C160.30284184 106.22681843 160.06271492 107.09035561 159.81531143 107.98006058 C158.41194871 113.02646665 157.0070773 118.0724485 155.60004997 123.11783409 C155.17101701 124.65682721 154.74236441 126.19592644 154.31414986 127.73514748 C153.14258449 131.94533259 151.96306233 136.15312684 150.77092743 140.35753632 C150.35183183 141.83854298 149.93505337 143.32020652 149.5200882 144.80237579 C148.86749116 147.12825357 148.20554308 149.45129215 147.54150391 151.77392578 C147.34448065 152.48204344 147.14745739 153.19016109 146.94446373 153.91973686 C145.39483049 159.28315421 143.79990595 163.2498481 139.16796875 166.48828125 C130.82072793 169.08593965 122.33792157 168.77795556 113.68359375 168.76293945 C112.02201103 168.76729242 110.36043031 168.77247751 108.69885254 168.77842712 C104.20716609 168.79176349 99.71556407 168.79240194 95.22386169 168.78986382 C91.46643528 168.78879075 87.70902572 168.79368591 83.95160294 168.79846925 C75.08490985 168.80954525 66.21825915 168.81001217 57.3515625 168.80395508 C48.21915914 168.79791226 39.08690973 168.8102385 29.95453262 168.83152515 C22.09778998 168.84916174 14.24109626 168.85513937 6.38433456 168.8518874 C1.69876666 168.85007815 -2.98669133 168.85267522 -7.67224121 168.86660194 C-12.07839424 168.8792097 -16.48430766 168.87720841 -20.89045715 168.86419106 C-22.50246767 168.86183238 -24.11449522 168.86453445 -25.72648621 168.87281418 C-45.05709309 168.96490473 -45.05709309 168.96490473 -50.86351013 163.61734009 C-55.39065616 153.66550725 -49.7209835 140.36052333 -46.890625 130.52734375 C-46.36924148 128.67231073 -45.84927977 126.81687758 -45.3306427 124.96107483 C-43.94680779 120.02387409 -42.54432869 115.09216337 -41.13752747 110.16146469 C-39.68763582 105.06981151 -38.25295889 99.97387815 -36.81738281 94.87817383 C-35.10022375 88.78558567 -33.38183883 82.69336388 -31.65579224 76.60328674 C-28.55538834 65.65746546 -25.50074432 54.70174532 -22.5470295 43.7154007 C-22.01878908 41.75174139 -21.48832998 39.7886964 -20.95701599 37.8258667 C-19.06025916 30.82034055 -19.06025916 30.82034055 -17.19381714 23.80670166 C-16.38487628 20.74192447 -15.55614263 17.68317573 -14.72265625 14.625 C-14.4997139 13.75537125 -14.27677155 12.88574249 -14.04707336 11.98976135 C-11.8505266 4.07179424 -8.77868063 -0.19336301 0 0 Z " fill="#414042" transform="translate(57.83203125,10.51171875)"/>
<path d="M0 0 C0.66 0 1.32 0 2 0 C8.93 13.365 8.93 13.365 16 27 C17.60887394 23.78225211 18.59336789 21.21610269 19.5078125 17.796875 C19.77207031 16.8171875 20.03632812 15.8375 20.30859375 14.828125 C20.57800781 13.81234375 20.84742188 12.7965625 21.125 11.75 C21.54072266 10.203125 21.54072266 10.203125 21.96484375 8.625 C22.64706002 6.0843325 23.32529719 3.54267116 24 1 C24.99 1 25.98 1 27 1 C27.28085449 1.5669458 27.56170898 2.1338916 27.85107422 2.71801758 C32.6360422 12.36462949 37.42979589 21.99962851 42.5 31.5 C47.37360463 40.70616097 52.13981276 49.96867734 56.85449219 59.25708008 C57.74031271 60.9967602 58.63107577 62.73393282 59.52685547 64.46850586 C60.79571385 66.92812813 62.04623802 69.39629159 63.29296875 71.8671875 C63.68199875 72.61229584 64.07102875 73.35740417 64.47184753 74.12509155 C66.03810507 77.26955364 67.03579902 79.27361211 66.8605957 82.82861328 C64.61186135 88.50244117 59.69427517 92.2311905 55.171875 96.08203125 C52.84749602 98.13467527 50.67559406 100.29064672 48.5 102.5 C45.79196435 105.24500542 43.05830751 107.8727091 40.125 110.375 C36.75442235 113.26214819 33.61496479 116.34247378 30.5 119.5 C27.44662714 122.59492241 24.37676268 125.61934317 21.0625 128.4375 C16.9580986 131.93509051 13.21706583 135.75533727 9.4309082 139.58862305 C6.03353138 143.01184772 2.53248476 146.23580676 -1.14453125 149.359375 C-3.17489932 151.15464782 -5.04930294 153.05615862 -6.9375 155 C-10.97130174 159.10597712 -15.38074853 162.57833224 -20 166 C-21.47816027 163.04367945 -20.43812449 161.26760781 -19.56640625 158.1171875 C-19.24736328 156.95058594 -18.92832031 155.78398437 -18.59960938 154.58203125 C-18.08624023 152.74705078 -18.08624023 152.74705078 -17.5625 150.875 C-17.22412109 149.64394531 -16.88574219 148.41289062 -16.53710938 147.14453125 C-15.69776945 144.09453546 -14.85180406 141.04653393 -14 138 C-14.4125 138.41773682 -14.825 138.83547363 -15.25 139.26586914 C-29.9935314 154.17189203 -29.9935314 154.17189203 -37 160 C-38.33444267 161.14454121 -39.66781059 162.2903369 -41 163.4375 C-41.99 164.283125 -42.98 165.12875 -44 166 C-45.31477709 162.05566873 -44.22949567 159.3087897 -43.13598633 155.44848633 C-42.92403657 154.67475268 -42.71208681 153.90101904 -42.49371433 153.10383892 C-41.78121529 150.51093872 -41.05662085 147.92157649 -40.33203125 145.33203125 C-39.82346121 143.49096402 -39.31563398 141.64969146 -38.8085022 139.80822754 C-37.43750812 134.83825222 -36.05607038 129.87123427 -34.6726799 124.90469742 C-33.24135539 119.75933429 -31.81955435 114.61134138 -30.39672852 109.46362305 C-27.78730534 100.02864774 -25.1693753 90.59605827 -22.54724598 81.16460705 C-20.64512097 74.32269346 -18.74558471 67.4800684 -16.84863281 60.63671875 C-16.59849961 59.7343665 -16.34836641 58.83201426 -16.09065342 57.902318 C-15.59633421 56.11902657 -15.10202088 54.3357335 -14.6077137 52.55243874 C-9.7506583 35.03156509 -4.88053147 17.5143482 0 0 Z " fill="#F47921" transform="translate(557,11)"/>
<path d="M0 0 C1.02787125 0.00212242 1.02787125 0.00212242 2.07650757 0.00428772 C4.26719511 0.0098895 6.4577808 0.02244219 8.6484375 0.03515625 C10.13281102 0.04017103 11.61718615 0.04473397 13.1015625 0.04882812 C16.74222065 0.05985948 20.38281914 0.07712526 24.0234375 0.09765625 C16.33614844 28.17624576 8.61509504 56.24501532 0.80175781 84.28881836 C-2.4403598 95.9314975 -5.6620452 107.57938662 -8.84816742 119.23749733 C-9.40586701 121.27728088 -9.96428976 123.31686489 -10.52301025 125.35636902 C-10.70539246 126.02212605 -10.88777466 126.68788309 -11.07568359 127.37381458 C-11.44116716 128.7078386 -11.80668616 130.04185292 -12.17224121 131.37585735 C-13.06660814 134.64111103 -13.95874627 137.90694396 -14.84613037 141.17410278 C-15.82884228 144.78926828 -16.81806283 148.40259542 -17.80859375 152.015625 C-18.10060165 153.09727936 -18.39260956 154.17893372 -18.69346619 155.29336548 C-19.10200584 156.77659805 -19.10200584 156.77659805 -19.51879883 158.28979492 C-19.75335281 159.1506218 -19.9879068 160.01144867 -20.22956848 160.89836121 C-20.9765625 163.09765625 -20.9765625 163.09765625 -22.9765625 166.09765625 C-26.42627357 167.47704645 -30.04280329 167.21140081 -33.7109375 167.1953125 C-35.00644531 167.19208984 -36.30195313 167.18886719 -37.63671875 167.18554688 C-39.00000067 167.17719223 -40.36328192 167.16872729 -41.7265625 167.16015625 C-43.10546715 167.15513793 -44.48437354 167.1505756 -45.86328125 167.14648438 C-49.23441909 167.13469718 -52.60546878 167.1182426 -55.9765625 167.09765625 C-55.33760278 159.15629973 -53.07486096 151.6675444 -50.9140625 144.03515625 C-50.47319358 142.46148042 -50.03252693 140.88774792 -49.59204102 139.31396484 C-46.90474366 129.74921652 -44.14248046 120.20684723 -41.3515625 110.671875 C-41.03459412 109.58870499 -40.71762573 108.50553497 -40.39105225 107.38954163 C-39.06308354 102.85289536 -37.73500224 98.31628509 -36.40393066 93.7805481 C-32.22893559 79.54037778 -28.16865393 65.27586871 -24.2734375 50.95703125 C-24.07945436 50.24469707 -23.88547123 49.5323629 -23.68560982 48.79844284 C-21.78039002 41.80004725 -19.88332908 34.79957752 -18.00926399 27.79277039 C-17.48368539 25.83161612 -16.95486337 23.87136917 -16.42474365 21.91143799 C-15.77673676 19.51353139 -15.13472662 17.11399308 -14.49981689 14.71258545 C-14.21072449 13.64711487 -13.92163208 12.58164429 -13.6237793 11.48388672 C-13.37669724 10.5594577 -13.12961517 9.63502869 -12.87504578 8.68258667 C-10.20941091 1.01357287 -7.84865481 -0.0319051 0 0 Z " fill="#414042" transform="translate(500.9765625,9.90234375)"/>
<path d="M0 0 C2.34621164 2.14549091 3.74635414 4.14502169 5.12890625 7 C5.51812256 7.79325684 5.90733887 8.58651367 6.30834961 9.40380859 C6.72221924 10.26055176 7.13608887 11.11729492 7.5625 12 C8.4696431 13.84719544 9.37853477 15.69353308 10.2890625 17.5390625 C10.74700195 18.46750977 11.20494141 19.39595703 11.67675781 20.35253906 C13.53116577 24.06272355 15.4812974 27.7178254 17.4375 31.375 C22.33207915 40.62353825 27.11937493 49.92856955 31.85549927 59.25909424 C32.74089609 60.99791809 33.63123469 62.73423476 34.52658081 64.46795654 C35.7955323 66.92776113 37.04614684 69.39610829 38.29296875 71.8671875 C38.8765213 72.98486511 38.8765213 72.98486511 39.47186279 74.12512207 C41.03811463 77.26957288 42.03579843 79.27362418 41.8605957 82.82861328 C39.61186135 88.50244117 34.69427517 92.2311905 30.171875 96.08203125 C27.84749602 98.13467527 25.67559406 100.29064672 23.5 102.5 C20.79196435 105.24500542 18.05830751 107.8727091 15.125 110.375 C11.75442235 113.26214819 8.61496479 116.34247378 5.5 119.5 C2.44662714 122.59492241 -0.62323732 125.61934317 -3.9375 128.4375 C-8.0419014 131.93509051 -11.78293417 135.75533727 -15.5690918 139.58862305 C-18.96646862 143.01184772 -22.46751524 146.23580676 -26.14453125 149.359375 C-28.17489932 151.15464782 -30.04930294 153.05615862 -31.9375 155 C-35.97130174 159.10597712 -40.38074853 162.57833224 -45 166 C-47.88949006 160.22101989 -42.57181924 149.16984776 -40.71484375 143.06640625 C-37.40631095 133.497672 -31.86536616 128.02028337 -24 122 C-22.59599979 120.78017018 -21.19849424 119.55275052 -19.8125 118.3125 C-19.21050781 117.80332031 -18.60851562 117.29414063 -17.98828125 116.76953125 C-14.87947651 114.00275611 -11.99361177 111.01404421 -9.07226562 108.05273438 C-5.80924135 104.76248041 -2.42683716 101.69196434 1.09375 98.68359375 C3.91254154 96.1940463 6.54469279 93.53686276 9.1640625 90.83984375 C11 89 11 89 14.0625 86.4375 C16.31779543 84.12846887 16.31779543 84.12846887 15.95703125 81.0078125 C15.00804717 75.67953989 12.19202203 71.13436737 9.625 66.4375 C8.53942952 64.39242316 7.45481899 62.34683652 6.37109375 60.30078125 C4.70073042 57.17266389 3.02558489 54.04736855 1.34033203 50.92724609 C-0.23130894 48.00360489 -1.7738931 45.06612763 -3.3125 42.125 C-3.79831543 41.24126709 -4.28413086 40.35753418 -4.78466797 39.44702148 C-7.87874629 33.47548444 -8.58302947 29.52705569 -7 23 C-6.78641846 22.09266113 -6.57283691 21.18532227 -6.3527832 20.25048828 C-5.61846906 17.31766567 -4.82033163 14.4098556 -4 11.5 C-3.72671875 10.4996875 -3.4534375 9.499375 -3.171875 8.46875 C-1.14074248 1.14074248 -1.14074248 1.14074248 0 0 Z " fill="#008C44" transform="translate(582,11)"/>
</svg>
